<svg width="56" height="56" viewBox="0 0 56 56" fill="none" xmlns="http://www.w3.org/2000/svg">
<path d="M55.753 38.2921L51.8902 34.4294C51.5606 34.1 51.0266 34.1 50.6971 34.4294C50.3677 34.7589 50.3677 35.2931 50.6971 35.6224L51.2351 36.1603L38.2674 49.1282L33.6413 44.5021L46.6092 31.5344L47.9312 32.8564C48.2608 33.1858 48.7948 33.1858 49.1243 32.8564C49.4537 32.5269 49.4537 31.9927 49.1243 31.6634L47.2104 29.7495C45.6941 28.1947 44.6978 26.4232 43.2942 24.7609C44.8978 22.6073 43.2008 19.4542 40.5296 19.5853C40.6179 17.7096 39.0152 16.0983 37.1335 16.1874C37.2216 14.3127 35.6129 12.6986 33.7347 12.7905C33.8804 9.69574 30.0123 8.30378 27.9997 10.5389L27.8011 10.3403C26.5355 9.07473 24.4762 9.07473 23.2107 10.3403C22.5381 11.0128 22.223 11.9095 22.2652 12.7922C20.3867 12.7022 18.7775 14.3063 18.8665 16.1894C18.1181 16.1539 17.3603 16.3763 16.7371 16.8546C15.5902 16.4501 14.3363 16.5967 13.2257 17.2807C11.8566 18.124 10.9997 19.5909 10.9788 21.12L10.0231 28.5161L0.247095 38.2921C-0.082365 38.6215 -0.082365 39.1557 0.247095 39.4851L14.4078 53.6459C14.5725 53.8107 14.7884 53.893 15.0043 53.893C15.2202 53.893 15.4361 53.8107 15.6008 53.6459L24.148 45.0987C24.4774 44.7692 24.4774 44.2351 24.148 43.9057L22.712 42.4698C24.3241 40.8578 25.941 40.0412 27.9998 39.1111C30.0427 40.0341 31.6898 40.8721 33.2876 42.4698L31.8516 43.9057C31.6935 44.0639 31.6046 44.2785 31.6046 44.5022C31.6046 44.7259 31.6935 44.9406 31.8516 45.0987L40.3988 53.6459C40.5636 53.8106 40.7796 53.893 40.9954 53.893C41.2113 53.893 41.4272 53.8107 41.592 53.6459L55.7529 39.4852C55.911 39.327 55.9999 39.1124 55.9999 38.8887C55.9999 38.665 55.9111 38.4502 55.753 38.2921ZM40.685 21.2687C41.7772 21.27 42.5543 22.4583 42.1106 23.4589C41.4326 22.7672 40.7428 22.0869 40.0579 21.402C40.267 21.3574 40.476 21.3131 40.685 21.2687ZM37.2872 17.8708C38.3894 17.8722 39.1554 19.0565 38.7131 20.0604C37.9878 19.3517 37.1681 18.7121 36.2514 18.269C36.5474 18.0083 36.8926 17.8756 37.2872 17.8708ZM14.4104 24.1282L14.2117 23.9296C13.604 23.3218 13.604 22.333 14.2117 21.7253C14.5157 21.4214 14.9148 21.2695 15.3138 21.2695C15.7129 21.2695 16.1121 21.4214 16.4159 21.7253L16.6145 21.9238L15.5124 23.0259L14.4104 24.1282ZM24.4038 11.5333C24.7077 11.2294 25.1068 11.0775 25.5059 11.0775C25.9049 11.0775 26.3041 11.2294 26.608 11.5333L26.8066 11.7319L24.6023 13.9362L24.4036 13.7376C23.796 13.1298 23.796 12.141 24.4038 11.5333ZM20.5499 16.0328C20.5499 15.6165 20.712 15.225 21.0065 14.9307C21.3104 14.6268 21.7095 14.4749 22.1086 14.4749C22.5076 14.4749 22.9068 14.6268 23.2107 14.9307L23.4093 15.1293L22.3072 16.2314L21.205 17.3335L21.0063 17.1349C20.712 16.8405 20.5499 16.4491 20.5499 16.0328ZM18.7111 17.8722C19.1102 17.8722 19.5095 18.0241 19.8132 18.328L20.0119 18.5266L17.8076 20.7309L17.6089 20.5323C17.0012 19.9245 17.0012 18.9357 17.6089 18.328C17.913 18.024 18.3119 17.8722 18.7111 17.8722ZM14.1105 18.7173C14.4329 18.5188 14.9927 18.2642 15.658 18.3303C15.5131 18.7348 15.4502 19.1623 15.4705 19.5869C14.3868 19.5349 13.314 20.0508 12.6794 20.9317C12.7667 20.061 13.3081 19.2115 14.1105 18.7173ZM15.0043 51.8563L2.03669 38.8886L3.57184 37.3534L16.5395 50.3211L15.0043 51.8563ZM31.7596 38.9573C31.1646 38.5875 30.5332 38.2754 29.8778 38.0273C30.7179 37.4225 31.4276 36.6764 32.1565 35.9476C32.4859 35.6181 32.4859 35.084 32.1565 34.7546C31.8269 34.4252 31.2928 34.4252 30.9634 34.7546C29.9401 35.7779 28.9405 36.7682 27.6246 37.4223C25.319 38.5751 23.3747 39.4212 21.5193 41.2766L14.3463 34.1036C14.0168 33.7741 13.4826 33.7741 13.1533 34.1036C12.8238 34.433 12.8238 34.9672 13.1533 35.2966L22.3587 44.502L17.7328 49.128L4.76483 36.1604L9.39077 31.5345L10.2261 32.3698C10.5555 32.6992 11.0897 32.6992 11.419 32.3698C11.7485 32.0403 11.7485 31.5061 11.419 31.1768L10.5838 30.3415L11.4194 29.5059C11.5512 29.374 11.6356 29.2023 11.6595 29.0175L12.3028 24.039C12.6101 24.8059 13.2433 25.3474 13.8122 25.9162C14.1421 26.2463 14.6839 26.241 15.0069 25.9179L29.3919 11.5328C30.7976 10.1271 33.0068 12.3274 31.5965 13.7376C31.4319 13.9022 31.3495 14.1182 31.3495 14.3341C31.3495 14.5499 31.4319 14.7659 31.5965 14.9305C31.9261 15.26 32.4602 15.26 32.7896 14.9305C34.2116 13.5085 36.4154 15.713 34.9936 17.1345C34.8289 17.2992 34.7466 17.5152 34.7466 17.731C34.7466 17.5361 28.0449 17.6271 27.5029 17.6271C23.8302 17.6271 23.2204 23.0663 26.8498 23.7746L31.0328 25.0134C31.6861 25.2067 32.2864 25.5639 32.7689 26.0466L36.2202 29.4978L33.7849 31.9331C33.4553 32.2626 33.4553 32.7966 33.7848 33.1261C34.1142 33.4556 34.6484 33.4556 34.9777 33.1261L38.0097 30.0943C38.168 29.9361 38.2568 29.7215 38.2568 29.4978C38.2568 29.274 38.168 29.0594 38.0098 28.9013L33.9621 24.8536C33.2812 24.1726 32.4337 23.6684 31.5118 23.3957L27.2876 22.1446C25.7313 21.684 25.5853 19.3144 27.503 19.3144H33.4969C35.1251 19.3144 36.5177 20.2476 37.6304 21.3604C37.6304 21.3604 41.2893 25.0343 41.5368 25.3112C42.9788 26.9148 43.9014 28.8261 45.4163 30.3409L34.4808 41.2764C33.631 40.4269 32.7883 39.5962 31.7596 38.9573ZM40.9957 51.8563L39.4606 50.3213L52.4282 37.3535L53.9634 38.8887L40.9957 51.8563Z" fill="url(#paint0_linear)"/>
<path d="M27.9999 5.5191C28.4659 5.5191 28.8435 5.14138 28.8435 4.67548V2.95079C28.8435 2.48489 28.4659 2.10718 27.9999 2.10718C27.534 2.10718 27.1562 2.48489 27.1562 2.95079V4.67548C27.1562 5.14138 27.534 5.5191 27.9999 5.5191Z" fill="url(#paint1_linear)"/>
<path d="M23.2426 5.83108C23.3812 6.14794 23.6908 6.33691 24.0159 6.33691C24.1287 6.33691 24.2434 6.31408 24.3535 6.26605C24.7803 6.07933 24.975 5.58193 24.7883 5.15506L24.0972 3.57491C23.9105 3.14804 23.4131 2.95322 22.9862 3.14006C22.5594 3.32678 22.3647 3.82417 22.5514 4.25104L23.2426 5.83108Z" fill="url(#paint2_linear)"/>
<path d="M20.1192 8.45779C20.2815 8.60784 20.4869 8.68196 20.6918 8.68196C20.9187 8.68196 21.1451 8.59085 21.3114 8.41111C21.6277 8.06905 21.6068 7.53532 21.2647 7.21891L19.9984 6.04797C19.6563 5.73156 19.1226 5.75259 18.8062 6.09465C18.4899 6.43671 18.5108 6.97043 18.8529 7.28685L20.1192 8.45779Z" fill="url(#paint3_linear)"/>
<path d="M31.6464 6.2659C31.7564 6.31404 31.8711 6.33676 31.984 6.33676C32.3091 6.33676 32.6188 6.14779 32.7574 5.83093L33.4485 4.25078C33.6351 3.82391 33.4404 3.32652 33.0135 3.13991C32.587 2.95342 32.0893 3.1479 31.9026 3.57488L31.2115 5.15503C31.0249 5.58178 31.2196 6.07918 31.6464 6.2659Z" fill="url(#paint4_linear)"/>
<path d="M35.3068 8.68196C35.5116 8.68196 35.717 8.60784 35.8793 8.45779L37.1458 7.28685C37.4878 6.97055 37.5088 6.43682 37.1924 6.09465C36.876 5.75259 36.3423 5.73156 36.0002 6.04797L34.7338 7.21891C34.3918 7.53521 34.3707 8.06894 34.6871 8.41111C34.8535 8.59085 35.0798 8.68196 35.3068 8.68196Z" fill="url(#paint5_linear)"/>
<path d="M17.9581 45.5144C18.4689 45.3937 18.7852 44.8816 18.6644 44.3708C18.5437 43.8599 18.0316 43.5436 17.5207 43.6644C17.0099 43.7852 16.6936 44.2972 16.8144 44.8081C16.9351 45.319 17.4472 45.6352 17.9581 45.5144Z" fill="url(#paint6_linear)"/>
<defs>
<linearGradient id="paint0_linear" x1="0.33649" y1="9.39111" x2="35.0365" y2="71.2197" gradientUnits="userSpaceOnUse">
<stop stop-color="#EF6F2E"/>
<stop offset="1" stop-color="#FFC839"/>
</linearGradient>
<linearGradient id="paint1_linear" x1="27.1664" y1="2.10718" x2="30.0951" y2="4.15791" gradientUnits="userSpaceOnUse">
<stop stop-color="#EF6F2E"/>
<stop offset="1" stop-color="#FFC839"/>
</linearGradient>
<linearGradient id="paint2_linear" x1="22.4948" y1="3.06909" x2="25.4785" y2="6.14449" gradientUnits="userSpaceOnUse">
<stop stop-color="#EF6F2E"/>
<stop offset="1" stop-color="#FFC839"/>
</linearGradient>
<linearGradient id="paint3_linear" x1="18.5998" y1="5.82373" x2="21.0324" y2="9.38309" gradientUnits="userSpaceOnUse">
<stop stop-color="#EF6F2E"/>
<stop offset="1" stop-color="#FFC839"/>
</linearGradient>
<linearGradient id="paint4_linear" x1="31.1549" y1="3.06909" x2="34.1385" y2="6.14446" gradientUnits="userSpaceOnUse">
<stop stop-color="#EF6F2E"/>
<stop offset="1" stop-color="#FFC839"/>
</linearGradient>
<linearGradient id="paint5_linear" x1="34.4806" y1="5.82373" x2="36.9132" y2="9.38325" gradientUnits="userSpaceOnUse">
<stop stop-color="#EF6F2E"/>
<stop offset="1" stop-color="#FFC839"/>
</linearGradient>
<linearGradient id="paint6_linear" x1="16.6068" y1="43.8804" x2="18.7326" y2="45.7591" gradientUnits="userSpaceOnUse">
<stop stop-color="#EF6F2E"/>
<stop offset="1" stop-color="#FFC839"/>
</linearGradient>
</defs>
</svg>
