<svg width="56" height="56" viewBox="0 0 56 56" fill="none" xmlns="http://www.w3.org/2000/svg">
<path d="M38.0844 11.7898L39.6244 10.9568C37.4264 6.89675 33.1966 4.375 28.5836 4.375H28V6.125H28.5836C32.5535 6.125 36.1944 8.295 38.0844 11.7898Z" fill="url(#paint0_linear)"/>
<path d="M26.3896 6.17411L26.2207 4.43286C25.5854 4.49411 24.9519 4.60524 24.3359 4.76274L24.7699 6.45849C25.2984 6.32286 25.8436 6.22749 26.3896 6.17411Z" fill="url(#paint1_linear)"/>
<path d="M53.9726 13.6692L46.375 8.9215V13.125H44.1577C42.427 5.98763 36.0001 0.875 28.5836 0.875H27.4164C21.4025 0.875 15.8638 4.2945 13.1355 9.625H9.625V5.4215L2.02737 10.1692C1.3055 10.6207 0.875 11.3986 0.875 12.25C0.875 13.1014 1.3055 13.8793 2.02737 14.3308L9.625 19.0785V14.875H11.5203C11.4345 15.5514 11.375 16.233 11.375 16.9164C11.375 20.3455 12.4871 23.6644 14.4839 26.3926L13.3236 27.5529L14.4008 29.7063C13.6841 30.9339 13.1407 32.2429 12.7802 33.6087L10.5 34.3691V40.88L12.7802 41.6404C13.1399 43.0063 13.6833 44.3153 14.4008 45.5429L13.3236 47.6962L17.9287 52.3005L20.0821 51.2243C21.3097 51.9409 22.6187 52.4843 23.9846 52.8439L24.7441 55.125H31.255L32.0154 52.8447C33.3813 52.4851 34.6903 51.9417 35.9179 51.2251L38.0712 52.3014L42.6764 47.6971L41.5993 45.5438C42.3159 44.3161 42.8592 43.0071 43.2197 41.6413L45.5 40.8809V34.37L43.2197 33.6096C42.8601 32.2437 42.3167 30.9347 41.5993 29.7071L42.6764 27.5537L41.5179 26.3953C43.2241 24.0581 44.2698 21.2721 44.5375 18.3759H46.375V22.5794L53.9726 17.8316C54.6945 17.3792 55.125 16.6014 55.125 15.75C55.125 14.8986 54.6945 14.1207 53.9726 13.6692ZM27.4164 2.625H28.5836C35.0481 2.625 40.6753 6.9825 42.3596 13.125H31.5C30.5112 13.125 29.6082 13.4671 28.875 14.0227V14C28.875 11.5876 26.9124 9.625 24.5 9.625H15.1323C17.6881 5.33488 22.3633 2.625 27.4164 2.625ZM34.125 35.875C34.608 35.875 35 36.2679 35 36.75C35 37.2321 34.608 37.625 34.125 37.625H21.875C21.392 37.625 21 37.2321 21 36.75C21 36.2679 21.392 35.875 21.875 35.875H34.125ZM36.4726 31.4422C37.7842 33.2351 38.5 35.3981 38.5 37.625C38.5 40.7243 37.142 43.505 35 45.4291V42.714C36.0159 42.3518 36.75 41.3893 36.75 40.25C36.75 39.5754 36.4866 38.9655 36.0675 38.5C36.4875 38.0345 36.75 37.4246 36.75 36.75C36.75 35.6309 36.043 34.6797 35.0542 34.3035C35.2056 33.2246 35.7017 32.2192 36.4726 31.4422ZM19.5274 31.4422C20.2983 32.2192 20.7944 33.2246 20.9457 34.3035C19.957 34.6797 19.25 35.6309 19.25 36.75C19.25 37.4246 19.5134 38.0345 19.9325 38.5C19.5125 38.9655 19.25 39.5754 19.25 40.25C19.25 41.3893 19.9841 42.3518 21 42.714V45.4291C18.858 43.5059 17.5 40.7243 17.5 37.625C17.5 35.3981 18.2157 33.2351 19.5274 31.4422ZM35 40.25C35 40.7321 34.608 41.125 34.125 41.125H21.875C21.392 41.125 21 40.7321 21 40.25C21 39.7679 21.392 39.375 21.875 39.375H34.125C34.608 39.375 35 39.7679 35 40.25ZM22.75 42.875H33.25V46.704C31.7039 47.6017 29.9136 48.125 28 48.125C26.0864 48.125 24.2961 47.6017 22.75 46.704V42.875ZM7.875 13.125V15.9215L2.95575 12.8468C2.74925 12.7172 2.625 12.4941 2.625 12.25C2.625 12.0059 2.74925 11.7828 2.95575 11.6532L7.875 8.5785V11.375H24.5C25.9473 11.375 27.125 12.5527 27.125 14V17.5V34.125H25.375V14.875C25.375 13.9099 24.5901 13.125 23.625 13.125H7.875ZM13.2869 14.875H23.625V34.125H22.687C22.4796 32.5351 21.7201 31.0511 20.5223 29.9618L17.8045 27.4899C14.8295 24.7887 13.125 20.9335 13.125 16.9164C13.125 16.2321 13.1898 15.5505 13.2869 14.875ZM40.5475 27.8985L39.599 29.7955L39.8597 30.212C40.6893 31.5368 41.286 32.9735 41.6325 34.4829L41.7428 34.9615L43.75 35.6309V39.62L41.7428 40.2894L41.6325 40.768C41.286 42.2774 40.6893 43.7141 39.8597 45.0389L39.599 45.4554L40.5475 47.3524L37.7265 50.1725L35.8304 49.2249L35.413 49.4856C34.0882 50.316 32.6515 50.9119 31.1421 51.2584L30.6626 51.3678L29.9941 53.375H26.005L25.3356 51.3678L24.8561 51.2584C23.3468 50.9119 21.91 50.3151 20.5852 49.4856L20.1679 49.2249L18.2717 50.1725L15.4508 47.3524L16.3993 45.4554L16.1385 45.0389C15.309 43.7141 14.7122 42.2774 14.3657 40.768L14.2555 40.2894L12.25 39.6191V35.63L14.2573 34.9606L14.3675 34.482C14.714 32.9726 15.3107 31.5359 16.1402 30.2111L16.401 29.7946L15.4525 27.8976L15.6012 27.7489C15.9285 28.1059 16.2654 28.4559 16.6259 28.784L18.2402 30.2514C16.6329 32.3759 15.75 34.9589 15.75 37.625C15.75 44.38 21.245 49.875 28 49.875C34.755 49.875 40.25 44.38 40.25 37.625C40.25 34.9589 39.3671 32.3759 37.7598 30.2531L39.3741 28.7857C39.7346 28.4585 40.0741 28.1102 40.4014 27.7524L40.5475 27.8985ZM38.1964 27.4907L35.4786 29.9618C34.2808 31.0511 33.5213 32.5351 33.3139 34.125H32.375V18.375H42.7831C42.4217 21.8496 40.7907 25.1326 38.1964 27.4907ZM53.0443 16.3467L48.125 19.4215V16.625H32.375C31.4099 16.625 30.625 17.4099 30.625 18.375V34.125H28.875V17.5C28.875 16.0527 30.0527 14.875 31.5 14.875H48.125V12.0785L53.0443 15.1533C53.2508 15.2828 53.375 15.5059 53.375 15.75C53.375 15.9941 53.2508 16.2172 53.0443 16.3467Z" fill="url(#paint2_linear)"/>
<defs>
<linearGradient id="paint0_linear" x1="28.0698" y1="4.375" x2="33.1428" y2="15.6362" gradientUnits="userSpaceOnUse">
<stop stop-color="#EF6F2E"/>
<stop offset="1" stop-color="#FFC839"/>
</linearGradient>
<linearGradient id="paint1_linear" x1="24.3483" y1="4.43286" x2="26.084" y2="6.92451" gradientUnits="userSpaceOnUse">
<stop stop-color="#EF6F2E"/>
<stop offset="1" stop-color="#FFC839"/>
</linearGradient>
<linearGradient id="paint2_linear" x1="1.20098" y1="0.875001" x2="47.9039" y2="67.0044" gradientUnits="userSpaceOnUse">
<stop stop-color="#EF6F2E"/>
<stop offset="1" stop-color="#FFC839"/>
</linearGradient>
</defs>
</svg>
