<svg width="85" height="85" viewBox="0 0 85 85" fill="none" xmlns="http://www.w3.org/2000/svg">
<path d="M63 29.414L69.646 22.768C70.507 21.908 71 20.717 71 19.5V19.328C71 18.204 70.562 17.148 69.768 16.353C68.894 15.48 67.734 15 66.5 15C65.266 15 64.106 15.48 63.232 16.354L63 16.586L62.768 16.354C61.894 15.48 60.734 15 59.5 15C58.266 15 57.106 15.48 56.232 16.354C55.438 17.148 55 18.204 55 19.328V19.5C55 20.717 55.493 21.908 56.354 22.768L63 29.414ZM57 19.328C57 18.739 57.229 18.184 57.646 17.767C58.142 17.272 58.8 17 59.5 17C60.2 17 60.858 17.272 61.354 17.768L63 19.414L64.646 17.768C65.637 16.778 67.362 16.778 68.353 17.768C68.771 18.185 69 18.739 69 19.328V19.5C69 20.19 68.72 20.866 68.232 21.354L63 26.586L57.768 21.354C57.28 20.866 57 20.19 57 19.5V19.328Z" fill="url(#paint0_linear)"/>
<path d="M37 15H39V17H37V15Z" fill="url(#paint1_linear)"/>
<path d="M41 15H43V17H41V15Z" fill="url(#paint2_linear)"/>
<path d="M45 15H47V17H45V15Z" fill="url(#paint3_linear)"/>
<path d="M35 21H39.586L42.879 24.294C43.329 24.742 43.951 25 44.586 25C45.917 25 47 23.917 47 22.586V21H49C50.103 21 51 20.103 51 19V13C51 11.897 50.103 11 49 11H35C33.897 11 33 11.897 33 13V19C33 20.103 33.897 21 35 21ZM35 13H49L49.001 19H45V22.586C45 22.924 44.531 23.118 44.293 22.879L40.414 19H35V13Z" fill="url(#paint4_linear)"/>
<path d="M13.7956 31.693L20.0006 26.954L26.2056 31.693L23.8256 23.989L29.7356 19H22.3756L20.0006 11.813L17.6256 19H10.2656L16.1756 23.989L13.7956 31.693ZM15.7356 21H19.0706L20.0006 18.187L20.9306 21H24.2656L21.5236 23.315L22.4476 26.306L20.0006 24.437L17.5536 26.307L18.4776 23.316L15.7356 21Z" fill="url(#paint5_linear)"/>
<path d="M42 57C43.654 57 45 55.654 45 54C45 52.346 43.654 51 42 51C40.346 51 39 52.346 39 54C39 55.654 40.346 57 42 57ZM42 53C42.551 53 43 53.448 43 54C43 54.552 42.551 55 42 55C41.449 55 41 54.552 41 54C41 53.448 41.449 53 42 53Z" fill="url(#paint6_linear)"/>
<path d="M42 61C45.86 61 49 57.859 49 54C49 50.141 45.86 47 42 47C38.14 47 35 50.141 35 54C35 57.859 38.14 61 42 61ZM42 49C44.757 49 47 51.243 47 54C47 56.757 44.757 59 42 59C39.243 59 37 56.757 37 54C37 51.243 39.243 49 42 49Z" fill="url(#paint7_linear)"/>
<path d="M71.851 59.873L59.048 51.491C58.559 51.17 57.99 51 57.403 51H52.454C51.926 51 51.453 50.686 51.234 50.16C51.027 49.664 51.14 49.097 51.521 48.719L53.313 46.935L50 43.588V40C50 39.448 50.449 39 51 39H61C62.654 39 64 37.654 64 36V32H62V36C62 36.552 61.551 37 61 37H51C49.346 37 48 38.346 48 40V43.631L47.21 44.551C46.868 44.894 46.344 44.976 45.802 44.749C45.315 44.547 45 44.074 45 43.546V41H43V27H41V41H39V43.64C39 44.112 38.719 44.533 38.282 44.715L38.157 44.767C37.656 44.977 37.132 44.895 36.839 44.605L36 43.629V40C36 38.346 34.654 37 33 37H23C22.449 37 22 36.552 22 36V32H20V36C20 37.654 21.346 39 23 39H33C33.551 39 34 39.448 34 40V43.588L30.688 46.934L32.479 48.717C32.86 49.097 32.973 49.663 32.766 50.159L32.714 50.282C32.533 50.719 32.111 51 31.639 51H18C14.14 51 11 54.141 11 58V66C11 69.859 14.14 73 18 73H57.403C57.989 73 58.558 72.83 59.047 72.51L71.851 64.126C72.57 63.655 73 62.86 73 62C73 61.14 72.57 60.345 71.851 59.873ZM32.551 59.21L30.754 61H27V53H29V57H31.639C32.112 57 32.548 57.313 32.767 57.842C32.977 58.344 32.895 58.867 32.551 59.21ZM25 71H23V53H25V71ZM27 63H32.615L34.932 65.316L36.79 63.448C37.133 63.105 37.655 63.021 38.2 63.251C38.694 63.455 39 63.881 39 64.36V67H45V64.36C45 63.881 45.307 63.455 45.843 63.233C46.344 63.023 46.869 63.106 47.21 63.448L49.068 65.316L51.385 63H57V71H27V63ZM51.449 59.21C51.106 58.867 51.023 58.344 51.251 57.8C51.452 57.314 51.888 57 52.361 57H55V53H57V61H53.246L51.449 59.21ZM34.56 51.054L34.612 50.93C35.133 49.682 34.85 48.257 33.891 47.301L33.513 46.925L34.951 45.473L35.374 45.962C36.289 46.881 37.686 47.138 38.932 46.61L39.054 46.559C40.236 46.067 41 44.921 41 43.64V43H43V43.546C43 44.885 43.798 46.082 45.067 46.61C46.314 47.132 47.713 46.88 48.676 45.909L49.051 45.473L50.488 46.924L50.109 47.301C49.151 48.256 48.868 49.681 49.404 50.967C49.919 52.202 51.116 53 52.454 53H53V55H52.361C51.076 55 49.916 55.799 49.389 57.068C48.865 58.315 49.119 59.712 50.037 60.626L50.484 61.071L49.071 62.484L48.626 62.038C47.712 61.12 46.314 60.865 45.034 61.403C43.799 61.916 43 63.076 43 64.36V65H41V64.36C41 63.076 40.201 61.916 38.933 61.389C37.684 60.864 36.288 61.118 35.373 62.037L34.929 62.483L33.516 61.07L33.963 60.625C34.881 59.711 35.135 58.314 34.597 57.033C34.084 55.799 32.924 55 31.639 55H31V53H31.639C32.92 53 34.066 52.236 34.56 51.054ZM13 66V58C13 55.243 15.243 53 18 53H21V71H18C15.243 71 13 68.757 13 66ZM59 70.15V53.851L65 57.779V66.221L59 70.15ZM70.755 62.453L67 64.912V59.088L70.754 61.546C70.908 61.647 71 61.816 71 62C71 62.184 70.908 62.353 70.755 62.453Z" fill="url(#paint8_linear)"/>
<defs>
<linearGradient id="paint0_linear" x1="55.0961" y1="15" x2="67.0227" y2="33.7458" gradientUnits="userSpaceOnUse">
<stop stop-color="#EF6F2E"/>
<stop offset="1" stop-color="#FFC839"/>
</linearGradient>
<linearGradient id="paint1_linear" x1="37.012" y1="15" x2="38.7338" y2="17.438" gradientUnits="userSpaceOnUse">
<stop stop-color="#EF6F2E"/>
<stop offset="1" stop-color="#FFC839"/>
</linearGradient>
<linearGradient id="paint2_linear" x1="41.012" y1="15" x2="42.7338" y2="17.438" gradientUnits="userSpaceOnUse">
<stop stop-color="#EF6F2E"/>
<stop offset="1" stop-color="#FFC839"/>
</linearGradient>
<linearGradient id="paint3_linear" x1="45.012" y1="15" x2="46.7338" y2="17.438" gradientUnits="userSpaceOnUse">
<stop stop-color="#EF6F2E"/>
<stop offset="1" stop-color="#FFC839"/>
</linearGradient>
<linearGradient id="paint4_linear" x1="33.1082" y1="11" x2="43.9012" y2="30.6489" gradientUnits="userSpaceOnUse">
<stop stop-color="#EF6F2E"/>
<stop offset="1" stop-color="#FFC839"/>
</linearGradient>
<linearGradient id="paint5_linear" x1="10.3826" y1="11.813" x2="27.6133" y2="35.7078" gradientUnits="userSpaceOnUse">
<stop stop-color="#EF6F2E"/>
<stop offset="1" stop-color="#FFC839"/>
</linearGradient>
<linearGradient id="paint6_linear" x1="39.0361" y1="51" x2="44.2013" y2="58.3139" gradientUnits="userSpaceOnUse">
<stop stop-color="#EF6F2E"/>
<stop offset="1" stop-color="#FFC839"/>
</linearGradient>
<linearGradient id="paint7_linear" x1="35.0841" y1="47" x2="47.1365" y2="64.0657" gradientUnits="userSpaceOnUse">
<stop stop-color="#EF6F2E"/>
<stop offset="1" stop-color="#FFC839"/>
</linearGradient>
<linearGradient id="paint8_linear" x1="11.3725" y1="27" x2="45.9222" y2="92.9369" gradientUnits="userSpaceOnUse">
<stop stop-color="#EF6F2E"/>
<stop offset="1" stop-color="#FFC839"/>
</linearGradient>
</defs>
</svg>
