<svg width="85" height="85" viewBox="0 0 85 85" fill="none" xmlns="http://www.w3.org/2000/svg">
<path d="M65.8408 19.7367C62.8096 16.7059 58.9919 14.5824 54.8181 13.6057C50.6444 12.6291 46.2808 12.8381 42.2196 14.2093C38.1584 15.5804 34.5611 18.0592 31.8335 21.3658C29.1059 24.6725 27.3566 28.6756 26.7829 32.9235C26.2281 37.1112 26.8264 41.3709 28.5134 45.2437L24.8618 44.5133C24.6326 44.4674 24.3946 44.5032 24.1891 44.6145C23.9836 44.7258 23.8236 44.9056 23.7368 45.1226L20.9088 52.1936C20.8295 52.3917 20.8157 52.61 20.8694 52.8166C20.9231 53.0231 21.0414 53.2071 21.2071 53.3415C21.3728 53.476 21.5772 53.5539 21.7904 53.5639C22.0036 53.5739 22.2143 53.5155 22.3919 53.3971L26.2277 50.84L27.661 51.3178L29.0897 52.7465C27.729 52.9656 26.3883 53.2945 25.0807 53.7297C23.6105 54.2225 22.2766 55.0537 21.1863 56.1562C20.096 57.2587 19.2798 58.6018 18.8034 60.0773C18.7498 60.2443 18.7411 60.4223 18.7781 60.5937C18.815 60.7651 18.8964 60.9237 19.014 61.0537C19.1316 61.1837 19.2813 61.2805 19.4481 61.3344C19.6149 61.3883 19.793 61.3974 19.9644 61.3608L21.3088 61.0733L18.8417 65.5145C18.7361 65.7044 18.6953 65.9236 18.7255 66.1388C18.7556 66.354 18.8551 66.5536 19.0087 66.7072C19.1624 66.8609 19.362 66.9603 19.5772 66.9904C19.7924 67.0206 20.0116 66.9798 20.2015 66.8742L24.6752 64.3888L24.3922 65.804C24.3578 65.9757 24.3692 66.1535 24.4251 66.3194C24.4811 66.4854 24.5796 66.6338 24.711 66.7497C24.8423 66.8656 25.0017 66.945 25.1733 66.9799C25.345 67.0149 25.5227 67.0041 25.6889 66.9487L25.7238 66.9372C27.1757 66.4494 28.4949 65.632 29.578 64.5489C30.661 63.4659 31.4785 62.1467 31.9664 60.6948L31.9863 60.6355C32.4215 59.3278 32.7503 57.987 32.9695 56.6263L34.3983 58.055L34.876 59.4883L32.3189 63.3241C32.2006 63.5017 32.1421 63.7124 32.1521 63.9256C32.1621 64.1387 32.24 64.3431 32.3745 64.5088C32.5089 64.6744 32.6929 64.7928 32.8994 64.8465C33.1059 64.9002 33.3242 64.8864 33.5223 64.8072L40.5934 61.9788C40.8104 61.892 40.9901 61.732 41.1014 61.5265C41.2127 61.321 41.2485 61.083 41.2025 60.8538L40.4549 57.1156C43.349 58.3561 46.4649 58.996 49.6137 58.9963C54.1593 58.9895 58.6009 57.6358 62.3776 55.1062C66.1543 52.5765 69.0966 48.9844 70.8329 44.7835C72.5693 40.5826 73.0218 35.9613 72.1333 31.5034C71.2447 27.0455 69.0551 22.9509 65.8408 19.7367ZM27.931 49.3001L26.396 48.7885C26.2516 48.7403 26.098 48.7258 25.9471 48.746C25.7962 48.7662 25.6519 48.8206 25.5252 48.9051L23.9614 49.9476L25.2852 46.6376L29.7084 47.5222L27.931 49.3001ZM30.0892 60.0028L30.0693 60.0623C29.4826 61.8086 28.3049 63.2955 26.7394 64.2665L27.0604 62.6612C27.0978 62.474 27.0809 62.28 27.0116 62.1021C26.9423 61.9243 26.8236 61.7699 26.6694 61.6574C26.5152 61.5448 26.332 61.4788 26.1415 61.467C25.951 61.4552 25.761 61.4983 25.5942 61.591L22.2898 63.4262L24.1252 60.1218C24.2184 59.954 24.2614 59.7629 24.2489 59.5713C24.2365 59.3797 24.1691 59.1957 24.0549 59.0413C23.9407 58.887 23.7844 58.7688 23.6049 58.7009C23.4253 58.6329 23.2299 58.6181 23.0422 58.6582L21.4877 58.9903C22.4572 57.4078 23.953 56.2171 25.7127 55.6271C26.4604 55.3785 27.2201 55.1675 27.989 54.9951L26.6002 57.7751C26.5063 57.9628 26.4739 58.1753 26.5075 58.3825C26.5411 58.5896 26.6391 58.781 26.7875 58.9294C26.9359 59.0778 27.1272 59.1757 27.3344 59.2094C27.5416 59.243 27.7541 59.2106 27.9418 59.1167L30.7214 57.7268C30.5488 58.4954 30.3378 59.2549 30.0892 60.0023V60.0028ZM32.3333 54.6848L29.7302 55.9858L31.0317 53.3827L32.984 52.732L32.3333 54.6848ZM34.295 55.1238L35.5138 51.4676C35.5725 51.2914 35.581 51.1024 35.5383 50.9216C35.4957 50.7409 35.4035 50.5756 35.2722 50.4443C35.1409 50.313 34.9756 50.2208 34.7949 50.1782C34.6141 50.1355 34.4251 50.144 34.2489 50.2027L30.5925 51.4215L29.6154 50.4442L35.4064 44.6532C36.8011 43.2596 38.3892 42.074 40.1217 41.1327C40.1519 41.1749 40.1853 41.2148 40.2217 41.2518L44.4643 45.4945C44.5013 45.5308 44.5411 45.5642 44.5833 45.5945C43.6421 47.3269 42.4564 48.9149 41.0629 50.3097L35.2723 56.1001L34.295 55.1238ZM48.7075 37.0092C48.6039 36.9056 48.4787 36.826 48.3409 36.7761C48.203 36.7262 48.0559 36.7072 47.9099 36.7205C47.5065 36.7571 47.1052 36.806 46.7058 36.8642C46.5163 36.2313 46.5413 35.5535 46.7768 34.9362C47.0124 34.3189 47.4452 33.7968 48.0082 33.4509C48.5711 33.105 49.2325 32.9548 49.8896 33.0237C50.5467 33.0925 51.1626 33.3765 51.6416 33.8315C52.1206 34.2866 52.4359 34.8871 52.5384 35.5398C52.6409 36.1925 52.5248 36.8607 52.2083 37.4406C51.8918 38.0206 51.3926 38.4797 50.7882 38.7466C50.1839 39.0135 49.5082 39.0733 48.8664 38.9166C48.9185 38.5483 48.9625 38.1785 48.9963 37.8068C49.0096 37.6608 48.9906 37.5135 48.9407 37.3756C48.8907 37.2377 48.8111 37.1124 48.7073 37.0087L48.7075 37.0092ZM48.4982 40.8842C49.5617 41.1199 50.6731 41.0018 51.6634 40.5481C52.6538 40.0944 53.4689 39.3298 53.985 38.3705C54.501 37.4111 54.6898 36.3096 54.5226 35.2331C54.3554 34.1567 53.8413 33.1643 53.0586 32.4068C52.2758 31.6492 51.2671 31.1679 50.1858 31.036C49.1045 30.904 48.0097 31.1287 47.0678 31.6759C46.1258 32.2231 45.3883 33.0628 44.9672 34.0674C44.5461 35.0721 44.4645 36.1867 44.7348 37.242C43.4327 37.5521 42.1608 37.9772 40.9339 38.5123C40.3791 36.6018 40.4729 34.5613 41.2007 32.7098C41.9286 30.8583 43.2494 29.3001 44.9567 28.2788C46.6639 27.2575 48.6615 26.8307 50.6371 27.0651C52.6127 27.2994 54.4549 28.1818 55.8759 29.5742C57.2968 30.9666 58.2164 32.7906 58.4908 34.761C58.7652 36.7314 58.379 38.7372 57.3926 40.4649C56.4062 42.1926 54.8751 43.5447 53.0387 44.3099C51.2023 45.0752 49.1642 45.2104 47.2428 44.6945C47.7732 43.4638 48.1932 42.1885 48.4979 40.8835L48.4982 40.8842ZM46.8537 38.8626C46.5994 40.523 46.1429 42.1461 45.4943 43.6956L42.0207 40.2218C43.5702 39.5733 45.1932 39.1168 46.8537 38.8626ZM46.3575 46.5185C48.7124 47.2391 51.241 47.1485 53.5383 46.2614C55.8356 45.3743 57.7688 43.7418 59.0282 41.6256C60.2876 39.5093 60.8003 37.0316 60.4843 34.5893C60.1683 32.147 59.0419 29.8814 57.2854 28.1553C55.5289 26.4292 53.2439 25.3425 50.7964 25.0693C48.349 24.796 45.8806 25.352 43.7867 26.6482C41.6927 27.9444 40.0944 29.9058 39.2475 32.2183C38.4007 34.5308 38.3544 37.0605 39.116 39.4025C37.9099 40.0624 36.7666 40.831 35.7002 41.6987C34.3878 38.5005 34.2207 34.9472 35.2269 31.6399C36.2331 28.3326 38.351 25.4745 41.2221 23.5491C44.0933 21.6237 47.5415 20.7493 50.9832 21.0738C54.4249 21.3983 57.6488 22.9019 60.1094 25.33C62.5701 27.7581 64.1164 30.9617 64.4867 34.3988C64.857 37.8359 64.0286 41.2954 62.1416 44.1919C60.2546 47.0884 57.4249 49.2442 54.1313 50.2943C50.8377 51.3445 47.2824 51.2246 44.067 49.955C44.9338 48.8817 45.7005 47.7313 46.3575 46.5182V46.5185ZM35.7689 61.7545L36.8114 60.1908C36.8959 60.0641 36.9503 59.9198 36.9705 59.7689C36.9907 59.618 36.9762 59.4644 36.928 59.32L36.4164 57.7848L38.1937 56.0077L39.0783 60.4307L35.7689 61.7545ZM64.4265 50.8493C61.2079 54.0879 57.0137 56.1782 52.49 56.7983C48.1973 57.3894 43.8265 56.6495 39.9674 54.6785L39.8933 54.308L42.4774 51.7238C42.5399 51.6613 42.6014 51.5971 42.6634 51.5337C45.8037 52.9357 49.2959 53.3505 52.6772 52.7232C56.0586 52.096 59.1696 50.4562 61.5982 48.0212C68.2264 41.3928 68.2264 30.6078 61.5982 23.9795C54.9699 17.3511 44.1848 17.3512 37.5565 23.9795C35.1014 26.436 33.4572 29.5854 32.8449 33.0041C32.2326 36.4228 32.6816 39.947 34.1315 43.103C34.0854 43.1483 34.0385 43.193 33.9928 43.2387L31.4085 45.823L30.9638 45.734C28.9608 41.8774 28.1933 37.4977 28.7655 33.1898C29.2118 29.8856 30.4385 26.7352 32.3441 23.9991C34.2496 21.2631 36.7792 19.0201 39.7237 17.4557C42.6681 15.8914 45.9428 15.0506 49.2767 15.003C52.6105 14.9554 55.9078 15.7023 58.8958 17.1819C61.8837 18.6616 64.4764 20.8314 66.4593 23.5119C68.4422 26.1924 69.7583 29.3065 70.2988 32.5967C70.8393 35.8868 70.5886 39.2583 69.5675 42.4323C68.5463 45.6063 66.7841 48.4916 64.4265 50.8493Z" fill="url(#paint0_linear)"/>
<path d="M40.9284 49.0295C41.348 48.61 41.6337 48.0754 41.7495 47.4935C41.8652 46.9115 41.8058 46.3083 41.5788 45.7602C41.3517 45.212 40.9672 44.7434 40.4738 44.4138C39.9805 44.0842 39.4005 43.9082 38.8071 43.9082C38.2138 43.9082 37.6338 44.0842 37.1404 44.4138C36.6471 44.7434 36.2626 45.212 36.0355 45.7602C35.8084 46.3083 35.749 46.9115 35.8648 47.4935C35.9805 48.0754 36.2663 48.61 36.6858 49.0295C37.2484 49.5921 38.0115 49.9082 38.8071 49.9082C39.6028 49.9082 40.3658 49.5921 40.9284 49.0295ZM38.0996 46.2012C38.2394 46.0613 38.4176 45.9661 38.6116 45.9275C38.8056 45.8889 39.0066 45.9087 39.1894 45.9844C39.3721 46.0601 39.5283 46.1883 39.6381 46.3527C39.748 46.5172 39.8067 46.7105 39.8067 46.9083C39.8067 47.1061 39.748 47.2994 39.6381 47.4638C39.5283 47.6283 39.3721 47.7565 39.1894 47.8322C39.0066 47.9078 38.8056 47.9276 38.6116 47.8891C38.4176 47.8505 38.2394 47.7553 38.0996 47.6154C38.0059 47.523 37.9316 47.4129 37.8808 47.2915C37.8301 47.1701 37.8039 47.0399 37.8039 46.9083C37.8039 46.7767 37.8301 46.6465 37.8808 46.5251C37.9316 46.4037 38.0059 46.2936 38.0996 46.2012Z" fill="url(#paint1_linear)"/>
<path d="M18.2929 48.2931L15.2929 51.2931C15.1054 51.4807 15 51.735 15 52.0003C15 52.2655 15.1054 52.5199 15.2929 52.7074C15.4804 52.8949 15.7348 53.0003 16 53.0003C16.2652 53.0003 16.5196 52.8949 16.7072 52.7074L19.7072 49.7074C19.8 49.6145 19.8737 49.5043 19.9239 49.383C19.9742 49.2616 20.0001 49.1316 20.0001 49.0003C20.0001 48.8689 19.9742 48.7389 19.9239 48.6176C19.8737 48.4962 19.8 48.386 19.7072 48.2931C19.6143 48.2003 19.504 48.1266 19.3827 48.0764C19.2614 48.0261 19.1314 48.0002 19 48.0002C18.8687 48.0002 18.7387 48.0261 18.6173 48.0764C18.496 48.1266 18.3858 48.2003 18.2929 48.2931Z" fill="url(#paint2_linear)"/>
<path d="M17.8858 63.0233C17.6983 62.8358 17.4439 62.7305 17.1787 62.7305C16.9135 62.7305 16.6592 62.8358 16.4717 63.0233L13.4717 66.0233C13.3788 66.1162 13.3051 66.2264 13.2549 66.3477C13.2046 66.4691 13.1787 66.5991 13.1787 66.7304C13.1787 66.9956 13.284 67.25 13.4715 67.4376C13.6591 67.6251 13.9134 67.7305 14.1786 67.7305C14.4439 67.7306 14.6982 67.6252 14.8858 67.4377L17.8858 64.4377C17.9787 64.3448 18.0524 64.2346 18.1026 64.1132C18.1529 63.9919 18.1788 63.8618 18.1788 63.7305C18.1788 63.5992 18.1529 63.4691 18.1026 63.3478C18.0524 63.2264 17.9787 63.1162 17.8858 63.0233Z" fill="url(#paint3_linear)"/>
<path d="M14 60.0003C14.1314 60.0004 14.2615 59.9746 14.3828 59.9244C14.5042 59.8741 14.6144 59.8004 14.7072 59.7074L19.7072 54.7074C19.8947 54.5199 20.0001 54.2655 20.0001 54.0003C20.0001 53.735 19.8947 53.4807 19.7072 53.2931C19.5196 53.1056 19.2653 53.0002 19 53.0002C18.7348 53.0002 18.4805 53.1056 18.2929 53.2931L13.2929 58.2931C13.1531 58.433 13.0578 58.6112 13.0192 58.8052C12.9806 58.9992 13.0004 59.2002 13.0761 59.383C13.1518 59.5657 13.28 59.7219 13.4444 59.8317C13.6089 59.9416 13.8023 60.0003 14 60.0003Z" fill="url(#paint4_linear)"/>
<path d="M22.7071 67.2929C22.6143 67.2 22.504 67.1264 22.3827 67.0761C22.2614 67.0259 22.1314 67 22 67C21.8687 67 21.7387 67.0259 21.6173 67.0761C21.496 67.1264 21.3858 67.2 21.2929 67.2929L17.2929 71.2929C17.1054 71.4805 17 71.7348 17 72C17 72.2653 17.1054 72.5196 17.2929 72.7072C17.4804 72.8947 17.7348 73.0001 18 73.0001C18.2652 73.0001 18.5196 72.8947 18.7072 72.7072L22.7071 68.7072C22.8 68.6143 22.8737 68.5041 22.9239 68.3827C22.9742 68.2614 23.0001 68.1314 23.0001 68C23.0001 67.8687 22.9742 67.7387 22.9239 67.6173C22.8737 67.496 22.8 67.3858 22.7071 67.2929Z" fill="url(#paint5_linear)"/>
<path d="M36.2929 64.2931L33.2929 67.2931C33.1054 67.4807 33 67.735 33 68.0003C33 68.2655 33.1054 68.5198 33.2929 68.7074C33.4804 68.8949 33.7348 69.0003 34 69.0003C34.2652 69.0003 34.5196 68.8949 34.7072 68.7074L37.7072 65.7074C37.8 65.6145 37.8737 65.5043 37.9239 65.383C37.9742 65.2616 38.0001 65.1316 38.0001 65.0003C38.0001 64.8689 37.9742 64.7389 37.9239 64.6176C37.8737 64.4962 37.8 64.386 37.7072 64.2931C37.6143 64.2003 37.504 64.1266 37.3827 64.0764C37.2614 64.0261 37.1314 64.0002 37 64.0002C36.8687 64.0002 36.7387 64.0261 36.6173 64.0764C36.496 64.1266 36.3858 64.2003 36.2929 64.2931Z" fill="url(#paint6_linear)"/>
<path d="M30.7072 66.2929C30.6143 66.2 30.5041 66.1264 30.3827 66.0761C30.2614 66.0259 30.1314 66 30 66C29.8687 66 29.7387 66.0259 29.6173 66.0761C29.496 66.1264 29.3858 66.2 29.2929 66.2929L24.2929 71.2929C24.1054 71.4805 24 71.7348 24 72C24 72.2653 24.1054 72.5196 24.2929 72.7072C24.4804 72.8947 24.7348 73.0001 25 73.0001C25.2652 73.0001 25.5196 72.8947 25.7072 72.7072L30.7072 67.7072C30.8 67.6143 30.8737 67.5041 30.9239 67.3827C30.9742 67.2614 31.0001 67.1314 31.0001 67C31.0001 66.8687 30.9742 66.7387 30.9239 66.6173C30.8737 66.496 30.8 66.3858 30.7072 66.2929Z" fill="url(#paint7_linear)"/>
<defs>
<linearGradient id="paint0_linear" x1="19.0395" y1="13.0007" x2="65.5663" y2="78.7122" gradientUnits="userSpaceOnUse">
<stop stop-color="#EF6F2E"/>
<stop offset="1" stop-color="#FFC839"/>
</linearGradient>
<linearGradient id="paint1_linear" x1="35.8432" y1="43.9082" x2="41.0085" y2="51.2221" gradientUnits="userSpaceOnUse">
<stop stop-color="#EF6F2E"/>
<stop offset="1" stop-color="#FFC839"/>
</linearGradient>
<linearGradient id="paint2_linear" x1="15.03" y1="48.0002" x2="19.3345" y2="54.0952" gradientUnits="userSpaceOnUse">
<stop stop-color="#EF6F2E"/>
<stop offset="1" stop-color="#FFC839"/>
</linearGradient>
<linearGradient id="paint3_linear" x1="13.2088" y1="62.7305" x2="17.5132" y2="68.8254" gradientUnits="userSpaceOnUse">
<stop stop-color="#EF6F2E"/>
<stop offset="1" stop-color="#FFC839"/>
</linearGradient>
<linearGradient id="paint4_linear" x1="13.0421" y1="53.0002" x2="19.0682" y2="61.5331" gradientUnits="userSpaceOnUse">
<stop stop-color="#EF6F2E"/>
<stop offset="1" stop-color="#FFC839"/>
</linearGradient>
<linearGradient id="paint5_linear" x1="17.0361" y1="67" x2="22.2014" y2="74.3139" gradientUnits="userSpaceOnUse">
<stop stop-color="#EF6F2E"/>
<stop offset="1" stop-color="#FFC839"/>
</linearGradient>
<linearGradient id="paint6_linear" x1="33.03" y1="64.0002" x2="37.3345" y2="70.0952" gradientUnits="userSpaceOnUse">
<stop stop-color="#EF6F2E"/>
<stop offset="1" stop-color="#FFC839"/>
</linearGradient>
<linearGradient id="paint7_linear" x1="24.0421" y1="66" x2="30.0683" y2="74.5329" gradientUnits="userSpaceOnUse">
<stop stop-color="#EF6F2E"/>
<stop offset="1" stop-color="#FFC839"/>
</linearGradient>
</defs>
</svg>
