<svg width="57" height="56" viewBox="0 0 57 56" fill="none" xmlns="http://www.w3.org/2000/svg">
<path d="M45.6159 32.5161H11.3825L7.70508 39.7419H11.0315V56H45.9669V39.7419H49.2933L45.6159 32.5161ZM44.4793 34.3226L46.318 37.9355H31.8256L29.9869 34.3226H44.4793ZM12.5191 34.3226H27.0115L25.1728 37.9355H10.6804L12.5191 34.3226ZM44.1282 54.1935H29.4186V47.871H27.5798V54.1935H12.8702V39.7419H26.3094L27.5798 37.2453V45.1613H29.4186V37.2453L30.6889 39.7419H44.1282V54.1935Z" fill="url(#paint0_linear)"/>
<path d="M14.709 46.9678H20.2251V48.7742H14.709V46.9678Z" fill="url(#paint1_linear)"/>
<path d="M14.709 50.5806H20.2251V52.387H14.709V50.5806Z" fill="url(#paint2_linear)"/>
<path d="M22.0645 50.5806H23.9032V52.387H22.0645V50.5806Z" fill="url(#paint3_linear)"/>
<path d="M24.2548 14.6902L28.5006 13.6269L32.7463 14.6893L33.0789 10.2102L35.3342 6.42533L31.3453 4.72914L28.5006 1.27368L25.655 4.72914L21.666 6.42533L23.9213 10.2102L24.2548 14.6902ZM26.8006 6.20967L28.5006 4.14566L30.2006 6.21055L32.6992 7.27387L31.277 9.66072L31.0728 12.4074L28.5006 11.7635L25.9284 12.4066L25.7241 9.65983L24.302 7.27255L26.8006 6.20967Z" fill="url(#paint4_linear)"/>
<path d="M10.0946 16.5338L11.4305 14.2929L9.06387 13.2856L7.35489 11.2092L5.64592 13.2847L3.2793 14.292L4.61523 16.5329L4.81275 19.2055L7.35489 18.5704L9.89793 19.2064L10.0946 16.5338ZM8.29265 15.9825L8.22262 16.9227L7.35489 16.7062L6.48806 16.9227L6.41713 15.9825L5.91436 15.1379L6.79062 14.7652L7.35489 14.0812L7.91827 14.7661L8.79453 15.1392L8.29265 15.9825Z" fill="url(#paint5_linear)"/>
<path d="M52.3856 16.5338L53.7215 14.2929L51.3549 13.2856L49.6459 11.2092L47.9369 13.2847L45.5703 14.292L46.9063 16.5329L47.1038 19.2055L49.6459 18.5704L52.189 19.2064L52.3856 16.5338ZM50.5837 15.9825L50.5136 16.9227L49.6459 16.7062L48.7791 16.9227L48.709 15.9825L48.2063 15.1379L49.0825 14.7652L49.6459 14.0812L50.2093 14.7661L51.0855 15.1392L50.5837 15.9825Z" fill="url(#paint6_linear)"/>
<path d="M11.4412 21.5258C13.1919 22.6729 14.7474 24.0727 16.0613 25.6877L19.7028 30.158L18.9496 24.2398C18.5563 21.15 16.8766 18.3058 14.3411 16.4381L13.4604 15.7893L10.7656 21.083L11.4412 21.5258ZM14.0911 18.5903C15.6457 20.0355 16.7001 21.9593 17.0615 24.0405C15.9002 22.7007 14.5827 21.5068 13.1304 20.4779L14.0911 18.5903Z" fill="url(#paint7_linear)"/>
<path d="M38.0501 24.2398L37.2969 30.1579L40.9384 25.6868C42.2532 24.0717 43.8078 22.6719 45.5585 21.5248L46.2332 21.082L43.5384 15.7883L42.6577 16.4388C40.1232 18.3066 38.4425 21.1499 38.0501 24.2398ZM43.8693 20.4778C42.4171 21.5067 41.0986 22.6997 39.9382 24.0404C40.3005 21.9592 41.3541 20.0354 42.9086 18.5902L43.8693 20.4778Z" fill="url(#paint8_linear)"/>
<path d="M32.1777 30.7098H34.0164V26.9253C34.0164 22.5869 35.5728 18.3636 38.4009 15.0299L36.9877 13.8735C33.8858 17.531 32.1777 22.1662 32.1777 26.9253V30.7098Z" fill="url(#paint9_linear)"/>
<path d="M38.6133 10.8386H40.452V12.6451H38.6133V10.8386Z" fill="url(#paint10_linear)"/>
<path d="M41.3711 7.22583H43.2098V9.03228H41.3711V7.22583Z" fill="url(#paint11_linear)"/>
<path d="M22.9832 30.7098H24.8219V26.9253C24.8219 22.1653 23.1138 17.531 20.0128 13.8735L18.5996 15.0299C21.4268 18.3636 22.9832 22.5869 22.9832 26.9253V30.7098Z" fill="url(#paint12_linear)"/>
<path d="M16.5488 10.8386H18.3875V12.6451H16.5488V10.8386Z" fill="url(#paint13_linear)"/>
<path d="M13.791 7.22583H15.6297V9.03228H13.791V7.22583Z" fill="url(#paint14_linear)"/>
<path d="M27.5801 15.3547H29.4188V17.1612H27.5801V15.3547Z" fill="url(#paint15_linear)"/>
<path d="M27.5801 18.9678H29.4188V30.7097H27.5801V18.9678Z" fill="url(#paint16_linear)"/>
<path d="M53.3223 24.3872H55.161V26.1937H53.3223V24.3872Z" fill="url(#paint17_linear)"/>
<path d="M53.3223 28H55.161V29.8065H53.3223V28Z" fill="url(#paint18_linear)"/>
<path d="M55.1621 26.1936H57.0008V28.0001H55.1621V26.1936Z" fill="url(#paint19_linear)"/>
<path d="M51.4844 26.1936H53.3231V28.0001H51.4844V26.1936Z" fill="url(#paint20_linear)"/>
<path d="M50.5645 0H52.4032V1.80645H50.5645V0Z" fill="url(#paint21_linear)"/>
<path d="M50.5645 3.61279H52.4032V5.41924H50.5645V3.61279Z" fill="url(#paint22_linear)"/>
<path d="M52.4023 1.8064H54.2411V3.61285H52.4023V1.8064Z" fill="url(#paint23_linear)"/>
<path d="M48.7266 1.8064H50.5653V3.61285H48.7266V1.8064Z" fill="url(#paint24_linear)"/>
<path d="M1.83789 28H3.6766V29.8065H1.83789V28Z" fill="url(#paint25_linear)"/>
<path d="M1.83789 31.6128H3.6766V33.4192H1.83789V31.6128Z" fill="url(#paint26_linear)"/>
<path d="M3.67773 29.8064H5.51644V31.6128H3.67773V29.8064Z" fill="url(#paint27_linear)"/>
<path d="M0 29.8064H1.83871V31.6128H0V29.8064Z" fill="url(#paint28_linear)"/>
<path d="M1.83789 0H3.6766V1.80645H1.83789V0Z" fill="url(#paint29_linear)"/>
<path d="M1.83789 3.61279H3.6766V5.41924H1.83789V3.61279Z" fill="url(#paint30_linear)"/>
<path d="M3.67773 1.8064H5.51644V3.61285H3.67773V1.8064Z" fill="url(#paint31_linear)"/>
<path d="M0 1.8064H1.83871V3.61285H0V1.8064Z" fill="url(#paint32_linear)"/>
<defs>
<linearGradient id="paint0_linear" x1="7.95497" y1="32.5161" x2="22.7171" y2="69.5332" gradientUnits="userSpaceOnUse">
<stop stop-color="#EF6F2E"/>
<stop offset="1" stop-color="#FFC839"/>
</linearGradient>
<linearGradient id="paint1_linear" x1="14.7421" y1="46.9678" x2="15.4667" y2="50.1005" gradientUnits="userSpaceOnUse">
<stop stop-color="#EF6F2E"/>
<stop offset="1" stop-color="#FFC839"/>
</linearGradient>
<linearGradient id="paint2_linear" x1="14.7421" y1="50.5806" x2="15.4667" y2="53.7133" gradientUnits="userSpaceOnUse">
<stop stop-color="#EF6F2E"/>
<stop offset="1" stop-color="#FFC839"/>
</linearGradient>
<linearGradient id="paint3_linear" x1="22.0755" y1="50.5806" x2="23.6213" y2="52.8084" gradientUnits="userSpaceOnUse">
<stop stop-color="#EF6F2E"/>
<stop offset="1" stop-color="#FFC839"/>
</linearGradient>
<linearGradient id="paint4_linear" x1="21.7481" y1="1.27368" x2="33.2249" y2="17.8291" gradientUnits="userSpaceOnUse">
<stop stop-color="#EF6F2E"/>
<stop offset="1" stop-color="#FFC839"/>
</linearGradient>
<linearGradient id="paint5_linear" x1="3.32828" y1="11.2092" x2="10.168" y2="21.0806" gradientUnits="userSpaceOnUse">
<stop stop-color="#EF6F2E"/>
<stop offset="1" stop-color="#FFC839"/>
</linearGradient>
<linearGradient id="paint6_linear" x1="45.6193" y1="11.2092" x2="52.459" y2="21.0806" gradientUnits="userSpaceOnUse">
<stop stop-color="#EF6F2E"/>
<stop offset="1" stop-color="#FFC839"/>
</linearGradient>
<linearGradient id="paint7_linear" x1="10.8193" y1="15.7893" x2="23.8397" y2="27.2565" gradientUnits="userSpaceOnUse">
<stop stop-color="#EF6F2E"/>
<stop offset="1" stop-color="#FFC839"/>
</linearGradient>
<linearGradient id="paint8_linear" x1="37.3506" y1="15.7883" x2="50.3715" y2="27.2542" gradientUnits="userSpaceOnUse">
<stop stop-color="#EF6F2E"/>
<stop offset="1" stop-color="#FFC839"/>
</linearGradient>
<linearGradient id="paint9_linear" x1="32.2151" y1="13.8735" x2="44.8522" y2="20.4875" gradientUnits="userSpaceOnUse">
<stop stop-color="#EF6F2E"/>
<stop offset="1" stop-color="#FFC839"/>
</linearGradient>
<linearGradient id="paint10_linear" x1="38.6243" y1="10.8386" x2="40.1701" y2="13.0664" gradientUnits="userSpaceOnUse">
<stop stop-color="#EF6F2E"/>
<stop offset="1" stop-color="#FFC839"/>
</linearGradient>
<linearGradient id="paint11_linear" x1="41.3821" y1="7.22583" x2="42.9279" y2="9.45364" gradientUnits="userSpaceOnUse">
<stop stop-color="#EF6F2E"/>
<stop offset="1" stop-color="#FFC839"/>
</linearGradient>
<linearGradient id="paint12_linear" x1="18.637" y1="13.8735" x2="31.273" y2="20.486" gradientUnits="userSpaceOnUse">
<stop stop-color="#EF6F2E"/>
<stop offset="1" stop-color="#FFC839"/>
</linearGradient>
<linearGradient id="paint13_linear" x1="16.5599" y1="10.8386" x2="18.1056" y2="13.0664" gradientUnits="userSpaceOnUse">
<stop stop-color="#EF6F2E"/>
<stop offset="1" stop-color="#FFC839"/>
</linearGradient>
<linearGradient id="paint14_linear" x1="13.8021" y1="7.22583" x2="15.3478" y2="9.45364" gradientUnits="userSpaceOnUse">
<stop stop-color="#EF6F2E"/>
<stop offset="1" stop-color="#FFC839"/>
</linearGradient>
<linearGradient id="paint15_linear" x1="27.5911" y1="15.3547" x2="29.1369" y2="17.5825" gradientUnits="userSpaceOnUse">
<stop stop-color="#EF6F2E"/>
<stop offset="1" stop-color="#FFC839"/>
</linearGradient>
<linearGradient id="paint16_linear" x1="27.5911" y1="18.9678" x2="32.1248" y2="19.973" gradientUnits="userSpaceOnUse">
<stop stop-color="#EF6F2E"/>
<stop offset="1" stop-color="#FFC839"/>
</linearGradient>
<linearGradient id="paint17_linear" x1="53.3333" y1="24.3872" x2="54.8791" y2="26.615" gradientUnits="userSpaceOnUse">
<stop stop-color="#EF6F2E"/>
<stop offset="1" stop-color="#FFC839"/>
</linearGradient>
<linearGradient id="paint18_linear" x1="53.3333" y1="28" x2="54.8791" y2="30.2278" gradientUnits="userSpaceOnUse">
<stop stop-color="#EF6F2E"/>
<stop offset="1" stop-color="#FFC839"/>
</linearGradient>
<linearGradient id="paint19_linear" x1="55.1732" y1="26.1936" x2="56.7189" y2="28.4214" gradientUnits="userSpaceOnUse">
<stop stop-color="#EF6F2E"/>
<stop offset="1" stop-color="#FFC839"/>
</linearGradient>
<linearGradient id="paint20_linear" x1="51.4954" y1="26.1936" x2="53.0412" y2="28.4214" gradientUnits="userSpaceOnUse">
<stop stop-color="#EF6F2E"/>
<stop offset="1" stop-color="#FFC839"/>
</linearGradient>
<linearGradient id="paint21_linear" x1="50.5755" y1="4.96538e-08" x2="52.1213" y2="2.22781" gradientUnits="userSpaceOnUse">
<stop stop-color="#EF6F2E"/>
<stop offset="1" stop-color="#FFC839"/>
</linearGradient>
<linearGradient id="paint22_linear" x1="50.5755" y1="3.61279" x2="52.1213" y2="5.8406" gradientUnits="userSpaceOnUse">
<stop stop-color="#EF6F2E"/>
<stop offset="1" stop-color="#FFC839"/>
</linearGradient>
<linearGradient id="paint23_linear" x1="52.4134" y1="1.8064" x2="53.9591" y2="4.0342" gradientUnits="userSpaceOnUse">
<stop stop-color="#EF6F2E"/>
<stop offset="1" stop-color="#FFC839"/>
</linearGradient>
<linearGradient id="paint24_linear" x1="48.7376" y1="1.8064" x2="50.2834" y2="4.0342" gradientUnits="userSpaceOnUse">
<stop stop-color="#EF6F2E"/>
<stop offset="1" stop-color="#FFC839"/>
</linearGradient>
<linearGradient id="paint25_linear" x1="1.84894" y1="28" x2="3.39469" y2="30.2278" gradientUnits="userSpaceOnUse">
<stop stop-color="#EF6F2E"/>
<stop offset="1" stop-color="#FFC839"/>
</linearGradient>
<linearGradient id="paint26_linear" x1="1.84894" y1="31.6128" x2="3.39469" y2="33.8406" gradientUnits="userSpaceOnUse">
<stop stop-color="#EF6F2E"/>
<stop offset="1" stop-color="#FFC839"/>
</linearGradient>
<linearGradient id="paint27_linear" x1="3.68878" y1="29.8064" x2="5.23453" y2="32.0342" gradientUnits="userSpaceOnUse">
<stop stop-color="#EF6F2E"/>
<stop offset="1" stop-color="#FFC839"/>
</linearGradient>
<linearGradient id="paint28_linear" x1="0.0110484" y1="29.8064" x2="1.5568" y2="32.0342" gradientUnits="userSpaceOnUse">
<stop stop-color="#EF6F2E"/>
<stop offset="1" stop-color="#FFC839"/>
</linearGradient>
<linearGradient id="paint29_linear" x1="1.84894" y1="4.96538e-08" x2="3.39469" y2="2.22781" gradientUnits="userSpaceOnUse">
<stop stop-color="#EF6F2E"/>
<stop offset="1" stop-color="#FFC839"/>
</linearGradient>
<linearGradient id="paint30_linear" x1="1.84894" y1="3.61279" x2="3.39469" y2="5.8406" gradientUnits="userSpaceOnUse">
<stop stop-color="#EF6F2E"/>
<stop offset="1" stop-color="#FFC839"/>
</linearGradient>
<linearGradient id="paint31_linear" x1="3.68878" y1="1.8064" x2="5.23453" y2="4.0342" gradientUnits="userSpaceOnUse">
<stop stop-color="#EF6F2E"/>
<stop offset="1" stop-color="#FFC839"/>
</linearGradient>
<linearGradient id="paint32_linear" x1="0.0110484" y1="1.8064" x2="1.5568" y2="4.0342" gradientUnits="userSpaceOnUse">
<stop stop-color="#EF6F2E"/>
<stop offset="1" stop-color="#FFC839"/>
</linearGradient>
</defs>
</svg>
