<svg width="85" height="85" viewBox="0 0 85 85" fill="none" xmlns="http://www.w3.org/2000/svg">
<path d="M62.292 36.3C61.442 34.011 59.378 32.398 57 32.069V25.704L72.876 20.034L57.186 14H55V32.095C52.583 32.501 50.57 34.216 49.814 36.619L44.782 52.63C44.467 51.578 43.819 50.641 42.906 49.989L38.119 46.57L39.802 39H42.678C45.724 39 48.465 37.309 49.83 34.585L53.634 26.998C53.874 26.521 54 25.986 54 25.452C54 23.548 52.452 22 50.515 22C49.2 22 48.016 22.731 47.428 23.908L44.211 30.342C43.7 31.365 42.672 32 41.528 32H40.89C42.19 30.728 43 28.958 43 27C43 23.14 39.86 20 36 20C35.883 20 35.77 20.012 35.654 20.018C34.826 17.645 32.584 16 30 16C29.785 16 29.569 16.014 29.346 16.042C28.21 13.592 25.761 12 23 12C19.14 12 16 15.14 16 19C16 19.034 16.008 19.067 16.008 19.1C13.725 19.562 12 21.583 12 24C12 26.757 14.243 29 17 29H29.295C29.639 30.152 30.272 31.18 31.111 32H30.589C26.797 32 23.208 34.006 21.221 37.235L16.496 44.913C16.171 45.438 16 46.043 16 46.662C16 47.138 16.104 47.59 16.285 48H12V62H24.666L23.121 68.381C23.041 68.714 23 69.055 23 69.395V69.687C23 72.065 24.935 74 27.312 74C29.339 74 31.114 72.56 31.532 70.576L34.797 55.067L37 56.535V66C37 68.206 38.794 70 41 70H74V67.82L62.292 36.3ZM57 16.071L67.124 19.965L57 23.581V16.071ZM51.722 37.219C52.328 35.293 54.09 34 56.108 34C58.02 34 59.752 35.204 60.418 36.997L64.252 47.318C63.917 48.251 63.223 50 62.497 50C61.598 50 60.788 47.509 60.196 45.691C59.286 42.893 58.345 40 55.993 40C53.642 40 52.701 42.893 51.792 45.691C51.201 47.509 50.392 50 49.494 50C49.1 50 48.654 49.461 48.194 48.445L51.722 37.219ZM17 27C15.346 27 14 25.654 14 24C14 22.346 15.346 21 17 21C18.654 21 20 22.346 20 24H22C22 21.589 20.284 19.57 18.008 19.102C18.008 19.068 18 19.034 18 19C18 16.243 20.243 14 23 14C25.189 14 27.105 15.402 27.766 17.489L28.054 18.399L28.976 18.153C29.369 18.049 29.694 18 30 18C31.623 18 33.038 18.977 33.66 20.411C30.949 21.377 29 23.962 29 27H17ZM31 27C31 24.243 33.243 22 36 22C38.757 22 41 24.243 41 27C41 29.757 38.757 32 36 32C33.243 32 31 29.757 31 27ZM27.046 48H22.822L27.77 40.224C28.013 39.842 28.343 39.536 28.725 39.326L27.046 48ZM27.382 50L27.342 50.081C26.133 52.498 23.703 54 21 54C18.297 54 15.867 52.498 14.659 50.081L14.618 50H19.338H19.716H27.382ZM14 52.682C15.702 54.757 18.232 56 21 56C23.768 56 26.298 54.757 28 52.682V60H14V52.682ZM39 66V56.535C39 55.865 38.667 55.243 38.109 54.871L35.303 53H33.189L29.576 70.164C29.351 71.228 28.399 72 27.312 72C26.038 72 25 70.962 25 69.688V69.396C25 69.213 25.022 69.03 25.065 68.852L26.724 62H30V48H29.083L31.212 37H30C28.404 37 26.939 37.804 26.083 39.15L20.846 47.38C20.598 47.769 20.176 48 19.716 48H19.338C18.601 48 18 47.399 18 46.662C18 46.414 18.068 46.172 18.198 45.961L22.923 38.283C24.549 35.641 27.486 34 30.588 34H41.528C43.434 34 45.148 32.941 46 31.236L49.217 24.802C49.464 24.308 49.962 24 50.548 24C51.348 24 52 24.651 52 25.452C52 25.677 51.947 25.902 51.846 26.102L48.042 33.689C47.019 35.731 44.963 37 42.679 37H38.198L35.88 47.429L41.744 51.617C42.53 52.179 43 53.092 43 54.059V66C43 67.103 42.103 68 41 68C39.897 68 39 67.103 39 66ZM44.444 68C44.788 67.409 45 66.732 45 66V58.608L47.406 50.953C47.919 51.535 48.594 52 49.494 52C51.845 52 52.786 49.107 53.695 46.309C54.286 44.491 55.095 42 55.993 42C56.892 42 57.702 44.491 58.294 46.309C59.204 49.107 60.144 52 62.497 52C63.775 52 64.644 51.085 65.253 50.014L71.933 68H44.444Z" fill="url(#paint0_linear)"/>
<path d="M67 64H69V66H67V64Z" fill="url(#paint1_linear)"/>
<path d="M63 64H65V66H63V64Z" fill="url(#paint2_linear)"/>
<path d="M59 64H61V66H59V64Z" fill="url(#paint3_linear)"/>
<defs>
<linearGradient id="paint0_linear" x1="12.3725" y1="12" x2="65.7473" y2="87.5765" gradientUnits="userSpaceOnUse">
<stop stop-color="#EF6F2E"/>
<stop offset="1" stop-color="#FFC839"/>
</linearGradient>
<linearGradient id="paint1_linear" x1="67.012" y1="64" x2="68.7338" y2="66.438" gradientUnits="userSpaceOnUse">
<stop stop-color="#EF6F2E"/>
<stop offset="1" stop-color="#FFC839"/>
</linearGradient>
<linearGradient id="paint2_linear" x1="63.012" y1="64" x2="64.7338" y2="66.438" gradientUnits="userSpaceOnUse">
<stop stop-color="#EF6F2E"/>
<stop offset="1" stop-color="#FFC839"/>
</linearGradient>
<linearGradient id="paint3_linear" x1="59.012" y1="64" x2="60.7338" y2="66.438" gradientUnits="userSpaceOnUse">
<stop stop-color="#EF6F2E"/>
<stop offset="1" stop-color="#FFC839"/>
</linearGradient>
</defs>
</svg>
