<svg width="56" height="56" viewBox="0 0 56 56" fill="none" xmlns="http://www.w3.org/2000/svg">
<path d="M28 0.875C15.4558 0.875 5.25 11.0808 5.25 23.625C5.25 34.0484 12.2959 42.8553 21.875 45.5361V48.125C21.875 48.3571 21.9672 48.5796 22.1313 48.7437C22.2954 48.9078 22.5179 49 22.75 49H24.5V54.25C24.5 54.4821 24.5922 54.7046 24.7563 54.8687C24.9204 55.0328 25.1429 55.125 25.375 55.125H30.625C30.8571 55.125 31.0796 55.0328 31.2437 54.8687C31.4078 54.7046 31.5 54.4821 31.5 54.25V49H33.25C33.4821 49 33.7046 48.9078 33.8687 48.7437C34.0328 48.5796 34.125 48.3571 34.125 48.125V45.5361C43.7041 42.8553 50.75 34.0484 50.75 23.625C50.75 11.0808 40.5442 0.875 28 0.875ZM29.75 53.375H26.25V49H29.75V53.375ZM32.375 47.25H23.625V45.9517C26.5144 46.5161 29.4856 46.5161 32.375 45.9517V47.25ZM28 44.625C16.4205 44.625 7 35.2045 7 23.625C7 12.0455 16.4205 2.625 28 2.625C39.5795 2.625 49 12.0455 49 23.625C49 35.2045 39.5795 44.625 28 44.625Z" fill="url(#paint0_linear)"/>
<path d="M10.6219 25.7026C10.6094 25.5876 10.5743 25.4763 10.5185 25.375C10.4628 25.2737 10.3875 25.1844 10.297 25.1124C10.2065 25.0403 10.1027 24.9869 9.99144 24.9553C9.88021 24.9236 9.76381 24.9143 9.64897 24.928C9.53413 24.9416 9.42313 24.9778 9.32238 25.0346C9.22163 25.0914 9.13313 25.1675 9.06201 25.2587C8.99088 25.3499 8.93854 25.4543 8.90801 25.5658C8.87747 25.6774 8.86935 25.7939 8.88411 25.9086C8.90212 26.0605 8.92185 26.2118 8.94328 26.3626C8.97292 26.571 9.07671 26.7618 9.23562 26.8999C9.39453 27.038 9.59791 27.1142 9.80844 27.1144C9.85005 27.1144 9.8916 27.1114 9.9328 27.1056C10.1625 27.0728 10.3699 26.9502 10.5092 26.7646C10.6485 26.579 10.7084 26.3457 10.6757 26.1159C10.6562 25.9787 10.6383 25.8409 10.6219 25.7026Z" fill="url(#paint1_linear)"/>
<path d="M13.5403 12.2519C13.6271 12.3272 13.7279 12.3847 13.8369 12.421C13.9459 12.4574 14.061 12.4719 14.1756 12.4638C14.2903 12.4557 14.4022 12.425 14.505 12.3737C14.6077 12.3223 14.6994 12.2512 14.7747 12.1644C14.8659 12.0592 14.9582 11.9552 15.0518 11.8523C15.1291 11.7673 15.1889 11.6678 15.2277 11.5596C15.2666 11.4515 15.2838 11.3367 15.2783 11.2219C15.2728 11.1071 15.2448 10.9945 15.1958 10.8905C15.1468 10.7866 15.0778 10.6933 14.9927 10.616C14.9076 10.5387 14.8082 10.4789 14.7 10.44C14.5918 10.4011 14.4771 10.3839 14.3623 10.3894C14.2475 10.3949 14.1349 10.423 14.0309 10.472C13.9269 10.521 13.8336 10.59 13.7563 10.675C13.6538 10.7878 13.5525 10.9019 13.4524 11.0171C13.377 11.104 13.3195 11.2048 13.2832 11.3139C13.2468 11.4229 13.2323 11.5381 13.2405 11.6527C13.2487 11.7674 13.2793 11.8793 13.3308 11.9821C13.3822 12.0849 13.4534 12.1766 13.5403 12.2519Z" fill="url(#paint2_linear)"/>
<path d="M28.0005 6.125C28.1395 6.125 28.2783 6.1266 28.4167 6.12981H28.4373C28.6694 6.13245 28.893 6.0428 29.059 5.88057C29.2249 5.71834 29.3196 5.49683 29.3223 5.26477C29.3249 5.0327 29.2353 4.80909 29.073 4.64313C28.9108 4.47717 28.6893 4.38245 28.4572 4.37981C28.3054 4.3766 28.1532 4.375 28.0005 4.375H27.9995C27.7674 4.37513 27.5449 4.46744 27.3809 4.63163C27.2169 4.79582 27.1249 5.01843 27.125 5.25049C27.1251 5.48256 27.2174 5.70506 27.3816 5.86907C27.5458 6.03307 27.7684 6.12513 28.0005 6.125Z" fill="url(#paint3_linear)"/>
<path d="M20.3663 7.78115C20.4917 7.78108 20.6157 7.75396 20.7297 7.70163C20.8555 7.6441 20.982 7.58803 21.1093 7.53341C21.2174 7.48989 21.3158 7.4252 21.3986 7.34313C21.4814 7.26106 21.5469 7.16328 21.5914 7.05552C21.6359 6.94776 21.6584 6.8322 21.6576 6.71562C21.6568 6.59905 21.6327 6.48381 21.5867 6.37668C21.5407 6.26954 21.4738 6.17268 21.3899 6.09176C21.306 6.01085 21.2067 5.94752 21.098 5.9055C20.9893 5.86348 20.8732 5.84361 20.7567 5.84706C20.6402 5.85051 20.5255 5.87722 20.4194 5.9256C20.2794 5.98576 20.1401 6.04744 20.0017 6.11066C19.82 6.19368 19.6721 6.33643 19.5827 6.51516C19.4933 6.6939 19.4677 6.89785 19.5103 7.0931C19.5529 7.28835 19.6611 7.46314 19.8168 7.58839C19.9725 7.71365 20.1664 7.78182 20.3663 7.78159V7.78115Z" fill="url(#paint4_linear)"/>
<path d="M44.9076 19.0949C44.9677 19.3191 45.1143 19.5102 45.3153 19.6263C45.5163 19.7423 45.7551 19.7737 45.9793 19.7137C46.2034 19.6536 46.3946 19.507 46.5106 19.306C46.6266 19.105 46.6581 18.8662 46.598 18.642C46.5586 18.4944 46.5174 18.3475 46.4745 18.2015C46.4422 18.0912 46.3885 17.9884 46.3164 17.8988C46.2444 17.8093 46.1554 17.7349 46.0546 17.6798C45.9537 17.6246 45.843 17.5899 45.7288 17.5776C45.6145 17.5652 45.499 17.5755 45.3887 17.6078C45.2784 17.6401 45.1756 17.6939 45.0861 17.7659C44.9966 17.838 44.9221 17.927 44.867 18.0278C44.8119 18.1286 44.7772 18.2393 44.7648 18.3536C44.7525 18.4678 44.7628 18.5834 44.7951 18.6937C44.8344 18.8266 44.8719 18.9603 44.9076 19.0949Z" fill="url(#paint5_linear)"/>
<path d="M35.2697 7.70178C35.3962 7.75953 35.5218 7.81881 35.6466 7.87963C35.8549 7.979 36.0941 7.99206 36.312 7.91595C36.5298 7.83984 36.7088 7.68073 36.8099 7.47327C36.9111 7.26581 36.9261 7.0268 36.8518 6.80828C36.7776 6.58977 36.62 6.40945 36.4134 6.3066C36.2755 6.23944 36.1368 6.17382 35.9971 6.10972C35.8924 6.06086 35.7791 6.03321 35.6637 6.02836C35.5483 6.02351 35.4331 6.04155 35.3247 6.08145C35.2163 6.12135 35.1169 6.18231 35.0322 6.26083C34.9475 6.33934 34.8791 6.43385 34.8311 6.5389C34.7831 6.64396 34.7564 6.75748 34.7525 6.87291C34.7485 6.98835 34.7675 7.10342 34.8083 7.21148C34.8491 7.31955 34.9108 7.41847 34.99 7.50255C35.0692 7.58663 35.1643 7.65419 35.2697 7.70134V7.70178Z" fill="url(#paint6_linear)"/>
<path d="M41.4947 12.4832C41.6426 12.6621 41.8554 12.7749 42.0864 12.7969C42.3175 12.8189 42.5478 12.7481 42.7267 12.6003C42.9056 12.4525 43.0184 12.2396 43.0404 12.0086C43.0623 11.7775 42.9916 11.5472 42.8438 11.3684C42.7464 11.2507 42.6477 11.1342 42.5477 11.0189C42.4724 10.9321 42.3807 10.861 42.2779 10.8096C42.1752 10.7582 42.0633 10.7276 41.9486 10.7195C41.834 10.7113 41.7189 10.7259 41.6099 10.7622C41.5009 10.7986 41.4001 10.856 41.3133 10.9313C41.2265 11.0066 41.1554 11.0983 41.104 11.2011C41.0527 11.3039 41.022 11.4158 41.0139 11.5304C41.0058 11.645 41.0203 11.7601 41.0567 11.8691C41.093 11.9781 41.1505 12.0789 41.2258 12.1657C41.3167 12.2705 41.4064 12.3763 41.4947 12.4832Z" fill="url(#paint7_linear)"/>
<path d="M10.7588 17.1944C10.6493 17.1594 10.5341 17.1463 10.4196 17.1559C10.305 17.1654 10.1935 17.1975 10.0914 17.2501C9.98926 17.3028 9.8985 17.375 9.8243 17.4628C9.75009 17.5505 9.6939 17.652 9.65892 17.7615C9.61254 17.9067 9.56777 18.0528 9.5246 18.1997C9.49074 18.3105 9.47918 18.4268 9.49059 18.542C9.50201 18.6572 9.53617 18.769 9.59111 18.8709C9.64604 18.9728 9.72065 19.0628 9.81062 19.1357C9.90059 19.2085 10.0041 19.2628 10.1152 19.2954C10.2263 19.328 10.3428 19.3381 10.4578 19.3254C10.5729 19.3126 10.6843 19.2771 10.7855 19.221C10.8868 19.1649 10.9759 19.0892 11.0477 18.9984C11.1195 18.9076 11.1726 18.8034 11.2038 18.6919C11.243 18.5585 11.2837 18.4258 11.3259 18.2937C11.3964 18.0727 11.3763 17.8328 11.2699 17.6266C11.1636 17.4205 10.9797 17.265 10.7588 17.1944Z" fill="url(#paint8_linear)"/>
<path d="M45.0822 30.464C44.8712 30.3675 44.6306 30.3588 44.4132 30.4397C44.1957 30.5207 44.0194 30.6846 43.9228 30.8956C43.8645 31.0223 43.805 31.1483 43.7444 31.2735C43.6942 31.3768 43.6647 31.489 43.6578 31.6037C43.6509 31.7184 43.6667 31.8334 43.7042 31.942C43.7417 32.0506 43.8003 32.1508 43.8765 32.2368C43.9528 32.3228 44.0452 32.3929 44.1485 32.4432C44.2519 32.4934 44.3641 32.5229 44.4788 32.5298C44.5935 32.5367 44.7084 32.5209 44.8171 32.4834C44.9257 32.4459 45.0258 32.3873 45.1118 32.3111C45.1978 32.2348 45.268 32.1424 45.3182 32.0391C45.385 31.9016 45.4503 31.7631 45.5141 31.6235C45.6106 31.4124 45.6193 31.1717 45.5383 30.9543C45.4573 30.7368 45.2932 30.5605 45.0822 30.464Z" fill="url(#paint9_linear)"/>
<path d="M39.4595 36.8524C39.3547 36.9432 39.2488 37.0328 39.1418 37.1213C38.9629 37.2692 38.8501 37.482 38.8281 37.7131C38.8173 37.8275 38.8291 37.9429 38.8628 38.0527C38.8965 38.1626 38.9516 38.2647 39.0248 38.3533C39.098 38.4418 39.1879 38.5151 39.2895 38.5689C39.391 38.6228 39.5021 38.656 39.6165 38.6669C39.8476 38.6888 40.0779 38.6181 40.2567 38.4702C40.3744 38.3729 40.4909 38.2742 40.6062 38.1743C40.694 38.0993 40.766 38.0076 40.8183 37.9047C40.8705 37.8017 40.9018 37.6894 40.9104 37.5743C40.919 37.4591 40.9047 37.3434 40.8684 37.2338C40.8321 37.1242 40.7744 37.0229 40.6988 36.9357C40.6231 36.8485 40.5309 36.7771 40.4276 36.7256C40.3242 36.6742 40.2117 36.6437 40.0965 36.636C39.9813 36.6283 39.8657 36.6434 39.7564 36.6805C39.647 36.7177 39.5462 36.7761 39.4595 36.8524Z" fill="url(#paint10_linear)"/>
<path d="M46.3743 22.75C46.1422 22.75 45.9197 22.8422 45.7556 23.0063C45.5915 23.1704 45.4993 23.3929 45.4993 23.625C45.4993 23.7642 45.4977 23.9031 45.4944 24.0418C45.4917 24.1567 45.5116 24.271 45.5531 24.3782C45.5946 24.4853 45.6567 24.5833 45.7361 24.6664C45.8154 24.7496 45.9103 24.8163 46.0154 24.8627C46.1205 24.9092 46.2337 24.9345 46.3486 24.9372H46.3696C46.598 24.9371 46.8174 24.8476 46.9807 24.688C47.1441 24.5283 47.2386 24.3111 47.2439 24.0827C47.2475 23.9307 47.2493 23.7781 47.2493 23.625C47.2493 23.3929 47.1571 23.1704 46.993 23.0063C46.8289 22.8422 46.6064 22.75 46.3743 22.75Z" fill="url(#paint11_linear)"/>
<path d="M32.9308 40.4212C32.7978 40.4603 32.6642 40.4977 32.5298 40.5336C32.3057 40.5935 32.1145 40.7401 31.9983 40.941C31.8822 41.1419 31.8506 41.3807 31.9106 41.6049C31.9705 41.8291 32.1171 42.0203 32.318 42.1364C32.5189 42.2526 32.7577 42.2841 32.9819 42.2242C33.1296 42.1847 33.2767 42.1435 33.4232 42.1006C33.645 42.0346 33.8316 41.8833 33.9422 41.6801C34.0528 41.4768 34.0783 41.2379 34.0132 41.0159C33.9481 40.7938 33.7977 40.6065 33.5949 40.4951C33.3921 40.3837 33.1534 40.3571 32.931 40.4212H32.9308Z" fill="url(#paint12_linear)"/>
<path d="M25.5068 40.9488C25.3692 40.9291 25.232 40.9078 25.0953 40.885C24.9816 40.8652 24.8651 40.8681 24.7525 40.8936C24.64 40.919 24.5335 40.9664 24.4394 41.0332C24.3452 41.0999 24.2652 41.1846 24.2039 41.2824C24.1426 41.3801 24.1013 41.4891 24.0823 41.6029C24.0633 41.7167 24.0669 41.8332 24.0931 41.9456C24.1193 42.058 24.1675 42.1641 24.2348 42.2578C24.3022 42.3515 24.3874 42.4309 24.4856 42.4916C24.5838 42.5522 24.693 42.5928 24.807 42.6111C24.9575 42.6362 25.1084 42.6596 25.2599 42.6812C25.3742 42.6987 25.4909 42.6933 25.6031 42.6655C25.7154 42.6376 25.821 42.5878 25.9139 42.5188C26.0068 42.4499 26.0851 42.3632 26.1442 42.2638C26.2034 42.1644 26.2423 42.0543 26.2586 41.9397C26.2749 41.8252 26.2684 41.7086 26.2393 41.5966C26.2103 41.4847 26.1594 41.3796 26.0895 41.2874C26.0195 41.1953 25.9321 41.1179 25.8321 41.0598C25.7321 41.0016 25.6215 40.9639 25.5068 40.9488Z" fill="url(#paint13_linear)"/>
<path d="M18.5363 38.3488C18.4197 38.2735 18.3037 38.1969 18.1884 38.1191C18.0933 38.0546 17.9865 38.0095 17.8739 37.9863C17.7614 37.9631 17.6454 37.9623 17.5325 37.9839C17.4197 38.0056 17.3122 38.0492 17.2162 38.1124C17.1202 38.1756 17.0376 38.257 16.9731 38.3521C16.9086 38.4472 16.8635 38.5541 16.8403 38.6666C16.8171 38.7792 16.8163 38.8952 16.8379 39.008C16.8596 39.1209 16.9032 39.2284 16.9664 39.3244C17.0296 39.4203 17.111 39.5029 17.2061 39.5674C17.3328 39.6533 17.4604 39.7377 17.5889 39.8204C17.6855 39.8836 17.7937 39.9271 17.9072 39.9483C18.0206 39.9695 18.1372 39.9681 18.2501 39.944C18.363 39.92 18.4701 39.8739 18.5651 39.8083C18.6601 39.7427 18.7412 39.659 18.8037 39.5619C18.8662 39.4649 18.9088 39.3564 18.9292 39.2428C18.9496 39.1291 18.9473 39.0126 18.9225 38.8999C18.8976 38.7871 18.8507 38.6804 18.7844 38.5859C18.7182 38.4914 18.6339 38.4109 18.5363 38.3491V38.3488Z" fill="url(#paint14_linear)"/>
<path d="M13.0533 32.7322C12.9323 32.5342 12.7376 32.3924 12.512 32.3379C12.2864 32.2835 12.0484 32.3208 11.8504 32.4418C11.6524 32.5629 11.5105 32.7576 11.4561 32.9832C11.4016 33.2087 11.439 33.4467 11.56 33.6447C11.6396 33.7748 11.7205 33.9039 11.8029 34.0319C11.8646 34.1297 11.945 34.2142 12.0396 34.2807C12.1341 34.3472 12.2409 34.3943 12.3537 34.4193C12.4666 34.4443 12.5832 34.4467 12.697 34.4264C12.8108 34.406 12.9194 34.3633 13.0166 34.3008C13.1137 34.2382 13.1976 34.157 13.2632 34.0619C13.3288 33.9668 13.375 33.8596 13.3989 33.7465C13.4229 33.6334 13.4242 33.5167 13.4028 33.4032C13.3815 33.2896 13.3378 33.1814 13.2744 33.0848C13.1995 32.9683 13.1258 32.8508 13.0533 32.7322Z" fill="url(#paint15_linear)"/>
<path d="M28 7.875C19.3156 7.875 12.25 14.9406 12.25 23.625C12.25 32.3094 19.3156 39.375 28 39.375C36.6844 39.375 43.75 32.3094 43.75 23.625C43.75 14.9406 36.6844 7.875 28 7.875ZM28 37.625C25.2311 37.625 22.5243 36.8039 20.222 35.2656C17.9197 33.7272 16.1253 31.5407 15.0657 28.9826C14.0061 26.4244 13.7288 23.6095 14.269 20.8937C14.8092 18.178 16.1426 15.6834 18.1005 13.7255C20.0584 11.7676 22.553 10.4342 25.2687 9.89401C27.9845 9.35381 30.7994 9.63106 33.3576 10.6907C35.9157 11.7503 38.1022 13.5447 39.6406 15.847C41.1789 18.1493 42 20.8561 42 23.625C41.9958 27.3367 40.5195 30.8953 37.8949 33.5199C35.2703 36.1445 31.7117 37.6208 28 37.625Z" fill="url(#paint16_linear)"/>
<defs>
<linearGradient id="paint0_linear" x1="5.5234" y1="0.875001" x2="54.3563" y2="58.8679" gradientUnits="userSpaceOnUse">
<stop stop-color="#EF6F2E"/>
<stop offset="1" stop-color="#FFC839"/>
</linearGradient>
<linearGradient id="paint1_linear" x1="8.88781" y1="24.9219" x2="10.8669" y2="27.2321" gradientUnits="userSpaceOnUse">
<stop stop-color="#EF6F2E"/>
<stop offset="1" stop-color="#FFC839"/>
</linearGradient>
<linearGradient id="paint2_linear" x1="13.2505" y1="10.3884" x2="15.0495" y2="12.8908" gradientUnits="userSpaceOnUse">
<stop stop-color="#EF6F2E"/>
<stop offset="1" stop-color="#FFC839"/>
</linearGradient>
<linearGradient id="paint3_linear" x1="27.1382" y1="4.375" x2="28.5101" y2="6.8073" gradientUnits="userSpaceOnUse">
<stop stop-color="#EF6F2E"/>
<stop offset="1" stop-color="#FFC839"/>
</linearGradient>
<linearGradient id="paint4_linear" x1="19.5033" y1="5.84668" x2="21.0981" y2="8.37617" gradientUnits="userSpaceOnUse">
<stop stop-color="#EF6F2E"/>
<stop offset="1" stop-color="#FFC839"/>
</linearGradient>
<linearGradient id="paint5_linear" x1="44.771" y1="17.5725" x2="46.7161" y2="19.9424" gradientUnits="userSpaceOnUse">
<stop stop-color="#EF6F2E"/>
<stop offset="1" stop-color="#FFC839"/>
</linearGradient>
<linearGradient id="paint6_linear" x1="34.7649" y1="6.02759" x2="36.3691" y2="8.54439" gradientUnits="userSpaceOnUse">
<stop stop-color="#EF6F2E"/>
<stop offset="1" stop-color="#FFC839"/>
</linearGradient>
<linearGradient id="paint7_linear" x1="41.0239" y1="10.7173" x2="42.832" y2="13.2149" gradientUnits="userSpaceOnUse">
<stop stop-color="#EF6F2E"/>
<stop offset="1" stop-color="#FFC839"/>
</linearGradient>
<linearGradient id="paint8_linear" x1="9.49763" y1="17.1528" x2="11.4475" y2="19.5373" gradientUnits="userSpaceOnUse">
<stop stop-color="#EF6F2E"/>
<stop offset="1" stop-color="#FFC839"/>
</linearGradient>
<linearGradient id="paint9_linear" x1="43.6679" y1="30.3848" x2="45.5713" y2="32.8168" gradientUnits="userSpaceOnUse">
<stop stop-color="#EF6F2E"/>
<stop offset="1" stop-color="#FFC839"/>
</linearGradient>
<linearGradient id="paint10_linear" x1="38.8368" y1="36.634" x2="40.5751" y2="39.158" gradientUnits="userSpaceOnUse">
<stop stop-color="#EF6F2E"/>
<stop offset="1" stop-color="#FFC839"/>
</linearGradient>
<linearGradient id="paint11_linear" x1="45.5047" y1="22.75" x2="47.4864" y2="25.0018" gradientUnits="userSpaceOnUse">
<stop stop-color="#EF6F2E"/>
<stop offset="1" stop-color="#FFC839"/>
</linearGradient>
<linearGradient id="paint12_linear" x1="31.8939" y1="40.387" x2="33.4082" y2="42.8767" gradientUnits="userSpaceOnUse">
<stop stop-color="#EF6F2E"/>
<stop offset="1" stop-color="#FFC839"/>
</linearGradient>
<linearGradient id="paint13_linear" x1="24.0835" y1="40.8721" x2="25.5318" y2="43.3487" gradientUnits="userSpaceOnUse">
<stop stop-color="#EF6F2E"/>
<stop offset="1" stop-color="#FFC839"/>
</linearGradient>
<linearGradient id="paint14_linear" x1="16.835" y1="37.9683" x2="18.5149" y2="40.4969" gradientUnits="userSpaceOnUse">
<stop stop-color="#EF6F2E"/>
<stop offset="1" stop-color="#FFC839"/>
</linearGradient>
<linearGradient id="paint15_linear" x1="11.4436" y1="32.3135" x2="13.3126" y2="34.7854" gradientUnits="userSpaceOnUse">
<stop stop-color="#EF6F2E"/>
<stop offset="1" stop-color="#FFC839"/>
</linearGradient>
<linearGradient id="paint16_linear" x1="12.4393" y1="7.875" x2="39.5571" y2="46.2727" gradientUnits="userSpaceOnUse">
<stop stop-color="#EF6F2E"/>
<stop offset="1" stop-color="#FFC839"/>
</linearGradient>
</defs>
</svg>
