<svg width="22" height="13" viewBox="0 0 22 13" fill="none" xmlns="http://www.w3.org/2000/svg">
<path d="M11.6673 1.33274C11.0815 0.746952 10.1317 0.746952 9.54594 1.33274L1.06066 9.81802C0.474874 10.4038 0.474874 11.3536 1.06066 11.9393C1.64645 12.5251 2.59619 12.5251 3.18198 11.9393L11.6673 3.45406C12.253 2.86827 12.253 1.91852 11.6673 1.33274Z" fill="white"/>
<path d="M10.0607 1.33251C9.47487 1.9183 9.47487 2.86804 10.0607 3.45383L18.5459 11.9391C19.1317 12.5249 20.0815 12.5249 20.6673 11.9391C21.253 11.3533 21.253 10.4036 20.6673 9.81779L12.182 1.33251C11.5962 0.746726 10.6464 0.746725 10.0607 1.33251Z" fill="white"/>
</svg>
