<svg width="140" height="40" viewBox="0 0 140 40" fill="none" xmlns="http://www.w3.org/2000/svg">
<line x1="12" y1="20.25" x2="124" y2="20.25" stroke="#EF6F2E" stroke-width="1.5"/>
<path d="M118.07 27.1484C117.867 27.1484 117.695 27.0781 117.555 26.9375C117.419 26.8021 117.352 26.6328 117.352 26.4297C117.352 26.2422 117.422 26.0729 117.562 25.9219L123.242 20.3594L117.562 14.7969C117.422 14.6458 117.352 14.4766 117.352 14.2891C117.352 14.0859 117.419 13.9167 117.555 13.7813C117.695 13.6406 117.867 13.5703 118.07 13.5703C118.273 13.5703 118.443 13.6432 118.578 13.7891L124.766 19.8359C124.917 19.9714 124.992 20.1458 124.992 20.3594C124.992 20.5573 124.917 20.7318 124.766 20.8828L118.578 26.9375C118.427 27.0781 118.258 27.1484 118.07 27.1484Z" fill="#EF6F2E"/>
</svg>
