<svg width="140" height="40" viewBox="0 0 140 40" fill="none" xmlns="http://www.w3.org/2000/svg">
<line x1="128" y1="19.75" x2="16" y2="19.75" stroke="#EF6F2E" stroke-width="1.5"/>
<path d="M21.9297 12.8516C22.1328 12.8516 22.3047 12.9219 22.4453 13.0625C22.5807 13.1979 22.6484 13.3672 22.6484 13.5703C22.6484 13.7578 22.5781 13.9271 22.4375 14.0781L16.7578 19.6406L22.4375 25.2031C22.5781 25.3542 22.6484 25.5234 22.6484 25.7109C22.6484 25.9141 22.5807 26.0833 22.4453 26.2187C22.3047 26.3594 22.1328 26.4297 21.9297 26.4297C21.7266 26.4297 21.5573 26.3568 21.4219 26.2109L15.2344 20.1641C15.0833 20.0286 15.0078 19.8542 15.0078 19.6406C15.0078 19.4427 15.0833 19.2682 15.2344 19.1172L21.4219 13.0625C21.5729 12.9219 21.7422 12.8516 21.9297 12.8516Z" fill="#EF6F2E"/>
</svg>
