<svg width="8" height="15" viewBox="0 0 8 15" fill="none" xmlns="http://www.w3.org/2000/svg">
<path d="M6.92969 0.851562C7.13282 0.851562 7.30469 0.921875 7.44532 1.0625C7.58073 1.19792 7.64844 1.36719 7.64844 1.57031C7.64844 1.75781 7.57813 1.92708 7.4375 2.07812L1.75781 7.64062L7.4375 13.2031C7.57813 13.3542 7.64844 13.5234 7.64844 13.7109C7.64844 13.9141 7.58073 14.0833 7.44531 14.2187C7.30469 14.3594 7.13281 14.4297 6.92969 14.4297C6.72656 14.4297 6.55729 14.3568 6.42188 14.2109L0.234376 8.16406C0.0833348 8.02865 0.00781395 7.85417 0.00781399 7.64062C0.00781402 7.44271 0.0833349 7.26823 0.234377 7.11719L6.42188 1.0625C6.57292 0.921875 6.74219 0.851562 6.92969 0.851562Z" fill="#C1C1C1"/>
</svg>
