<svg width="8" height="15" viewBox="0 0 8 15" fill="none" xmlns="http://www.w3.org/2000/svg">
<path d="M1.07031 14.1484C0.867184 14.1484 0.695309 14.0781 0.554684 13.9375C0.419267 13.8021 0.351559 13.6328 0.351559 13.4297C0.351559 13.2422 0.421871 13.0729 0.562496 12.9219L6.24219 7.35938L0.562499 1.79688C0.421874 1.64583 0.351562 1.47656 0.351562 1.28906C0.351562 1.08594 0.41927 0.916667 0.554687 0.78125C0.695312 0.640625 0.867187 0.570313 1.07031 0.570313C1.27344 0.570313 1.44271 0.64323 1.57812 0.789063L7.76562 6.83594C7.91666 6.97136 7.99219 7.14583 7.99219 7.35938C7.99219 7.55729 7.91666 7.73177 7.76562 7.88281L1.57812 13.9375C1.42708 14.0781 1.25781 14.1484 1.07031 14.1484Z" fill="#C1C1C1"/>
</svg>
