<svg width="24" height="24" viewBox="0 0 24 24" fill="none" xmlns="http://www.w3.org/2000/svg">
<g clip-path="url(#clip0)">
<path d="M8.68164 21.835C9.24502 23.1086 10.52 24 12 24C13.4799 24 14.7548 23.1086 15.3183 21.835H8.68164Z" fill="white"/>
<path d="M11.9989 2.29297C12.9755 2.29297 13.9133 2.46528 14.7835 2.78076V2.67356C14.7835 1.19935 13.5841 0 12.11 0H11.8884C10.4142 0 9.21484 1.19935 9.21484 2.67356V2.77939C10.0846 2.46486 11.022 2.29297 11.9989 2.29297Z" fill="white"/>
<path d="M20.7892 20.4265H3.21309C2.88057 20.4265 2.57599 20.2022 2.50683 19.877C2.43838 19.5549 2.58515 19.237 2.88292 19.0995C2.95358 19.0536 3.48546 18.6817 4.01795 17.5565C4.99592 15.4901 5.2012 12.5793 5.2012 10.5013C5.2012 6.75192 8.25155 3.70166 12.0009 3.70166C15.7414 3.70166 18.7861 6.73723 18.8005 10.4743C18.8009 10.4833 18.8011 10.4923 18.8011 10.5013C18.8011 12.5793 19.0063 15.4901 19.9843 17.5565C20.5168 18.6817 21.0486 19.0537 21.1193 19.0995C21.4171 19.237 21.5639 19.5549 21.4954 19.877C21.4263 20.2022 21.1217 20.4265 20.7892 20.4265ZM21.1272 19.1045H21.1277H21.1272Z" fill="white"/>
</g>
<defs>
<clipPath id="clip0">
<rect width="24" height="24" fill="white"/>
</clipPath>
</defs>
</svg>
