<?xml version="1.0" encoding="utf-8"?>
<!-- Generator: Adobe Illustrator 24.0.1, SVG Export Plug-In . SVG Version: 6.00 Build 0)  -->
<svg version="1.1" id="Layer_5" xmlns="http://www.w3.org/2000/svg" xmlns:xlink="http://www.w3.org/1999/xlink" x="0px" y="0px"
	 viewBox="0 0 512 658.3" style="enable-background:new 0 0 512 658.3;" xml:space="preserve">
<style type="text/css">
	.st0{fill:#FFFFFF;}
	.st1{fill:#FF3500;}
	.st2{fill:#131313;}
</style>
<g>
	<path class="st0" d="M488,634.3v-240h-16v-32h-16v-48h-16v-32h-16v32h-16v48h-16V184.6l-48,9.6v-23.8h-16v27l-16,3.2v-46.2h-16
		v49.4l-16,3.2v-36.6h-16v39.8l-48,9.6v46.6H72v16h16v96.7c-2.6-0.4-5.3-0.7-8-0.7c-30.9,0-56,28.7-56,64c0,32.2,20.9,58.8,48,63.3
		V516c-6.7-6.1-15-9.7-24-9.7c-22.1,0-40,21.5-40,48c0,23.2,13.8,42.6,32,47v33H8v16h496v-16H488z"/>
	<path class="st0" d="M136,626.3c0-13.2,10.8-24,24-24c8.6,0,16.7,4.7,20.9,12.2l2.5,4.4l8.6-0.6c2.4,0,4.8,0.5,7.6,1.4l7.8,2.6
		l2.4-7.8c5.2-16.8,20.6-28.2,38.2-28.2c14.5,0,28,7.9,35,20.7l5,9.1l7.5-7.1c9-8.5,23.9-8.5,32.9,0l7.5,7.1l5-9.1
		c7.1-12.8,20.5-20.7,35-20.7c17.4,0,32.6,11.1,38,27.6l2.2,6.9l7.1-1.6c15.9-3.5,31.4,3,40.5,15H137.6
		C136.6,631.7,136,629.1,136,626.3L136,626.3z"/>
	<path class="st0" d="M472,410.3v209.1c-4.6-4.8-10-8.7-16-11.5V426.3H344v154.2c-4.5,3.1-8.6,6.9-12,11.2c-1.3-0.7-2.6-1.4-4-2
		V410.3H472z"/>
	<path class="st0" d="M376,570.3c-5.5,0-10.9,0.9-16,2.4V442.3h32v130.3C386.9,571.1,381.5,570.3,376,570.3z"/>
	<path class="st0" d="M408,442.3h32v160.8c-4.3-0.6-8.8-0.9-13.3-0.5c-4.2-9.1-10.8-16.6-18.7-22.1V442.3z"/>
	<rect x="344" y="378.3" class="st0" width="112" height="16"/>
	<rect x="424" y="330.3" class="st0" width="16" height="32"/>
	<path class="st0" d="M376,204.1v158.2h-48v32h-16v192.1c-7,0-13.9,1.8-20,5.3c-10.5-13.4-26.7-21.4-44-21.4c-5.5,0-10.9,0.8-16,2.3
		V232.9L376,204.1z"/>
	<path class="st0" d="M104,282.3h112v298.1c-8,5.6-14.6,13.1-18.8,22.3c-1.7-0.2-3.4-0.4-5.2-0.4c-7.5-10-19.4-16-32-16
		c-22.1,0-40,17.9-40,40c0,2.7,0.4,5.4,0.9,8H88v-29l48-56v-19.7c27.1-4.5,48-31.1,48-63.3c0-24.1-11.7-45.1-29-56h13v-16h-16v14.3
		c-7.3-4-15.4-6.3-24-6.3c-1.4,0-2.8,0.1-4.2,0.2c-5.3-7.6-12.1-13.7-19.8-18V282.3z"/>
	<path class="st0" d="M136,442.3c0-8.4-1.5-16.4-4-23.8c20.2,2.4,36,22.9,36,47.8c0,26.5-17.9,48-40,48c-10.1,0-19.7-4.6-27-12.7
		C121.5,492.1,136,469.1,136,442.3z"/>
	<path class="st0" d="M88,511c8.6,10.1,19.8,16.6,32,18.6v13.8l-32,37.3V511z"/>
	<path class="st0" d="M40,442.3c0-26.5,17.9-48,40-48s40,21.5,40,48c0,23.2-13.8,42.6-32,47v-55H72v55C53.8,484.9,40,465.5,40,442.3
		z"/>
	<ellipse class="st0" cx="48" cy="554.3" rx="24" ry="32"/>
	<path class="st0" d="M56,601.4c5.9-1.4,11.3-4.5,16-8.7v41.7H56V601.4z"/>
	<path class="st0" d="M184,298.3h16v16h-16V298.3z"/>
	<path class="st0" d="M152,298.3h16v16h-16V298.3z"/>
	<path class="st0" d="M120,298.3h16v16h-16V298.3z"/>
	<path class="st0" d="M152,330.3h16v16h-16V330.3z"/>
	<path class="st0" d="M120,330.3h16v16h-16V330.3z"/>
	<path class="st0" d="M184,330.3h16v16h-16V330.3z"/>
	<path class="st0" d="M184,362.3h16v16h-16V362.3z"/>
	<path class="st0" d="M120,362.3h16v16h-16V362.3z"/>
	<path class="st0" d="M152,362.3h16v16h-16V362.3z"/>
	<path class="st0" d="M184,394.3h16v16h-16V394.3z"/>
</g>
<g>
	<path class="st1" d="M120,298.3v80h32v32h48v-32v-80H120z"/>
</g>
<g>
	<g>
		<path class="st1" d="M296,314.3h-48v-64h48V314.3z"/>
	</g>
</g>
<g>
	<g>
		<path class="st1" d="M296,394.3h-48v-64h48V394.3z"/>
	</g>
</g>
<g>
	<g>
		<path class="st1" d="M296,474.3h-48v-64h48V474.3z"/>
	</g>
</g>
<g>
	<g>
		<path class="st1" d="M296,554.3h-48v-64h48V554.3z"/>
	</g>
</g>
<g>
	<g>
		<path class="st1" d="M360,314.3h-48v-64h48V314.3z"/>
	</g>
</g>
<g>
	<path class="st2" d="M488,634.3v-240h-16v-32h-16v-48h-16v-32h-16v32h-16v48h-16V184.6l-48,9.6v-23.8h-16v27l-16,3.2v-46.2h-16
		v49.4l-16,3.2v-36.6h-16v39.8l-48,9.6v46.6H72v16h16v96.7c-2.6-0.4-5.3-0.7-8-0.7c-30.9,0-56,28.7-56,64c0,32.2,20.9,58.8,48,63.3
		V516c-6.7-6.1-15-9.7-24-9.7c-22.1,0-40,21.5-40,48c0,23.2,13.8,42.6,32,47v33H8v16h496v-16H488z M136,626.3c0-13.2,10.8-24,24-24
		c8.6,0,16.7,4.7,20.9,12.2l2.5,4.4l8.6-0.6c2.4,0,4.8,0.5,7.6,1.4l7.8,2.6l2.4-7.8c5.2-16.8,20.6-28.2,38.2-28.2
		c14.5,0,28,7.9,35,20.7l5,9.1l7.5-7.1c9-8.5,23.9-8.5,32.9,0l7.5,7.1l5-9.1c7.1-12.8,20.5-20.7,35-20.7c17.4,0,32.6,11.1,38,27.6
		l2.2,6.9l7.1-1.6c15.9-3.5,31.4,3,40.5,15H137.6C136.6,631.7,136,629.1,136,626.3L136,626.3z M472,410.3v209.1
		c-4.6-4.8-10-8.7-16-11.5V426.3H344v154.2c-4.5,3.1-8.6,6.9-12,11.2c-1.3-0.7-2.6-1.4-4-2V410.3H472z M376,570.3
		c-5.5,0-10.9,0.9-16,2.4V442.3h32v130.3C386.9,571.1,381.5,570.3,376,570.3z M408,442.3h32v160.8c-4.3-0.6-8.8-0.9-13.3-0.5
		c-4.2-9.1-10.8-16.6-18.7-22.1V442.3z M344,394.3v-16h112v16H344z M424,330.3h16v32h-16V330.3z M376,204.1v158.2h-48v32h-16v192.1
		c-7,0-13.9,1.8-20,5.3c-10.5-13.4-26.7-21.4-44-21.4c-5.5,0-10.9,0.8-16,2.3V232.9L376,204.1z M104,282.3h112v298.1
		c-8,5.6-14.6,13.1-18.8,22.3c-1.7-0.2-3.4-0.4-5.2-0.4c-7.5-10-19.4-16-32-16c-22.1,0-40,17.9-40,40c0,2.7,0.4,5.4,0.9,8H88v-29
		l48-56v-19.7c27.1-4.5,48-31.1,48-63.3c0-24.1-11.7-45.1-29-56h13v-16h-16v14.3c-7.3-4-15.4-6.3-24-6.3c-1.4,0-2.8,0.1-4.2,0.2
		c-5.3-7.6-12.1-13.7-19.8-18V282.3z M136,442.3c0-8.4-1.5-16.4-4-23.8c20.2,2.4,36,22.9,36,47.8c0,26.5-17.9,48-40,48
		c-10.1,0-19.7-4.6-27-12.7C121.5,492.1,136,469.1,136,442.3z M88,511c8.6,10.1,19.8,16.6,32,18.6v13.8l-32,37.3V511z M40,442.3
		c0-26.5,17.9-48,40-48s40,21.5,40,48c0,23.2-13.8,42.6-32,47v-55H72v55C53.8,484.9,40,465.5,40,442.3z M24,554.3
		c0-17.6,10.8-32,24-32s24,14.4,24,32s-10.8,32-24,32S24,572,24,554.3z M56,601.4c5.9-1.4,11.3-4.5,16-8.7v41.7H56V601.4z"/>
	<path class="st2" d="M184,298.3h16v16h-16V298.3z"/>
	<path class="st2" d="M152,298.3h16v16h-16V298.3z"/>
	<path class="st2" d="M120,298.3h16v16h-16V298.3z"/>
	<path class="st2" d="M152,330.3h16v16h-16V330.3z"/>
	<path class="st2" d="M120,330.3h16v16h-16V330.3z"/>
	<path class="st2" d="M184,330.3h16v16h-16V330.3z"/>
	<path class="st2" d="M184,362.3h16v16h-16V362.3z"/>
	<path class="st2" d="M120,362.3h16v16h-16V362.3z"/>
	<path class="st2" d="M152,362.3h16v16h-16V362.3z"/>
	<path class="st2" d="M184,394.3h16v16h-16V394.3z"/>
</g>
<g>
	<g>
		<path class="st1" d="M170,200.2l-69.5-55.6C88.9,135.3,82,120.7,82,105.4c0-16.4,7.7-31.7,20.6-40.8l2.2-1.6
			c8.3-5.9,17.9-9,27.8-9c13.2,0,26.1,5.7,35.4,15.6l1.9,2l1.9-2c9.3-9.9,22.2-15.6,35.4-15.6c10,0,19.6,3.1,27.8,9l2.3,1.6
			C250.3,73.7,258,89,258,105.4c0,15.3-6.9,30-18.5,39.2L170,200.2z"/>
	</g>
</g>
</svg>
