<?xml version="1.0" encoding="utf-8"?>
<!-- Generator: Adobe Illustrator 24.0.1, SVG Export Plug-In . SVG Version: 6.00 Build 0)  -->
<svg version="1.1" id="Layer_5" xmlns="http://www.w3.org/2000/svg" xmlns:xlink="http://www.w3.org/1999/xlink" x="0px" y="0px"
	 viewBox="0 0 512 512" style="enable-background:new 0 0 512 512;" xml:space="preserve">
<style type="text/css">
	.st0{fill:#FFFFFF;}
	.st1{fill:#131313;}
	.st2{fill:#FF3500;}
</style>
<g>
	<path class="st0" d="M481.8,415.1H44.1c-5.7,0-10.3-4.6-10.3-10.3V304.6c0-5.7,4.6-10.3,10.3-10.3h437.7c5.7,0,10.3,4.6,10.3,10.3
		v100.2C492.1,410.5,487.5,415.1,481.8,415.1z"/>
	<polygon class="st0" points="469.4,298.7 304.2,309.8 308.1,199.6 439.5,192.9 	"/>
	<path class="st1" d="M480.4,288l-10.7-5.3l-10.9-65.2c-3.2-19.4-19.8-33.4-39.5-33.4h-84.9c-13,0-24.5,6.3-31.8,16h-24.2v-80h-48
		V40h-112v80h-48v80h-48v80c-8.8,0-16,7.2-16,16v16c0,8.8,7.2,16,16,16v72c0,13.2,10.8,24,24,24h40.6c-0.4-2.6-0.6-5.3-0.6-8
		s0.3-5.4,0.6-8H46.5c-4.4,0-8-3.6-8-8v-8h38.2l12-48H38.5v-16h256v80h-96.6c0.4,2.6,0.6,5.3,0.6,8s-0.3,5.4-0.6,8h145.3
		c-0.4-2.6-0.6-5.3-0.6-8s0.3-5.4,0.6-8h-0.6v-96h64h8h8v53.5c6,2.9,11.4,6.7,16,11.4V272l-7.9-42.9c-1.4-7.6-8-13.1-15.7-13.1
		h-72.4c-8.8,0-16,7.2-16,16v176h-16V224c0-13.2,10.8-24,24-24h84.9c11.8,0,21.7,8.4,23.7,20.1l12.2,73.3l18,9
		c8.2,4.1,13.3,12.3,13.3,21.5v4.2h-32v36.9l32,16V400c0,4.4-3.6,8-8,8h-24.6c0.4,2.6,0.6,5.3,0.6,8s-0.3,5.4-0.6,8h24.6
		c13.2,0,24-10.8,24-24v-76.2C502.5,308.5,494,294.8,480.4,288z"/>
	<polygon class="st2" points="68.3,360 64.3,376 38.5,376 38.5,360 	"/>
	<path class="st0" d="M414.5,296h-8c-8.8,0-16-7.2-16-16h32v16H414.5z"/>
	<path class="st0" d="M414.9,232l6,32h-30.4c-8.8,0-16,7.2-16,16c0,5.9,1.7,11.3,4.4,16h-36.4v-64H414.9z"/>
	<path class="st0" d="M294.5,224v56h-64v-64h64.8C294.8,218.6,294.5,221.3,294.5,224L294.5,224z"/>
	<rect x="134.5" y="216" class="st0" width="80" height="64"/>
	<polygon class="st0" points="262.5,200 230.5,200 214.5,200 182.5,200 182.5,136 262.5,136 	"/>
	<polygon class="st0" points="134.5,56 214.5,56 214.5,120 182.5,120 166.5,120 134.5,120 	"/>
	<polygon class="st0" points="86.5,136 166.5,136 166.5,200 134.5,200 118.5,200 86.5,200 	"/>
	<rect x="38.5" y="216" class="st0" width="80" height="64"/>
	<rect x="22.5" y="296" class="st2" width="272" height="16"/>
	<polygon class="st2" points="470.5,355.1 470.5,344 486.5,344 486.5,363.1 	"/>
	<circle class="st0" cx="398.5" cy="416" r="24"/>
	<circle class="st0" cx="398.5" cy="416" r="8"/>
	<circle class="st0" cx="142.5" cy="416" r="24"/>
	<circle class="st0" cx="142.5" cy="416" r="8"/>
</g>
<g>
	<g>
		<path class="st2" d="M152,168h-48v-40h48V168z"/>
	</g>
</g>
<g>
	<g>
		<path class="st2" d="M248,168h-48v-40h48V168z"/>
	</g>
</g>
<g>
	<g>
		<path class="st2" d="M304,248h-56v-40h56V248z"/>
	</g>
</g>
<g>
	<g>
		<path class="st2" d="M200,248h-48v-40h48V248z"/>
	</g>
</g>
<g>
	<g>
		<path class="st2" d="M104,248H56v-40h48V248z"/>
	</g>
</g>
<g>
	<g>
		<path class="st2" d="M400,472c-30.9,0-56-25.1-56-56s25.1-56,56-56s56,25.1,56,56S430.9,472,400,472z M400,400
			c-8.8,0-16,7.2-16,16s7.2,16,16,16s16-7.2,16-16S408.8,400,400,400z"/>
	</g>
</g>
<g>
	<g>
		<path class="st2" d="M144,472c-30.9,0-56-25.1-56-56s25.1-56,56-56s56,25.1,56,56S174.9,472,144,472z M144,400
			c-8.8,0-16,7.2-16,16s7.2,16,16,16s16-7.2,16-16S152.8,400,144,400z"/>
	</g>
</g>
<g>
	<g>
		<path class="st2" d="M200,88h-48V48h48V88z"/>
	</g>
</g>
<g>
	<path class="st1" d="M481.9,288l-10.7-5.3l-10.9-65.2c-3.2-19.4-19.8-33.4-39.5-33.4H336c-13,0-24.5,6.3-31.8,16H280v-80h-48V40
		H120v80H72v80H24v80c-8.8,0-16,7.2-16,16v16c0,8.8,7.2,16,16,16v72c0,13.2,10.8,24,24,24h40.6c-0.4-2.6-0.6-5.3-0.6-8
		s0.3-5.4,0.6-8H48c-4.4,0-8-3.6-8-8v-8h38.2l12-48H40v-16h256v80h-96.6c0.4,2.6,0.6,5.3,0.6,8s-0.3,5.4-0.6,8h145.3
		c-0.4-2.6-0.6-5.3-0.6-8s0.3-5.4,0.6-8H344v-96h64h8h8v53.5c6,2.9,11.4,6.7,16,11.4V272l-7.9-42.9c-1.4-7.6-8-13.1-15.7-13.1H344
		c-8.8,0-16,7.2-16,16v176h-16V224c0-13.2,10.8-24,24-24h84.9c11.8,0,21.7,8.4,23.7,20.1l12.2,73.3l18,9
		c8.2,4.1,13.3,12.3,13.3,21.5v4.2h-32v36.9l32,16V400c0,4.4-3.6,8-8,8h-24.6c0.4,2.6,0.6,5.3,0.6,8s-0.3,5.4-0.6,8H480
		c13.2,0,24-10.8,24-24v-76.2C504,308.5,495.5,294.8,481.9,288z M69.8,360l-4,16H40v-16H69.8z M416,296h-8c-8.8,0-16-7.2-16-16h32
		v16H416z M416.4,232l6,32H392c-8.8,0-16,7.2-16,16c0,5.9,1.7,11.3,4.4,16H344v-64H416.4z M296,224v56h-64v-64h64.8
		C296.3,218.6,296,221.3,296,224L296,224z M216,216v64h-80v-64H216z M264,200h-32h-16h-32v-64h80V200z M136,56h80v64h-32h-16h-32V56
		z M88,136h80v64h-32h-16H88V136z M40,216h80v64H40V216z M24,312v-16h272v16H24z M472,355.1V344h16v19.1L472,355.1z"/>
	<path class="st1" d="M400,392c-13.2,0-24,10.8-24,24s10.8,24,24,24s24-10.8,24-24S413.2,392,400,392z M400,424c-4.4,0-8-3.6-8-8
		s3.6-8,8-8s8,3.6,8,8S404.4,424,400,424z"/>
	<path class="st1" d="M144,392c-13.2,0-24,10.8-24,24s10.8,24,24,24s24-10.8,24-24S157.2,392,144,392z M144,424c-4.4,0-8-3.6-8-8
		s3.6-8,8-8s8,3.6,8,8S148.4,424,144,424z"/>
</g>
</svg>
