<svg width="85" height="85" viewBox="0 0 85 85" fill="none" xmlns="http://www.w3.org/2000/svg">
<g clip-path="url(#clip0)">
<path d="M72.3078 74.9613C71.1983 72.7405 69.5732 70.7676 67.608 69.2558C66.8812 68.6965 65.839 68.8325 65.28 69.5593C64.7209 70.2861 64.8568 71.3284 65.5835 71.8875C67.153 73.0949 68.4509 74.6709 69.3373 76.4451C69.7478 77.2667 70.7456 77.5975 71.5644 77.1884C72.3845 76.7787 72.7174 75.7816 72.3078 74.9613Z" fill="url(#paint0_linear)"/>
<path d="M60.7617 65.7422C59.8453 65.7422 59.1016 66.4859 59.1016 67.4023C59.1016 68.3187 59.8453 69.0625 60.7617 69.0625C61.6781 69.0625 62.4219 68.3187 62.4219 67.4023C62.4219 66.4859 61.6781 65.7422 60.7617 65.7422Z" fill="url(#paint1_linear)"/>
<path d="M64.8494 60.3737L56.9586 57.7441L54.1259 52.0784C56.6779 49.481 58.4498 46.0441 59.0473 42.4593L59.4006 40.3418H62.4219C65.1681 40.3418 67.4023 38.1076 67.4023 35.3613V24.9023C67.4023 11.1712 56.2312 0 42.5 0C28.7337 0 17.5977 11.1392 17.5977 24.9023V35.3613C17.5977 37.5255 18.9857 39.3709 20.918 40.0563V42.002C20.918 44.7482 23.1522 46.9824 25.8984 46.9824H27.3564C28.0761 48.5458 29.0076 49.9938 30.1411 51.2945C30.3762 51.5648 30.6214 51.8268 30.8726 52.0816L28.0414 57.7441L20.1505 60.3739C10.9756 63.4332 4.31641 73.0919 4.31641 83.3398C4.31641 84.2567 5.05966 85 5.97656 85H79.0234C79.9402 85 80.6836 84.2567 80.6836 83.3398C80.6836 73.0919 74.0245 63.4332 64.8494 60.3737ZM64.082 35.3613C64.082 36.2767 63.3373 37.0215 62.4219 37.0215H59.8881C60.3102 33.7526 60.5914 30.2741 60.7044 26.848C60.7078 26.7514 60.7104 26.6575 60.7134 26.5625H64.082V35.3613ZM22.5781 37.0215C21.6627 37.0215 20.918 36.2767 20.918 35.3613V26.5625H24.2878C24.2932 26.7357 24.299 26.9096 24.3055 27.0848C24.3057 27.0908 24.306 27.0966 24.3062 27.1026C24.3062 27.103 24.3062 27.1035 24.3062 27.104C24.4224 30.4363 24.7 33.8245 25.1124 37.0213H22.5781V37.0215ZM25.8984 43.6621C24.983 43.6621 24.2383 42.9174 24.2383 42.002V40.3418H25.5993L25.9526 42.46C26.02 42.8626 26.1028 43.2637 26.1986 43.6621H25.8984ZM24.2411 23.2422H20.9811C21.8219 12.1157 31.1075 3.32031 42.5 3.32031C53.8419 3.32031 63.1683 12.1145 64.0188 23.2422H60.7591C60.6395 14.0736 53.1733 6.64062 43.986 6.64062H41.0143C31.8272 6.64062 24.3605 14.0736 24.2411 23.2422ZM41.0142 9.96094H43.9858C51.4248 9.96094 57.4457 16.0456 57.4414 23.4763C57.4414 23.9987 57.4373 24.4536 57.4285 24.8675C57.4285 24.8728 57.4283 24.8783 57.4283 24.8838L55.3518 24.5871C49.7106 23.7816 44.3841 21.1183 40.3536 17.0878C40.0421 16.7765 39.62 16.6016 39.1797 16.6016C34.7212 16.6016 30.4532 18.6329 27.632 22.0648C28.3272 15.3048 34.042 9.96094 41.0142 9.96094ZM29.6404 43.6621C28.8094 40.8974 27.8584 32.7627 27.6482 27.5498L29.8826 24.5705C31.9348 21.8352 35.1274 20.1357 38.5236 19.9406C42.9922 24.1933 48.7732 27.0016 54.8823 27.8739L57.3264 28.2232C57.163 31.6904 56.8291 35.1697 56.3508 38.3697C56.3507 38.3707 56.3505 38.3719 56.3504 38.373C56.1983 39.4018 56.0784 40.0639 55.7723 41.9131C54.8931 47.1866 50.9582 51.9554 45.7637 53.2542C43.6259 53.7879 41.3737 53.7877 39.2371 53.2542C35.9937 52.4433 33.0197 50.1991 31.1004 46.9824H34.4848C35.1701 48.9147 37.0153 50.3027 39.1797 50.3027H42.5C45.2517 50.3027 47.4805 48.0741 47.4805 45.3223C47.4805 42.576 45.2462 40.3418 42.5 40.3418H39.1797C36.9672 40.3418 35.1492 41.7709 34.4819 43.6621H29.6404ZM39.0401 56.614C40.1788 56.8539 41.3397 56.9766 42.5 56.9766C43.4083 56.9766 44.3167 56.9005 45.2149 56.7531L42.2814 59.8554L39.0401 56.614ZM39.999 62.269L34.7333 67.8375C33.2836 65.0627 32.038 62.1748 31.0164 59.2184L32.9938 55.2636L39.999 62.269ZM51.7248 54.7011L53.9833 59.2183C52.96 62.1797 51.714 65.0685 50.2659 67.84L44.63 62.2041L51.7248 54.7011ZM37.5195 45.3223C37.5195 44.4057 38.263 43.6621 39.1797 43.6621H42.5C43.4154 43.6621 44.1602 44.4069 44.1602 45.3223C44.1602 46.239 43.4166 46.9824 42.5 46.9824H39.1797C38.2643 46.9824 37.5195 46.2377 37.5195 45.3223ZM7.70313 81.6797C8.36105 73.4554 13.8344 65.9801 21.2005 63.5237L28.1888 61.1949C29.4691 64.7351 31.0552 68.1761 32.9141 71.4447C32.9172 71.4503 32.9202 71.4559 32.9234 71.4614C32.9234 71.4616 32.9236 71.4616 32.9236 71.4618C34.2817 73.8506 35.8104 76.1849 37.4677 78.401L39.5101 81.6797H7.70313ZM42.5 80.1998L40.2485 76.5852C40.2233 76.5447 40.1964 76.5053 40.1678 76.4671C38.8234 74.6738 37.5693 72.7983 36.4271 70.8787L42.3478 64.6176L48.5863 70.8561C47.4365 72.7897 46.1781 74.673 44.8325 76.4668C44.7512 76.5752 44.8666 76.4044 42.5 80.1998ZM45.4899 81.6797L47.5321 78.4012C49.1967 76.1766 50.7364 73.8235 52.1082 71.4066C52.1165 71.392 52.1243 71.3771 52.1326 71.3625C52.1336 71.3607 52.1346 71.359 52.1355 71.3572C53.9709 68.1199 55.5404 64.7087 56.8112 61.1949L63.7993 63.5237C71.1656 65.9801 76.639 73.4554 77.2969 81.6797H45.4899Z" fill="url(#paint2_linear)"/>
</g>
<defs>
<linearGradient id="paint0_linear" x1="60.1687" y1="63.0337" x2="72.5293" y2="78.3821" gradientUnits="userSpaceOnUse">
<stop stop-color="#EF6F2E"/>
<stop offset="1" stop-color="#FFC839"/>
</linearGradient>
<linearGradient id="paint1_linear" x1="57.3034" y1="62.5562" x2="61.6317" y2="69.9428" gradientUnits="userSpaceOnUse">
<stop stop-color="#EF6F2E"/>
<stop offset="1" stop-color="#FFC839"/>
</linearGradient>
<linearGradient id="paint2_linear" x1="4.77528" y1="2.33639e-06" x2="80.2247" y2="95.9832" gradientUnits="userSpaceOnUse">
<stop stop-color="#EF6F2E"/>
<stop offset="1" stop-color="#FFC839"/>
</linearGradient>
<clipPath id="clip0">
<rect width="85" height="85" fill="white"/>
</clipPath>
</defs>
</svg>
