<svg width="44" height="44" viewBox="0 0 44 44" fill="none" xmlns="http://www.w3.org/2000/svg">
<circle cx="22" cy="22" r="21.5" fill="white" stroke="#E0E0E0"/>
<path d="M10.4393 22.5528C11.0251 21.967 11.9749 21.967 12.5607 22.5528L21.753 31.7452C22.3388 32.331 22.3388 33.2807 21.753 33.8665C21.1673 34.4523 20.2175 34.4523 19.6317 33.8665L10.4393 24.6741C9.85355 24.0883 9.85355 23.1386 10.4393 22.5528Z" fill="#EF6F2E"/>
<path d="M20.3654 33.5839C19.648 33.1697 19.4022 32.2523 19.8164 31.5349L31.8164 10.7503C32.2306 10.0328 33.148 9.787 33.8654 10.2012C34.5829 10.6154 34.8287 11.5328 34.4145 12.2503L22.4145 33.0349C22.0003 33.7523 21.0829 33.9981 20.3654 33.5839Z" fill="#EF6F2E"/>
</svg>
