<svg width="16" height="16" viewBox="0 0 16 16" fill="none" xmlns="http://www.w3.org/2000/svg">
<path d="M12.25 16H3.75C1.68225 16 0 14.3177 0 12.25V3.75C0 1.68225 1.68225 0 3.75 0H12.25C14.3177 0 16 1.68225 16 3.75V12.25C16 14.3177 14.3177 16 12.25 16ZM3.75 1.25C2.3715 1.25 1.25 2.3715 1.25 3.75V12.25C1.25 13.6285 2.3715 14.75 3.75 14.75H12.25C13.6285 14.75 14.75 13.6285 14.75 12.25V3.75C14.75 2.3715 13.6285 1.25 12.25 1.25H3.75ZM12.4062 2.8125C11.9748 2.8125 11.625 3.16228 11.625 3.59375C11.625 4.02522 11.9748 4.375 12.4062 4.375C12.8377 4.375 13.1875 4.02522 13.1875 3.59375C13.1875 3.16228 12.8377 2.8125 12.4062 2.8125ZM8 12.0625C5.75991 12.0625 3.9375 10.2401 3.9375 8C4.16062 2.61053 11.8402 2.61209 12.0625 8.00003C12.0625 10.2401 10.2401 12.0625 8 12.0625ZM8 5.1875C6.44919 5.1875 5.1875 6.44919 5.1875 8C5.342 11.7312 10.6586 11.7301 10.8125 7.99997C10.8125 6.44919 9.55081 5.1875 8 5.1875Z" fill="#85878E"/>
</svg>
