<svg width="16" height="16" viewBox="0 0 16 16" fill="none" xmlns="http://www.w3.org/2000/svg">
<path d="M14.8326 2.32118C14.0435 1.42574 12.9487 0.932617 11.75 0.932617C10.0641 0.932617 8.99678 1.93949 8.39828 2.78418C8.243 3.00337 8.11091 3.22315 8 3.42996C7.88909 3.22315 7.75703 3.00337 7.60172 2.78418C7.00322 1.93949 5.93587 0.932617 4.25 0.932617C3.05131 0.932617 1.95653 1.42577 1.16734 2.32121C0.414594 3.1754 0 4.3194 0 5.54246C0 6.8738 0.519781 8.11208 1.63578 9.43933C2.63319 10.6256 4.06809 11.8483 5.72969 13.2642C6.34884 13.7919 6.98912 14.3375 7.67078 14.9339L7.69125 14.9518C7.77962 15.0292 7.88981 15.0679 8 15.0679C8.11019 15.0679 8.22038 15.0292 8.30875 14.9518L8.32922 14.9339C9.01087 14.3375 9.65116 13.7919 10.2704 13.2642C11.9319 11.8484 13.3668 10.6256 14.3642 9.43933C15.4802 8.11205 16 6.8738 16 5.54246C16 4.3194 15.5854 3.1754 14.8326 2.32118ZM9.66228 12.5507C9.12853 13.0055 8.57922 13.4736 8 13.9771C7.42081 13.4736 6.87147 13.0055 6.33763 12.5506C3.08578 9.77958 0.9375 7.94893 0.9375 5.54246C0.9375 4.54777 1.26891 3.6239 1.87069 2.94105C2.47937 2.25046 3.32434 1.87012 4.25 1.87012C5.53528 1.87012 6.36613 2.66193 6.83675 3.32618C7.25891 3.92193 7.47919 4.52249 7.55431 4.75302C7.61716 4.94599 7.79706 5.07659 8 5.07659C8.20294 5.07659 8.38284 4.94599 8.44569 4.75302C8.52081 4.52249 8.74109 3.92193 9.16325 3.32615C9.63387 2.66193 10.4647 1.87012 11.75 1.87012C12.6757 1.87012 13.5206 2.25046 14.1293 2.94105C14.7311 3.6239 15.0625 4.54777 15.0625 5.54246C15.0625 7.94893 12.9142 9.77958 9.66228 12.5507Z" fill="#494C52"/>
</svg>
