<svg width="44" height="44" viewBox="0 0 44 44" fill="none" xmlns="http://www.w3.org/2000/svg">
<circle cx="22" cy="22" r="21.5" fill="white" stroke="#E0E0E0"/>
<path d="M12.4393 31.5312C11.8536 30.9454 11.8536 29.9957 12.4393 29.4099L29.4099 12.4394C29.9957 11.8536 30.9454 11.8536 31.5312 12.4394C32.117 13.0251 32.117 13.9749 31.5312 14.5607L14.5607 31.5312C13.9749 32.117 13.0251 32.117 12.4393 31.5312Z" fill="#E0E0E0"/>
<path d="M31.5331 31.5312C30.9473 32.117 29.9976 32.117 29.4118 31.5312L12.4412 14.5607C11.8554 13.9749 11.8554 13.0251 12.4412 12.4393C13.027 11.8536 13.9767 11.8536 14.5625 12.4393L31.5331 29.4099C32.1189 29.9957 32.1189 30.9454 31.5331 31.5312Z" fill="#E0E0E0"/>
</svg>
