<svg width="56" height="56" viewBox="0 0 56 56" fill="none" xmlns="http://www.w3.org/2000/svg">
<path d="M49 24.57V22.3729C49.5407 22.0033 49.9828 21.5072 50.2878 20.9276C50.5928 20.3481 50.7515 19.7028 50.75 19.0479V12.25C50.9821 12.25 51.2046 12.1578 51.3687 11.9937C51.5328 11.8296 51.625 11.6071 51.625 11.375V9.625C51.625 7.53642 50.7953 5.53338 49.3185 4.05653C47.8416 2.57968 45.8386 1.75 43.75 1.75C41.6614 1.75 39.6584 2.57968 38.1815 4.05653C36.7047 5.53338 35.875 7.53642 35.875 9.625V10.5H31.5C31.2679 10.5 31.0454 10.5922 30.8813 10.7563C30.7172 10.9204 30.625 11.1429 30.625 11.375C30.625 11.6071 30.7172 11.8296 30.8813 11.9937C31.0454 12.1578 31.2679 12.25 31.5 12.25H36.75V16.625C36.7518 18.0974 37.2832 19.5201 38.2471 20.6332C39.2109 21.7463 40.543 22.4756 42 22.6879V24.5H41.125C39.5011 24.5019 37.9443 25.1478 36.796 26.296C35.6478 27.4443 35.0019 29.0011 35 30.625V36.75H33.25V18.375C33.25 18.1429 33.1578 17.9204 32.9937 17.7563C32.8296 17.5922 32.6071 17.5 32.375 17.5H7.875C7.64294 17.5 7.42038 17.5922 7.25628 17.7563C7.09219 17.9204 7 18.1429 7 18.375V39.375C7 39.6071 7.09219 39.8296 7.25628 39.9937C7.42038 40.1578 7.64294 40.25 7.875 40.25H15.8375C16.0406 41.2375 16.5779 42.1248 17.3589 42.7624C18.1399 43.3999 19.1168 43.7487 20.125 43.75H22.75V46.375C22.75 46.6071 22.8422 46.8296 23.0063 46.9937C23.1704 47.1578 23.3929 47.25 23.625 47.25H28.875C29.1071 47.25 29.3296 47.1578 29.4937 46.9937C29.6578 46.8296 29.75 46.6071 29.75 46.375V45.5H35V53.375C35 53.6071 35.0922 53.8296 35.2563 53.9937C35.4204 54.1578 35.6429 54.25 35.875 54.25H53.375C53.6071 54.25 53.8296 54.1578 53.9937 53.9937C54.1578 53.8296 54.25 53.6071 54.25 53.375V30.625C54.2472 29.1537 53.7153 27.7325 52.7514 26.6208C51.7876 25.5092 50.4561 24.7813 49 24.57ZM37.625 9.625C37.625 8.00055 38.2703 6.44263 39.419 5.29397C40.5676 4.14531 42.1255 3.5 43.75 3.5C45.3745 3.5 46.9324 4.14531 48.081 5.29397C49.2297 6.44263 49.875 8.00055 49.875 9.625V10.5H37.625V9.625ZM44.625 21H42.875C41.7151 20.9986 40.6031 20.5372 39.7829 19.7171C38.9628 18.8969 38.5014 17.7849 38.5 16.625V12.25H49V19.0435C49.0017 19.4692 48.884 19.8868 48.6602 20.2489C48.4364 20.6111 48.1154 20.9031 47.7339 21.0919C47.5884 21.1646 47.4661 21.2763 47.3806 21.4147C47.2952 21.553 47.2499 21.7124 47.25 21.875V24.5H43.75V22.75H44.625C44.8571 22.75 45.0796 22.6578 45.2437 22.4937C45.4078 22.3296 45.5 22.1071 45.5 21.875C45.5 21.6429 45.4078 21.4204 45.2437 21.2563C45.0796 21.0922 44.8571 21 44.625 21ZM21.875 19.25V25.4896L20.6106 24.647C20.4668 24.5511 20.2979 24.4999 20.125 24.4999C19.9521 24.4999 19.7832 24.5511 19.6394 24.647L18.375 25.4896V19.25H21.875ZM8.75 19.25H16.625V27.125C16.625 27.2834 16.668 27.4389 16.7494 27.5748C16.8308 27.7107 16.9475 27.8219 17.0872 27.8966C17.2269 27.9714 17.3842 28.0068 17.5425 27.9991C17.7007 27.9914 17.8538 27.9409 17.9856 27.853L20.125 26.425L22.2644 27.8512C22.396 27.9391 22.549 27.9896 22.7071 27.9973C22.8652 28.0051 23.0224 27.9698 23.162 27.8953C23.3016 27.8208 23.4184 27.7098 23.5 27.5741C23.5815 27.4385 23.6247 27.2833 23.625 27.125V19.25H31.5V36.75H29.75V35.875C29.75 35.6429 29.6578 35.4204 29.4937 35.2563C29.3296 35.0922 29.1071 35 28.875 35H23.625C23.3929 35 23.1704 35.0922 23.0063 35.2563C22.8422 35.4204 22.75 35.6429 22.75 35.875V38.5H8.75V19.25ZM20.125 42C19.5823 41.9993 19.053 41.8308 18.6098 41.5175C18.1667 41.2042 17.8313 40.7614 17.6496 40.25H22.75V42H20.125ZM28 45.5H24.5V36.75H28V45.5ZM29.75 38.5H39.375C40.0712 38.5 40.7389 38.2234 41.2312 37.7312C41.7234 37.2389 42 36.5712 42 35.875V32.375C42 31.6788 42.2766 31.0111 42.7688 30.5188C43.2611 30.0266 43.9288 29.75 44.625 29.75C45.3212 29.75 45.9889 30.0266 46.4812 30.5188C46.9734 31.0111 47.25 31.6788 47.25 32.375V37.625C47.2481 39.2489 46.6022 40.8057 45.454 41.954C44.3057 43.1022 42.7489 43.7481 41.125 43.75H29.75V38.5ZM41.125 45.5C43.2129 45.4977 45.2146 44.6673 46.6909 43.1909C48.1673 41.7146 48.9977 39.7129 49 37.625V32.375C49 31.2147 48.5391 30.1019 47.7186 29.2814C46.8981 28.4609 45.7853 28 44.625 28C43.4647 28 42.3519 28.4609 41.5314 29.2814C40.7109 30.1019 40.25 31.2147 40.25 32.375V35.875C40.25 36.1071 40.1578 36.3296 39.9937 36.4937C39.8296 36.6578 39.6071 36.75 39.375 36.75H36.75V30.625C36.7514 29.4651 37.2128 28.3531 38.0329 27.5329C38.8531 26.7128 39.9651 26.2514 41.125 26.25H48.125C49.2849 26.2514 50.3969 26.7128 51.2171 27.5329C52.0372 28.3531 52.4986 29.4651 52.5 30.625V49H36.75V45.5H41.125ZM52.5 52.5H36.75V50.75H52.5V52.5Z" fill="url(#paint0_linear)"/>
<defs>
<linearGradient id="paint0_linear" x1="7.28391" y1="1.75" x2="53.8659" y2="61.1124" gradientUnits="userSpaceOnUse">
<stop stop-color="#EF6F2E"/>
<stop offset="1" stop-color="#FFC839"/>
</linearGradient>
</defs>
</svg>
