<svg width="56" height="56" viewBox="0 0 56 56" fill="none" xmlns="http://www.w3.org/2000/svg">
<path d="M51.625 22.75H31.5V21.875C31.5 21.6429 31.4078 21.4204 31.2437 21.2563C31.0796 21.0922 30.8571 21 30.625 21H28V19.25H36.75C38.142 19.2486 39.4765 18.695 40.4608 17.7108C41.445 16.7265 41.9986 15.392 42 14V11.375C42 11.1429 41.9078 10.9204 41.7437 10.7563C41.5796 10.5922 41.3571 10.5 41.125 10.5H33.25V7C33.2486 5.60804 32.695 4.27349 31.7108 3.28922C30.7265 2.30496 29.392 1.75139 28 1.75H9.625C8.4651 1.75139 7.35311 2.21277 6.53294 3.03294C5.71277 3.85311 5.25139 4.9651 5.25 6.125V12.3375C4.26249 12.5406 3.37518 13.0779 2.73763 13.8589C2.10008 14.6399 1.75127 15.6168 1.75 16.625V49.875C1.75139 51.0349 2.21277 52.1469 3.03294 52.9671C3.85311 53.7872 4.9651 54.2486 6.125 54.25H23.625C24.7849 54.2486 25.8969 53.7872 26.7171 52.9671C27.5372 52.1469 27.9986 51.0349 28 49.875V45.5H30.625C30.8571 45.5 31.0796 45.4078 31.2437 45.2437C31.4078 45.0796 31.5 44.8571 31.5 44.625V43.75H51.625C52.3212 43.75 52.9889 43.4734 53.4812 42.9812C53.9734 42.4889 54.25 41.8212 54.25 41.125V25.375C54.25 24.6788 53.9734 24.0111 53.4812 23.5188C52.9889 23.0266 52.3212 22.75 51.625 22.75ZM40.25 14C40.25 14.9283 39.8812 15.8185 39.2249 16.4749C38.5685 17.1313 37.6783 17.5 36.75 17.5C35.8217 17.5 34.9315 17.1313 34.2751 16.4749C33.6187 15.8185 33.25 14.9283 33.25 14V12.25H40.25V14ZM7 6.125C7 5.42881 7.27656 4.76113 7.76884 4.26884C8.26113 3.77656 8.92881 3.5 9.625 3.5H24.0905C23.2265 4.46095 22.749 5.70777 22.75 7V19.25H7V6.125ZM26.25 49.875C26.25 50.5712 25.9734 51.2389 25.4812 51.7312C24.9889 52.2234 24.3212 52.5 23.625 52.5H6.125C5.42881 52.5 4.76113 52.2234 4.26884 51.7312C3.77656 51.2389 3.5 50.5712 3.5 49.875V16.625C3.50224 16.084 3.67157 15.5569 3.98483 15.1159C4.29808 14.6748 4.73996 14.3413 5.25 14.161V20.125C5.25 20.3571 5.34219 20.5796 5.50628 20.7437C5.67038 20.9078 5.89294 21 6.125 21H23.625C23.8571 21 24.0796 20.9078 24.2437 20.7437C24.4078 20.5796 24.5 20.3571 24.5 20.125V14.161C25.01 14.3413 25.4519 14.6748 25.7652 15.1159C26.0784 15.5569 26.2478 16.084 26.25 16.625V49.875ZM24.5 12.3375V7C24.5 6.07174 24.8687 5.1815 25.5251 4.52513C26.1815 3.86875 27.0717 3.5 28 3.5C28.9283 3.5 29.8185 3.86875 30.4749 4.52513C31.1313 5.1815 31.5 6.07174 31.5 7V14C31.5003 15.2933 31.9805 16.5404 32.8475 17.5H28V16.625C27.9987 15.6168 27.6499 14.6399 27.0124 13.8589C26.3748 13.0779 25.4875 12.5406 24.5 12.3375ZM29.75 43.75H28V22.75H29.75V43.75ZM51.625 24.5C51.8571 24.5 52.0796 24.5922 52.2437 24.7563C52.4078 24.9204 52.5 25.1429 52.5 25.375V28H31.5V24.5H51.625ZM51.625 42H31.5V29.75H52.5V41.125C52.5 41.3571 52.4078 41.5796 52.2437 41.7437C52.0796 41.9078 51.8571 42 51.625 42Z" fill="url(#paint0_linear)"/>
<path d="M9.625 31.5H6.125C5.89294 31.5 5.67038 31.5922 5.50628 31.7563C5.34219 31.9204 5.25 32.1429 5.25 32.375V35.875C5.25 36.1071 5.34219 36.3296 5.50628 36.4937C5.67038 36.6578 5.89294 36.75 6.125 36.75H9.625C9.85706 36.75 10.0796 36.6578 10.2437 36.4937C10.4078 36.3296 10.5 36.1071 10.5 35.875V32.375C10.5 32.1429 10.4078 31.9204 10.2437 31.7563C10.0796 31.5922 9.85706 31.5 9.625 31.5ZM8.75 35H7V33.25H8.75V35Z" fill="url(#paint1_linear)"/>
<path d="M16.625 31.5H13.125C12.8929 31.5 12.6704 31.5922 12.5063 31.7563C12.3422 31.9204 12.25 32.1429 12.25 32.375V35.875C12.25 36.1071 12.3422 36.3296 12.5063 36.4937C12.6704 36.6578 12.8929 36.75 13.125 36.75H16.625C16.8571 36.75 17.0796 36.6578 17.2437 36.4937C17.4078 36.3296 17.5 36.1071 17.5 35.875V32.375C17.5 32.1429 17.4078 31.9204 17.2437 31.7563C17.0796 31.5922 16.8571 31.5 16.625 31.5ZM15.75 35H14V33.25H15.75V35Z" fill="url(#paint2_linear)"/>
<path d="M23.625 31.5H20.125C19.8929 31.5 19.6704 31.5922 19.5063 31.7563C19.3422 31.9204 19.25 32.1429 19.25 32.375V35.875C19.25 36.1071 19.3422 36.3296 19.5063 36.4937C19.6704 36.6578 19.8929 36.75 20.125 36.75H23.625C23.8571 36.75 24.0796 36.6578 24.2437 36.4937C24.4078 36.3296 24.5 36.1071 24.5 35.875V32.375C24.5 32.1429 24.4078 31.9204 24.2437 31.7563C24.0796 31.5922 23.8571 31.5 23.625 31.5ZM22.75 35H21V33.25H22.75V35Z" fill="url(#paint3_linear)"/>
<path d="M9.625 38.5H6.125C5.89294 38.5 5.67038 38.5922 5.50628 38.7563C5.34219 38.9204 5.25 39.1429 5.25 39.375V42.875C5.25 43.1071 5.34219 43.3296 5.50628 43.4937C5.67038 43.6578 5.89294 43.75 6.125 43.75H9.625C9.85706 43.75 10.0796 43.6578 10.2437 43.4937C10.4078 43.3296 10.5 43.1071 10.5 42.875V39.375C10.5 39.1429 10.4078 38.9204 10.2437 38.7563C10.0796 38.5922 9.85706 38.5 9.625 38.5ZM8.75 42H7V40.25H8.75V42Z" fill="url(#paint4_linear)"/>
<path d="M16.625 38.5H13.125C12.8929 38.5 12.6704 38.5922 12.5063 38.7563C12.3422 38.9204 12.25 39.1429 12.25 39.375V42.875C12.25 43.1071 12.3422 43.3296 12.5063 43.4937C12.6704 43.6578 12.8929 43.75 13.125 43.75H16.625C16.8571 43.75 17.0796 43.6578 17.2437 43.4937C17.4078 43.3296 17.5 43.1071 17.5 42.875V39.375C17.5 39.1429 17.4078 38.9204 17.2437 38.7563C17.0796 38.5922 16.8571 38.5 16.625 38.5ZM15.75 42H14V40.25H15.75V42Z" fill="url(#paint5_linear)"/>
<path d="M23.625 38.5H20.125C19.8929 38.5 19.6704 38.5922 19.5063 38.7563C19.3422 38.9204 19.25 39.1429 19.25 39.375V42.875C19.25 43.1071 19.3422 43.3296 19.5063 43.4937C19.6704 43.6578 19.8929 43.75 20.125 43.75H23.625C23.8571 43.75 24.0796 43.6578 24.2437 43.4937C24.4078 43.3296 24.5 43.1071 24.5 42.875V39.375C24.5 39.1429 24.4078 38.9204 24.2437 38.7563C24.0796 38.5922 23.8571 38.5 23.625 38.5ZM22.75 42H21V40.25H22.75V42Z" fill="url(#paint6_linear)"/>
<path d="M9.625 45.5H6.125C5.89294 45.5 5.67038 45.5922 5.50628 45.7563C5.34219 45.9204 5.25 46.1429 5.25 46.375V49.875C5.25 50.1071 5.34219 50.3296 5.50628 50.4937C5.67038 50.6578 5.89294 50.75 6.125 50.75H9.625C9.85706 50.75 10.0796 50.6578 10.2437 50.4937C10.4078 50.3296 10.5 50.1071 10.5 49.875V46.375C10.5 46.1429 10.4078 45.9204 10.2437 45.7563C10.0796 45.5922 9.85706 45.5 9.625 45.5ZM8.75 49H7V47.25H8.75V49Z" fill="url(#paint7_linear)"/>
<path d="M16.625 45.5H13.125C12.8929 45.5 12.6704 45.5922 12.5063 45.7563C12.3422 45.9204 12.25 46.1429 12.25 46.375V49.875C12.25 50.1071 12.3422 50.3296 12.5063 50.4937C12.6704 50.6578 12.8929 50.75 13.125 50.75H16.625C16.8571 50.75 17.0796 50.6578 17.2437 50.4937C17.4078 50.3296 17.5 50.1071 17.5 49.875V46.375C17.5 46.1429 17.4078 45.9204 17.2437 45.7563C17.0796 45.5922 16.8571 45.5 16.625 45.5ZM15.75 49H14V47.25H15.75V49Z" fill="url(#paint8_linear)"/>
<path d="M23.625 45.5H20.125C19.8929 45.5 19.6704 45.5922 19.5063 45.7563C19.3422 45.9204 19.25 46.1429 19.25 46.375V49.875C19.25 50.1071 19.3422 50.3296 19.5063 50.4937C19.6704 50.6578 19.8929 50.75 20.125 50.75H23.625C23.8571 50.75 24.0796 50.6578 24.2437 50.4937C24.4078 50.3296 24.5 50.1071 24.5 49.875V46.375C24.5 46.1429 24.4078 45.9204 24.2437 45.7563C24.0796 45.5922 23.8571 45.5 23.625 45.5ZM22.75 49H21V47.25H22.75V49Z" fill="url(#paint9_linear)"/>
<path d="M23.625 24.5H6.125C5.89294 24.5 5.67038 24.5922 5.50628 24.7563C5.34219 24.9204 5.25 25.1429 5.25 25.375V28.875C5.25 29.1071 5.34219 29.3296 5.50628 29.4937C5.67038 29.6578 5.89294 29.75 6.125 29.75H23.625C23.8571 29.75 24.0796 29.6578 24.2437 29.4937C24.4078 29.3296 24.5 29.1071 24.5 28.875V25.375C24.5 25.1429 24.4078 24.9204 24.2437 24.7563C24.0796 24.5922 23.8571 24.5 23.625 24.5ZM22.75 28H7V26.25H22.75V28Z" fill="url(#paint10_linear)"/>
<path d="M48.125 35C47.4771 35.0023 46.8533 35.2456 46.375 35.6825C45.9987 35.3405 45.5311 35.1151 45.0291 35.0338C44.5272 34.9525 44.0124 35.0187 43.5473 35.2245C43.0823 35.4302 42.687 35.7666 42.4095 36.1928C42.1321 36.6189 41.9844 37.1165 41.9844 37.625C41.9844 38.1336 42.1321 38.6311 42.4095 39.0573C42.687 39.4835 43.0823 39.8198 43.5473 40.0256C44.0124 40.2313 44.5272 40.2976 45.0291 40.2163C45.5311 40.1349 45.9987 39.9096 46.375 39.5675C46.691 39.8548 47.0723 40.0606 47.4859 40.1671C47.8994 40.2736 48.3327 40.2776 48.7482 40.1787C49.1636 40.0798 49.5487 39.8811 49.8699 39.5998C50.1912 39.3184 50.439 38.9629 50.5918 38.5642C50.7445 38.1654 50.7977 37.7354 50.7467 37.3114C50.6957 36.8874 50.542 36.4823 50.299 36.1311C50.0559 35.78 49.7309 35.4934 49.3521 35.2963C48.9732 35.0992 48.552 34.9975 48.125 35ZM44.625 38.5C44.4519 38.5 44.2827 38.4487 44.1388 38.3526C43.995 38.2564 43.8828 38.1198 43.8166 37.9599C43.7504 37.8 43.733 37.6241 43.7668 37.4543C43.8005 37.2846 43.8839 37.1287 44.0063 37.0063C44.1286 36.884 44.2845 36.8006 44.4543 36.7669C44.624 36.7331 44.7999 36.7504 44.9598 36.8167C45.1197 36.8829 45.2564 36.995 45.3525 37.1389C45.4487 37.2828 45.5 37.452 45.5 37.625C45.5 37.8571 45.4078 38.0797 45.2437 38.2438C45.0796 38.4079 44.857 38.5 44.625 38.5ZM48.125 38.5C47.9519 38.5 47.7827 38.4487 47.6389 38.3526C47.495 38.2564 47.3828 38.1198 47.3166 37.9599C47.2504 37.8 47.233 37.6241 47.2668 37.4543C47.3005 37.2846 47.3839 37.1287 47.5063 37.0063C47.6286 36.884 47.7845 36.8006 47.9543 36.7669C48.124 36.7331 48.2999 36.7504 48.4598 36.8167C48.6197 36.8829 48.7564 36.995 48.8525 37.1389C48.9487 37.2828 49 37.452 49 37.625C49 37.8571 48.9078 38.0797 48.7437 38.2438C48.5796 38.4079 48.357 38.5 48.125 38.5Z" fill="url(#paint11_linear)"/>
<path d="M8.75 7H10.5V8.75H8.75V7Z" fill="url(#paint12_linear)"/>
<path d="M12.25 7H21V8.75H12.25V7Z" fill="url(#paint13_linear)"/>
<path d="M8.75 10.5H21V12.25H8.75V10.5Z" fill="url(#paint14_linear)"/>
<path d="M8.75 14H21V15.75H8.75V14Z" fill="url(#paint15_linear)"/>
<defs>
<linearGradient id="paint0_linear" x1="2.06546" y1="1.75" x2="47.2618" y2="65.7462" gradientUnits="userSpaceOnUse">
<stop stop-color="#EF6F2E"/>
<stop offset="1" stop-color="#FFC839"/>
</linearGradient>
<linearGradient id="paint1_linear" x1="5.28155" y1="31.5" x2="9.80118" y2="37.8996" gradientUnits="userSpaceOnUse">
<stop stop-color="#EF6F2E"/>
<stop offset="1" stop-color="#FFC839"/>
</linearGradient>
<linearGradient id="paint2_linear" x1="12.2815" y1="31.5" x2="16.8012" y2="37.8996" gradientUnits="userSpaceOnUse">
<stop stop-color="#EF6F2E"/>
<stop offset="1" stop-color="#FFC839"/>
</linearGradient>
<linearGradient id="paint3_linear" x1="19.2815" y1="31.5" x2="23.8012" y2="37.8996" gradientUnits="userSpaceOnUse">
<stop stop-color="#EF6F2E"/>
<stop offset="1" stop-color="#FFC839"/>
</linearGradient>
<linearGradient id="paint4_linear" x1="5.28155" y1="38.5" x2="9.80118" y2="44.8996" gradientUnits="userSpaceOnUse">
<stop stop-color="#EF6F2E"/>
<stop offset="1" stop-color="#FFC839"/>
</linearGradient>
<linearGradient id="paint5_linear" x1="12.2815" y1="38.5" x2="16.8012" y2="44.8996" gradientUnits="userSpaceOnUse">
<stop stop-color="#EF6F2E"/>
<stop offset="1" stop-color="#FFC839"/>
</linearGradient>
<linearGradient id="paint6_linear" x1="19.2815" y1="38.5" x2="23.8012" y2="44.8996" gradientUnits="userSpaceOnUse">
<stop stop-color="#EF6F2E"/>
<stop offset="1" stop-color="#FFC839"/>
</linearGradient>
<linearGradient id="paint7_linear" x1="5.28155" y1="45.5" x2="9.80118" y2="51.8996" gradientUnits="userSpaceOnUse">
<stop stop-color="#EF6F2E"/>
<stop offset="1" stop-color="#FFC839"/>
</linearGradient>
<linearGradient id="paint8_linear" x1="12.2815" y1="45.5" x2="16.8012" y2="51.8996" gradientUnits="userSpaceOnUse">
<stop stop-color="#EF6F2E"/>
<stop offset="1" stop-color="#FFC839"/>
</linearGradient>
<linearGradient id="paint9_linear" x1="19.2815" y1="45.5" x2="23.8012" y2="51.8996" gradientUnits="userSpaceOnUse">
<stop stop-color="#EF6F2E"/>
<stop offset="1" stop-color="#FFC839"/>
</linearGradient>
<linearGradient id="paint10_linear" x1="5.36567" y1="24.5" x2="7.14701" y2="33.7484" gradientUnits="userSpaceOnUse">
<stop stop-color="#EF6F2E"/>
<stop offset="1" stop-color="#FFC839"/>
</linearGradient>
<linearGradient id="paint11_linear" x1="42.0371" y1="35" x2="45.4743" y2="43.1403" gradientUnits="userSpaceOnUse">
<stop stop-color="#EF6F2E"/>
<stop offset="1" stop-color="#FFC839"/>
</linearGradient>
<linearGradient id="paint12_linear" x1="8.76052" y1="7" x2="10.2671" y2="9.13321" gradientUnits="userSpaceOnUse">
<stop stop-color="#EF6F2E"/>
<stop offset="1" stop-color="#FFC839"/>
</linearGradient>
<linearGradient id="paint13_linear" x1="12.3026" y1="7" x2="12.7453" y2="10.1346" gradientUnits="userSpaceOnUse">
<stop stop-color="#EF6F2E"/>
<stop offset="1" stop-color="#FFC839"/>
</linearGradient>
<linearGradient id="paint14_linear" x1="8.82361" y1="10.5" x2="9.14292" y2="13.665" gradientUnits="userSpaceOnUse">
<stop stop-color="#EF6F2E"/>
<stop offset="1" stop-color="#FFC839"/>
</linearGradient>
<linearGradient id="paint15_linear" x1="8.82361" y1="14" x2="9.14292" y2="17.165" gradientUnits="userSpaceOnUse">
<stop stop-color="#EF6F2E"/>
<stop offset="1" stop-color="#FFC839"/>
</linearGradient>
</defs>
</svg>
