<svg width="56" height="56" viewBox="0 0 56 56" fill="none" xmlns="http://www.w3.org/2000/svg">
<g clip-path="url(#clip0)">
<path d="M25.556 40.7461H23.5039C23.051 40.7461 22.6836 41.1135 22.6836 41.5664C22.6836 42.0193 23.051 42.3867 23.5039 42.3867H25.556C26.0089 42.3867 26.3763 42.0193 26.3763 41.5664C26.3763 41.1135 26.0089 40.7461 25.556 40.7461Z" fill="url(#paint0_linear)"/>
<path d="M19.8474 29.8062H17.8914C15.3164 29.8062 12.8939 30.8072 11.0696 32.6243C10.2429 33.448 9.31105 34.1547 8.29976 34.725C7.73665 35.0429 7.4504 35.7026 7.60335 36.3293C7.97249 37.8401 9.31661 38.8954 10.8718 38.8954H19.8474C20.4831 38.8954 21.0001 38.3784 21.0001 37.7427V30.9589C21.0001 30.3231 20.4831 29.8062 19.8474 29.8062ZM19.3594 37.2548H10.8718C10.1237 37.2548 9.47084 36.7784 9.23714 36.079C10.3266 35.4496 11.3319 34.6789 12.2274 33.7868C13.742 32.2778 15.7535 31.4468 17.8914 31.4468H19.3594V37.2548Z" fill="url(#paint1_linear)"/>
<path d="M39.2597 35.6411C38.9157 35.4518 38.5761 35.2446 38.2501 35.0241L32.9779 31.4626C31.374 30.3791 29.5031 29.8062 27.5672 29.8062H23.5336C22.9508 29.8062 22.4766 30.2804 22.4766 30.8632V37.8384C22.4766 38.4211 22.9508 38.8954 23.5336 38.8954H39.2644C39.9287 38.8954 40.4722 38.3575 40.476 37.6961C40.4803 36.8433 40.0142 36.0559 39.2597 35.6411ZM24.1172 37.2548V31.4468H27.5672C29.1741 31.4468 30.7275 31.9223 32.0593 32.8221L37.3315 36.3836C37.6989 36.6318 38.0817 36.8655 38.4688 37.0787C38.5521 37.1245 38.6235 37.1847 38.6807 37.2548H24.1172Z" fill="url(#paint2_linear)"/>
<path d="M9.95789 44.6235C9.24182 44.6235 8.56848 44.9025 8.06177 45.4092C7.55591 45.9151 7.27734 46.5884 7.27734 47.3054C7.27734 48.0219 7.55591 48.6956 8.06177 49.2015C8.56805 49.7078 9.24182 49.9868 9.95789 49.9868C10.6744 49.9868 11.3477 49.7078 11.854 49.2015C12.3603 48.6952 12.6393 48.0219 12.6393 47.3054C12.6393 46.5893 12.3607 45.9155 11.854 45.4092C11.3477 44.9025 10.6744 44.6235 9.95789 44.6235ZM10.6936 48.0415C10.4975 48.238 10.236 48.3461 9.95789 48.3461C9.67975 48.3461 9.41827 48.238 9.22174 48.0411C9.02606 47.8454 8.91797 47.5839 8.91797 47.3054C8.91797 47.0268 9.02606 46.7653 9.22174 46.5692C9.4187 46.3727 9.68018 46.2642 9.95789 46.2642C10.236 46.2642 10.4975 46.3727 10.694 46.5692C10.8906 46.7657 10.9987 47.0272 10.9987 47.3054C10.9987 47.5835 10.8906 47.8445 10.6936 48.0415Z" fill="url(#paint3_linear)"/>
<path d="M45.9423 44.6235C45.2262 44.6235 44.5529 44.9025 44.0461 45.4092C43.5403 45.9151 43.2617 46.5884 43.2617 47.3054C43.2617 48.0219 43.5403 48.6956 44.0461 49.2015C44.5524 49.7078 45.2262 49.9868 45.9423 49.9868C46.6588 49.9868 47.3321 49.7078 47.8384 49.2015C48.3451 48.6952 48.6241 48.0219 48.6241 47.3054C48.6241 46.5893 48.3451 45.9155 47.8384 45.4092C47.3321 44.9025 46.6588 44.6235 45.9423 44.6235ZM46.6784 48.0415C46.4819 48.238 46.2204 48.3461 45.9423 48.3461C45.6641 48.3461 45.4026 48.238 45.2061 48.0411C45.01 47.8454 44.9023 47.5839 44.9023 47.3054C44.9023 47.0268 45.01 46.7653 45.2061 46.5692C45.4026 46.3727 45.6641 46.2642 45.9423 46.2642C46.2204 46.2642 46.4819 46.3727 46.6784 46.5692C46.8749 46.7657 46.983 47.0272 46.983 47.3054C46.983 47.5835 46.8749 47.8445 46.6784 48.0415Z" fill="url(#paint4_linear)"/>
<path d="M55.3091 39.4029L55.0575 38.9846C55.0571 38.9842 55.0571 38.9842 55.0566 38.9838C54.1043 37.4038 52.5209 36.2917 50.7115 35.9319L43.4368 34.4853C41.9812 34.196 40.5602 33.3163 39.6181 32.6797L34.3463 29.1182C34.2891 29.0798 34.231 29.0435 34.1737 29.0063H45.8811C47.05 29.0063 48.0011 28.0552 48.0011 26.8863V20.8848C49.1747 20.3041 49.9839 19.0942 49.9839 17.6984V16.2637C49.9839 16.262 49.9839 16.2598 49.9839 16.2581C49.9839 16.25 49.9827 16.2419 49.9827 16.2338C49.9818 16.2103 49.9805 16.1872 49.9775 16.1646C49.9767 16.1552 49.9745 16.1458 49.9733 16.1364C49.9698 16.1141 49.9656 16.0919 49.96 16.0701C49.9583 16.0616 49.9562 16.053 49.9536 16.0445C49.9468 16.0197 49.9387 15.9954 49.9297 15.9719C49.9284 15.968 49.9276 15.9637 49.9258 15.9599L49.9207 15.9467C49.9203 15.9458 49.9199 15.9445 49.9194 15.9437L48.4147 12.1689C48.184 11.5896 47.632 11.2153 47.0086 11.2153H23.9839C23.3605 11.2153 22.8085 11.5896 22.5778 12.1689L21.0731 15.9437C21.0726 15.9445 21.0722 15.9454 21.0718 15.9467L21.0662 15.9603C21.0649 15.9642 21.0641 15.968 21.0624 15.9723C21.0534 15.9958 21.0453 16.0201 21.0385 16.0449C21.0363 16.053 21.0342 16.0616 21.032 16.0701C21.0269 16.0919 21.0222 16.1141 21.0188 16.1364C21.0175 16.1458 21.0158 16.1552 21.0145 16.1646C21.012 16.1872 21.0103 16.2107 21.0098 16.2338C21.0094 16.2419 21.0085 16.25 21.0085 16.2581C21.0085 16.2598 21.0081 16.262 21.0081 16.2637V17.6984C21.0081 19.2544 22.0139 20.5793 23.4088 21.0591V26.8863C23.4088 26.9388 23.4135 26.991 23.4174 27.0431H17.8901C14.6639 27.0431 11.6288 28.2971 9.34344 30.5743C7.9032 32.009 6.09039 32.9874 4.10028 33.4044L2.95612 33.644C1.24414 34.0025 0.00170898 35.5325 0.00170898 37.2816V39.367C0.00128174 39.3777 0 39.3879 0 39.3986V42.6803C0 42.691 0.00128174 42.7017 0.00170898 42.7123V44.1261C0.00170898 45.0562 0.55072 45.9009 1.40094 46.2786L4.85864 47.8158C4.97144 48.954 5.46234 50.0614 6.33264 50.9317C7.3324 51.9315 8.64575 52.4313 9.95911 52.4313C11.272 52.4313 12.5854 51.9315 13.5851 50.9317C14.376 50.1409 14.8528 49.1539 15.0177 48.126H40.881C41.0502 49.1838 41.545 50.1592 42.317 50.9317C43.2856 51.9003 44.5733 52.4339 45.9435 52.4339C47.3128 52.4339 48.601 51.9003 49.5691 50.9317C50.3416 50.1592 50.8363 49.1838 51.0055 48.126H53.0212C54.6636 48.126 56 46.7896 56 45.1468V41.8878C56 41.0123 55.7612 40.1527 55.3091 39.4029ZM46.3605 26.8863C46.3605 27.1508 46.1451 27.3657 45.8811 27.3657H30.3452C29.4411 27.1529 28.5106 27.0431 27.5672 27.0431H25.0768C25.0605 26.9974 25.0494 26.9457 25.0494 26.8863V21.2176C25.9484 21.0937 26.7413 20.6331 27.2955 19.9666C27.9479 20.7515 28.931 21.2522 30.029 21.2522C31.127 21.2522 32.1101 20.7515 32.7625 19.9666C33.4149 20.7515 34.398 21.2522 35.496 21.2522C36.5941 21.2522 37.5771 20.7515 38.2296 19.9666C38.882 20.7515 39.8651 21.2522 40.9631 21.2522C42.0611 21.2522 43.0442 20.7515 43.6966 19.9666C44.3349 20.7344 45.2906 21.2296 46.36 21.2501V26.8863H46.3605ZM28.1158 17.6984V17.084H31.9422V17.6984C31.9422 18.7532 31.0839 19.6116 30.029 19.6116C28.9741 19.6116 28.1158 18.7532 28.1158 17.6984ZM33.5828 17.6984V17.084H37.4092V17.6984C37.4092 18.7532 36.5509 19.6116 35.496 19.6116C34.4412 19.6116 33.5828 18.7532 33.5828 17.6984ZM39.0499 17.6984V17.084H42.8763V17.6984C42.8763 18.7532 42.0179 19.6116 40.9631 19.6116C39.9082 19.6116 39.0499 18.7532 39.0499 17.6984ZM48.3433 17.084V17.6984C48.3433 18.6178 47.6909 19.3877 46.8245 19.5701C46.8108 19.5731 46.7967 19.5748 46.7826 19.5774C46.7399 19.5855 46.6971 19.5923 46.6536 19.5975C46.636 19.5992 46.6185 19.6013 46.601 19.6026C46.545 19.6077 46.4882 19.6116 46.4305 19.6116C45.3752 19.6116 44.5173 18.7532 44.5173 17.6984V17.084H48.3433ZM24.0698 12.856H46.9223L47.9537 15.4434H23.0384L24.0698 12.856ZM22.6487 17.6984V17.084H26.4752V17.6984C26.4752 18.7532 25.6172 19.6116 24.562 19.6116C24.5073 19.6116 24.4534 19.6077 24.3996 19.603C24.3808 19.6017 24.3624 19.6 24.3428 19.5979C23.3909 19.4885 22.6487 18.6789 22.6487 17.6984ZM1.64233 40.2189H2.72583V41.86H1.64233V40.2189ZM12.4247 49.7717C11.0648 51.1317 8.85254 51.1317 7.49261 49.7717C6.13269 48.4118 6.13269 46.1991 7.49261 44.8396C8.17236 44.1594 9.06573 43.8198 9.95868 43.8198C10.8521 43.8198 11.745 44.1594 12.4247 44.8396C13.7847 46.1995 13.7847 48.4118 12.4247 49.7717ZM48.4091 49.7717C47.7507 50.4301 46.8749 50.7933 45.9431 50.7933C45.0117 50.7933 44.1358 50.4301 43.477 49.7717C42.8182 49.1129 42.4554 48.2371 42.4554 47.3057C42.4554 46.3738 42.8182 45.498 43.477 44.8396C44.1358 44.1808 45.0117 43.8181 45.9431 43.8181C46.8749 43.8181 47.7503 44.1808 48.4091 44.8396C49.0679 45.498 49.4307 46.3738 49.4307 47.3057C49.4307 48.2371 49.0679 49.1129 48.4091 49.7717ZM54.3594 45.1468C54.3594 45.8851 53.7591 46.4854 53.0212 46.4854H51.0055C50.8363 45.4275 50.3416 44.4517 49.5695 43.6792C48.601 42.7106 47.3128 42.1774 45.9435 42.1774C44.5733 42.1774 43.2856 42.7106 42.317 43.6792C41.545 44.4517 41.0502 45.4275 40.881 46.4854H15.0177C14.8524 45.4574 14.3755 44.47 13.5847 43.6792C11.5856 41.6797 8.33215 41.6801 6.33264 43.6792C5.64777 44.3645 5.19745 45.1968 4.98169 46.0752L2.06702 44.7794C1.80896 44.6649 1.64233 44.4085 1.64233 44.1261V43.5006H3.0813C3.78967 43.5006 4.36646 42.9243 4.36646 42.2155V39.8635C4.36646 39.1547 3.78967 38.5783 3.0813 38.5783H1.64233V37.2816C1.64233 36.3045 2.33618 35.45 3.29279 35.2496L4.43695 35.0099C6.73853 34.528 8.83545 33.3958 10.5013 31.7364C12.4769 29.7676 15.101 28.6837 17.8901 28.6837H27.5672C28.3905 28.6837 29.2023 28.7807 29.991 28.9678C30.0222 28.9781 30.0546 28.9858 30.0875 28.9918C31.2714 29.2849 32.4006 29.7839 33.4277 30.4777L38.6995 34.0392C39.8492 34.816 41.3899 35.7512 43.1168 36.0947L50.3915 37.5414C51.1965 37.7012 51.9407 38.0609 52.5628 38.5736C51.4225 38.7723 50.5522 39.7686 50.5522 40.9653V42.2227C50.5522 42.9503 51.1443 43.5425 51.8724 43.5425H54.3594V45.1468ZM54.3594 41.9019H52.1932V40.9653C52.1932 40.5308 52.5466 40.1771 52.9811 40.1771H53.8604L53.9039 40.2497C54.2021 40.744 54.3594 41.3105 54.3594 41.8878V41.9019Z" fill="url(#paint5_linear)"/>
<path d="M17.4535 9.07043H18.4203V24.0463C18.4203 24.4996 18.7878 24.8666 19.2407 24.8666C19.6935 24.8666 20.061 24.4996 20.061 24.0463V9.07043H51.3465V33.5046C51.3465 33.9575 51.7135 34.325 52.1668 34.325C52.6197 34.325 52.9871 33.9575 52.9871 33.5046V9.07043H53.954C54.6196 9.07043 55.1614 8.52869 55.1614 7.86304V4.81677C55.1614 4.15112 54.6196 3.60938 53.954 3.60938H17.4535C16.7878 3.60938 16.2461 4.15112 16.2461 4.81677V7.86304C16.2461 8.52869 16.7878 9.07043 17.4535 9.07043ZM17.8867 5.25H53.5208V7.42981H17.8867V5.25Z" fill="url(#paint6_linear)"/>
</g>
<defs>
<linearGradient id="paint0_linear" x1="22.7058" y1="40.7461" x2="23.562" y2="43.4748" gradientUnits="userSpaceOnUse">
<stop stop-color="#EF6F2E"/>
<stop offset="1" stop-color="#FFC839"/>
</linearGradient>
<linearGradient id="paint1_linear" x1="7.64324" y1="29.8062" x2="14.1019" y2="43.3265" gradientUnits="userSpaceOnUse">
<stop stop-color="#EF6F2E"/>
<stop offset="1" stop-color="#FFC839"/>
</linearGradient>
<linearGradient id="paint2_linear" x1="22.5847" y1="29.8062" x2="27.8386" y2="44.5382" gradientUnits="userSpaceOnUse">
<stop stop-color="#EF6F2E"/>
<stop offset="1" stop-color="#FFC839"/>
</linearGradient>
<linearGradient id="paint3_linear" x1="7.30956" y1="44.6235" x2="11.927" y2="51.1601" gradientUnits="userSpaceOnUse">
<stop stop-color="#EF6F2E"/>
<stop offset="1" stop-color="#FFC839"/>
</linearGradient>
<linearGradient id="paint4_linear" x1="43.2939" y1="44.6235" x2="47.9113" y2="51.1605" gradientUnits="userSpaceOnUse">
<stop stop-color="#EF6F2E"/>
<stop offset="1" stop-color="#FFC839"/>
</linearGradient>
<linearGradient id="paint5_linear" x1="0.336491" y1="11.2153" x2="31.1541" y2="70.5004" gradientUnits="userSpaceOnUse">
<stop stop-color="#EF6F2E"/>
<stop offset="1" stop-color="#FFC839"/>
</linearGradient>
<linearGradient id="paint6_linear" x1="16.4799" y1="3.60938" x2="40.3451" y2="46.4225" gradientUnits="userSpaceOnUse">
<stop stop-color="#EF6F2E"/>
<stop offset="1" stop-color="#FFC839"/>
</linearGradient>
<clipPath id="clip0">
<rect width="56" height="56" fill="white"/>
</clipPath>
</defs>
</svg>
