<svg width="40" height="40" viewBox="0 0 40 40" fill="none" xmlns="http://www.w3.org/2000/svg">
<path d="M21.1025 0H5.23684C4.00147 0 3 0.932739 3 2.08333V37.9167C3 39.0673 4.00147 40 5.23684 40H34.7632C35.9985 40 37 39.0673 37 37.9167V14.8065L21.1025 0Z" fill="#EEF5F5"/>
<path d="M37 10.2249V2.08333C37 0.93274 35.9985 0 34.7632 0H26.0217L37 10.2249Z" fill="#EEF5F5"/>
<path d="M13.3809 20.4951V23H11.916V15.8906H14.6895C15.2233 15.8906 15.6921 15.9883 16.0957 16.1836C16.5026 16.3789 16.8151 16.6572 17.0332 17.0186C17.2513 17.3766 17.3604 17.7852 17.3604 18.2441C17.3604 18.9408 17.1211 19.4909 16.6426 19.8945C16.1673 20.2949 15.5081 20.4951 14.665 20.4951H13.3809ZM13.3809 19.3086H14.6895C15.0768 19.3086 15.3714 19.2174 15.5732 19.0352C15.7783 18.8529 15.8809 18.5924 15.8809 18.2539C15.8809 17.9056 15.7783 17.624 15.5732 17.4092C15.3682 17.1943 15.085 17.0837 14.7236 17.0771H13.3809V19.3086ZM18.3711 23V15.8906H20.5586C21.1836 15.8906 21.7419 16.0322 22.2334 16.3154C22.7282 16.5954 23.1139 16.9958 23.3906 17.5166C23.6673 18.0342 23.8057 18.6234 23.8057 19.2842V19.6113C23.8057 20.2721 23.6689 20.8597 23.3955 21.374C23.1253 21.8883 22.7428 22.2871 22.248 22.5703C21.7533 22.8535 21.195 22.9967 20.5732 23H18.3711ZM19.8359 17.0771V21.8232H20.5439C21.1169 21.8232 21.5547 21.6361 21.8574 21.2617C22.1602 20.8874 22.3148 20.3519 22.3213 19.6553V19.2793C22.3213 18.5566 22.1715 18.0098 21.8721 17.6387C21.5726 17.2643 21.1348 17.0771 20.5586 17.0771H19.8359ZM29.1523 20.0947H26.3398V23H24.875V15.8906H29.5039V17.0771H26.3398V18.9131H29.1523V20.0947Z" fill="#494C52"/>
</svg>
