<svg width="34" height="34" viewBox="0 0 34 34" fill="none" xmlns="http://www.w3.org/2000/svg">
<path fill-rule="evenodd" clip-rule="evenodd" d="M25.1889 23.7692L20.5343 19.1128C21.3686 17.9749 21.8156 16.5991 21.8093 15.1881C21.7934 11.5048 18.8143 8.52134 15.131 8.50007C13.3684 8.49209 11.6758 9.1894 10.4302 10.4366C9.1847 11.6839 8.48972 13.3775 8.50011 15.1401C8.51603 18.8237 11.4954 21.8074 15.179 21.8287C16.5958 21.8349 17.9766 21.3827 19.1153 20.5397L19.1202 20.536L23.7705 25.1888C24.0219 25.4526 24.3966 25.5593 24.7493 25.4677C25.102 25.3761 25.3773 25.1006 25.4686 24.7478C25.5599 24.395 25.4528 24.0204 25.1889 23.7692ZM15.1741 20.4954C12.2274 20.4784 9.84397 18.0917 9.83103 15.145C9.82308 13.7351 10.3791 12.3805 11.3753 11.3827C12.3716 10.385 13.7254 9.82697 15.1353 9.83283C18.082 9.84978 20.4655 12.2365 20.4784 15.1832C20.4864 16.5932 19.9303 17.9477 18.9341 18.9455C17.9378 19.9432 16.5841 20.5012 15.1741 20.4954Z" fill="white"/>
</svg>
