<svg width="60" height="60" viewBox="0 0 60 60" fill="none" xmlns="http://www.w3.org/2000/svg">
<path d="M42.9484 6.85981C39.9115 3.99827 34.7076 3.3452 30 8.05289C25.2992 3.34981 20.0884 3.99827 17.0515 6.8575C13.5138 10.1875 13.4515 15.7583 16.8623 19.169L30 32.309L43.1377 19.1713C46.5484 15.7606 46.4861 10.1898 42.9484 6.85981ZM41.5061 17.5375L30 29.046L18.4938 17.5398C15.9969 15.0406 16.0453 10.9767 18.6346 8.53981C19.7376 7.49673 21.2146 6.92443 22.793 6.92443C26.0976 6.92443 27.5838 8.89981 30 11.316C32.3515 8.96443 33.8653 6.92443 37.2069 6.92443C38.7853 6.92443 40.2623 7.49673 41.3677 8.5375C43.95 10.9698 44.01 15.0337 41.5061 17.5375Z" fill="url(#paint0_linear)"/>
<path d="M56.056 6.92432C54.0229 6.92432 52.336 8.44739 52.1329 10.4689L50.6722 24.8943C49.9683 25.0443 49.3222 25.3859 48.8214 25.8866L37.1652 36.7374C35.5614 38.1982 34.6314 40.282 34.6152 42.4605V55.3858H48.4614V49.3028C48.4614 48.3635 48.856 47.4497 49.5714 46.7712L58.3291 37.9328C59.4068 36.8435 59.9999 35.4012 59.9999 33.8712V10.8682C59.9999 8.69432 58.2299 6.92432 56.056 6.92432ZM57.6922 33.8712C57.6922 34.7897 57.3368 35.6551 56.6883 36.3105L47.9583 45.1212C46.8114 46.2058 46.1537 47.7289 46.1537 49.3028V53.0782H36.9229V42.4743C36.9345 40.9443 37.5875 39.4789 38.7299 38.4405L50.4229 27.5505C50.7368 27.2366 51.166 27.082 51.6206 27.1282C51.8722 27.1512 52.2345 27.2412 52.5437 27.5505C52.8276 27.8343 52.9845 28.2128 52.9845 28.612C52.9845 29.0112 52.8252 29.3897 52.5829 29.6343L43.5806 37.7989L45.1314 39.5066L54.1752 31.3028C54.8953 30.5828 55.2922 29.6274 55.2922 28.6097C55.2922 27.592 54.8976 26.6366 54.1776 25.9189C53.8268 25.5635 53.4183 25.2912 52.9706 25.1043L54.4268 10.7043C54.5122 9.86432 55.2137 9.23201 56.056 9.23201C56.9583 9.23201 57.6922 9.96585 57.6922 10.8682V33.8712Z" fill="url(#paint1_linear)"/>
<path d="M22.8346 36.7374L11.1785 25.8866C10.6777 25.3859 10.0315 25.042 9.3277 24.8943L7.86693 10.4689C7.66385 8.44739 5.97693 6.92432 3.94385 6.92432C1.77 6.92432 0 8.69432 0 10.8682V33.8712C0 35.4012 0.593077 36.8435 1.67077 37.9305L10.4285 46.7689C11.1439 47.4474 11.5385 48.3635 11.5385 49.3028V55.3858H25.3846V42.4605C25.3708 40.282 24.4385 38.2005 22.8346 36.7374ZM23.0769 53.0782H13.8462V49.3028C13.8462 47.7312 13.1885 46.2058 12.0415 45.1212L3.31154 36.3105C2.66308 35.6551 2.30769 34.7897 2.30769 33.8712V10.8682C2.30769 9.96585 3.04154 9.23201 3.94385 9.23201C4.78616 9.23201 5.4877 9.86432 5.57308 10.6997L7.02923 25.0997C6.58154 25.2889 6.17308 25.5612 5.82231 25.9143C5.10462 26.632 4.70769 27.5874 4.70769 28.6051C4.70769 29.6228 5.10462 30.5782 5.82462 31.2982L14.8685 39.502L16.4192 37.7943L7.41693 29.6297C7.17231 29.3851 7.01539 29.0089 7.01539 28.6074C7.01539 28.2059 7.17231 27.8297 7.45616 27.5459C7.76308 27.2366 8.1277 27.1466 8.37924 27.1235C8.83616 27.0797 9.26308 27.232 9.57693 27.5459L21.27 38.4358C22.4123 39.4743 23.0654 40.9397 23.0769 42.4697V53.0782V53.0782Z" fill="url(#paint2_linear)"/>
<defs>
<linearGradient id="paint0_linear" x1="14.5384" y1="4.61426" x2="37.2772" y2="41.002" gradientUnits="userSpaceOnUse">
<stop stop-color="#EF6F2E"/>
<stop offset="1" stop-color="#FFC839"/>
</linearGradient>
<linearGradient id="paint1_linear" x1="34.7678" y1="6.92432" x2="77.131" y2="38.3449" gradientUnits="userSpaceOnUse">
<stop stop-color="#EF6F2E"/>
<stop offset="1" stop-color="#FFC839"/>
</linearGradient>
<linearGradient id="paint2_linear" x1="0.15253" y1="6.92432" x2="42.5157" y2="38.3448" gradientUnits="userSpaceOnUse">
<stop stop-color="#EF6F2E"/>
<stop offset="1" stop-color="#FFC839"/>
</linearGradient>
</defs>
</svg>
