<svg width="60" height="60" viewBox="0 0 60 60" fill="none" xmlns="http://www.w3.org/2000/svg">
<g clip-path="url(#clip0)">
<mask id="path-1-outside-1" maskUnits="userSpaceOnUse" x="1.91101" y="2.86255" width="55" height="55" fill="black">
<rect fill="white" x="1.91101" y="2.86255" width="55" height="55"/>
<path d="M37.0375 46.4563C37.0616 46.4477 37.0852 46.4381 37.1084 46.4275C37.3218 46.33 37.6524 46.2029 37.8299 46.1347C37.8985 46.1084 37.9502 46.0881 37.9776 46.0768V46.0769C39.2907 45.5321 40.1296 44.5461 40.4037 43.2255C40.6719 41.9337 40.3836 40.39 39.7188 38.7328C43.8887 38.5118 46.746 39.1214 50.3358 40.2833C50.9743 40.4897 51.5436 40.5728 52.0468 40.5726C53.3608 40.5726 54.2231 40.0058 54.6809 39.5864C55.7056 38.6476 56.1396 37.1801 55.8135 35.7562C55.4526 34.18 54.256 32.979 52.5308 32.4615C49.4815 31.5466 43.2431 29.6751 36.3924 33.036C35.7213 32.1234 35 31.2217 34.2548 30.3503L46.3708 20.2881C46.3915 20.2708 46.4115 20.2527 46.4306 20.2337C46.8236 19.8408 47.0403 19.3172 47.0403 18.7594C47.0403 18.2014 46.8236 17.6778 46.4303 17.2847L42.6617 13.5214C41.8489 12.7089 40.5258 12.7087 39.7128 13.5214C39.6937 13.5405 39.6757 13.5603 39.6583 13.5811L35.9613 18.0261C35.651 18.3992 35.7018 18.9534 36.0751 19.2639C36.4483 19.5743 37.0025 19.5233 37.3128 19.1502L40.9756 14.7463C41.1029 14.6395 41.3001 14.6457 41.4194 14.7651L45.188 18.5284C45.2702 18.6105 45.2826 18.7085 45.2826 18.7595C45.2826 18.8062 45.2722 18.8926 45.207 18.9701L33.0895 29.0332C32.7514 28.6635 32.4112 28.3016 32.071 27.9496C32.064 27.9423 32.0568 27.9351 32.0494 27.9281C31.6788 27.5702 31.2973 27.2123 30.9072 26.8569L34.6399 22.3692C34.9503 21.996 34.8994 21.4419 34.5262 21.1315C34.1531 20.8212 33.5989 20.872 33.2886 21.2451L29.5876 25.6946C28.7757 25.0032 27.9379 24.3333 27.0901 23.7053C30.911 16.9747 29.3401 10.588 28.5715 7.46436C28.1422 5.71662 27.0033 4.4619 25.4469 4.02186C24.0393 3.62401 22.55 3.98389 21.5602 4.961C20.9496 5.56381 20.0189 6.92424 20.647 9.26108C21.6573 13.0299 22.12 16.0242 21.6015 20.4254C19.814 19.6612 18.1455 19.3135 16.7651 19.6002C15.4446 19.8743 14.4585 20.7128 13.9137 22.0248C13.9026 22.052 13.8822 22.1037 13.8558 22.1721C13.7876 22.3496 13.6606 22.68 13.563 22.8932C13.5523 22.9164 13.5427 22.9401 13.534 22.9642L12.4209 26.0915C12.4197 26.0947 12.4182 26.0978 12.417 26.1009L10.5394 31.3751C10.5371 31.3817 10.5356 31.3885 10.5333 31.3953L7.83042 38.9893C7.82784 38.996 7.82456 39.0022 7.82221 39.0089L7.00249 41.3155L3.30616 51.7005C2.62706 53.6135 2.83038 55.2198 3.86139 56.1254C4.41569 56.7531 5.22979 57.0731 6.2151 57.0731C6.84381 57.0731 7.54237 56.9427 8.28686 56.6787L18.656 52.9919L20.9846 52.1653C20.9913 52.163 20.9974 52.1597 21.0039 52.1572L28.6 49.4564C28.6074 49.4539 28.615 49.4522 28.6224 49.4495L33.899 47.5728C33.9024 47.5717 33.9056 47.57 33.909 47.5687L37.0375 46.4563ZM52.0256 34.1451C53.5351 34.598 53.9732 35.5948 54.1 36.1486C54.2825 36.945 54.0442 37.7856 53.4935 38.2903C52.8868 38.8461 51.9571 38.96 50.8767 38.6107C46.9795 37.3493 43.7299 36.6786 38.9235 37.0215C38.4882 36.1898 37.9787 35.3426 37.4149 34.4953C43.5603 31.6057 49.2336 33.3076 52.0256 34.1451ZM22.3446 8.80557C22.0502 7.71045 22.2101 6.78948 22.795 6.21209C23.3275 5.68651 24.1808 5.49092 24.9686 5.71346C25.5155 5.86803 26.489 6.35553 26.8646 7.88413C27.5717 10.7579 29.0103 16.608 25.6463 22.6847C24.851 22.1502 24.0549 21.6627 23.2709 21.2382C23.9416 16.2268 23.4584 12.9606 22.3446 8.80557ZM15.1777 23.5885C15.2942 23.3294 15.4248 22.9896 15.4965 22.8032C15.5139 22.7577 15.5272 22.7231 15.5346 22.7048C15.5354 22.703 15.5362 22.7011 15.5369 22.6992C15.862 21.9163 16.3658 21.4786 17.1222 21.3216C18.275 21.0824 19.9224 21.5087 21.8507 22.4749C21.8941 22.5019 21.9404 22.5248 21.9888 22.5441C23.0426 23.0825 24.1777 23.7794 25.361 24.6162C25.3925 24.6426 25.4255 24.668 25.4615 24.6903C25.4654 24.6928 25.4696 24.6943 25.4736 24.6967C27.1914 25.921 29.0067 27.4346 30.8178 29.1823C31.3396 29.7225 31.8398 30.263 32.3186 30.8013C32.321 30.8042 32.323 30.8074 32.3253 30.8103C32.3324 30.819 32.3405 30.8265 32.348 30.8348C33.4877 32.1183 34.5007 33.3878 35.3656 34.6072C35.3932 34.6543 35.4242 34.6982 35.4588 34.7381C36.3287 35.9759 37.043 37.1593 37.5821 38.2507C37.6028 38.3064 37.6287 38.3591 37.6597 38.4084C38.5339 40.2213 38.9106 41.7695 38.6826 42.8686C38.5257 43.6248 38.0876 44.1285 37.3041 44.4535C37.3022 44.4544 37.3004 44.4552 37.2985 44.456C37.2801 44.4634 37.2455 44.4766 37.1998 44.4941C37.0133 44.5657 36.6734 44.6962 36.4141 44.8126L34.2082 45.5969C33.044 41.8672 29.796 37.8034 27.8596 35.6089C27.5384 35.2451 26.9831 35.2104 26.6191 35.5315C26.2551 35.8526 26.2204 36.408 26.5416 36.772C29.6205 40.2613 31.7689 43.6369 32.5511 46.1862L28.7759 47.5284C27.3325 44.6821 24.8835 41.4062 21.8027 38.2137C21.7953 38.206 21.7878 38.1985 21.7802 38.1912C18.586 35.1121 15.3087 32.6646 12.4608 31.2219L13.8032 27.4502C16.464 28.2714 20.0869 30.6159 23.6921 33.8735C24.0522 34.1989 24.6079 34.1707 24.9335 33.8106C25.2589 33.4505 25.2308 32.8946 24.8705 32.5692C21.0687 29.134 17.3185 26.7177 14.3928 25.794L15.1777 23.5885ZM21.0398 50.2787C19.6578 48.2521 17.9043 46.1217 15.9332 44.0796C15.9258 44.072 15.9185 44.0646 15.9108 44.0573C13.8676 42.0872 11.7362 40.3349 9.70881 38.9538L11.8659 32.8935C14.4904 34.2636 17.6002 36.6049 20.5488 39.4454C23.3905 42.392 25.7329 45.4998 27.1039 48.1227L21.0398 50.2787ZM18.1024 51.3231L14.9855 52.4296C13.9328 51.0916 12.7726 49.7653 11.53 48.4795C11.5229 48.4723 11.5157 48.4651 11.5085 48.4581C10.2222 47.2162 8.89518 46.0567 7.55678 45.0047L8.65377 41.918L9.09885 40.6676C10.927 41.9478 12.8375 43.5367 14.6796 45.3116C16.4549 47.152 18.0444 49.0612 19.3253 50.8882L18.1024 51.3231ZM7.69881 55.0221C6.50315 55.4461 5.5544 55.4155 5.16077 54.9404C5.12526 54.8975 5.08577 54.8582 5.04288 54.8228C4.56815 54.4317 4.53827 53.4843 4.96249 52.2891L6.93206 46.7553C8.0635 47.6682 9.18487 48.6585 10.2767 49.7121C11.3305 50.803 12.321 51.9234 13.2342 53.0538L7.69881 55.0221Z"/>
</mask>
<path d="M37.0375 46.4563C37.0616 46.4477 37.0852 46.4381 37.1084 46.4275C37.3218 46.33 37.6524 46.2029 37.8299 46.1347C37.8985 46.1084 37.9502 46.0881 37.9776 46.0768V46.0769C39.2907 45.5321 40.1296 44.5461 40.4037 43.2255C40.6719 41.9337 40.3836 40.39 39.7188 38.7328C43.8887 38.5118 46.746 39.1214 50.3358 40.2833C50.9743 40.4897 51.5436 40.5728 52.0468 40.5726C53.3608 40.5726 54.2231 40.0058 54.6809 39.5864C55.7056 38.6476 56.1396 37.1801 55.8135 35.7562C55.4526 34.18 54.256 32.979 52.5308 32.4615C49.4815 31.5466 43.2431 29.6751 36.3924 33.036C35.7213 32.1234 35 31.2217 34.2548 30.3503L46.3708 20.2881C46.3915 20.2708 46.4115 20.2527 46.4306 20.2337C46.8236 19.8408 47.0403 19.3172 47.0403 18.7594C47.0403 18.2014 46.8236 17.6778 46.4303 17.2847L42.6617 13.5214C41.8489 12.7089 40.5258 12.7087 39.7128 13.5214C39.6937 13.5405 39.6757 13.5603 39.6583 13.5811L35.9613 18.0261C35.651 18.3992 35.7018 18.9534 36.0751 19.2639C36.4483 19.5743 37.0025 19.5233 37.3128 19.1502L40.9756 14.7463C41.1029 14.6395 41.3001 14.6457 41.4194 14.7651L45.188 18.5284C45.2702 18.6105 45.2826 18.7085 45.2826 18.7595C45.2826 18.8062 45.2722 18.8926 45.207 18.9701L33.0895 29.0332C32.7514 28.6635 32.4112 28.3016 32.071 27.9496C32.064 27.9423 32.0568 27.9351 32.0494 27.9281C31.6788 27.5702 31.2973 27.2123 30.9072 26.8569L34.6399 22.3692C34.9503 21.996 34.8994 21.4419 34.5262 21.1315C34.1531 20.8212 33.5989 20.872 33.2886 21.2451L29.5876 25.6946C28.7757 25.0032 27.9379 24.3333 27.0901 23.7053C30.911 16.9747 29.3401 10.588 28.5715 7.46436C28.1422 5.71662 27.0033 4.4619 25.4469 4.02186C24.0393 3.62401 22.55 3.98389 21.5602 4.961C20.9496 5.56381 20.0189 6.92424 20.647 9.26108C21.6573 13.0299 22.12 16.0242 21.6015 20.4254C19.814 19.6612 18.1455 19.3135 16.7651 19.6002C15.4446 19.8743 14.4585 20.7128 13.9137 22.0248C13.9026 22.052 13.8822 22.1037 13.8558 22.1721C13.7876 22.3496 13.6606 22.68 13.563 22.8932C13.5523 22.9164 13.5427 22.9401 13.534 22.9642L12.4209 26.0915C12.4197 26.0947 12.4182 26.0978 12.417 26.1009L10.5394 31.3751C10.5371 31.3817 10.5356 31.3885 10.5333 31.3953L7.83042 38.9893C7.82784 38.996 7.82456 39.0022 7.82221 39.0089L7.00249 41.3155L3.30616 51.7005C2.62706 53.6135 2.83038 55.2198 3.86139 56.1254C4.41569 56.7531 5.22979 57.0731 6.2151 57.0731C6.84381 57.0731 7.54237 56.9427 8.28686 56.6787L18.656 52.9919L20.9846 52.1653C20.9913 52.163 20.9974 52.1597 21.0039 52.1572L28.6 49.4564C28.6074 49.4539 28.615 49.4522 28.6224 49.4495L33.899 47.5728C33.9024 47.5717 33.9056 47.57 33.909 47.5687L37.0375 46.4563ZM52.0256 34.1451C53.5351 34.598 53.9732 35.5948 54.1 36.1486C54.2825 36.945 54.0442 37.7856 53.4935 38.2903C52.8868 38.8461 51.9571 38.96 50.8767 38.6107C46.9795 37.3493 43.7299 36.6786 38.9235 37.0215C38.4882 36.1898 37.9787 35.3426 37.4149 34.4953C43.5603 31.6057 49.2336 33.3076 52.0256 34.1451ZM22.3446 8.80557C22.0502 7.71045 22.2101 6.78948 22.795 6.21209C23.3275 5.68651 24.1808 5.49092 24.9686 5.71346C25.5155 5.86803 26.489 6.35553 26.8646 7.88413C27.5717 10.7579 29.0103 16.608 25.6463 22.6847C24.851 22.1502 24.0549 21.6627 23.2709 21.2382C23.9416 16.2268 23.4584 12.9606 22.3446 8.80557ZM15.1777 23.5885C15.2942 23.3294 15.4248 22.9896 15.4965 22.8032C15.5139 22.7577 15.5272 22.7231 15.5346 22.7048C15.5354 22.703 15.5362 22.7011 15.5369 22.6992C15.862 21.9163 16.3658 21.4786 17.1222 21.3216C18.275 21.0824 19.9224 21.5087 21.8507 22.4749C21.8941 22.5019 21.9404 22.5248 21.9888 22.5441C23.0426 23.0825 24.1777 23.7794 25.361 24.6162C25.3925 24.6426 25.4255 24.668 25.4615 24.6903C25.4654 24.6928 25.4696 24.6943 25.4736 24.6967C27.1914 25.921 29.0067 27.4346 30.8178 29.1823C31.3396 29.7225 31.8398 30.263 32.3186 30.8013C32.321 30.8042 32.323 30.8074 32.3253 30.8103C32.3324 30.819 32.3405 30.8265 32.348 30.8348C33.4877 32.1183 34.5007 33.3878 35.3656 34.6072C35.3932 34.6543 35.4242 34.6982 35.4588 34.7381C36.3287 35.9759 37.043 37.1593 37.5821 38.2507C37.6028 38.3064 37.6287 38.3591 37.6597 38.4084C38.5339 40.2213 38.9106 41.7695 38.6826 42.8686C38.5257 43.6248 38.0876 44.1285 37.3041 44.4535C37.3022 44.4544 37.3004 44.4552 37.2985 44.456C37.2801 44.4634 37.2455 44.4766 37.1998 44.4941C37.0133 44.5657 36.6734 44.6962 36.4141 44.8126L34.2082 45.5969C33.044 41.8672 29.796 37.8034 27.8596 35.6089C27.5384 35.2451 26.9831 35.2104 26.6191 35.5315C26.2551 35.8526 26.2204 36.408 26.5416 36.772C29.6205 40.2613 31.7689 43.6369 32.5511 46.1862L28.7759 47.5284C27.3325 44.6821 24.8835 41.4062 21.8027 38.2137C21.7953 38.206 21.7878 38.1985 21.7802 38.1912C18.586 35.1121 15.3087 32.6646 12.4608 31.2219L13.8032 27.4502C16.464 28.2714 20.0869 30.6159 23.6921 33.8735C24.0522 34.1989 24.6079 34.1707 24.9335 33.8106C25.2589 33.4505 25.2308 32.8946 24.8705 32.5692C21.0687 29.134 17.3185 26.7177 14.3928 25.794L15.1777 23.5885ZM21.0398 50.2787C19.6578 48.2521 17.9043 46.1217 15.9332 44.0796C15.9258 44.072 15.9185 44.0646 15.9108 44.0573C13.8676 42.0872 11.7362 40.3349 9.70881 38.9538L11.8659 32.8935C14.4904 34.2636 17.6002 36.6049 20.5488 39.4454C23.3905 42.392 25.7329 45.4998 27.1039 48.1227L21.0398 50.2787ZM18.1024 51.3231L14.9855 52.4296C13.9328 51.0916 12.7726 49.7653 11.53 48.4795C11.5229 48.4723 11.5157 48.4651 11.5085 48.4581C10.2222 47.2162 8.89518 46.0567 7.55678 45.0047L8.65377 41.918L9.09885 40.6676C10.927 41.9478 12.8375 43.5367 14.6796 45.3116C16.4549 47.152 18.0444 49.0612 19.3253 50.8882L18.1024 51.3231ZM7.69881 55.0221C6.50315 55.4461 5.5544 55.4155 5.16077 54.9404C5.12526 54.8975 5.08577 54.8582 5.04288 54.8228C4.56815 54.4317 4.53827 53.4843 4.96249 52.2891L6.93206 46.7553C8.0635 47.6682 9.18487 48.6585 10.2767 49.7121C11.3305 50.803 12.321 51.9234 13.2342 53.0538L7.69881 55.0221Z" fill="url(#paint0_linear)"/>
<path d="M37.0375 46.4563C37.0616 46.4477 37.0852 46.4381 37.1084 46.4275C37.3218 46.33 37.6524 46.2029 37.8299 46.1347C37.8985 46.1084 37.9502 46.0881 37.9776 46.0768V46.0769C39.2907 45.5321 40.1296 44.5461 40.4037 43.2255C40.6719 41.9337 40.3836 40.39 39.7188 38.7328C43.8887 38.5118 46.746 39.1214 50.3358 40.2833C50.9743 40.4897 51.5436 40.5728 52.0468 40.5726C53.3608 40.5726 54.2231 40.0058 54.6809 39.5864C55.7056 38.6476 56.1396 37.1801 55.8135 35.7562C55.4526 34.18 54.256 32.979 52.5308 32.4615C49.4815 31.5466 43.2431 29.6751 36.3924 33.036C35.7213 32.1234 35 31.2217 34.2548 30.3503L46.3708 20.2881C46.3915 20.2708 46.4115 20.2527 46.4306 20.2337C46.8236 19.8408 47.0403 19.3172 47.0403 18.7594C47.0403 18.2014 46.8236 17.6778 46.4303 17.2847L42.6617 13.5214C41.8489 12.7089 40.5258 12.7087 39.7128 13.5214C39.6937 13.5405 39.6757 13.5603 39.6583 13.5811L35.9613 18.0261C35.651 18.3992 35.7018 18.9534 36.0751 19.2639C36.4483 19.5743 37.0025 19.5233 37.3128 19.1502L40.9756 14.7463C41.1029 14.6395 41.3001 14.6457 41.4194 14.7651L45.188 18.5284C45.2702 18.6105 45.2826 18.7085 45.2826 18.7595C45.2826 18.8062 45.2722 18.8926 45.207 18.9701L33.0895 29.0332C32.7514 28.6635 32.4112 28.3016 32.071 27.9496C32.064 27.9423 32.0568 27.9351 32.0494 27.9281C31.6788 27.5702 31.2973 27.2123 30.9072 26.8569L34.6399 22.3692C34.9503 21.996 34.8994 21.4419 34.5262 21.1315C34.1531 20.8212 33.5989 20.872 33.2886 21.2451L29.5876 25.6946C28.7757 25.0032 27.9379 24.3333 27.0901 23.7053C30.911 16.9747 29.3401 10.588 28.5715 7.46436C28.1422 5.71662 27.0033 4.4619 25.4469 4.02186C24.0393 3.62401 22.55 3.98389 21.5602 4.961C20.9496 5.56381 20.0189 6.92424 20.647 9.26108C21.6573 13.0299 22.12 16.0242 21.6015 20.4254C19.814 19.6612 18.1455 19.3135 16.7651 19.6002C15.4446 19.8743 14.4585 20.7128 13.9137 22.0248C13.9026 22.052 13.8822 22.1037 13.8558 22.1721C13.7876 22.3496 13.6606 22.68 13.563 22.8932C13.5523 22.9164 13.5427 22.9401 13.534 22.9642L12.4209 26.0915C12.4197 26.0947 12.4182 26.0978 12.417 26.1009L10.5394 31.3751C10.5371 31.3817 10.5356 31.3885 10.5333 31.3953L7.83042 38.9893C7.82784 38.996 7.82456 39.0022 7.82221 39.0089L7.00249 41.3155L3.30616 51.7005C2.62706 53.6135 2.83038 55.2198 3.86139 56.1254C4.41569 56.7531 5.22979 57.0731 6.2151 57.0731C6.84381 57.0731 7.54237 56.9427 8.28686 56.6787L18.656 52.9919L20.9846 52.1653C20.9913 52.163 20.9974 52.1597 21.0039 52.1572L28.6 49.4564C28.6074 49.4539 28.615 49.4522 28.6224 49.4495L33.899 47.5728C33.9024 47.5717 33.9056 47.57 33.909 47.5687L37.0375 46.4563ZM52.0256 34.1451C53.5351 34.598 53.9732 35.5948 54.1 36.1486C54.2825 36.945 54.0442 37.7856 53.4935 38.2903C52.8868 38.8461 51.9571 38.96 50.8767 38.6107C46.9795 37.3493 43.7299 36.6786 38.9235 37.0215C38.4882 36.1898 37.9787 35.3426 37.4149 34.4953C43.5603 31.6057 49.2336 33.3076 52.0256 34.1451ZM22.3446 8.80557C22.0502 7.71045 22.2101 6.78948 22.795 6.21209C23.3275 5.68651 24.1808 5.49092 24.9686 5.71346C25.5155 5.86803 26.489 6.35553 26.8646 7.88413C27.5717 10.7579 29.0103 16.608 25.6463 22.6847C24.851 22.1502 24.0549 21.6627 23.2709 21.2382C23.9416 16.2268 23.4584 12.9606 22.3446 8.80557ZM15.1777 23.5885C15.2942 23.3294 15.4248 22.9896 15.4965 22.8032C15.5139 22.7577 15.5272 22.7231 15.5346 22.7048C15.5354 22.703 15.5362 22.7011 15.5369 22.6992C15.862 21.9163 16.3658 21.4786 17.1222 21.3216C18.275 21.0824 19.9224 21.5087 21.8507 22.4749C21.8941 22.5019 21.9404 22.5248 21.9888 22.5441C23.0426 23.0825 24.1777 23.7794 25.361 24.6162C25.3925 24.6426 25.4255 24.668 25.4615 24.6903C25.4654 24.6928 25.4696 24.6943 25.4736 24.6967C27.1914 25.921 29.0067 27.4346 30.8178 29.1823C31.3396 29.7225 31.8398 30.263 32.3186 30.8013C32.321 30.8042 32.323 30.8074 32.3253 30.8103C32.3324 30.819 32.3405 30.8265 32.348 30.8348C33.4877 32.1183 34.5007 33.3878 35.3656 34.6072C35.3932 34.6543 35.4242 34.6982 35.4588 34.7381C36.3287 35.9759 37.043 37.1593 37.5821 38.2507C37.6028 38.3064 37.6287 38.3591 37.6597 38.4084C38.5339 40.2213 38.9106 41.7695 38.6826 42.8686C38.5257 43.6248 38.0876 44.1285 37.3041 44.4535C37.3022 44.4544 37.3004 44.4552 37.2985 44.456C37.2801 44.4634 37.2455 44.4766 37.1998 44.4941C37.0133 44.5657 36.6734 44.6962 36.4141 44.8126L34.2082 45.5969C33.044 41.8672 29.796 37.8034 27.8596 35.6089C27.5384 35.2451 26.9831 35.2104 26.6191 35.5315C26.2551 35.8526 26.2204 36.408 26.5416 36.772C29.6205 40.2613 31.7689 43.6369 32.5511 46.1862L28.7759 47.5284C27.3325 44.6821 24.8835 41.4062 21.8027 38.2137C21.7953 38.206 21.7878 38.1985 21.7802 38.1912C18.586 35.1121 15.3087 32.6646 12.4608 31.2219L13.8032 27.4502C16.464 28.2714 20.0869 30.6159 23.6921 33.8735C24.0522 34.1989 24.6079 34.1707 24.9335 33.8106C25.2589 33.4505 25.2308 32.8946 24.8705 32.5692C21.0687 29.134 17.3185 26.7177 14.3928 25.794L15.1777 23.5885ZM21.0398 50.2787C19.6578 48.2521 17.9043 46.1217 15.9332 44.0796C15.9258 44.072 15.9185 44.0646 15.9108 44.0573C13.8676 42.0872 11.7362 40.3349 9.70881 38.9538L11.8659 32.8935C14.4904 34.2636 17.6002 36.6049 20.5488 39.4454C23.3905 42.392 25.7329 45.4998 27.1039 48.1227L21.0398 50.2787ZM18.1024 51.3231L14.9855 52.4296C13.9328 51.0916 12.7726 49.7653 11.53 48.4795C11.5229 48.4723 11.5157 48.4651 11.5085 48.4581C10.2222 47.2162 8.89518 46.0567 7.55678 45.0047L8.65377 41.918L9.09885 40.6676C10.927 41.9478 12.8375 43.5367 14.6796 45.3116C16.4549 47.152 18.0444 49.0612 19.3253 50.8882L18.1024 51.3231ZM7.69881 55.0221C6.50315 55.4461 5.5544 55.4155 5.16077 54.9404C5.12526 54.8975 5.08577 54.8582 5.04288 54.8228C4.56815 54.4317 4.53827 53.4843 4.96249 52.2891L6.93206 46.7553C8.0635 47.6682 9.18487 48.6585 10.2767 49.7121C11.3305 50.803 12.321 51.9234 13.2342 53.0538L7.69881 55.0221Z" stroke="url(#paint1_linear)" stroke-width="0.3" mask="url(#path-1-outside-1)"/>
<path d="M48.8623 12.9846L48.8622 12.9846C48.2425 12.7323 48.1372 12.0824 48.0961 11.8118L47.6225 9.24805L48.8623 12.9846ZM48.8623 12.9846C49.0039 13.0422 49.1419 13.0661 49.2735 13.0661C49.7197 13.0661 50.0839 12.7909 50.2582 12.6593L50.2623 12.6562L50.2628 12.6558M48.8623 12.9846L50.2628 12.6558M50.2628 12.6558L52.3154 11.0752C52.3281 11.0677 52.3578 11.056 52.3958 11.0459C52.4331 11.0359 52.4644 11.0312 52.4788 11.031L55.0539 11.3737L55.0545 11.3738M50.2628 12.6558L55.0545 11.3738M55.0545 11.3738L55.0606 11.3745C55.3312 11.4085 56.0072 11.4935 56.4237 10.9624C56.8371 10.4356 56.6036 9.81569 56.5069 9.56276L55.6311 7.10365C55.6311 7.10357 55.6311 7.10349 55.631 7.10341C55.6043 7.02728 55.5932 6.98238 55.5887 6.95884L56.7156 4.50803C56.8389 4.26081 57.1309 3.66337 56.7769 3.10226L56.7769 3.10225M55.0545 11.3738L56.7769 3.10225M56.7769 3.10225C56.4185 2.53428 55.7494 2.54738 55.4815 2.55263L55.477 2.55271L52.7873 2.60519L50.8572 0.734468L50.8571 0.734339M56.7769 3.10225L50.8571 0.734339M50.8571 0.734339L50.854 0.731371C50.6769 0.560599 50.1767 0.0780848 49.506 0.257071L49.506 0.257073M50.8571 0.734339L49.506 0.257073M49.506 0.257073C48.8352 0.436172 48.6423 1.1036 48.574 1.3399L48.5728 1.34406L48.5728 1.34405M49.506 0.257073L48.5728 1.34405M48.5728 1.34405L48.5723 1.34594M48.5728 1.34405L48.5723 1.34594M48.5723 1.34594L48.5716 1.34848L48.5716 1.34847L47.8376 3.9291L45.4773 5.23014L45.4772 5.23022L45.4722 5.23296C45.2389 5.36217 44.6563 5.68484 44.6299 6.35483L44.6299 6.35484C44.6038 7.019 45.1569 7.39146 45.387 7.54387L47.5862 9.09739C47.5943 9.12103 47.6075 9.16685 47.6225 9.248L48.5723 1.34594ZM48.8624 5.54255L48.8626 5.54245C49.1339 5.39178 49.3072 5.22807 49.425 5.05432C49.5423 4.8814 49.6016 4.7027 49.6506 4.52867C49.6506 4.52861 49.6506 4.52855 49.6506 4.5285L50.1649 2.72019L51.4573 3.9728L51.4576 3.97308L51.5088 4.02328C51.5088 4.0233 51.5089 4.02333 51.5089 4.02335C51.6362 4.14878 51.7747 4.27318 51.9598 4.36519C52.1457 4.45762 52.3743 4.51524 52.6805 4.51524L52.7076 4.51512L52.7081 4.51511L54.63 4.4776L53.8396 6.19636L53.8395 6.1966C53.5633 6.80281 53.6933 7.34446 53.8329 7.74056L53.833 7.74079L54.411 9.36379L52.7336 9.14054C52.7335 9.14053 52.7334 9.14052 52.7333 9.1405C52.2164 9.06793 51.571 9.23963 51.1584 9.55885L49.8116 10.5958L49.4988 8.90154L49.4988 8.90152C49.4284 8.52122 49.271 7.95612 48.7208 7.5633L48.7205 7.56308L47.1765 6.47226L48.8624 5.54255Z" fill="url(#paint2_linear)" stroke="url(#paint3_linear)" stroke-width="0.15"/>
<path d="M34.8314 9.94121L34.8309 9.94094L32.9688 8.8627C32.2077 8.42522 31.9196 7.48633 32.2551 6.58994C32.2551 6.5899 32.2552 6.58986 32.2552 6.58982L34.1212 1.55219C34.1212 1.55215 34.1212 1.55211 34.1212 1.55207C34.2784 1.12317 34.626 0.783091 35.0722 0.620862L35.0722 0.620861C35.5708 0.439605 36.1434 0.489725 36.605 0.755118L36.6051 0.755194L40.0305 2.73386C40.0305 2.73388 40.0305 2.73391 40.0306 2.73393C40.4923 2.99799 40.8238 3.46541 40.9182 3.98607M34.8314 9.94121L40.8444 3.99943M34.8314 9.94121C35.0929 10.0902 35.378 10.1621 35.6642 10.1621C36.2096 10.1621 36.7558 9.90104 37.151 9.42041L37.1509 9.42053L37.0932 9.3726L37.1511 9.42023M34.8314 9.94121L37.1511 9.42023M40.9182 3.98607L40.8444 3.99943M40.9182 3.98607C40.9182 3.98606 40.9182 3.98606 40.9182 3.98606L40.8444 3.99943M40.9182 3.98607C41.0032 4.45503 40.8831 4.9285 40.5871 5.28431M40.8444 3.99943C40.9256 4.44744 40.8107 4.89826 40.5295 5.23635M40.5871 5.28431L40.5872 5.28427L40.5295 5.23635M40.5871 5.28431L37.1511 9.42023M40.5871 5.28431L40.5295 5.23635M40.5295 5.23635L37.1511 9.42023M34.0429 7.25586L34.043 7.25553L35.8058 2.49669L38.9256 4.29892L35.6807 8.20506L35.6804 8.20539C35.6759 8.21094 35.6714 8.21605 35.6671 8.22075L34.0359 7.27623C34.0379 7.26981 34.0402 7.26302 34.0429 7.25586Z" fill="url(#paint4_linear)" stroke="url(#paint5_linear)" stroke-width="0.15"/>
<path d="M56.9155 24.7217C56.9467 24.666 56.9726 24.5898 56.9854 24.5155L58.1564 17.6524C58.1475 17.6466 58.1371 17.6406 58.1253 17.6351C58.0976 17.622 58.0683 17.6141 58.0421 17.6141H52.8545C52.8288 17.6141 52.7997 17.622 52.772 17.6352C52.76 17.6409 52.7494 17.6471 52.7404 17.6531L53.9146 24.516L56.9155 24.7217ZM56.9155 24.7217C56.8998 24.7496 56.8845 24.7692 56.8716 24.7809M56.9155 24.7217L56.8716 24.7809M56.8716 24.7809C56.8621 24.7895 56.8568 24.7913 56.8557 24.7916M56.8716 24.7809L56.8557 24.7916M56.8557 24.7916H54.0435M56.8557 24.7916H54.0435M54.0435 24.7916L54.0433 24.7916M54.0435 24.7916L54.0433 24.7916M54.0433 24.7916L54.0428 24.7915M54.0433 24.7916L54.0428 24.7915M54.0428 24.7915C54.0423 24.7913 54.0413 24.791 54.0397 24.7903M54.0428 24.7915L54.0397 24.7903M54.0397 24.7903C54.0365 24.7887 54.0314 24.7854 54.0247 24.7791M54.0397 24.7903L54.0247 24.7791M54.0247 24.7791C54.011 24.7661 53.9955 24.7447 53.98 24.7152M54.0247 24.7791L53.98 24.7152M53.98 24.7152C53.9492 24.6565 53.9256 24.5798 53.9146 24.5161L53.98 24.7152ZM51.2515 16.4492L51.2515 16.4492C50.9024 16.8634 50.757 17.3755 50.8452 17.8895L52.0342 24.8383L52.0342 24.8384C52.2241 25.9437 53.028 26.6991 54.0433 26.6991H56.8563C57.8718 26.6991 58.6756 25.9437 58.8657 24.8373L58.8657 24.8372L60.0509 17.8899C60.1396 17.3749 59.9942 16.8624 59.6449 16.4481C59.253 15.9832 58.6542 15.7062 58.042 15.7062H52.8543C52.2428 15.7062 51.6439 15.9837 51.2515 16.4492Z" fill="url(#paint6_linear)" stroke="url(#paint7_linear)" stroke-width="0.15"/>
<path d="M1.95271 19.3322L1.95271 19.3321C1.92807 19.3387 1.90221 19.3536 1.879 19.3731C1.86929 19.3813 1.86086 19.3896 1.85384 19.3974L4.76458 25.7231C4.7916 25.7818 4.83456 25.85 4.88001 25.899C4.90281 25.9236 4.92352 25.9404 4.94038 25.9495C4.94855 25.9539 4.95443 25.9558 4.95809 25.9565C4.95984 25.9568 4.96096 25.9569 4.96153 25.9569L4.96231 25.9568L4.96237 25.9568L7.67666 25.2281M1.95271 19.3322L7.67658 25.2281C7.67657 25.2281 7.6766 25.2281 7.67666 25.2281M1.95271 19.3322L1.95417 19.3317M1.95271 19.3322L1.95417 19.3317M7.67666 25.2281C7.67737 25.2278 7.68242 25.2252 7.69021 25.2134C7.69976 25.1989 7.70947 25.1763 7.71738 25.1456C7.73316 25.0845 7.73832 25.0049 7.73135 24.9302L7.08499 17.9959M7.67666 25.2281L7.08499 17.9959M1.95417 19.3317L1.95603 19.3312L6.96704 17.9884L6.96756 17.9883M1.95417 19.3317L6.96756 17.9883M6.96756 17.9883C6.9918 17.9816 7.02133 17.9816 7.05102 17.9871M6.96756 17.9883L7.05102 17.9871M7.05102 17.9871C7.06355 17.9895 7.07502 17.9926 7.08499 17.9959M7.05102 17.9871L7.08499 17.9959M5.45392 27.8002L5.45419 27.8002L8.16824 27.0716C9.1533 26.8106 9.73577 25.872 9.63102 24.7528C9.63102 24.7527 9.63102 24.7527 9.63102 24.7527L8.97653 17.7317L8.97652 17.7316C8.92759 17.211 8.65303 16.7539 8.20689 16.4446L8.20688 16.4446C7.70749 16.0984 7.05822 15.9872 6.47095 16.1463C6.47092 16.1463 6.47089 16.1463 6.47086 16.1463L1.46238 17.4885C0.870815 17.6458 0.363553 18.0676 0.104681 18.6182C-0.126326 19.1094 -0.134156 19.6428 0.0848651 20.117C0.0848759 20.117 0.0848867 20.117 0.0848975 20.117L3.032 26.5218L3.03204 26.5219C3.42033 27.363 4.15187 27.8664 4.95216 27.8664C5.11789 27.8664 5.28605 27.8446 5.45392 27.8002Z" fill="url(#paint8_linear)" stroke="url(#paint9_linear)" stroke-width="0.15"/>
<path d="M39.5714 59.7749L39.5713 59.7749C39.0519 59.7302 38.6042 59.4795 38.3137 59.068L34.5597 53.7721C34.5597 53.7721 34.5597 53.772 34.5597 53.772C33.9376 52.9003 33.9713 51.8435 34.6635 51.1517L36.4932 49.323L36.5454 49.3753L36.4932 49.323C37.1849 48.6316 38.2415 48.598 39.1156 49.2209C39.1156 49.221 39.1157 49.221 39.1157 49.221L44.4137 52.9724C44.8244 53.262 45.0751 53.71 45.1195 54.2297M39.5714 59.7749L45.0447 54.2361M39.5714 59.7749C39.626 59.7795 39.6806 59.7819 39.7354 59.7819C40.261 59.7819 40.7828 59.5681 41.1585 59.1927L41.1055 59.1397M39.5714 59.7749L41.1055 59.1397M45.1195 54.2297L45.0447 54.2361M45.1195 54.2297C45.1195 54.2297 45.1195 54.2297 45.1195 54.2297L45.0447 54.2361M45.1195 54.2297C45.1691 54.8094 44.9513 55.4019 44.5368 55.8162L41.1585 59.1927L41.1055 59.1397M45.0447 54.2361C45.0924 54.7935 44.8828 55.3644 44.4838 55.7631L41.1055 59.1397M36.1143 52.6661L36.1145 52.6663L39.7931 57.8557C39.7998 57.8518 39.8057 57.8476 39.81 57.8433L36.1143 52.6661ZM36.1143 52.6661C36.0723 52.6072 36.05 52.5559 36.0394 52.5188C36.0349 52.5033 36.0327 52.4908 36.0317 52.4816L37.8229 50.6901C37.8557 50.6949 37.9243 50.7144 38.0106 50.776L38.0108 50.7761L43.2002 54.4506C43.1965 54.457 43.1924 54.4625 43.1883 54.4666C43.1883 54.4666 43.1883 54.4666 43.1883 54.4666L39.8101 57.8432L36.1143 52.6661Z" fill="url(#paint10_linear)" stroke="url(#paint11_linear)" stroke-width="0.15"/>
<path d="M6.11812 12.2666L6.11769 12.2666L6.11091 12.2675C5.80191 12.307 5.1244 12.3936 4.69905 11.8512M6.11812 12.2666L4.75807 11.8049M6.11812 12.2666L8.90383 11.8941C8.92604 11.8923 8.97306 11.8986 9.02693 11.9127C9.08058 11.9267 9.12258 11.9437 9.13842 11.9541L11.3756 13.6818L11.3763 13.6823L11.3805 13.6854C11.5703 13.8284 11.9375 14.105 12.3884 14.105C12.522 14.105 12.6624 14.0807 12.8067 14.0224L12.8067 14.0224C13.4388 13.7668 13.5492 13.091 13.5932 12.8139L14.1039 10.0336C14.1039 10.0335 14.1039 10.0334 14.1039 10.0334C14.1215 9.9407 14.1371 9.88598 14.1481 9.85509C14.1521 9.84385 14.1553 9.83624 14.1576 9.83141L16.5712 8.12484C16.827 7.9543 17.3836 7.57904 17.3547 6.90154L17.2798 6.90474L17.3547 6.90154C17.3256 6.22033 16.7208 5.8882 16.4799 5.75593L16.475 5.75321L16.4748 5.75315L13.8853 4.32442L13.0771 1.49191L13.077 1.49178L13.0759 1.48787C13.006 1.241 12.8092 0.546211 12.1245 0.361932C11.4395 0.177395 10.9197 0.680526 10.7353 0.859088L10.7319 0.862331L10.7319 0.862341L8.64117 2.88652L8.64081 2.88687L8.61337 2.9138L5.66085 2.85746L5.66055 2.85745L5.65482 2.85732C5.37732 2.85089 4.68459 2.83483 4.31885 3.4135C3.95638 3.98694 4.25286 4.58858 4.39212 4.86553L5.6264 7.54542C5.62584 7.5506 5.62484 7.55786 5.62308 7.56752C5.6174 7.5986 5.60403 7.65296 5.57298 7.74062L5.57301 7.74053L5.64365 7.76572L5.57296 7.74067M6.11812 12.2666L5.57296 7.74067M4.69905 11.8512L4.75807 11.8049M4.69905 11.8512C4.69905 11.8512 4.69905 11.8512 4.69905 11.8512L4.75807 11.8049M4.69905 11.8512C4.27736 11.3136 4.5202 10.6727 4.62106 10.4106M4.75807 11.8049C4.36502 11.3038 4.58897 10.7028 4.69139 10.4367M4.62106 10.4106L4.62074 10.4115L4.69139 10.4367M4.62106 10.4106L5.57296 7.74067M4.62106 10.4106C4.62117 10.4103 4.62128 10.41 4.62139 10.4097L4.69139 10.4367M4.69139 10.4367L5.57296 7.74067M11.867 11.6507L12.2285 9.68295L12.2286 9.6825C12.3122 9.2422 12.4805 8.67708 13.0473 8.27978C13.0473 8.27975 13.0474 8.27972 13.0474 8.27969L14.8257 7.02229L12.8839 5.951L12.8837 5.95086C12.6012 5.79365 12.422 5.62697 12.3 5.44818C12.1786 5.27022 12.1172 5.08473 12.0645 4.89736C12.0645 4.89732 12.0645 4.89728 12.0645 4.89723L11.4675 2.8052L9.90923 4.31495C9.90913 4.31505 9.90904 4.31515 9.90894 4.31524C9.76979 4.4532 9.62382 4.58517 9.42926 4.67972C9.23364 4.77478 8.99407 4.82965 8.66931 4.82301M11.867 11.6507L8.67084 4.74802M11.867 11.6507L10.2992 10.4401L10.2989 10.4399C9.93037 10.1582 9.38614 9.98724 8.89971 9.98724C8.81756 9.98724 8.73662 9.9921 8.65815 10.0023L8.65786 10.0023L6.6986 10.2642M11.867 11.6507L6.6986 10.2642M8.66931 4.82301L8.67084 4.74802M8.66931 4.82301L8.66941 4.82301L8.67084 4.74802M8.66931 4.82301L6.45332 4.78065M8.67084 4.74802L6.41848 4.70497L6.45332 4.78065M6.45332 4.78065L7.36529 6.76134L7.36533 6.76142C7.6558 7.39424 7.51763 7.96437 7.37056 8.37951L7.37051 8.37966L6.6986 10.2642M6.45332 4.78065L6.37002 4.77905L6.6986 10.2642M6.6986 10.2642L6.61499 10.2754L6.58666 10.3549L6.67027 10.3437L6.6986 10.2642ZM11.4442 2.72339L11.5053 2.66419L11.5286 2.746L11.4442 2.72339Z" fill="url(#paint12_linear)" stroke="url(#paint13_linear)" stroke-width="0.15"/>
<path d="M58.8223 45.9316L58.8221 45.9316L55.9447 45.2201L54.431 42.6921L54.4309 42.6919L54.4283 42.6875C54.2972 42.4671 53.9287 41.8475 53.2196 41.8457H53.2194H53.2194H53.2194H53.2194H53.2194H53.2194H53.2194H53.2194H53.2194H53.2193H53.2193H53.2193H53.2193H53.2193H53.2193H53.2193H53.2193H53.2193H53.2193H53.2193H53.2193H53.2193H53.2193H53.2193H53.2193H53.2193H53.2193H53.2192H53.2192H53.2192H53.2192H53.2192H53.2192H53.2192H53.2192H53.2192H53.2192H53.2192H53.2192H53.2192H53.2192H53.2192H53.2192H53.2192H53.2192H53.2191H53.2191H53.2191H53.2191H53.2191H53.2191H53.2191H53.2191H53.2191H53.2191H53.2191H53.2191H53.2191H53.2191H53.2191H53.2191H53.2191H53.2191H53.219H53.219H53.219H53.219H53.219H53.219H53.219H53.219H53.219H53.219H53.219H53.219H53.219H53.219H53.219H53.219H53.219H53.2189H53.2189H53.2189H53.2189H53.2189H53.2189H53.2189H53.2189H53.2189H53.2189H53.2189H53.2189H53.2189H53.2189H53.2189H53.2189H53.2189H53.2189H53.2188H53.2188H53.2188H53.2188H53.2188H53.2188H53.2188H53.2188H53.2188H53.2188H53.2188H53.2188H53.2188H53.2188H53.2188H53.2188H53.2188H53.2188H53.2187H53.2187H53.2187H53.2187H53.2187H53.2187H53.2187H53.2187H53.2187H53.2187H53.2187H53.2187H53.2187H53.2187H53.2187H53.2187H53.2187H53.2186H53.2186H53.2186H53.2186H53.2186H53.2186H53.2186H53.2186H53.2186H53.2186H53.2186H53.2186H53.2186H53.2186H53.2186H53.2186H53.2186H53.2186H53.2185H53.2185H53.2185H53.2185H53.2185H53.2185H53.2185H53.2185H53.2185H53.2185H53.2185H53.2185H53.2185H53.2185H53.2185H53.2185H53.2185H53.2184H53.2184H53.2184H53.2184H53.2184H53.2184H53.2184H53.2184H53.2184H53.2184H53.2184H53.2184H53.2184H53.2184H53.2184H53.2184H53.2184H53.2184H53.2183H53.2183H53.2183H53.2183H53.2183H53.2183H53.2183H53.2183H53.2183H53.2183H53.2183H53.2183H53.2183H53.2183H53.2183H53.2183H53.2183H53.2182H53.2182H53.2182H53.2182H53.2182H53.2182H53.2182H53.2182H53.2182H53.2182H53.2182H53.2182H53.2182H53.2182H53.2182H53.2182H53.2182H53.2182H53.2181H53.2181H53.2181H53.2181H53.2181H53.2181H53.2181H53.2181H53.2181H53.2181H53.2181H53.2181H53.2181H53.2181H53.2181H53.2181H53.2181H53.218H53.218H53.218H53.218H53.218H53.218H53.218H53.218H53.218H53.218H53.218H53.218H53.218H53.218H53.218H53.218H53.218H53.218H53.2179H53.2179H53.2179H53.2179H53.2179H53.2179H53.2179H53.2179H53.2179H53.2179H53.2179H53.2179H53.2179H53.2179H53.2179H53.2179H53.2179H53.2179H53.2178H53.2178H53.2178H53.2178H53.2178H53.2178H53.2178H53.2178H53.2178H53.2178H53.2178H53.2178H53.2178H53.2178H53.2178H53.2178H53.2178H53.2177H53.2177H53.2177H53.2177H53.2177H53.2177H53.2177H53.2177H53.2177H53.2177H53.2177H53.2177H53.2177H53.2177H53.2177H53.2177H53.2177H53.2177H53.2176H53.2176H53.2176H53.2176H53.2176H53.2176H53.2176H53.2176H53.2176H53.2176H53.2176H53.2176H53.2176H53.2176H53.2176H53.2176H53.2176H53.2176H53.2175H53.2175H53.2175H53.2175H53.2175H53.2175H53.2175H53.2175H53.2175H53.2175H53.2175H53.2175H53.2175H53.2175H53.2175H53.2175H53.2175H53.2175H53.2174H53.2174H53.2174H53.2174H53.2174H53.2174H53.2174H53.2174H53.2174H53.2174H53.2174H53.2174H53.2174H53.2174H53.2174H53.2174H53.2174H53.2174H53.2174H53.2173H53.2173H53.2173H53.2173H53.2173H53.2173H53.2173H53.2173H53.2173H53.2173H53.2173H53.2173H53.2173H53.2173H53.2173H53.2173H53.2173H53.2173H53.2172H53.2172H53.2172H53.2172H53.2172H53.2172H53.2172H53.2172H53.2172H53.2172H53.2172H53.2172H53.2172H53.2172H53.2172H53.2172H53.2172H53.2172H53.2172H53.2171H53.2171H53.2171H53.2171H53.2171H53.2171H53.2171H53.2171H53.2171H53.2171H53.2171H53.2171H53.2171H53.2171H53.2171H53.2171H53.2171H53.2171H53.2171H53.217H53.217H53.217H53.217H53.217H53.217H53.217H53.217H53.217H53.217H53.217H53.217H53.217H53.217H53.217H53.217H53.217H53.217H53.217H53.2169H53.2169H53.2169H53.2169H53.2169H53.2169H53.2169H53.2169H53.2169H53.2169H53.2169H53.2169H53.2169H53.2169H53.2169H53.2169H53.2169H53.2169H53.2169H53.2169H53.2168H53.2168H53.2168H53.2168H53.2168H53.2168H53.2168H53.2168H53.2168H53.2168H53.2168H53.2168H53.2168H53.2168H53.2168H53.2168H53.2168H53.2168H53.2168H53.2168H53.2167H53.2167H53.2167H53.2167H53.2167H53.2167H53.2167H53.2167H53.2167H53.2167H53.2167H53.2167H53.2167H53.2167H53.2167H53.2167H53.2167H53.2167H53.2167H53.2167H53.2166H53.2166H53.2166H53.2166H53.2166H53.2166H53.2166H53.2166H53.2166H53.2166H53.2166H53.2166H53.2166H53.2166C52.5097 41.8457 52.1379 42.4627 52.0054 42.6829L52.0054 42.6828L52.0023 42.6879L52.0022 42.6878L52.0009 42.6902L50.5046 45.1887L50.5045 45.1889L50.4859 45.2202L47.6067 45.9321L47.6066 45.9321L47.6006 45.9336C47.3319 46.0007 46.6616 46.1681 46.4599 46.8188C46.2593 47.4649 46.7002 47.9701 46.9045 48.2012L48.7937 50.4746C48.7967 50.4949 48.8019 50.5524 48.7918 50.679L48.5669 53.5068C48.536 53.7874 48.4666 54.4658 49.0091 54.8771L49.0544 54.8174L49.0091 54.8771C49.5583 55.2935 50.1928 55.0372 50.4866 54.9186L50.4927 54.9161L50.4935 54.9158L53.092 53.8325C53.1122 53.8253 53.1585 53.8191 53.2141 53.8188C53.2695 53.8186 53.3155 53.8244 53.3353 53.8312L55.9482 54.919L55.9488 54.9192L55.9514 54.9202C56.1203 54.9889 56.4095 55.1064 56.73 55.1064C56.9538 55.1064 57.1937 55.0492 57.419 54.8798C57.9647 54.4695 57.8965 53.7875 57.8674 53.509L57.6389 50.6795C57.6316 50.5874 57.6323 50.5315 57.6347 50.4994C57.6355 50.4886 57.6365 50.4808 57.6373 50.4755L59.5295 48.2013C59.7334 47.9707 60.1736 47.4666 59.9729 46.8198C59.7709 46.1685 59.0989 46.0007 58.828 45.9331L58.8223 45.9316ZM55.4002 47.0508L57.5605 47.585L56.1611 49.2671C55.7161 49.8006 55.7022 50.3892 55.7372 50.8314L55.7372 50.8315L55.8987 52.8319L54.0678 52.0695C53.5596 51.8572 52.8787 51.8569 52.3639 52.0693L52.3637 52.0694L50.5344 52.832L50.6937 50.8302L50.6937 50.8301C50.7286 50.3897 50.7149 49.8011 50.271 49.2685C50.2709 49.2685 50.2709 49.2685 50.2709 49.2685L48.8722 47.5844L51.0282 47.0513C51.3442 46.974 51.5622 46.859 51.7274 46.7165C51.8917 46.5748 51.9996 46.4093 52.0993 46.2395C52.0993 46.2394 52.0994 46.2393 52.0994 46.2393L53.2153 44.3755L54.2904 46.1705L54.2906 46.1708L54.3314 46.2398C54.3315 46.2398 54.3315 46.2399 54.3315 46.2399C54.4313 46.4095 54.5391 46.575 54.7032 46.7166C54.868 46.859 55.0854 46.9738 55.4002 47.0508Z" fill="url(#paint14_linear)" stroke="url(#paint15_linear)" stroke-width="0.15"/>
</g>
<defs>
<linearGradient id="paint0_linear" x1="3.22953" y1="3.86255" x2="49.0954" y2="68.561" gradientUnits="userSpaceOnUse">
<stop stop-color="#EF6F2E"/>
<stop offset="1" stop-color="#FFC839"/>
</linearGradient>
<linearGradient id="paint1_linear" x1="3.22953" y1="3.86255" x2="49.0954" y2="68.561" gradientUnits="userSpaceOnUse">
<stop stop-color="#EF6F2E"/>
<stop offset="1" stop-color="#FFC839"/>
</linearGradient>
<linearGradient id="paint2_linear" x1="44.7771" y1="0.292969" x2="55.8569" y2="15.3255" gradientUnits="userSpaceOnUse">
<stop stop-color="#EF6F2E"/>
<stop offset="1" stop-color="#FFC839"/>
</linearGradient>
<linearGradient id="paint3_linear" x1="44.7771" y1="0.292969" x2="55.8569" y2="15.3255" gradientUnits="userSpaceOnUse">
<stop stop-color="#EF6F2E"/>
<stop offset="1" stop-color="#FFC839"/>
</linearGradient>
<linearGradient id="paint4_linear" x1="32.2437" y1="0.588379" x2="40.6407" y2="11.4513" gradientUnits="userSpaceOnUse">
<stop stop-color="#EF6F2E"/>
<stop offset="1" stop-color="#FFC839"/>
</linearGradient>
<linearGradient id="paint5_linear" x1="32.2437" y1="0.588379" x2="40.6407" y2="11.4513" gradientUnits="userSpaceOnUse">
<stop stop-color="#EF6F2E"/>
<stop offset="1" stop-color="#FFC839"/>
</linearGradient>
<linearGradient id="paint6_linear" x1="50.9497" y1="15.7813" x2="60.7077" y2="27.3852" gradientUnits="userSpaceOnUse">
<stop stop-color="#EF6F2E"/>
<stop offset="1" stop-color="#FFC839"/>
</linearGradient>
<linearGradient id="paint7_linear" x1="50.9497" y1="15.7813" x2="60.7077" y2="27.3852" gradientUnits="userSpaceOnUse">
<stop stop-color="#EF6F2E"/>
<stop offset="1" stop-color="#FFC839"/>
</linearGradient>
<linearGradient id="paint8_linear" x1="0.0583421" y1="16.1501" x2="10.5713" y2="28.3841" gradientUnits="userSpaceOnUse">
<stop stop-color="#EF6F2E"/>
<stop offset="1" stop-color="#FFC839"/>
</linearGradient>
<linearGradient id="paint9_linear" x1="0.0583421" y1="16.1501" x2="10.5713" y2="28.3841" gradientUnits="userSpaceOnUse">
<stop stop-color="#EF6F2E"/>
<stop offset="1" stop-color="#FFC839"/>
</linearGradient>
<linearGradient id="paint10_linear" x1="34.2576" y1="48.8528" x2="43.6003" y2="62.0877" gradientUnits="userSpaceOnUse">
<stop stop-color="#EF6F2E"/>
<stop offset="1" stop-color="#FFC839"/>
</linearGradient>
<linearGradient id="paint11_linear" x1="34.2576" y1="48.8528" x2="43.6003" y2="62.0877" gradientUnits="userSpaceOnUse">
<stop stop-color="#EF6F2E"/>
<stop offset="1" stop-color="#FFC839"/>
</linearGradient>
<linearGradient id="paint12_linear" x1="4.29894" y1="0.396973" x2="16.1952" y2="16.534" gradientUnits="userSpaceOnUse">
<stop stop-color="#EF6F2E"/>
<stop offset="1" stop-color="#FFC839"/>
</linearGradient>
<linearGradient id="paint13_linear" x1="4.29894" y1="0.396973" x2="16.1952" y2="16.534" gradientUnits="userSpaceOnUse">
<stop stop-color="#EF6F2E"/>
<stop offset="1" stop-color="#FFC839"/>
</linearGradient>
<linearGradient id="paint14_linear" x1="46.5648" y1="41.9207" x2="57.7478" y2="58.1835" gradientUnits="userSpaceOnUse">
<stop stop-color="#EF6F2E"/>
<stop offset="1" stop-color="#FFC839"/>
</linearGradient>
<linearGradient id="paint15_linear" x1="46.5648" y1="41.9207" x2="57.7478" y2="58.1835" gradientUnits="userSpaceOnUse">
<stop stop-color="#EF6F2E"/>
<stop offset="1" stop-color="#FFC839"/>
</linearGradient>
<clipPath id="clip0">
<rect width="60" height="60" fill="white"/>
</clipPath>
</defs>
</svg>
