<svg width="60" height="60" viewBox="0 0 60 60" fill="none" xmlns="http://www.w3.org/2000/svg">
<g clip-path="url(#clip0)">
<path d="M12.7895 58.207L12.7895 58.207C13.1323 58.6898 13.0187 59.3589 12.536 59.7016C12.3476 59.8353 12.1311 59.8995 11.9165 59.8995C11.5806 59.8995 11.2505 59.7424 11.0415 59.4481L10.9619 59.5045L11.0415 59.4481L9.27724 56.9629L9.27724 56.9629C8.93446 56.4801 9.04807 55.811 9.53074 55.4683C10.0135 55.1257 10.6827 55.2392 11.0252 55.7219L11.0252 55.722L12.7895 58.207Z" fill="url(#paint0_linear)" stroke="white" stroke-width="0.2"/>
<path d="M7.74542 36.6236V36.3788V22.2582C7.74542 20.4517 6.51436 18.9175 4.75075 18.5261L4.75073 18.5261C3.61261 18.2732 2.43915 18.547 1.52986 19.2765M7.74542 36.6236L4.28631 20.6189C3.78632 20.5079 3.27052 20.6282 2.87151 20.9485L2.87151 20.9485C2.47241 21.2689 2.24325 21.7465 2.24325 22.2582V40.4282C2.24325 42.3406 2.82849 44.1759 3.93549 45.7353L4.01704 45.6775L3.93549 45.7354L6.02529 48.6792L6.10683 48.6213L6.0253 48.6792C6.36807 49.162 6.25447 49.831 5.77181 50.1737C5.58335 50.3075 5.36687 50.3717 5.15234 50.3717C4.81643 50.3717 4.48626 50.2146 4.27729 49.9202L2.18749 46.9764C0.821495 45.0521 0.0995117 42.788 0.0995117 40.4283V22.2582C0.0995117 21.0925 0.620706 20.006 1.52986 19.2765M7.74542 36.6236L7.91682 36.4488M7.74542 36.6236L7.91682 36.4488M1.52986 19.2765L1.46728 19.1985L1.52986 19.2765ZM7.91682 36.4488C9.25719 35.082 11.4132 34.8502 13.0167 35.9282L17.1161 38.6847C20.8674 41.2071 23.4445 45.0325 24.3728 49.4568L26.2928 58.6077C26.4143 59.187 26.0432 59.7553 25.4639 59.8769C25.3896 59.8925 25.3155 59.9 25.2427 59.9C24.7463 59.9 24.3008 59.5531 24.1948 59.048L22.2747 49.897C21.4619 46.0228 19.2049 42.6725 15.9199 40.4637L11.8208 37.7072L11.765 37.7902L11.8208 37.7072C11.0483 37.1879 10.0006 37.3216 9.38318 38.0184L9.38317 38.0184C8.68981 38.8012 8.68158 39.9492 9.34311 40.7404L9.34299 40.7405L9.3468 40.7446L9.35443 40.7531C9.3575 40.7567 9.36185 40.7617 9.3666 40.7667L9.36675 40.7669L12.0537 43.6266L12.0538 43.6267C13.6203 45.2917 14.9921 46.7525 15.0134 46.7751L15.0134 46.7752C15.4188 47.2067 15.3975 47.885 14.9659 48.2903C14.5344 48.6955 13.8559 48.6741 13.4508 48.2427L13.4506 48.2425C13.447 48.2386 13.4034 48.1922 13.3258 48.1096C13.0681 47.8352 12.435 47.1613 11.6417 46.3175L11.6417 46.3174L11.6395 46.3153C11.6377 46.3134 11.6358 46.3116 11.6342 46.3101C11.6326 46.3086 11.6314 46.3075 11.6307 46.3069C11.6299 46.3061 11.6294 46.3057 11.6292 46.3055C11.6292 46.3055 11.6292 46.3054 11.6292 46.3054L10.4232 45.0219L10.4231 45.0218C9.56132 44.1059 8.64628 43.1341 7.86799 42.3094L7.86798 42.3094C7.80647 42.2443 7.7479 42.1767 7.6903 42.1076L7.69035 42.1076M7.91682 36.4488L7.69035 42.1076M7.69035 42.1076L7.68782 42.1048M7.69035 42.1076L7.68782 42.1048M7.68782 42.1048C6.34224 40.6104 5.60168 38.69 5.60168 36.6741V22.2582C5.60168 21.4652 5.06041 20.7906 4.28632 20.6189L7.68782 42.1048Z" fill="url(#paint1_linear)" stroke="white" stroke-width="0.2"/>
<path d="M8.60035 52.3069L8.60044 52.307C8.94417 52.7888 8.83218 53.4582 8.35046 53.8021C8.16161 53.9369 7.94429 54.0015 7.72888 54.0015C7.39396 54.0015 7.06452 53.8452 6.85532 53.5521L6.84792 53.5417L6.84783 53.5416C6.50409 53.0598 6.61598 52.3904 7.09779 52.0465C7.57957 51.7027 8.24885 51.8145 8.59296 52.2965L8.60035 52.3069Z" fill="url(#paint2_linear)" stroke="white" stroke-width="0.2"/>
<path d="M52.0823 36.4491L52.2537 36.6239V36.3791V22.2585C52.2537 20.452 53.4848 18.9177 55.2484 18.5264C56.386 18.2739 57.5601 18.5473 58.4692 19.2768C59.3784 20.0062 59.8995 21.0927 59.8998 22.2584V40.4286C59.8998 42.7883 59.1778 45.0524 57.8118 46.9767L48.9582 59.4485C48.7493 59.7428 48.4189 59.9 48.0832 59.9C47.8687 59.9 47.6523 59.8358 47.4637 59.702C46.9811 59.3594 46.8675 58.6902 47.2102 58.2075L47.1287 58.1496L47.2102 58.2075L56.0638 45.7357C57.1708 44.1762 57.7561 42.3409 57.7561 40.4285V22.2584C57.7561 21.7466 57.5269 21.2689 57.1278 20.9487L57.1278 20.9486C56.7285 20.6285 56.2129 20.5082 55.713 20.6191L55.7347 20.7167L55.713 20.6191C54.9388 20.7908 54.3975 21.4654 54.3975 22.2584V36.6744C54.3975 38.6903 53.6568 40.6107 52.3114 42.1051L52.3113 42.105L52.3089 42.1079C52.2513 42.177 52.1927 42.2446 52.1312 42.3097L52.1312 42.3097C51.742 42.7221 50.3503 44.2012 49.0539 45.5792L47.318 47.4246L46.761 48.0168L46.6052 48.1824L46.5636 48.2266L46.5526 48.2383L46.5497 48.2415L46.5489 48.2423L46.5486 48.2426L46.5486 48.2427L46.5484 48.2429C46.1431 48.6744 45.4648 48.6957 45.0333 48.2905C44.6019 47.8852 44.5805 47.2069 44.9858 46.7754L47.8171 43.7628L49.7532 41.7027L50.3908 41.0243L50.5694 40.8343L50.6164 40.7843L50.6285 40.7714L50.6315 40.7682L50.6323 40.7674L50.6325 40.7672L50.5597 40.6986L50.6326 40.7671L50.6335 40.7661L50.6458 40.7523L50.6556 40.7412L50.6557 40.7413L50.6587 40.7378C51.3177 39.9465 51.3085 38.8004 50.616 38.0186L50.616 38.0185C49.9984 37.3218 48.9507 37.1881 48.1784 37.7075L44.0791 40.4639C40.7941 42.6726 38.5372 46.023 37.7243 49.8971L35.8043 59.0481C35.6983 59.5532 35.2529 59.9001 34.7564 59.9001C34.6837 59.9001 34.6095 59.8926 34.5352 59.8771C33.9559 59.7555 33.5848 59.1873 33.7063 58.608L35.6263 49.457C36.5546 45.0326 39.1316 41.2072 42.883 38.6849L42.8272 38.6019L42.883 38.6849L46.9823 35.9285C48.5858 34.8505 50.742 35.0823 52.0823 36.4491ZM46.6213 48.3113C46.6234 48.309 46.7129 48.2139 46.8679 48.0491C47.8591 46.9953 51.5309 43.0915 52.2039 42.3784C52.2673 42.3112 52.3273 42.242 52.3857 42.172L46.6213 48.3113Z" fill="url(#paint3_linear)" stroke="white" stroke-width="0.2"/>
<mask id="path-5-inside-1" fill="white">
<path d="M44.8423 22.4601L42.7574 21.962V21.5882C44.1125 20.639 45.001 19.0672 45.001 17.2909V14.5804C45.001 11.6884 42.6482 9.33561 39.7561 9.33561C38.4583 9.33561 37.27 9.81045 36.3533 10.5942C35.3326 8.0946 32.8766 6.32812 30.0144 6.32812C27.1487 6.32812 24.6901 8.09917 23.6718 10.6036C22.7536 9.8142 21.561 9.33538 20.2579 9.33538C17.3658 9.33538 15.013 11.6881 15.013 14.5802V14.7603V17.2906C15.013 19.0669 15.9016 20.6388 17.2566 21.588V21.9618L15.1717 22.4599C12.6824 23.0546 10.9438 25.2573 10.9438 27.8167V30.0053C10.9438 30.6525 11.4686 31.1772 12.1157 31.1772H17.5007C17.4924 31.3193 17.4866 31.4622 17.4866 31.6062V35.82C17.4866 36.4672 18.0114 36.9919 18.6585 36.9919H25.7026C26.3497 36.9919 26.8745 36.4672 26.8745 35.82C26.8745 35.1728 26.3497 34.6481 25.7026 34.6481H24.4918V32.2265C24.4918 31.5792 23.9671 31.0546 23.32 31.0546C22.6729 31.0546 22.1481 31.5792 22.1481 32.2265V34.6484H19.8305V31.6064C19.8305 29.3462 21.3656 27.3999 23.5634 26.8732L26.7792 26.1026L28.9313 30.9989C29.1184 31.4244 29.5393 31.6992 30.004 31.6992H30.0041C30.4688 31.6992 30.8898 31.4245 31.0768 30.999L33.2267 26.11L36.4324 26.8758C38.6322 27.4014 40.1686 29.348 40.1686 31.6098V34.6484H37.851V32.2265C37.851 31.5792 37.3263 31.0546 36.6792 31.0546C36.0321 31.0546 35.5073 31.5792 35.5073 32.2265V34.6484H34.1792C33.5321 34.6484 33.0073 35.173 33.0073 35.8202C33.0073 36.4674 33.5321 36.9921 34.1792 36.9921H41.3406C41.9877 36.9921 42.5125 36.4674 42.5125 35.8202V31.6098C42.5125 31.4646 42.5066 31.3207 42.4982 31.1774H47.8984C48.5455 31.1774 49.0703 30.6527 49.0703 30.0055V27.8169C49.0703 25.2576 47.3317 23.0547 44.8423 22.4601ZM39.7561 11.6791C41.2915 11.6791 42.552 12.8781 42.6509 14.3888H41.0216C39.652 14.3888 38.3041 14.0591 37.0925 13.4312C37.5381 12.4013 38.5645 11.6791 39.7561 11.6791ZM36.8551 17.1195C36.8565 17.0625 36.8594 17.0056 36.8594 16.9482V15.9045C38.1744 16.4487 39.5884 16.7326 41.0216 16.7326H42.6572V17.2907C42.6572 18.8903 41.3559 20.1918 39.7561 20.1918C38.1564 20.1918 36.8551 18.8903 36.8551 17.2906V17.1195ZM25.5132 13.173C25.5132 10.6911 27.5324 8.67186 30.0144 8.67186C32.253 8.67186 34.115 10.3146 34.4588 12.4577L32.486 11.2986C31.9925 11.0087 31.3618 11.1176 30.9942 11.5564C30.0301 12.707 28.6162 13.3668 27.1151 13.3668H25.5132V13.173ZM20.258 11.6791C21.4497 11.6791 22.4759 12.4015 22.9216 13.4311C21.7099 14.059 20.3622 14.3887 18.9925 14.3887H17.3632C17.4621 12.8781 18.7227 11.6791 20.258 11.6791ZM17.3569 16.7325H18.9925C20.4272 16.7325 21.8428 16.448 23.1591 15.9027V17.2905C23.1591 18.8901 21.8577 20.1916 20.258 20.1916C18.6583 20.1916 17.3569 18.8903 17.3569 17.2906V16.7325ZM23.0173 24.5939C20.7117 25.1464 18.8998 26.7538 18.0374 28.8335H13.2876V27.8168C13.2876 26.3466 14.2863 25.0811 15.7163 24.7395L18.7008 24.0265C19.2283 23.9005 19.6005 23.4291 19.6005 22.8868V22.4928C19.8161 22.5199 20.0352 22.5354 20.258 22.5354C20.4791 22.5354 20.6967 22.5201 20.9107 22.4934V22.8277C20.9099 22.8452 20.9095 22.8626 20.9094 22.8801C20.9092 23.2646 21.0982 23.6412 21.4453 23.8657C21.5761 23.9505 21.7174 24.0055 21.8617 24.0331L23.6098 24.4519L23.0173 24.5939ZM26.2861 22.7747C25.985 22.642 25.6712 22.5358 25.3478 22.4583L23.2543 21.9567V21.5915C23.6322 21.3275 23.9738 21.0154 24.27 20.6636C24.7934 21.4699 25.481 22.1593 26.2861 22.6844V22.7747ZM31.3758 24.4966L30.0044 27.6155L28.6299 24.4886V23.6523C29.0772 23.7446 29.5403 23.7932 30.0144 23.7932C30.4804 23.7932 30.9356 23.746 31.3758 23.6568V24.4966ZM30.0144 21.4494C27.5324 21.4495 25.5132 19.4302 25.5132 16.9482V15.7105H27.1151C28.9734 15.7105 30.7404 15.0194 32.0946 13.7868L34.5112 15.2067V17.1196C34.4207 19.5223 32.439 21.4494 30.0144 21.4494ZM33.7195 22.7785V22.6991C34.5311 22.1744 35.2249 21.4832 35.7523 20.6735C36.0466 21.0213 36.3853 21.3299 36.7594 21.5915V21.9567L34.6659 22.4583C34.3396 22.5366 34.0231 22.6441 33.7195 22.7785ZM46.7264 28.8335H41.9604C41.0972 26.7538 39.284 25.1473 36.9771 24.5962L36.3887 24.4557L38.1461 24.0345C38.2924 24.0073 38.436 23.9515 38.5686 23.8657C38.9151 23.6416 39.1035 23.2649 39.1035 22.8804C39.1035 22.8713 39.1034 22.862 39.1032 22.8529V22.4934C39.3173 22.5201 39.5348 22.5354 39.7559 22.5354C39.9787 22.5354 40.1978 22.5199 40.4134 22.4928V22.8868C40.4134 23.4291 40.7856 23.9005 41.3131 24.0265L44.2976 24.7395C45.7276 25.0812 46.7264 26.3466 46.7264 27.8168V28.8335Z"/>
</mask>
<path d="M44.8423 22.4601L42.7574 21.962V21.5882C44.1125 20.639 45.001 19.0672 45.001 17.2909V14.5804C45.001 11.6884 42.6482 9.33561 39.7561 9.33561C38.4583 9.33561 37.27 9.81045 36.3533 10.5942C35.3326 8.0946 32.8766 6.32812 30.0144 6.32812C27.1487 6.32812 24.6901 8.09917 23.6718 10.6036C22.7536 9.8142 21.561 9.33538 20.2579 9.33538C17.3658 9.33538 15.013 11.6881 15.013 14.5802V14.7603V17.2906C15.013 19.0669 15.9016 20.6388 17.2566 21.588V21.9618L15.1717 22.4599C12.6824 23.0546 10.9438 25.2573 10.9438 27.8167V30.0053C10.9438 30.6525 11.4686 31.1772 12.1157 31.1772H17.5007C17.4924 31.3193 17.4866 31.4622 17.4866 31.6062V35.82C17.4866 36.4672 18.0114 36.9919 18.6585 36.9919H25.7026C26.3497 36.9919 26.8745 36.4672 26.8745 35.82C26.8745 35.1728 26.3497 34.6481 25.7026 34.6481H24.4918V32.2265C24.4918 31.5792 23.9671 31.0546 23.32 31.0546C22.6729 31.0546 22.1481 31.5792 22.1481 32.2265V34.6484H19.8305V31.6064C19.8305 29.3462 21.3656 27.3999 23.5634 26.8732L26.7792 26.1026L28.9313 30.9989C29.1184 31.4244 29.5393 31.6992 30.004 31.6992H30.0041C30.4688 31.6992 30.8898 31.4245 31.0768 30.999L33.2267 26.11L36.4324 26.8758C38.6322 27.4014 40.1686 29.348 40.1686 31.6098V34.6484H37.851V32.2265C37.851 31.5792 37.3263 31.0546 36.6792 31.0546C36.0321 31.0546 35.5073 31.5792 35.5073 32.2265V34.6484H34.1792C33.5321 34.6484 33.0073 35.173 33.0073 35.8202C33.0073 36.4674 33.5321 36.9921 34.1792 36.9921H41.3406C41.9877 36.9921 42.5125 36.4674 42.5125 35.8202V31.6098C42.5125 31.4646 42.5066 31.3207 42.4982 31.1774H47.8984C48.5455 31.1774 49.0703 30.6527 49.0703 30.0055V27.8169C49.0703 25.2576 47.3317 23.0547 44.8423 22.4601ZM39.7561 11.6791C41.2915 11.6791 42.552 12.8781 42.6509 14.3888H41.0216C39.652 14.3888 38.3041 14.0591 37.0925 13.4312C37.5381 12.4013 38.5645 11.6791 39.7561 11.6791ZM36.8551 17.1195C36.8565 17.0625 36.8594 17.0056 36.8594 16.9482V15.9045C38.1744 16.4487 39.5884 16.7326 41.0216 16.7326H42.6572V17.2907C42.6572 18.8903 41.3559 20.1918 39.7561 20.1918C38.1564 20.1918 36.8551 18.8903 36.8551 17.2906V17.1195ZM25.5132 13.173C25.5132 10.6911 27.5324 8.67186 30.0144 8.67186C32.253 8.67186 34.115 10.3146 34.4588 12.4577L32.486 11.2986C31.9925 11.0087 31.3618 11.1176 30.9942 11.5564C30.0301 12.707 28.6162 13.3668 27.1151 13.3668H25.5132V13.173ZM20.258 11.6791C21.4497 11.6791 22.4759 12.4015 22.9216 13.4311C21.7099 14.059 20.3622 14.3887 18.9925 14.3887H17.3632C17.4621 12.8781 18.7227 11.6791 20.258 11.6791ZM17.3569 16.7325H18.9925C20.4272 16.7325 21.8428 16.448 23.1591 15.9027V17.2905C23.1591 18.8901 21.8577 20.1916 20.258 20.1916C18.6583 20.1916 17.3569 18.8903 17.3569 17.2906V16.7325ZM23.0173 24.5939C20.7117 25.1464 18.8998 26.7538 18.0374 28.8335H13.2876V27.8168C13.2876 26.3466 14.2863 25.0811 15.7163 24.7395L18.7008 24.0265C19.2283 23.9005 19.6005 23.4291 19.6005 22.8868V22.4928C19.8161 22.5199 20.0352 22.5354 20.258 22.5354C20.4791 22.5354 20.6967 22.5201 20.9107 22.4934V22.8277C20.9099 22.8452 20.9095 22.8626 20.9094 22.8801C20.9092 23.2646 21.0982 23.6412 21.4453 23.8657C21.5761 23.9505 21.7174 24.0055 21.8617 24.0331L23.6098 24.4519L23.0173 24.5939ZM26.2861 22.7747C25.985 22.642 25.6712 22.5358 25.3478 22.4583L23.2543 21.9567V21.5915C23.6322 21.3275 23.9738 21.0154 24.27 20.6636C24.7934 21.4699 25.481 22.1593 26.2861 22.6844V22.7747ZM31.3758 24.4966L30.0044 27.6155L28.6299 24.4886V23.6523C29.0772 23.7446 29.5403 23.7932 30.0144 23.7932C30.4804 23.7932 30.9356 23.746 31.3758 23.6568V24.4966ZM30.0144 21.4494C27.5324 21.4495 25.5132 19.4302 25.5132 16.9482V15.7105H27.1151C28.9734 15.7105 30.7404 15.0194 32.0946 13.7868L34.5112 15.2067V17.1196C34.4207 19.5223 32.439 21.4494 30.0144 21.4494ZM33.7195 22.7785V22.6991C34.5311 22.1744 35.2249 21.4832 35.7523 20.6735C36.0466 21.0213 36.3853 21.3299 36.7594 21.5915V21.9567L34.6659 22.4583C34.3396 22.5366 34.0231 22.6441 33.7195 22.7785ZM46.7264 28.8335H41.9604C41.0972 26.7538 39.284 25.1473 36.9771 24.5962L36.3887 24.4557L38.1461 24.0345C38.2924 24.0073 38.436 23.9515 38.5686 23.8657C38.9151 23.6416 39.1035 23.2649 39.1035 22.8804C39.1035 22.8713 39.1034 22.862 39.1032 22.8529V22.4934C39.3173 22.5201 39.5348 22.5354 39.7559 22.5354C39.9787 22.5354 40.1978 22.5199 40.4134 22.4928V22.8868C40.4134 23.4291 40.7856 23.9005 41.3131 24.0265L44.2976 24.7395C45.7276 25.0812 46.7264 26.3466 46.7264 27.8168V28.8335Z" fill="url(#paint4_linear)" stroke="white" stroke-width="0.4" mask="url(#path-5-inside-1)"/>
<path d="M29.9998 34.7489C30.2814 34.7489 30.5572 34.8626 30.7574 35.0618C30.9569 35.2624 31.0716 35.5382 31.0716 35.8208C31.0716 36.1022 30.9569 36.378 30.7574 36.5786C30.557 36.778 30.2812 36.8927 29.9998 36.8927C29.717 36.8927 29.4412 36.7779 29.2419 36.5786C29.0416 36.3782 28.9279 36.1025 28.9279 35.8208C28.9279 35.5378 29.0416 35.2621 29.2419 35.0618C29.441 34.8627 29.7166 34.7489 29.9998 34.7489Z" fill="url(#paint5_linear)" stroke="white" stroke-width="0.2"/>
<path d="M28.9275 1.17187C28.9275 0.579882 29.4075 0.1 29.9994 0.1C30.5914 0.1 31.0713 0.579875 31.0713 1.17187V2.92534C31.0713 3.51733 30.5913 3.99721 29.9994 3.99721C29.4075 3.99721 28.9275 3.51733 28.9275 2.92534V1.17187Z" fill="url(#paint6_linear)" stroke="white" stroke-width="0.2"/>
<path d="M25.6116 3.89323L25.6116 3.89324C26.0304 4.31157 26.0306 4.99029 25.6123 5.40908C25.403 5.61855 25.1288 5.72334 24.8541 5.72334C24.5799 5.72334 24.3059 5.61885 24.0966 5.40972L24.0966 5.4097L22.8672 4.18158C22.4484 3.76323 22.448 3.08452 22.8665 2.66576C23.2849 2.24697 23.9635 2.24665 24.3823 2.66511L24.3823 2.66511L25.6116 3.89323Z" fill="url(#paint7_linear)" stroke="white" stroke-width="0.2"/>
<path d="M35.5875 2.69608L35.5875 2.69606C36.0057 2.27721 36.6845 2.27696 37.1033 2.69533C37.5221 3.11368 37.5224 3.79239 37.1041 4.21117L35.8843 5.43214L35.8842 5.43216C35.675 5.64171 35.4007 5.74652 35.126 5.74652C34.8517 5.74652 34.5778 5.64204 34.3684 5.43289C33.9496 5.01454 33.9493 4.33583 34.3676 3.91705C34.3676 3.91705 34.3677 3.91705 34.3677 3.91705L35.5875 2.69608Z" fill="url(#paint8_linear)" stroke="white" stroke-width="0.2"/>
</g>
<defs>
<linearGradient id="paint0_linear" x1="9.00393" y1="55.1704" x2="13.3399" y2="60.3935" gradientUnits="userSpaceOnUse">
<stop stop-color="#EF6F2E"/>
<stop offset="1" stop-color="#FFC839"/>
</linearGradient>
<linearGradient id="paint1_linear" x1="0.158241" y1="18.334" x2="37.9988" y2="52.3043" gradientUnits="userSpaceOnUse">
<stop stop-color="#EF6F2E"/>
<stop offset="1" stop-color="#FFC839"/>
</linearGradient>
<linearGradient id="paint2_linear" x1="6.56259" y1="51.7471" x2="8.59043" y2="54.6145" gradientUnits="userSpaceOnUse">
<stop stop-color="#EF6F2E"/>
<stop offset="1" stop-color="#FFC839"/>
</linearGradient>
<linearGradient id="paint3_linear" x1="33.742" y1="18.3345" x2="71.5824" y2="52.3051" gradientUnits="userSpaceOnUse">
<stop stop-color="#EF6F2E"/>
<stop offset="1" stop-color="#FFC839"/>
</linearGradient>
<linearGradient id="paint4_linear" x1="11.1729" y1="6.32813" x2="35.2316" y2="48.6846" gradientUnits="userSpaceOnUse">
<stop stop-color="#EF6F2E"/>
<stop offset="1" stop-color="#FFC839"/>
</linearGradient>
<linearGradient id="paint5_linear" x1="28.842" y1="34.6489" x2="30.8596" y2="37.5059" gradientUnits="userSpaceOnUse">
<stop stop-color="#EF6F2E"/>
<stop offset="1" stop-color="#FFC839"/>
</linearGradient>
<linearGradient id="paint6_linear" x1="28.8416" y1="1.1262e-07" x2="32.5027" y2="2.96543" gradientUnits="userSpaceOnUse">
<stop stop-color="#EF6F2E"/>
<stop offset="1" stop-color="#FFC839"/>
</linearGradient>
<linearGradient id="paint7_linear" x1="22.4744" y1="2.25146" x2="25.549" y2="6.60639" gradientUnits="userSpaceOnUse">
<stop stop-color="#EF6F2E"/>
<stop offset="1" stop-color="#FFC839"/>
</linearGradient>
<linearGradient id="paint8_linear" x1="33.9755" y1="2.28174" x2="37.0447" y2="6.62609" gradientUnits="userSpaceOnUse">
<stop stop-color="#EF6F2E"/>
<stop offset="1" stop-color="#FFC839"/>
</linearGradient>
<clipPath id="clip0">
<rect width="60" height="60" fill="white"/>
</clipPath>
</defs>
</svg>
