<svg width="60" height="60" viewBox="0 0 60 60" fill="none" xmlns="http://www.w3.org/2000/svg">
<path d="M55.1434 31.453C54.9627 30.5115 54.1392 29.8306 53.1804 29.83H51.2494L51.1074 28.979C50.9657 28.1243 50.2923 27.4565 49.4364 27.322C49.2464 27.292 49.0544 27.272 48.8654 27.246C49.1929 25.7172 48.9208 24.1211 48.1054 22.787C48.5362 21.6695 48.4558 20.4193 47.8854 19.3662C47.3149 18.3131 46.3118 17.5627 45.1404 17.313C44.3915 13.305 40.9047 10.3916 36.8274 10.367C36.7274 10.367 36.6384 10.38 36.5434 10.383C35.8919 9.35989 34.8178 8.68085 33.6141 8.53113C32.4104 8.38142 31.2027 8.77666 30.3204 9.60905C29.2089 8.88656 27.912 8.50138 26.5864 8.50005C24.4504 8.50879 22.4374 9.50019 21.1284 11.188C19.6749 10.7642 18.1076 11.0244 16.8691 11.8953C15.6306 12.7661 14.8553 14.1529 14.7624 15.664C13.2357 16.3058 12.2423 17.8 12.2414 19.456C12.2445 19.7431 12.278 20.029 12.3414 20.309C10.9913 22.3444 10.6385 24.8827 11.3824 27.209C11.1144 27.246 10.8404 27.279 10.5824 27.317C9.72203 27.4469 9.04259 28.115 8.89838 28.973L8.75638 29.827H6.82038C5.86323 29.8277 5.04072 30.5064 4.85838 31.446L0.479379 53.928C0.308364 54.8085 0.540269 55.7193 1.11153 56.4108C1.68278 57.1022 2.53346 57.5019 3.43038 57.5H24.2844C25.1124 58.866 27.6284 59.5 30.0004 59.5C32.3474 59.5 34.8394 58.881 35.6914 57.5H56.5704C57.4671 57.5018 58.3176 57.1023 58.8888 56.4111C59.46 55.7199 59.6921 54.8094 59.5214 53.929L55.1434 31.453ZM15.2654 21.266C14.4534 20.7779 14.0659 19.8087 14.3175 18.8953C14.569 17.9819 15.398 17.3478 16.3454 17.344C17.0084 17.3421 17.6324 17.6572 18.0244 18.192C18.2373 18.4789 18.5871 18.6304 18.942 18.5895C19.2969 18.5485 19.6031 18.3213 19.745 17.9935C19.887 17.6656 19.8433 17.2869 19.6304 17C18.9514 16.0925 17.9223 15.5119 16.7944 15.4C17.0925 13.9996 18.3275 12.997 19.7594 12.993C19.8814 12.9992 20.0029 13.0126 20.1234 13.033C20.0429 13.2381 19.9728 13.447 19.9134 13.659C19.7889 14.1884 20.1103 14.7202 20.6368 14.8562C21.1633 14.9921 21.702 14.6825 21.8494 14.159C21.9631 13.7195 22.1378 13.2981 22.3684 12.907C23.2554 11.421 24.8557 10.5078 26.5864 10.5C27.5283 10.5042 28.4486 10.7822 29.2354 11.3C29.0855 11.7212 29.0061 12.1641 29.0004 12.611C29.0004 13.1633 29.4481 13.611 30.0004 13.611C30.5527 13.611 31.0004 13.1633 31.0004 12.611C31.0004 11.4493 31.9422 10.5075 33.1039 10.5075C34.2656 10.5075 35.2074 11.4493 35.2074 12.611C35.2074 13.1633 35.6551 13.611 36.2074 13.611C36.7597 13.611 37.2074 13.1633 37.2074 12.611C37.2074 12.534 37.1884 12.461 37.1844 12.384C40.0477 12.5607 42.4555 14.5961 43.1064 17.39C42.6399 17.5259 42.2016 17.7443 41.8124 18.035C41.5266 18.2494 41.3768 18.6 41.4196 18.9547C41.4623 19.3094 41.691 19.6143 42.0196 19.7547C42.3481 19.895 42.7266 19.8494 43.0124 19.635C43.8115 19.0434 44.9154 19.0906 45.6611 19.7483C46.4068 20.4059 46.5915 21.4953 46.1044 22.362C45.8867 22.7448 45.5559 23.0508 45.1574 23.238C44.7395 23.4404 44.5158 23.9038 44.6174 24.3569C44.719 24.81 45.1191 25.1335 45.5834 25.138C45.73 25.1383 45.8749 25.1058 46.0074 25.043C46.2724 24.9146 46.5229 24.758 46.7544 24.576C47.2713 26.0456 46.9471 27.6801 45.9084 28.841L45.8844 28.866C44.5816 30.2773 42.5034 30.6587 40.7844 29.802C40.616 29.7131 40.4543 29.6122 40.3004 29.5C41.037 28.4674 41.1387 27.111 40.5644 25.98C40.4036 25.6608 40.0848 25.4516 39.7279 25.4313C39.3711 25.4109 39.0305 25.5824 38.8344 25.8813C38.6384 26.1801 38.6166 26.5608 38.7774 26.88C39.1062 27.541 38.9011 28.3431 38.2954 28.765C37.9397 29.0019 37.5002 29.0768 37.0862 28.9712C36.6721 28.8655 36.3222 28.5893 36.1234 28.211C35.9635 27.8915 35.6453 27.6815 35.2886 27.6601C34.9319 27.6388 34.5909 27.8094 34.3941 28.1076C34.1973 28.4059 34.1745 28.7865 34.3344 29.106C34.9209 30.2899 36.1292 31.0376 37.4504 31.034C37.8805 31.0311 38.3062 30.9473 38.7054 30.787C39.0626 31.0997 39.4561 31.3683 39.8774 31.587C41.3026 32.3258 42.9599 32.479 44.4964 32.014C43.5082 33.3634 42.0292 34.2703 40.3784 34.539C39.8648 34.6227 39.5012 35.0861 39.5422 35.6048C39.5832 36.1235 40.0151 36.5241 40.5354 36.526C40.5886 36.526 40.6418 36.522 40.6944 36.514C41.3033 36.4086 41.8984 36.2349 42.4684 35.996C42.7764 36.5407 43.0265 37.1162 43.2144 37.713C43.2488 37.8173 43.2664 37.9263 43.2664 38.036C43.2661 38.4683 43.008 38.8586 42.6104 39.028C42.1504 39.206 41.6282 39.0656 41.3194 38.681C40.5449 37.7716 39.5308 37.0977 38.3924 36.736C36.2314 36.012 35.3974 35.365 35.0434 34.661C35.5622 34.5963 36.075 34.4893 36.5764 34.341C36.9179 34.236 37.1775 33.9567 37.2573 33.6084C37.3371 33.2601 37.225 32.8957 36.9633 32.6524C36.7016 32.4092 36.3299 32.324 35.9884 32.429C35.4273 32.6012 34.8481 32.7076 34.2624 32.746C33.134 32.8342 32.0005 32.6632 30.9484 32.246C30.5534 32.092 30.1041 32.2038 29.8274 32.525C28.3714 34.1975 25.8795 34.4818 24.0843 33.1802C22.2891 31.8786 21.7845 29.4218 22.9214 27.518C23.1056 27.2106 23.1117 26.8283 22.9376 26.5151C22.7634 26.2019 22.4354 26.0054 22.0771 25.9996C21.7187 25.9938 21.3846 26.1796 21.2004 26.487C20.9618 26.8931 20.7699 27.3249 20.6284 27.774C19.8409 27.7326 19.22 27.0885 19.2074 26.3V26.275C19.2069 26.0112 19.1009 25.7585 18.9131 25.5731C18.7253 25.3877 18.4712 25.2851 18.2074 25.288C17.6527 25.2935 17.2063 25.7453 17.2074 26.3C17.2118 28.0735 18.5492 29.5599 20.3124 29.751C20.316 30.0863 20.3464 30.4207 20.4034 30.751C18.1706 31.2342 15.8548 30.4316 14.3998 28.6704C12.9448 26.9092 12.5936 24.4836 13.4894 22.382C13.7131 22.6084 13.9628 22.8074 14.2334 22.975C14.7058 23.2518 15.3129 23.0972 15.5954 22.6282C15.8779 22.1593 15.7308 21.5503 15.2654 21.262V21.266ZM10.8654 29.299C11.3264 29.231 11.8024 29.171 12.2754 29.109C14.1243 32.0637 17.6605 33.4983 21.0454 32.667C21.9549 34.3932 23.6168 35.597 25.5405 35.923C27.4641 36.2491 29.4299 35.6601 30.8574 34.33C31.537 34.5327 32.2369 34.6595 32.9444 34.708C33.4274 36.54 34.8234 37.65 37.7564 38.633C38.5471 38.8809 39.2524 39.3455 39.7924 39.974C40.3927 40.6879 41.2757 41.1027 42.2084 41.109C42.6163 41.1089 43.02 41.0266 43.3954 40.867C44.5289 40.3826 45.2643 39.2688 45.2644 38.036C45.2653 37.7146 45.214 37.3951 45.1124 37.09C44.8875 36.3835 44.5913 35.7016 44.2284 35.055C45.9289 33.8326 47.1134 32.021 47.5514 29.973C47.7644 29.72 47.957 29.4505 48.1274 29.167C48.4624 29.21 48.7974 29.248 49.1344 29.304L52.7444 51.018C45.6879 48.6617 38.0569 48.6617 31.0004 51.018V38.5C31.0004 37.9478 30.5527 37.5 30.0004 37.5C29.4481 37.5 29.0004 37.9478 29.0004 38.5V51.022C21.9447 48.6636 14.3138 48.6608 7.25638 51.014L10.8654 29.299ZM2.65138 55.132C2.46242 54.9038 2.3854 54.603 2.44138 54.312L6.82038 31.83H8.42038L5.28238 50.689C5.17201 51.3755 5.42476 52.0702 5.95045 52.5252C6.47613 52.9802 7.19986 53.1307 7.86338 52.923C13.1944 51.1959 18.8738 50.8355 24.3804 51.875L24.0824 55.5H3.43038C3.1287 55.5003 2.84281 55.3652 2.65138 55.132ZM30.0004 57.5C27.5914 57.5 26.2094 56.788 26.0064 56.471L26.3504 52.321C27.45 52.5948 28.526 52.9556 29.5684 53.4C29.7032 53.465 29.8508 53.4992 30.0004 53.5C30.1504 53.4998 30.2985 53.4656 30.4334 53.4C31.4751 52.953 32.5509 52.5899 33.6504 52.314L33.9944 56.47C33.7914 56.788 32.4094 57.5 30.0004 57.5ZM57.3494 55.132C57.158 55.3652 56.8721 55.5003 56.5704 55.5H35.9214L35.6214 51.868C41.131 50.8307 46.8129 51.1941 52.1454 52.925C52.8088 53.13 53.5309 52.9773 54.0546 52.5214C54.5783 52.0656 54.829 51.3713 54.7174 50.686L51.5824 31.831H53.1824L57.5624 54.311C57.6179 54.6028 57.5397 54.9041 57.3494 55.132Z" fill="url(#paint0_linear)"/>
<path d="M26.6863 23.1852C26.2769 23.5556 26.2451 24.1876 26.6153 24.5972C27.4636 25.5338 28.5847 26.1803 29.8203 26.4452C29.2607 27.2338 28.3532 27.7017 27.3863 27.7002C26.834 27.7002 26.3863 28.1479 26.3863 28.7002C26.3863 29.2525 26.834 29.7002 27.3863 29.7002C29.4564 29.7085 31.3139 28.4299 32.0453 26.4932C34.5318 26.0811 36.5004 24.1672 36.9823 21.6932C37.0567 21.3394 36.9343 20.9729 36.6622 20.7347C36.3901 20.4966 36.0106 20.424 35.6697 20.5447C35.3289 20.6655 35.0798 20.9609 35.0183 21.3172C34.8222 22.3486 34.2271 23.261 33.3623 23.8562C31.6985 24.9768 29.4672 24.7224 28.0983 23.2562C27.7279 22.8469 27.0958 22.8151 26.6863 23.1852Z" fill="url(#paint1_linear)"/>
<path d="M23.2004 22.1C23.7527 22.1 24.2004 21.6523 24.2004 21.1C24.2004 20.4104 24.4744 19.7491 24.962 19.2615C25.4496 18.7739 26.1109 18.5 26.8004 18.5C27.3527 18.5 27.8004 18.0523 27.8004 17.5C27.8004 16.9477 27.3527 16.5 26.8004 16.5C24.2611 16.5028 22.2032 18.5606 22.2004 21.1C22.2004 21.3652 22.3058 21.6196 22.4933 21.8071C22.6809 21.9946 22.9352 22.1 23.2004 22.1Z" fill="url(#paint2_linear)"/>
<path d="M31.0002 2.5V1.5C31.0002 0.947715 30.5525 0.5 30.0002 0.5C29.448 0.5 29.0002 0.947715 29.0002 1.5V2.5C29.0002 3.05229 29.448 3.5 30.0002 3.5C30.5525 3.5 31.0002 3.05229 31.0002 2.5Z" fill="url(#paint3_linear)"/>
<path d="M46.411 7.67592L45.411 8.67592C45.1511 8.92699 45.0468 9.2988 45.1383 9.64843C45.2298 9.99806 45.5029 10.2711 45.8525 10.3626C46.2022 10.4541 46.574 10.3499 46.825 10.0899L47.825 9.08992C48.085 8.83884 48.1893 8.46704 48.0977 8.11741C48.0062 7.76778 47.7332 7.49474 47.3835 7.40322C47.0339 7.31171 46.6621 7.41596 46.411 7.67592Z" fill="url(#paint4_linear)"/>
<path d="M13.8837 10.3829C14.288 10.3828 14.6526 10.1392 14.8073 9.76557C14.9621 9.39196 14.8766 8.96191 14.5907 8.67592L13.5907 7.67592C13.3396 7.41596 12.9678 7.31171 12.6181 7.40322C12.2685 7.49474 11.9955 7.76778 11.904 8.11741C11.8124 8.46704 11.9167 8.83885 12.1767 9.08992L13.1767 10.0899C13.3641 10.2775 13.6185 10.3829 13.8837 10.3829Z" fill="url(#paint5_linear)"/>
<path d="M21.5815 6.1751C21.7129 6.17482 21.843 6.14901 21.9645 6.0991C22.2096 5.99758 22.4043 5.80281 22.5058 5.55769C22.6073 5.31256 22.6072 5.03716 22.5055 4.7921L21.3565 2.0201C21.2249 1.68248 20.9209 1.44248 20.562 1.39277C20.203 1.34307 19.8453 1.49144 19.6269 1.78059C19.4085 2.06974 19.3636 2.45443 19.5095 2.7861L20.6575 5.5581C20.8124 5.93169 21.1771 6.17521 21.5815 6.1751Z" fill="url(#paint6_linear)"/>
<path d="M39.9504 1.47904C39.4403 1.26805 38.8558 1.51019 38.6444 2.02004L37.4954 4.79204C37.3934 5.03721 37.3931 5.31287 37.4946 5.55823C37.5961 5.80359 37.791 5.99852 38.0364 6.10004C38.1579 6.14995 38.288 6.17576 38.4194 6.17604C38.8238 6.17615 39.1885 5.93264 39.3434 5.55904L40.4914 2.78704C40.5933 2.54187 40.5936 2.26622 40.4921 2.02086C40.3906 1.77549 40.1957 1.58056 39.9504 1.47904Z" fill="url(#paint7_linear)"/>
<path d="M50.3254 18.0822C50.4569 18.0819 50.587 18.0558 50.7084 18.0052L53.4794 16.8572C53.8095 16.7205 54.0417 16.4181 54.0884 16.0639C54.1351 15.7097 53.9893 15.3575 53.7059 15.1399C53.4225 14.9223 53.0445 14.8725 52.7144 15.0092L49.9424 16.1572C49.5001 16.3389 49.2483 16.8083 49.3416 17.2773C49.4349 17.7463 49.8472 18.0836 50.3254 18.0822Z" fill="url(#paint8_linear)"/>
<path d="M9.29261 18.0049C9.80292 18.2164 10.3881 17.9742 10.5996 17.4639C10.8111 16.9536 10.5689 16.3684 10.0586 16.1569L7.28661 15.0089C6.7763 14.7977 6.19136 15.0401 5.98011 15.5504C5.76886 16.0607 6.0113 16.6457 6.52161 16.8569L9.29261 18.0049Z" fill="url(#paint9_linear)"/>
<defs>
<linearGradient id="paint0_linear" x1="0.779746" y1="8.5" x2="42.1689" y2="76.473" gradientUnits="userSpaceOnUse">
<stop stop-color="#EF6F2E"/>
<stop offset="1" stop-color="#FFC839"/>
</linearGradient>
<linearGradient id="paint1_linear" x1="26.4212" y1="20.4873" x2="33.9105" y2="32.742" gradientUnits="userSpaceOnUse">
<stop stop-color="#EF6F2E"/>
<stop offset="1" stop-color="#FFC839"/>
</linearGradient>
<linearGradient id="paint2_linear" x1="22.2341" y1="16.5" x2="27.055" y2="23.3263" gradientUnits="userSpaceOnUse">
<stop stop-color="#EF6F2E"/>
<stop offset="1" stop-color="#FFC839"/>
</linearGradient>
<linearGradient id="paint3_linear" x1="29.0123" y1="0.5" x2="31.7482" y2="3.0826" gradientUnits="userSpaceOnUse">
<stop stop-color="#EF6F2E"/>
<stop offset="1" stop-color="#FFC839"/>
</linearGradient>
<linearGradient id="paint4_linear" x1="45.1239" y1="7.37061" x2="47.7277" y2="11.0576" gradientUnits="userSpaceOnUse">
<stop stop-color="#EF6F2E"/>
<stop offset="1" stop-color="#FFC839"/>
</linearGradient>
<linearGradient id="paint5_linear" x1="11.8894" y1="7.37061" x2="14.4827" y2="11.0424" gradientUnits="userSpaceOnUse">
<stop stop-color="#EF6F2E"/>
<stop offset="1" stop-color="#FFC839"/>
</linearGradient>
<linearGradient id="paint6_linear" x1="19.4438" y1="1.3833" x2="23.8105" y2="5.45693" gradientUnits="userSpaceOnUse">
<stop stop-color="#EF6F2E"/>
<stop offset="1" stop-color="#FFC839"/>
</linearGradient>
<linearGradient id="paint7_linear" x1="37.4376" y1="1.40283" x2="41.7878" y2="5.46693" gradientUnits="userSpaceOnUse">
<stop stop-color="#EF6F2E"/>
<stop offset="1" stop-color="#FFC839"/>
</linearGradient>
<linearGradient id="paint8_linear" x1="49.351" y1="14.9331" x2="51.553" y2="19.6607" gradientUnits="userSpaceOnUse">
<stop stop-color="#EF6F2E"/>
<stop offset="1" stop-color="#FFC839"/>
</linearGradient>
<linearGradient id="paint9_linear" x1="5.93248" y1="14.9326" x2="8.1349" y2="19.6591" gradientUnits="userSpaceOnUse">
<stop stop-color="#EF6F2E"/>
<stop offset="1" stop-color="#FFC839"/>
</linearGradient>
</defs>
</svg>
