<svg width="60" height="60" viewBox="0 0 60 60" fill="none" xmlns="http://www.w3.org/2000/svg">
<g clip-path="url(#clip0)">
<path d="M1.47216 37.3909C1.80102 37.6197 2.14858 37.8204 2.51116 37.9909C2.94316 38.2119 3.66716 38.5819 3.71816 38.8409C3.78107 39.1828 3.73997 39.5356 3.60016 39.8539C3.45116 40.1739 3.29516 40.4489 3.16016 40.6859C2.79416 41.3329 2.18116 42.4169 3.10516 43.1719C3.32116 43.3719 3.69416 43.6609 4.03416 43.9219C3.78386 44.3595 3.67065 44.8622 3.70916 45.3649C3.76202 45.7606 3.97678 46.1166 4.30216 46.3479C4.52416 46.5049 4.76116 46.6409 4.99516 46.7739C5.58616 47.1109 5.81716 47.2679 5.89516 47.5809C5.95072 47.9834 5.91657 48.3932 5.79516 48.7809C5.73616 49.0479 5.67916 49.3159 5.64516 49.5809C5.54586 50.4922 5.65845 51.4142 5.97416 52.2749C6.42386 53.8634 7.86049 54.9702 9.51116 54.9999C9.78675 54.9991 10.0615 54.9699 10.3312 54.9129C13.1879 54.2357 16.003 53.3933 18.7622 52.3899C21.0152 53.7119 22.4382 57.7319 22.8092 59.2409C22.9199 59.687 23.3205 60.0001 23.7802 59.9999L48.8802 59.9299C49.1982 59.9293 49.4971 59.7774 49.685 59.5207C49.873 59.2641 49.9276 58.9333 49.8322 58.6299C49.5849 57.9523 49.2439 57.3128 48.8192 56.7299C48.5794 56.3842 48.3632 56.0227 48.1722 55.6479C47.7195 54.732 47.342 53.7809 47.0432 52.8039C46.4798 50.8924 46.087 48.9347 45.8692 46.9539C45.8364 46.5904 45.6081 46.2736 45.2737 46.1274C44.9392 45.9812 44.5517 46.0289 44.2626 46.2517C43.9736 46.4746 43.8289 46.8373 43.8852 47.1979C44.1164 49.2974 44.5337 51.3722 45.1322 53.3979C45.4612 54.4728 45.8762 55.5195 46.3732 56.5279C46.6013 56.9808 46.8602 57.4175 47.1482 57.8349L47.2152 57.9349L24.5362 57.9999C23.8723 55.6277 22.6674 53.4418 21.0162 51.6139L21.9162 51.2989C22.5862 51.0649 23.0912 50.8889 23.3502 50.8059C27.6342 49.4509 29.7762 47.4999 29.7182 45.0059C29.719 44.7394 29.6106 44.4842 29.4182 44.2998C29.2259 44.1154 28.9664 44.0179 28.7002 44.0299C28.1482 44.043 27.7113 44.5009 27.7242 45.0529C27.7482 46.0819 26.9052 47.5829 22.7482 48.8979C22.4772 48.9849 21.9552 49.1669 21.2622 49.4089C20.5192 49.6689 19.5742 49.9989 18.5322 50.3529H18.5252C15.711 51.3845 12.8395 52.2526 9.92516 52.9529C8.99264 53.1326 8.08447 52.5444 7.86716 51.6199C7.65352 51.051 7.57313 50.4407 7.63216 49.8359C7.65816 49.6259 7.70616 49.4179 7.75216 49.2089C7.95592 48.5172 7.98581 47.7859 7.83916 47.0799C7.54732 46.1626 6.87208 45.417 5.98816 45.0359L5.78016 44.9169C5.88814 44.6989 6.01708 44.4919 6.16516 44.2989C6.33292 44.0863 6.4073 43.8148 6.3713 43.5464C6.3353 43.278 6.192 43.0357 5.97416 42.8749C5.73416 42.6989 5.16816 42.2749 4.75416 41.9409C4.80216 41.8539 4.85416 41.7579 4.90416 41.6709C5.06116 41.3959 5.24016 41.0759 5.41516 40.7059C5.7316 40.0049 5.82482 39.2236 5.68216 38.4679C5.44216 37.2479 4.27416 36.6499 3.42116 36.2139C3.13432 36.0781 2.85936 35.9186 2.59916 35.7369C2.38473 35.5928 2.1839 35.4295 1.99916 35.2489C1.99916 35.0979 2.16116 34.7319 2.92316 33.8029C4.714 31.4983 6.2487 29.0056 7.50016 26.3689C7.73627 25.9556 7.86904 25.4915 7.88716 25.0159C7.78387 24.0107 7.2512 23.0993 6.42616 22.5159C6.02116 22.1449 5.64016 21.7949 5.59616 21.4719C5.60284 21.2349 5.65584 21.0015 5.75216 20.7849C5.91516 20.3559 6.10316 19.9359 6.29216 19.5149C6.70221 18.6694 7.02973 17.7863 7.27016 16.8779L7.37016 16.4519C7.58223 15.4521 7.8554 14.4662 8.18816 13.4999C8.97645 11.3241 10.197 9.33045 11.7762 7.63888C13.6892 5.61488 16.7002 4.18288 20.7402 3.37988C23.8304 2.70148 26.9661 2.24962 30.1222 2.02788C31.6962 1.94266 33.2748 2.03221 34.8292 2.29488C35.3664 2.37541 35.8697 2.01225 35.9626 1.47698C36.0556 0.9417 35.7041 0.430152 35.1712 0.324882C33.4697 0.0357315 31.7414 -0.0628773 30.0182 0.0308817C26.7642 0.25657 23.5312 0.72048 20.3452 1.41888C15.8362 2.31888 12.5592 3.89988 10.3222 6.26388C8.55757 8.15205 7.1932 10.3777 6.31116 12.8069C5.95103 13.8522 5.65514 14.9185 5.42516 15.9999L5.32516 16.4219C5.11173 17.2062 4.82548 17.9688 4.47016 18.6999C4.27016 19.1559 4.06216 19.6119 3.88316 20.0839C3.65293 20.6096 3.56167 21.1857 3.61816 21.7569C3.81995 22.6523 4.33755 23.445 5.07616 23.9899C5.56516 24.4389 5.88616 24.7549 5.89016 25.0299C5.85396 25.1822 5.79639 25.3287 5.71916 25.4649C4.52116 27.9888 3.05254 30.3751 1.33916 32.5819C0.616158 33.4629 -0.140841 34.4899 0.0201585 35.5169C0.231967 36.3116 0.755486 36.9873 1.47216 37.3909Z" fill="url(#paint0_linear)"/>
<path d="M11.1673 17.793L11.2673 17.348C11.4426 16.5166 11.6653 15.696 11.9343 14.89C12.5366 13.2205 13.4699 11.6899 14.6783 10.39C15.9744 9.16802 17.5607 8.29688 19.2873 7.85902C19.636 7.76078 19.9042 7.48172 19.9886 7.12949C20.073 6.77727 19.9603 6.40695 19.6941 6.1614C19.4278 5.91585 19.0496 5.83346 18.7053 5.94602C16.6447 6.48152 14.757 7.53922 13.2243 9.01702C11.8317 10.5141 10.7559 12.277 10.0613 14.2C9.7613 15.0877 9.51387 15.9922 9.32034 16.909L9.22034 17.342C9.09554 17.8796 9.42986 18.4167 9.96734 18.542C10.0417 18.5595 10.1179 18.5682 10.1943 18.568C10.6594 18.5674 11.0627 18.2462 11.1673 17.793Z" fill="url(#paint1_linear)"/>
<path d="M9 22C9.55228 22 10 21.5523 10 21C10 20.4477 9.55228 20 9 20C8.44772 20 8 20.4477 8 21C8 21.5523 8.44772 22 9 22Z" fill="url(#paint2_linear)"/>
<path d="M27.0001 20.21C26.9316 23.6192 28.1363 26.9315 30.3791 29.5C31.085 30.2335 31.8547 30.9028 32.6791 31.5C34.1421 32.631 35.5281 33.712 35.8961 35.216C34.7536 35.6682 34.0023 36.7713 34.0001 38V40C34.0053 41.2668 34.8057 42.3938 36.0001 42.816V43C36.0001 45.2092 37.7909 47 40.0001 47C42.2092 47 44.0001 45.2092 44.0001 43V42.816C45.1944 42.3938 45.9948 41.2668 46.0001 40V38C45.9972 36.7703 45.2441 35.6669 44.1001 35.216C44.4671 33.716 45.8541 32.631 47.3171 31.5C48.1412 30.9025 48.9109 30.2332 49.6171 29.5C51.8607 26.9317 53.0668 23.6196 53.0001 20.21C52.9722 13.0074 47.2013 7.1433 40.0001 7C32.7988 7.1433 27.028 13.0074 27.0001 20.21ZM37.0001 22H36.0001C35.4478 22 35.0001 21.5523 35.0001 21C35.0001 20.4477 35.4478 20 36.0001 20C36.5524 20 37.0001 20.4477 37.0001 21V22ZM41.0001 35H39.0001V24H41.0001V35ZM40.0001 45C38.8955 45 38.0001 44.1046 38.0001 43H42.0001C42.0001 44.1046 41.1046 45 40.0001 45ZM44.0001 40C44.0001 40.5523 43.5524 41 43.0001 41H37.0001C36.4478 41 36.0001 40.5523 36.0001 40V38C36.0001 37.4477 36.4478 37 37.0001 37H43.0001C43.5524 37 44.0001 37.4477 44.0001 38V40ZM51.0001 20.241C51.0623 23.1446 50.0417 25.9675 48.1371 28.16C47.5098 28.8031 46.8283 29.391 46.1001 29.917C44.921 30.7384 43.8754 31.7364 43.0001 32.876V24H44.0001C45.6569 24 47.0001 22.6569 47.0001 21C47.0001 19.3432 45.6569 18 44.0001 18C42.3432 18 41.0001 19.3432 41.0001 21V22H39.0001V21C39.0001 19.3432 37.6569 18 36.0001 18C34.3432 18 33.0001 19.3432 33.0001 21C33.0001 22.6569 34.3432 24 36.0001 24H37.0001V32.876C36.1264 31.737 35.0825 30.7393 33.9051 29.918C33.1765 29.3916 32.4947 28.8034 31.8671 28.16C29.9605 25.9684 28.9384 23.1452 29.0001 20.241C29.1001 14.147 34.1321 9 40.0001 9C45.8681 9 50.9051 14.147 51.0001 20.241ZM43.0001 22V21C43.0001 20.4477 43.4478 20 44.0001 20C44.5524 20 45.0001 20.4477 45.0001 21C45.0001 21.5523 44.5524 22 44.0001 22H43.0001Z" fill="url(#paint3_linear)"/>
<path d="M55.9996 21H58.9996C59.5519 21 59.9996 20.5523 59.9996 20C59.9996 19.4477 59.5519 19 58.9996 19H55.9996C55.4473 19 54.9996 19.4477 54.9996 20C54.9996 20.5523 55.4473 21 55.9996 21Z" fill="url(#paint4_linear)"/>
<path d="M51.3137 9.68656C51.5792 9.68677 51.8339 9.58135 52.0217 9.39356L54.1427 7.27156C54.4026 7.02048 54.5069 6.64868 54.4154 6.29905C54.3238 5.94942 54.0508 5.67638 53.7012 5.58486C53.3515 5.49335 52.9797 5.5976 52.7287 5.85756L50.6067 7.97856C50.3201 8.26446 50.2341 8.69496 50.3889 9.06902C50.5438 9.44308 50.9088 9.68688 51.3137 9.68656Z" fill="url(#paint5_linear)"/>
<path d="M40.0001 5C40.5524 5 41.0001 4.55228 41.0001 4V1C41.0001 0.447715 40.5524 0 40.0001 0C39.4478 0 39.0001 0.447715 39.0001 1V4C39.0001 4.55228 39.4478 5 40.0001 5Z" fill="url(#paint6_linear)"/>
<path d="M29.3937 9.39356C29.5815 9.20599 29.687 8.95147 29.687 8.68606C29.687 8.42065 29.5815 8.16613 29.3937 7.97856L27.2717 5.85756C27.0206 5.5976 26.6488 5.49335 26.2992 5.58486C25.9495 5.67638 25.6765 5.94942 25.585 6.29905C25.4935 6.64868 25.5977 7.02049 25.8577 7.27156L27.9787 9.39356C28.1662 9.58134 28.4208 9.68685 28.6862 9.68685C28.9516 9.68685 29.2061 9.58134 29.3937 9.39356Z" fill="url(#paint7_linear)"/>
<path d="M20.9996 19C20.4473 19 19.9996 19.4477 19.9996 20C19.9996 20.5523 20.4473 21 20.9996 21H23.9996C24.5519 21 24.9996 20.5523 24.9996 20C24.9996 19.4477 24.5519 19 23.9996 19H20.9996Z" fill="url(#paint8_linear)"/>
</g>
<defs>
<linearGradient id="paint0_linear" x1="0.298008" y1="-0.00341632" x2="54.3894" y2="63.6659" gradientUnits="userSpaceOnUse">
<stop stop-color="#EF6F2E"/>
<stop offset="1" stop-color="#FFC839"/>
</linearGradient>
<linearGradient id="paint1_linear" x1="9.25924" y1="5.89648" x2="20.6286" y2="19.6451" gradientUnits="userSpaceOnUse">
<stop stop-color="#EF6F2E"/>
<stop offset="1" stop-color="#FFC839"/>
</linearGradient>
<linearGradient id="paint2_linear" x1="8.01202" y1="20" x2="9.73378" y2="22.438" gradientUnits="userSpaceOnUse">
<stop stop-color="#EF6F2E"/>
<stop offset="1" stop-color="#FFC839"/>
</linearGradient>
<linearGradient id="paint3_linear" x1="27.1536" y1="7" x2="63.568" y2="40.5218" gradientUnits="userSpaceOnUse">
<stop stop-color="#EF6F2E"/>
<stop offset="1" stop-color="#FFC839"/>
</linearGradient>
<linearGradient id="paint4_linear" x1="55.0297" y1="19" x2="55.9856" y2="22.3839" gradientUnits="userSpaceOnUse">
<stop stop-color="#EF6F2E"/>
<stop offset="1" stop-color="#FFC839"/>
</linearGradient>
<linearGradient id="paint5_linear" x1="50.3377" y1="5.55225" x2="53.8966" y2="10.5925" gradientUnits="userSpaceOnUse">
<stop stop-color="#EF6F2E"/>
<stop offset="1" stop-color="#FFC839"/>
</linearGradient>
<linearGradient id="paint6_linear" x1="39.0121" y1="1.37435e-07" x2="42.9294" y2="2.21866" gradientUnits="userSpaceOnUse">
<stop stop-color="#EF6F2E"/>
<stop offset="1" stop-color="#FFC839"/>
</linearGradient>
<linearGradient id="paint7_linear" x1="25.5772" y1="5.55225" x2="29.1366" y2="10.5922" gradientUnits="userSpaceOnUse">
<stop stop-color="#EF6F2E"/>
<stop offset="1" stop-color="#FFC839"/>
</linearGradient>
<linearGradient id="paint8_linear" x1="20.0297" y1="19" x2="20.9856" y2="22.3839" gradientUnits="userSpaceOnUse">
<stop stop-color="#EF6F2E"/>
<stop offset="1" stop-color="#FFC839"/>
</linearGradient>
<clipPath id="clip0">
<rect width="60" height="60" fill="white"/>
</clipPath>
</defs>
</svg>
