<svg width="16" height="16" viewBox="0 0 16 16" fill="none" xmlns="http://www.w3.org/2000/svg">
<path d="M7.99949 9.9692C9.0876 9.9692 9.96969 9.08712 9.96969 7.99901C9.96969 6.9109 9.0876 6.02881 7.99949 6.02881C6.91138 6.02881 6.0293 6.9109 6.0293 7.99901C6.0293 9.08712 6.91138 9.9692 7.99949 9.9692Z" fill="#494C52"/>
<path d="M15.9007 7.7497C15.7565 7.59703 12.3239 3.99854 7.99893 3.99854C3.67447 3.99854 0.24236 7.59703 0.0984432 7.7497C-0.0328144 7.88991 -0.0328144 8.10854 0.0984432 8.24808C0.242931 8.40075 3.67514 12.0009 7.99893 12.0009C12.3239 12.0009 15.7575 8.40075 15.9007 8.24808C16.033 8.10854 16.033 7.88876 15.9007 7.7497ZM7.99988 11.045C6.32095 11.045 4.95507 9.67887 4.95507 7.99861C4.95507 6.31967 6.32095 4.95275 7.99988 4.95275C9.67872 4.95275 11.0465 6.3192 11.0465 7.99861C11.0461 9.67792 9.67872 11.045 7.99988 11.045ZM5.58547 5.12331C4.76261 5.81577 4.2273 6.8408 4.2273 7.99861C4.2273 9.15594 4.76261 10.1811 5.58547 10.8748C3.30869 10.1425 1.52077 8.60178 0.881705 7.99861C1.52086 7.3961 3.30916 5.85518 5.58547 5.12331ZM10.4154 10.8736C11.2377 10.1807 11.7737 9.15537 11.7737 7.99861C11.7737 6.84185 11.2382 5.81729 10.4148 5.12436C12.6915 5.8566 14.478 7.39543 15.1175 7.99861C14.478 8.60121 12.6914 10.1403 10.4154 10.8736Z" fill="#494C52"/>
</svg>
