<svg width="20" height="15" viewBox="0 0 20 15" fill="none" xmlns="http://www.w3.org/2000/svg">
<path d="M19.5879 2.19115C19.3574 1.33438 18.6819 0.659025 17.8252 0.428313C16.2602 0 9.99981 0 9.99981 0C9.99981 0 3.73961 0 2.17452 0.411986C1.33438 0.642545 0.642392 1.33453 0.411833 2.19115C0 3.75609 0 7.00162 0 7.00162C0 7.00162 0 10.2635 0.411833 11.8121C0.642545 12.6687 1.3179 13.3442 2.17467 13.5749C3.75609 14.0032 9.99996 14.0032 9.99996 14.0032C9.99996 14.0032 16.2602 14.0032 17.8252 13.5913C18.682 13.3607 19.3574 12.6852 19.5881 11.8286C19.9999 10.2635 19.9999 7.0181 19.9999 7.0181C19.9999 7.0181 20.0164 3.75609 19.5879 2.19115Z" fill="#85878E"/>
<path d="M8.00586 9.99988L13.2117 7.00152L8.00586 4.00317V9.99988Z" fill="white"/>
</svg>
