<svg width="131" height="19" viewBox="0 0 131 19" fill="none" xmlns="http://www.w3.org/2000/svg">
<path fill-rule="evenodd" clip-rule="evenodd" d="M5.88183 0H0L6.75842 9.48372L0 19H5.88183L12.6426 9.48372L5.88183 0Z" fill="#F28C00"/>
<path d="M13.3553 4.44519H16.179L18.3502 7.983L20.5973 4.44519H23.262L19.7155 9.73091L23.5719 15.5206H20.6728L18.2572 11.6883L15.7912 15.5206H13.0604L16.9244 9.71628L13.3553 4.44519Z" fill="white"/>
<path d="M26.7387 6.27479L26.3056 8.74328L26.3381 8.77348C26.6405 8.47383 26.9604 8.25676 27.3006 8.1284C27.6407 7.99674 28.0286 7.93445 28.4621 7.93445C29.0014 7.93445 29.477 8.03261 29.8902 8.22891C30.3031 8.4257 30.6536 8.6876 30.9381 9.01745C31.2226 9.34731 31.4396 9.73521 31.5901 10.1868C31.7416 10.6356 31.817 11.1117 31.817 11.6176C31.817 12.1796 31.7062 12.6959 31.4896 13.1725C31.2735 13.6538 30.9782 14.0715 30.613 14.4221C30.2427 14.7746 29.8171 15.0417 29.3335 15.2328C28.8452 15.4249 28.331 15.5155 27.7818 15.5051C27.2529 15.5051 26.7491 15.4348 26.2683 15.2942C25.7894 15.1554 25.3639 14.9407 24.9912 14.6538C24.618 14.3617 24.3212 14.0045 24.0995 13.5755C23.8777 13.1475 23.7617 12.6482 23.7518 12.0791H25.9531C26.0036 12.5756 26.19 12.971 26.5122 13.2626C26.8297 13.5581 27.2378 13.7067 27.7342 13.7067C28.0238 13.7067 28.2857 13.6482 28.515 13.5302C28.749 13.4113 28.9457 13.2579 29.1066 13.0663C29.2651 12.8752 29.3887 12.6534 29.477 12.4014C29.5675 12.1471 29.6105 11.8871 29.6105 11.6204C29.6105 11.3434 29.5675 11.0787 29.4845 10.8324C29.4043 10.5875 29.2783 10.3713 29.1146 10.1849C28.9481 9.99806 28.7542 9.85224 28.5225 9.75173C28.2961 9.64791 28.0342 9.60025 27.7342 9.60025C27.3416 9.60025 27.0213 9.66584 26.7745 9.80694C26.5226 9.94803 26.2909 10.1651 26.0744 10.4671H24.0919L25.1619 4.46082H31.2278V6.27526L26.7387 6.27479Z" fill="white"/>
<path d="M38.8974 4.44519C39.3504 4.44519 39.7816 4.49852 40.192 4.6146C40.5973 4.72739 40.9549 4.89868 41.2602 5.13557C41.565 5.36775 41.807 5.6674 41.9881 6.03265C42.167 6.40026 42.2604 6.83393 42.2604 7.33273C42.2604 8.03538 42.0792 8.64791 41.7164 9.1618C41.3531 9.679 40.819 10.0084 40.1043 10.1547V10.1877C40.4671 10.2401 40.7667 10.334 41.0059 10.4727C41.2427 10.6134 41.439 10.7898 41.5904 11.0069C41.739 11.2287 41.8476 11.4755 41.915 11.7629C41.983 12.0451 42.0259 12.3523 42.0485 12.6822C42.0584 12.8686 42.0688 13.0955 42.0787 13.365C42.0886 13.6349 42.1085 13.9044 42.1415 14.1795C42.1688 14.4537 42.2217 14.7132 42.2901 14.9525C42.3557 15.1993 42.4463 15.3857 42.5595 15.522H41.3904C41.3276 15.4163 41.2795 15.2903 41.2418 15.1417C41.2064 14.993 41.1814 14.8364 41.1663 14.6759C41.1512 14.5169 41.1361 14.3583 41.1262 14.2021C41.1158 14.0455 41.1059 13.9147 41.0932 13.7987C41.0729 13.4084 41.0427 13.0177 40.995 12.6298C40.9469 12.2442 40.8488 11.8993 40.6978 11.594C40.5492 11.2868 40.3326 11.0451 40.0481 10.8583C39.7655 10.669 39.3754 10.5883 38.8795 10.6086H34.8891V15.5216H33.8257V4.44613L38.8974 4.44519ZM38.8168 9.70118C39.1366 9.70118 39.4438 9.65305 39.7311 9.55537C40.0208 9.45721 40.2751 9.31328 40.4916 9.12924C40.7082 8.9452 40.8799 8.71586 41.0106 8.45632C41.1366 8.19489 41.1998 7.8924 41.1998 7.5498C41.1998 6.86744 41.0054 6.33042 40.6129 5.93733C40.2222 5.54424 39.6254 5.34982 38.8168 5.34982H34.8896V9.70118H38.8168Z" fill="white"/>
<path d="M51.4995 4.44519V5.34982H44.9128V9.33782H51.0815V10.2453H44.9128V14.6136H51.5773V15.5206H43.8541V4.44519H51.4995Z" fill="white"/>
<path d="M60.9301 4.44519V5.34982H57.069V15.5206H56.0131V5.34982H52.167V4.44519H60.9301Z" fill="white"/>
<path d="M64.8343 4.44519L69.1719 15.5206H68.0434L66.6931 12.0739H61.6549L60.3225 15.5206H59.2067L63.6553 4.44519H64.8343ZM66.3383 11.1678L64.1978 5.49138L61.9832 11.1678H66.3383Z" fill="white"/>
<path d="M71.313 4.44092H70.2546V15.5211H71.313V4.44092Z" fill="white"/>
<path d="M74.6785 4.44519V14.6136H80.8797V15.5206H73.6198V4.44519H74.6785Z" fill="white"/>
<path d="M87.1307 15.9401C86.2636 15.9401 85.4879 15.7857 84.8081 15.4644C84.1381 15.1487 83.5711 14.723 83.1205 14.1775C82.6713 13.6396 82.3335 13.0034 82.1061 12.2833C81.8773 11.5637 81.765 10.7945 81.765 9.9847C81.765 9.15794 81.8886 8.38734 82.1311 7.66014C82.3788 6.93295 82.7327 6.29683 83.1917 5.76076C83.6527 5.21666 84.2179 4.78865 84.8798 4.47956C85.545 4.16952 86.3013 4.01379 87.1406 4.01379C87.7775 4.01379 88.3682 4.10534 88.9117 4.28608C89.4534 4.4687 89.9322 4.73108 90.3474 5.06754C90.7593 5.40872 91.1004 5.81503 91.3617 6.28645C91.6293 6.76071 91.8071 7.29584 91.9057 7.87721L91.9411 8.08485H91.2683L91.2419 7.93715C91.1546 7.44307 90.9938 6.99996 90.763 6.59554C90.529 6.19396 90.2412 5.85419 89.8893 5.57106C89.5387 5.28556 89.1339 5.0666 88.6711 4.91134C88.213 4.75656 87.7011 4.68106 87.1397 4.68106C86.3862 4.68106 85.7238 4.81979 85.1468 5.09633C84.5628 5.37569 84.073 5.75368 83.6725 6.22888C83.2691 6.70738 82.9606 7.26611 82.7501 7.91214C82.5392 8.55769 82.4345 9.25091 82.4345 9.98518C82.4345 10.7242 82.5369 11.4193 82.7388 12.0681C82.9365 12.7118 83.2347 13.2752 83.6329 13.7495C84.0254 14.2209 84.5222 14.5989 85.1124 14.8806C85.6998 15.1548 86.3862 15.2973 87.1803 15.2973C87.7728 15.2973 88.3206 15.1954 88.8315 14.9915C89.35 14.7872 89.802 14.5031 90.179 14.144C90.5592 13.7858 90.855 13.3564 91.0754 12.8553C91.2915 12.3546 91.4 11.8143 91.4 11.2277V10.8313H87.1086V10.1673H92.0723V15.6932H91.3995L91.4047 13.5801C91.0801 14.2039 90.622 14.7183 90.0384 15.1175C89.2288 15.6678 88.2578 15.9396 87.1378 15.9396C87.1373 15.94 87.1345 15.9401 87.1307 15.9401Z" fill="white"/>
<path d="M93.1521 15.6979H92.9747V4.27136H97.6931C98.8768 4.27278 99.7694 4.49882 100.361 5.00422C100.949 5.50537 101.239 6.28023 101.265 7.28396C101.266 7.31935 101.266 7.35427 101.266 7.38966C101.266 8.12204 101.053 8.75061 100.628 9.25318C100.305 9.63542 99.8812 9.92611 99.3661 10.1257C99.5718 10.1857 99.7562 10.2593 99.9199 10.348C100.234 10.5207 100.482 10.7519 100.653 11.0417C100.819 11.322 100.932 11.6504 100.988 12.0246C101.037 12.3875 101.062 12.7877 101.062 13.2435C101.062 13.387 101.072 13.5833 101.08 13.815C101.09 14.0453 101.107 14.2728 101.125 14.496C101.148 14.7201 101.172 14.9211 101.201 15.1052C101.228 15.2793 101.271 15.3902 101.294 15.4171L101.5 15.6993H100.697L100.65 15.5993C100.582 15.4605 100.538 15.2954 100.502 15.0887C100.472 14.8952 100.446 14.6828 100.433 14.461C100.419 14.2421 100.404 14.0231 100.4 13.7975C100.395 13.5715 100.391 13.3738 100.391 13.1935C100.391 12.7476 100.36 12.3512 100.293 12.0062C100.23 11.6764 100.107 11.4083 99.9251 11.1903C99.7421 10.9775 99.4741 10.8048 99.1212 10.684C98.7626 10.5646 98.2691 10.499 97.6417 10.499H93.6484V15.6988H93.4696L93.1521 15.6979ZM97.6133 9.83975C98.0129 9.83975 98.3894 9.78879 98.756 9.68639C99.1103 9.59201 99.425 9.43864 99.6925 9.2244C99.9633 9.01393 100.177 8.75297 100.344 8.42359C100.504 8.10789 100.587 7.72282 100.587 7.25847C100.575 6.5058 100.355 5.95462 99.9303 5.54785C99.5165 5.15617 98.8023 4.94004 97.7719 4.94098L93.6484 4.94004V9.84022L97.6133 9.83975Z" fill="white"/>
<path d="M104.805 15.4643C104.148 15.1472 103.593 14.7163 103.149 14.1689C102.707 13.6215 102.369 12.9873 102.14 12.2624C101.914 11.5442 101.795 10.7816 101.795 9.97894C101.795 9.17483 101.914 8.41035 102.14 7.69307C102.369 6.96729 102.707 6.334 103.149 5.78755C103.593 5.23873 104.148 4.80411 104.804 4.487C105.468 4.16139 106.228 4 107.074 4C107.925 4 108.684 4.16139 109.345 4.487C110.001 4.80411 110.559 5.2392 111.004 5.78755C111.446 6.334 111.784 6.96682 112.013 7.69165C112.241 8.41035 112.354 9.17483 112.354 9.97894C112.354 10.7807 112.241 11.5423 112.013 12.2624C111.784 12.9873 111.446 13.6215 111.004 14.1689C110.56 14.7163 110.002 15.1472 109.345 15.4643C108.683 15.7852 107.925 15.9414 107.074 15.9414C106.229 15.9414 105.47 15.7852 104.805 15.4643ZM103.721 13.8136C104.113 14.2793 104.59 14.6446 105.156 14.9098C105.716 15.1703 106.353 15.3015 107.074 15.3015C107.798 15.3015 108.436 15.1708 108.998 14.9112C109.563 14.6441 110.039 14.2793 110.431 13.815C110.818 13.3492 111.125 12.7905 111.34 12.1402C111.556 11.4819 111.67 10.7703 111.68 9.99262C111.67 9.21541 111.556 8.50096 111.34 7.84643C111.125 7.19569 110.818 6.63413 110.431 6.16695C110.039 5.70402 109.563 5.3416 108.998 5.07451C108.436 4.81166 107.798 4.68048 107.074 4.68048C106.353 4.68048 105.716 4.81166 105.157 5.07451C104.589 5.34113 104.113 5.70166 103.721 6.16695C103.331 6.63413 103.027 7.19569 102.809 7.84643C102.596 8.49954 102.483 9.2154 102.473 9.98837C102.483 10.7698 102.596 11.481 102.809 12.1393C103.027 12.791 103.331 13.3492 103.721 13.8136Z" fill="white"/>
<path d="M121.789 4.26636V11.3896C121.789 12.9025 121.435 14.0544 120.699 14.8128C119.967 15.5707 118.904 15.9411 117.553 15.9411C117.55 15.9411 117.547 15.9411 117.546 15.9411C116.19 15.9425 115.128 15.5721 114.394 14.8128C113.655 14.0544 113.304 12.9025 113.304 11.3896V4.26636H113.976V11.3896C113.978 12.6987 114.275 13.6614 114.845 14.3097C115.411 14.9501 116.295 15.2852 117.546 15.287C118.796 15.2852 119.679 14.9501 120.246 14.3097C120.814 13.6604 121.116 12.6987 121.116 11.3896V4.26636H121.789Z" fill="white"/>
<path d="M122.964 15.6983H122.785V4.27649H127.454C128.545 4.27649 129.419 4.53839 130.052 5.08202C130.684 5.62895 131.001 6.44155 131 7.47926C131 7.98749 130.905 8.44476 130.72 8.8487C130.533 9.24887 130.273 9.58722 129.94 9.85951C129.611 10.1275 129.218 10.33 128.771 10.4635C128.323 10.6009 127.829 10.665 127.299 10.665H123.459V15.6988H123.281L122.964 15.6983ZM127.45 9.99116C127.867 9.99116 128.252 9.93642 128.605 9.8227C128.958 9.71086 129.257 9.54805 129.514 9.33051C129.767 9.11674 129.963 8.85342 130.11 8.54621C130.253 8.24137 130.326 7.88603 130.326 7.47359C130.324 6.62843 130.089 6.0126 129.628 5.58836C129.175 5.16743 128.458 4.94139 127.451 4.94139L123.458 4.94045V9.99164L127.45 9.99116Z" fill="white"/>
</svg>
