<svg width="1053" height="452" fill="none" xmlns="http://www.w3.org/2000/svg"><g filter="url(#filter0_dd)" fill="#FAFAFA"><path d="M292.652 263.549h37.598v79.834h-37.598V401h-94.97v-57.617H40.211V255.98L187.672 50.902h104.98V263.55zm-94.97 0V161.01l-72.51 102.539h72.51zM482.77 151.488c-11.719 16.927-17.579 41.748-17.579 74.463 0 32.715 5.86 57.617 17.579 74.707 11.718 16.927 25.878 25.391 42.48 25.391 16.602 0 30.762-8.464 42.48-25.391 11.719-17.09 17.579-41.992 17.579-74.707 0-32.715-5.86-57.536-17.579-74.463-11.718-16.927-25.878-25.39-42.48-25.39-16.602 0-30.762 8.463-42.48 25.39zm151.855-59.082c30.436 34.343 45.654 78.858 45.654 133.545 0 54.688-15.218 99.203-45.654 133.545-30.273 34.343-66.732 51.514-109.375 51.514s-79.183-17.171-109.619-51.514c-30.274-34.342-45.41-78.857-45.41-133.545 0-54.687 15.136-99.202 45.41-133.545 30.436-34.342 66.976-51.513 109.619-51.513s79.102 17.17 109.375 51.513zm340.508 171.143h37.597v79.834h-37.597V401h-94.971v-57.617H722.691V255.98L870.152 50.902h104.981V263.55zm-94.971 0V161.01l-72.51 102.539h72.51z"/></g><defs><filter id="filter0_dd" x=".211" y=".893" width="1052.52" height="450.117" filterUnits="userSpaceOnUse" color-interpolation-filters="sRGB"><feFlood flood-opacity="0" result="BackgroundImageFix"/><feColorMatrix in="SourceAlpha" values="0 0 0 0 0 0 0 0 0 0 0 0 0 0 0 0 0 0 127 0"/><feOffset dx="20" dy="20"/><feGaussianBlur stdDeviation="10"/><feColorMatrix values="0 0 0 0 0.529167 0 0 0 0 0.529167 0 0 0 0 0.529167 0 0 0 0.25 0"/><feBlend in2="BackgroundImageFix" result="effect1_dropShadow"/><feColorMatrix in="SourceAlpha" values="0 0 0 0 0 0 0 0 0 0 0 0 0 0 0 0 0 0 127 0"/><feOffset dx="-20" dy="-20"/><feGaussianBlur stdDeviation="10"/><feColorMatrix values="0 0 0 0 1 0 0 0 0 1 0 0 0 0 1 0 0 0 1 0"/><feBlend in2="effect1_dropShadow" result="effect2_dropShadow"/><feBlend in="SourceGraphic" in2="effect2_dropShadow" result="shape"/></filter></defs></svg>