<svg width="57" height="56" fill="none" xmlns="http://www.w3.org/2000/svg"><path d="M45.616 32.516H11.383l-3.678 7.226h3.326V56h34.936V39.742h3.326l-3.677-7.226zm-1.137 1.807l1.839 3.612H31.826l-1.84-3.612H44.48zm-31.96 0h14.493l-1.84 3.612H10.68l1.84-3.612zm31.61 19.87h-14.71v-6.322h-1.84v6.322H12.87V39.742h13.44l1.27-2.497v7.916h1.839v-7.916l1.27 2.497h13.44v14.452z" fill="url(#paint0_linear)"/><path d="M14.709 46.968h5.516v1.806H14.71v-1.806z" fill="url(#paint1_linear)"/><path d="M14.709 50.58h5.516v1.807H14.71v-1.806z" fill="url(#paint2_linear)"/><path d="M22.064 50.58h1.84v1.807h-1.84v-1.806z" fill="url(#paint3_linear)"/><path d="M24.255 14.69l4.246-1.063 4.245 1.062.333-4.479 2.255-3.785-3.989-1.696-2.844-3.455-2.846 3.455-3.989 1.696 2.255 3.785.334 4.48zM26.8 6.21l1.7-2.064 1.7 2.065 2.498 1.063-1.422 2.387-.204 2.746-2.572-.643-2.573.643-.204-2.747-1.422-2.387L26.8 6.21z" fill="url(#paint4_linear)"/><path d="M10.095 16.534l1.335-2.241-2.366-1.007-1.71-2.077-1.708 2.076-2.367 1.007 1.336 2.24.198 2.674 2.542-.636 2.543.636.197-2.672zm-1.802-.551l-.07.94-.868-.217-.867.217-.07-.94-.504-.845.877-.373.564-.684.563.685.877.373-.502.844z" fill="url(#paint5_linear)"/><path d="M52.386 16.534l1.335-2.241-2.366-1.007-1.71-2.077-1.708 2.076-2.367 1.007 1.336 2.24.198 2.674 2.542-.636 2.543.636.197-2.672zm-1.802-.551l-.07.94-.868-.217-.867.217-.07-.94-.503-.845.877-.373.563-.684.563.685.877.373-.502.844z" fill="url(#paint6_linear)"/><path d="M11.441 21.526a20.259 20.259 0 014.62 4.162l3.642 4.47-.753-5.918c-.394-3.09-2.073-5.934-4.609-7.802l-.88-.649-2.695 5.294.675.443zm2.65-2.936a9.752 9.752 0 012.97 5.45 22.114 22.114 0 00-3.93-3.562l.96-1.888z" fill="url(#paint7_linear)"/><path d="M38.05 24.24l-.753 5.918 3.641-4.471a20.276 20.276 0 014.62-4.162l.675-.443-2.695-5.294-.88.65c-2.535 1.869-4.215 4.712-4.608 7.802zm5.82-3.762a22.052 22.052 0 00-3.932 3.562 9.758 9.758 0 012.97-5.45l.961 1.888z" fill="url(#paint8_linear)"/><path d="M32.178 30.71h1.838v-3.785c0-4.338 1.557-8.561 4.385-11.895l-1.413-1.156a20.212 20.212 0 00-4.81 13.051v3.785z" fill="url(#paint9_linear)"/><path d="M38.613 10.839h1.839v1.806h-1.839V10.84z" fill="url(#paint10_linear)"/><path d="M41.371 7.226h1.839v1.806h-1.84V7.226z" fill="url(#paint11_linear)"/><path d="M22.983 30.71h1.839v-3.785a20.21 20.21 0 00-4.81-13.052L18.6 15.03a18.419 18.419 0 014.383 11.895v3.785z" fill="url(#paint12_linear)"/><path d="M16.549 10.839h1.838v1.806H16.55V10.84z" fill="url(#paint13_linear)"/><path d="M13.791 7.226h1.839v1.806h-1.84V7.226z" fill="url(#paint14_linear)"/><path d="M27.58 15.355h1.839v1.806H27.58v-1.806z" fill="url(#paint15_linear)"/><path d="M27.58 18.968h1.839V30.71H27.58V18.968z" fill="url(#paint16_linear)"/><path d="M53.322 24.387h1.839v1.807h-1.839v-1.807z" fill="url(#paint17_linear)"/><path d="M53.322 28h1.839v1.806h-1.839V28z" fill="url(#paint18_linear)"/><path d="M55.162 26.194h1.839V28h-1.839v-1.806z" fill="url(#paint19_linear)"/><path d="M51.484 26.194h1.84V28h-1.84v-1.806z" fill="url(#paint20_linear)"/><path d="M50.565 0h1.838v1.806h-1.838V0z" fill="url(#paint21_linear)"/><path d="M50.565 3.613h1.838v1.806h-1.838V3.613z" fill="url(#paint22_linear)"/><path d="M52.402 1.806h1.84v1.807h-1.84V1.806z" fill="url(#paint23_linear)"/><path d="M48.727 1.806h1.838v1.807h-1.838V1.806z" fill="url(#paint24_linear)"/><path d="M1.838 28h1.839v1.806h-1.84V28z" fill="url(#paint25_linear)"/><path d="M1.838 31.613h1.839v1.806h-1.84v-1.806z" fill="url(#paint26_linear)"/><path d="M3.678 29.806h1.838v1.807H3.678v-1.807z" fill="url(#paint27_linear)"/><path d="M0 29.806h1.839v1.807H0v-1.807z" fill="url(#paint28_linear)"/><path d="M1.838 0h1.839v1.806h-1.84V0z" fill="url(#paint29_linear)"/><path d="M1.838 3.613h1.839v1.806h-1.84V3.613z" fill="url(#paint30_linear)"/><path d="M3.678 1.806h1.838v1.807H3.678V1.806z" fill="url(#paint31_linear)"/><path d="M0 1.806h1.839v1.807H0V1.806z" fill="url(#paint32_linear)"/><defs><linearGradient id="paint0_linear" x1="7.955" y1="32.516" x2="22.717" y2="69.533" gradientUnits="userSpaceOnUse"><stop stop-color="#EF6F2E"/><stop offset="1" stop-color="#FFC839"/></linearGradient><linearGradient id="paint1_linear" x1="14.742" y1="46.968" x2="15.467" y2="50.1" gradientUnits="userSpaceOnUse"><stop stop-color="#EF6F2E"/><stop offset="1" stop-color="#FFC839"/></linearGradient><linearGradient id="paint2_linear" x1="14.742" y1="50.581" x2="15.467" y2="53.713" gradientUnits="userSpaceOnUse"><stop stop-color="#EF6F2E"/><stop offset="1" stop-color="#FFC839"/></linearGradient><linearGradient id="paint3_linear" x1="22.076" y1="50.581" x2="23.621" y2="52.808" gradientUnits="userSpaceOnUse"><stop stop-color="#EF6F2E"/><stop offset="1" stop-color="#FFC839"/></linearGradient><linearGradient id="paint4_linear" x1="21.748" y1="1.274" x2="33.225" y2="17.829" gradientUnits="userSpaceOnUse"><stop stop-color="#EF6F2E"/><stop offset="1" stop-color="#FFC839"/></linearGradient><linearGradient id="paint5_linear" x1="3.328" y1="11.209" x2="10.168" y2="21.081" gradientUnits="userSpaceOnUse"><stop stop-color="#EF6F2E"/><stop offset="1" stop-color="#FFC839"/></linearGradient><linearGradient id="paint6_linear" x1="45.619" y1="11.209" x2="52.459" y2="21.081" gradientUnits="userSpaceOnUse"><stop stop-color="#EF6F2E"/><stop offset="1" stop-color="#FFC839"/></linearGradient><linearGradient id="paint7_linear" x1="10.819" y1="15.789" x2="23.84" y2="27.256" gradientUnits="userSpaceOnUse"><stop stop-color="#EF6F2E"/><stop offset="1" stop-color="#FFC839"/></linearGradient><linearGradient id="paint8_linear" x1="37.351" y1="15.788" x2="50.371" y2="27.254" gradientUnits="userSpaceOnUse"><stop stop-color="#EF6F2E"/><stop offset="1" stop-color="#FFC839"/></linearGradient><linearGradient id="paint9_linear" x1="32.215" y1="13.873" x2="44.852" y2="20.488" gradientUnits="userSpaceOnUse"><stop stop-color="#EF6F2E"/><stop offset="1" stop-color="#FFC839"/></linearGradient><linearGradient id="paint10_linear" x1="38.624" y1="10.839" x2="40.17" y2="13.066" gradientUnits="userSpaceOnUse"><stop stop-color="#EF6F2E"/><stop offset="1" stop-color="#FFC839"/></linearGradient><linearGradient id="paint11_linear" x1="41.382" y1="7.226" x2="42.928" y2="9.454" gradientUnits="userSpaceOnUse"><stop stop-color="#EF6F2E"/><stop offset="1" stop-color="#FFC839"/></linearGradient><linearGradient id="paint12_linear" x1="18.637" y1="13.873" x2="31.273" y2="20.486" gradientUnits="userSpaceOnUse"><stop stop-color="#EF6F2E"/><stop offset="1" stop-color="#FFC839"/></linearGradient><linearGradient id="paint13_linear" x1="16.56" y1="10.839" x2="18.106" y2="13.066" gradientUnits="userSpaceOnUse"><stop stop-color="#EF6F2E"/><stop offset="1" stop-color="#FFC839"/></linearGradient><linearGradient id="paint14_linear" x1="13.802" y1="7.226" x2="15.348" y2="9.454" gradientUnits="userSpaceOnUse"><stop stop-color="#EF6F2E"/><stop offset="1" stop-color="#FFC839"/></linearGradient><linearGradient id="paint15_linear" x1="27.591" y1="15.355" x2="29.137" y2="17.582" gradientUnits="userSpaceOnUse"><stop stop-color="#EF6F2E"/><stop offset="1" stop-color="#FFC839"/></linearGradient><linearGradient id="paint16_linear" x1="27.591" y1="18.968" x2="32.125" y2="19.973" gradientUnits="userSpaceOnUse"><stop stop-color="#EF6F2E"/><stop offset="1" stop-color="#FFC839"/></linearGradient><linearGradient id="paint17_linear" x1="53.333" y1="24.387" x2="54.879" y2="26.615" gradientUnits="userSpaceOnUse"><stop stop-color="#EF6F2E"/><stop offset="1" stop-color="#FFC839"/></linearGradient><linearGradient id="paint18_linear" x1="53.333" y1="28" x2="54.879" y2="30.228" gradientUnits="userSpaceOnUse"><stop stop-color="#EF6F2E"/><stop offset="1" stop-color="#FFC839"/></linearGradient><linearGradient id="paint19_linear" x1="55.173" y1="26.194" x2="56.719" y2="28.421" gradientUnits="userSpaceOnUse"><stop stop-color="#EF6F2E"/><stop offset="1" stop-color="#FFC839"/></linearGradient><linearGradient id="paint20_linear" x1="51.495" y1="26.194" x2="53.041" y2="28.421" gradientUnits="userSpaceOnUse"><stop stop-color="#EF6F2E"/><stop offset="1" stop-color="#FFC839"/></linearGradient><linearGradient id="paint21_linear" x1="50.575" y1="0" x2="52.121" y2="2.228" gradientUnits="userSpaceOnUse"><stop stop-color="#EF6F2E"/><stop offset="1" stop-color="#FFC839"/></linearGradient><linearGradient id="paint22_linear" x1="50.575" y1="3.613" x2="52.121" y2="5.841" gradientUnits="userSpaceOnUse"><stop stop-color="#EF6F2E"/><stop offset="1" stop-color="#FFC839"/></linearGradient><linearGradient id="paint23_linear" x1="52.413" y1="1.806" x2="53.959" y2="4.034" gradientUnits="userSpaceOnUse"><stop stop-color="#EF6F2E"/><stop offset="1" stop-color="#FFC839"/></linearGradient><linearGradient id="paint24_linear" x1="48.738" y1="1.806" x2="50.283" y2="4.034" gradientUnits="userSpaceOnUse"><stop stop-color="#EF6F2E"/><stop offset="1" stop-color="#FFC839"/></linearGradient><linearGradient id="paint25_linear" x1="1.849" y1="28" x2="3.395" y2="30.228" gradientUnits="userSpaceOnUse"><stop stop-color="#EF6F2E"/><stop offset="1" stop-color="#FFC839"/></linearGradient><linearGradient id="paint26_linear" x1="1.849" y1="31.613" x2="3.395" y2="33.841" gradientUnits="userSpaceOnUse"><stop stop-color="#EF6F2E"/><stop offset="1" stop-color="#FFC839"/></linearGradient><linearGradient id="paint27_linear" x1="3.689" y1="29.806" x2="5.235" y2="32.034" gradientUnits="userSpaceOnUse"><stop stop-color="#EF6F2E"/><stop offset="1" stop-color="#FFC839"/></linearGradient><linearGradient id="paint28_linear" x1=".011" y1="29.806" x2="1.557" y2="32.034" gradientUnits="userSpaceOnUse"><stop stop-color="#EF6F2E"/><stop offset="1" stop-color="#FFC839"/></linearGradient><linearGradient id="paint29_linear" x1="1.849" y1="0" x2="3.395" y2="2.228" gradientUnits="userSpaceOnUse"><stop stop-color="#EF6F2E"/><stop offset="1" stop-color="#FFC839"/></linearGradient><linearGradient id="paint30_linear" x1="1.849" y1="3.613" x2="3.395" y2="5.841" gradientUnits="userSpaceOnUse"><stop stop-color="#EF6F2E"/><stop offset="1" stop-color="#FFC839"/></linearGradient><linearGradient id="paint31_linear" x1="3.689" y1="1.806" x2="5.235" y2="4.034" gradientUnits="userSpaceOnUse"><stop stop-color="#EF6F2E"/><stop offset="1" stop-color="#FFC839"/></linearGradient><linearGradient id="paint32_linear" x1=".011" y1="1.806" x2="1.557" y2="4.034" gradientUnits="userSpaceOnUse"><stop stop-color="#EF6F2E"/><stop offset="1" stop-color="#FFC839"/></linearGradient></defs></svg>