<svg width="85" height="85" fill="none" xmlns="http://www.w3.org/2000/svg"><path d="M65.84 19.737a23.002 23.002 0 00-39.057 13.186 23.215 23.215 0 001.73 12.32l-3.651-.73a1 1 0 00-1.125.61l-2.828 7.07a1 1 0 001.483 1.204l3.836-2.557 1.433.478 1.429 1.428c-1.361.22-2.702.548-4.01.984a9.904 9.904 0 00-6.277 6.347 1 1 0 001.161 1.284l1.345-.288-2.467 4.441a.999.999 0 001.36 1.36l4.473-2.485-.283 1.415a1 1 0 001.297 1.145l.035-.012a9.917 9.917 0 006.242-6.242l.02-.06a25.44 25.44 0 00.983-4.009l1.43 1.429.477 1.433-2.557 3.836a1 1 0 001.203 1.483l7.071-2.828a1 1 0 00.61-1.125l-.748-3.738a23.253 23.253 0 009.159 1.88 22.998 22.998 0 0016.227-39.26zM27.932 49.3l-1.535-.511a1 1 0 00-.87.116l-1.565 1.043 1.324-3.31 4.423.884-1.777 1.778zm2.158 10.703l-.02.06a7.913 7.913 0 01-3.33 4.203l.321-1.605a1 1 0 00-1.466-1.07l-3.304 1.835 1.835-3.304a1 1 0 00-1.083-1.464l-1.554.332a7.9 7.9 0 014.225-3.363c.747-.248 1.507-.46 2.276-.632l-1.389 2.78a1 1 0 001.342 1.342l2.78-1.39a23.578 23.578 0 01-.633 2.275zm2.244-5.318l-2.603 1.3 1.302-2.602 1.952-.651-.65 1.953zm1.962.439l1.219-3.656a1 1 0 00-1.265-1.265l-3.657 1.218-.977-.977 5.791-5.79a20.553 20.553 0 014.716-3.521.94.94 0 00.1.119l4.242 4.242c.037.037.077.07.12.1a20.556 20.556 0 01-3.521 4.716l-5.79 5.79-.978-.976zm14.413-18.115a1 1 0 00-.798-.288 21.96 21.96 0 00-1.204.143 2.997 2.997 0 112.16 2.053c.053-.369.096-.739.13-1.11a1 1 0 00-.289-.798zm-.21 3.875a5.001 5.001 0 10-3.763-3.642 22.61 22.61 0 00-3.801 1.27 9 9 0 116.309 6.182c.53-1.23.95-2.506 1.255-3.81zm-1.644-2.021a20.59 20.59 0 01-1.36 4.833l-3.473-3.474a20.588 20.588 0 014.833-1.36zm-.496 7.656a11 11 0 10-7.242-7.116 22.598 22.598 0 00-3.416 2.296 14.997 14.997 0 118.367 8.256 22.6 22.6 0 002.29-3.437zm-10.59 15.236l1.043-1.564a1 1 0 00.117-.871l-.512-1.535 1.778-1.777.884 4.423-3.31 1.324zm28.659-10.906A20.814 20.814 0 0152.49 56.8a21.18 21.18 0 01-12.523-2.12l-.074-.371 2.584-2.584.186-.19a16.97 16.97 0 0018.935-3.513c6.628-6.628 6.628-17.413 0-24.041-6.628-6.629-17.413-6.629-24.041 0a17.008 17.008 0 00-3.425 19.123l-.14.136-2.583 2.584-.445-.089a21.169 21.169 0 01-2.198-12.544 21 21 0 1135.66 17.66z" fill="url(#paint0_linear)"/><path d="M40.928 49.03a3 3 0 10-4.242-4.243 3 3 0 004.242 4.242zM38.1 46.2a1 1 0 110 1.414.993.993 0 010-1.414z" fill="url(#paint1_linear)"/><path d="M18.293 48.293l-3 3a1 1 0 001.414 1.414l3-3a1 1 0 00-1.414-1.414z" fill="url(#paint2_linear)"/><path d="M17.886 63.023a1 1 0 00-1.414 0l-3 3a1 1 0 101.414 1.415l3-3a.999.999 0 000-1.415z" fill="url(#paint3_linear)"/><path d="M14 60a1 1 0 00.707-.293l5-5a1 1 0 00-1.414-1.414l-5 5A1 1 0 0014 60z" fill="url(#paint4_linear)"/><path d="M22.707 67.293a1 1 0 00-1.414 0l-4 4a1 1 0 001.414 1.414l4-4a.999.999 0 000-1.414z" fill="url(#paint5_linear)"/><path d="M36.293 64.293l-3 3a1 1 0 001.414 1.414l3-3a1 1 0 00-1.414-1.414z" fill="url(#paint6_linear)"/><path d="M30.707 66.293a1 1 0 00-1.414 0l-5 5a1 1 0 001.414 1.414l5-5a1 1 0 000-1.414z" fill="url(#paint7_linear)"/><defs><linearGradient id="paint0_linear" x1="19.04" y1="13.001" x2="65.566" y2="78.712" gradientUnits="userSpaceOnUse"><stop stop-color="#EF6F2E"/><stop offset="1" stop-color="#FFC839"/></linearGradient><linearGradient id="paint1_linear" x1="35.843" y1="43.908" x2="41.008" y2="51.222" gradientUnits="userSpaceOnUse"><stop stop-color="#EF6F2E"/><stop offset="1" stop-color="#FFC839"/></linearGradient><linearGradient id="paint2_linear" x1="15.03" y1="48" x2="19.334" y2="54.095" gradientUnits="userSpaceOnUse"><stop stop-color="#EF6F2E"/><stop offset="1" stop-color="#FFC839"/></linearGradient><linearGradient id="paint3_linear" x1="13.209" y1="62.73" x2="17.513" y2="68.825" gradientUnits="userSpaceOnUse"><stop stop-color="#EF6F2E"/><stop offset="1" stop-color="#FFC839"/></linearGradient><linearGradient id="paint4_linear" x1="13.042" y1="53" x2="19.068" y2="61.533" gradientUnits="userSpaceOnUse"><stop stop-color="#EF6F2E"/><stop offset="1" stop-color="#FFC839"/></linearGradient><linearGradient id="paint5_linear" x1="17.036" y1="67" x2="22.201" y2="74.314" gradientUnits="userSpaceOnUse"><stop stop-color="#EF6F2E"/><stop offset="1" stop-color="#FFC839"/></linearGradient><linearGradient id="paint6_linear" x1="33.03" y1="64" x2="37.334" y2="70.095" gradientUnits="userSpaceOnUse"><stop stop-color="#EF6F2E"/><stop offset="1" stop-color="#FFC839"/></linearGradient><linearGradient id="paint7_linear" x1="24.042" y1="66" x2="30.068" y2="74.533" gradientUnits="userSpaceOnUse"><stop stop-color="#EF6F2E"/><stop offset="1" stop-color="#FFC839"/></linearGradient></defs></svg>