<svg width="85" height="85" fill="none" xmlns="http://www.w3.org/2000/svg"><path d="M63 29.414l6.646-6.646A4.65 4.65 0 0071 19.5v-.172c0-1.124-.438-2.18-1.232-2.975A4.593 4.593 0 0066.5 15a4.59 4.59 0 00-3.268 1.354l-.232.232-.232-.232A4.59 4.59 0 0059.5 15a4.59 4.59 0 00-3.268 1.354A4.178 4.178 0 0055 19.328v.172a4.65 4.65 0 001.354 3.268L63 29.414zm-6-10.086c0-.589.229-1.144.646-1.561A2.607 2.607 0 0159.5 17c.7 0 1.358.272 1.854.768L63 19.414l1.646-1.646c.991-.99 2.716-.99 3.707 0 .418.417.647.971.647 1.56v.172c0 .69-.28 1.366-.768 1.854L63 26.586l-5.232-5.232A2.64 2.64 0 0157 19.5v-.172z" fill="url(#paint0_linear)"/><path d="M37 15h2v2h-2v-2z" fill="url(#paint1_linear)"/><path d="M41 15h2v2h-2v-2z" fill="url(#paint2_linear)"/><path d="M45 15h2v2h-2v-2z" fill="url(#paint3_linear)"/><path d="M35 21h4.586l3.293 3.294c.45.448 1.072.706 1.707.706A2.417 2.417 0 0047 22.586V21h2c1.103 0 2-.897 2-2v-6c0-1.103-.897-2-2-2H35c-1.103 0-2 .897-2 2v6c0 1.103.897 2 2 2zm0-8h14l.001 6H45v3.586c0 .338-.469.532-.707.293L40.414 19H35v-6z" fill="url(#paint4_linear)"/><path d="M13.796 31.693L20 26.954l6.205 4.739-2.38-7.704L29.736 19h-7.36L20 11.813 17.626 19h-7.36l5.91 4.989-2.38 7.704zM15.736 21h3.335l.93-2.813.93 2.813h3.335l-2.742 2.315.924 2.991L20 24.437l-2.447 1.87.924-2.991L15.736 21z" fill="url(#paint5_linear)"/><path d="M42 57c1.654 0 3-1.346 3-3s-1.346-3-3-3-3 1.346-3 3 1.346 3 3 3zm0-4a1.001 1.001 0 010 2 1.001 1.001 0 010-2z" fill="url(#paint6_linear)"/><path d="M42 61c3.86 0 7-3.141 7-7s-3.14-7-7-7-7 3.141-7 7 3.14 7 7 7zm0-12c2.757 0 5 2.243 5 5s-2.243 5-5 5-5-2.243-5-5 2.243-5 5-5z" fill="url(#paint7_linear)"/><path d="M71.851 59.873l-12.803-8.382A2.99 2.99 0 0057.403 51h-4.949c-.528 0-1.001-.314-1.22-.84a1.312 1.312 0 01.287-1.441l1.792-1.784L50 43.588V40c0-.552.449-1 1-1h10c1.654 0 3-1.346 3-3v-4h-2v4c0 .552-.449 1-1 1H51c-1.654 0-3 1.346-3 3v3.631l-.79.92c-.342.343-.866.425-1.408.198A1.299 1.299 0 0145 43.546V41h-2V27h-2v14h-2v2.64c0 .472-.281.893-.718 1.075l-.125.052c-.501.21-1.025.128-1.318-.162L36 43.629V40c0-1.654-1.346-3-3-3H23c-.551 0-1-.448-1-1v-4h-2v4c0 1.654 1.346 3 3 3h10c.551 0 1 .448 1 1v3.588l-3.312 3.346 1.791 1.783c.381.38.494.946.287 1.442l-.052.123a1.16 1.16 0 01-1.075.718H18c-3.86 0-7 3.141-7 7v8c0 3.859 3.14 7 7 7h39.403c.586 0 1.155-.17 1.644-.49l12.804-8.384A2.535 2.535 0 0073 62c0-.86-.43-1.655-1.149-2.127zm-39.3-.663L30.754 61H27v-8h2v4h2.639c.473 0 .909.313 1.128.842.21.502.128 1.025-.216 1.368zM25 71h-2V53h2v18zm2-8h5.615l2.317 2.316 1.858-1.868c.343-.343.865-.427 1.41-.197.494.204.8.63.8 1.109V67h6v-2.64c0-.479.307-.905.843-1.127.501-.21 1.026-.127 1.367.215l1.858 1.868L51.385 63H57v8H27v-8zm24.449-3.79c-.343-.343-.426-.866-.198-1.41.201-.486.637-.8 1.11-.8H55v-4h2v8h-3.754l-1.797-1.79zM34.56 51.054l.052-.124a3.308 3.308 0 00-.721-3.629l-.378-.376 1.438-1.452.423.489c.915.919 2.312 1.176 3.558.648l.122-.051A3.153 3.153 0 0041 43.64V43h2v.546c0 1.339.798 2.536 2.067 3.064 1.247.522 2.646.27 3.609-.701l.375-.436 1.437 1.451-.379.377c-.958.955-1.241 2.38-.705 3.666A3.296 3.296 0 0052.454 53H53v2h-.639c-1.285 0-2.445.799-2.972 2.068-.524 1.247-.27 2.644.648 3.558l.447.445-1.413 1.413-.445-.446c-.914-.918-2.312-1.173-3.592-.635C43.799 61.916 43 63.076 43 64.36V65h-2v-.64c0-1.284-.799-2.444-2.067-2.971-1.249-.525-2.645-.271-3.56.648l-.444.446-1.413-1.413.447-.445c.918-.914 1.172-2.311.634-3.592C34.084 55.799 32.924 55 31.639 55H31v-2h.639a3.158 3.158 0 002.921-1.946zM13 66v-8c0-2.757 2.243-5 5-5h3v18h-3c-2.757 0-5-2.243-5-5zm46 4.15V53.851l6 3.928v8.442l-6 3.929zm11.755-7.697L67 64.912v-5.824l3.754 2.458a.54.54 0 01.001.907z" fill="url(#paint8_linear)"/><defs><linearGradient id="paint0_linear" x1="55.096" y1="15" x2="67.023" y2="33.746" gradientUnits="userSpaceOnUse"><stop stop-color="#EF6F2E"/><stop offset="1" stop-color="#FFC839"/></linearGradient><linearGradient id="paint1_linear" x1="37.012" y1="15" x2="38.734" y2="17.438" gradientUnits="userSpaceOnUse"><stop stop-color="#EF6F2E"/><stop offset="1" stop-color="#FFC839"/></linearGradient><linearGradient id="paint2_linear" x1="41.012" y1="15" x2="42.734" y2="17.438" gradientUnits="userSpaceOnUse"><stop stop-color="#EF6F2E"/><stop offset="1" stop-color="#FFC839"/></linearGradient><linearGradient id="paint3_linear" x1="45.012" y1="15" x2="46.734" y2="17.438" gradientUnits="userSpaceOnUse"><stop stop-color="#EF6F2E"/><stop offset="1" stop-color="#FFC839"/></linearGradient><linearGradient id="paint4_linear" x1="33.108" y1="11" x2="43.901" y2="30.649" gradientUnits="userSpaceOnUse"><stop stop-color="#EF6F2E"/><stop offset="1" stop-color="#FFC839"/></linearGradient><linearGradient id="paint5_linear" x1="10.383" y1="11.813" x2="27.613" y2="35.708" gradientUnits="userSpaceOnUse"><stop stop-color="#EF6F2E"/><stop offset="1" stop-color="#FFC839"/></linearGradient><linearGradient id="paint6_linear" x1="39.036" y1="51" x2="44.201" y2="58.314" gradientUnits="userSpaceOnUse"><stop stop-color="#EF6F2E"/><stop offset="1" stop-color="#FFC839"/></linearGradient><linearGradient id="paint7_linear" x1="35.084" y1="47" x2="47.136" y2="64.066" gradientUnits="userSpaceOnUse"><stop stop-color="#EF6F2E"/><stop offset="1" stop-color="#FFC839"/></linearGradient><linearGradient id="paint8_linear" x1="11.373" y1="27" x2="45.922" y2="92.937" gradientUnits="userSpaceOnUse"><stop stop-color="#EF6F2E"/><stop offset="1" stop-color="#FFC839"/></linearGradient></defs></svg>