<svg width="56" height="56" fill="none" xmlns="http://www.w3.org/2000/svg"><path d="M55.753 38.292L51.89 34.43a.844.844 0 00-1.193 1.193l.538.538-12.968 12.968-4.626-4.626L46.61 31.534l1.322 1.322a.844.844 0 001.193-1.193L47.21 29.75c-1.516-1.555-2.512-3.327-3.916-4.99 1.604-2.153-.093-5.306-2.764-5.175.088-1.875-1.515-3.487-3.397-3.398.089-1.874-1.52-3.488-3.398-3.397.145-3.094-3.723-4.486-5.735-2.251l-.199-.199a3.25 3.25 0 00-4.59 0 3.238 3.238 0 00-.946 2.452c-1.878-.09-3.488 1.514-3.399 3.397a3.242 3.242 0 00-2.129.666c-1.147-.405-2.4-.258-3.511.426-1.37.843-2.226 2.31-2.247 3.839l-.956 7.396-9.776 9.776a.844.844 0 000 1.193l14.16 14.16a.84.84 0 001.194 0l8.547-8.546a.844.844 0 000-1.193l-1.436-1.436c1.612-1.612 3.229-2.429 5.288-3.359 2.043.923 3.69 1.761 5.288 3.359l-1.436 1.436a.844.844 0 000 1.193l8.547 8.547a.842.842 0 001.193 0l14.16-14.16a.844.844 0 00.001-1.194zM40.685 21.27c1.092.001 1.87 1.19 1.426 2.19-.678-.692-1.368-1.372-2.053-2.057l.627-.133zm-3.398-3.398c1.102.001 1.868 1.186 1.426 2.19-.725-.71-1.545-1.349-2.462-1.792.296-.26.642-.393 1.036-.398zM14.41 24.128l-.198-.198a1.56 1.56 0 010-2.205 1.554 1.554 0 011.102-.456c.399 0 .798.152 1.102.456l.198.199-1.102 1.102-1.102 1.102zm9.994-12.595a1.554 1.554 0 011.102-.455c.399 0 .798.151 1.102.455l.199.199-2.205 2.204-.198-.198a1.56 1.56 0 010-2.205zm-3.854 4.5a1.554 1.554 0 011.559-1.558c.399 0 .798.152 1.102.456l.198.198-1.102 1.102-1.102 1.102-.199-.198a1.549 1.549 0 01-.456-1.102zm-1.839 1.84c.4 0 .799.151 1.102.455l.199.199-2.204 2.204-.2-.199a1.56 1.56 0 010-2.204 1.554 1.554 0 011.103-.456zm-4.6.844c.322-.198.882-.453 1.547-.387a3.266 3.266 0 00-.188 1.257 3.284 3.284 0 00-2.79 1.345c.087-.871.628-1.72 1.43-2.215zm.893 33.14L2.037 38.888l1.535-1.536L16.54 50.321l-1.536 1.535zm16.756-12.9a10.835 10.835 0 00-1.882-.93c.84-.605 1.55-1.35 2.279-2.08a.844.844 0 00-1.194-1.192c-1.023 1.023-2.023 2.013-3.338 2.667-2.306 1.153-4.25 2-6.106 3.855l-7.173-7.173a.843.843 0 10-1.193 1.193l9.206 9.205-4.626 4.626L4.765 36.16l4.626-4.625.835.835a.844.844 0 101.193-1.193l-.835-.835.835-.836a.844.844 0 00.24-.489l.644-4.978c.307.767.94 1.308 1.51 1.877a.85.85 0 001.194.002l14.385-14.385c1.406-1.406 3.615.794 2.204 2.205a.841.841 0 000 1.193.846.846 0 001.194 0c1.422-1.422 3.625.782 2.204 2.204a.841.841 0 00-.247.596c0-.195-6.702-.104-7.244-.104-3.673 0-4.283 5.44-.653 6.148l4.183 1.238c.653.194 1.253.55 1.736 1.034l3.451 3.45-2.435 2.436a.843.843 0 101.193 1.193l3.032-3.032a.843.843 0 000-1.193l-4.048-4.047a5.804 5.804 0 00-2.45-1.458l-4.224-1.251c-1.557-.461-1.703-2.83.215-2.83h5.994c1.628 0 3.02.933 4.133 2.045 0 0 3.66 3.674 3.907 3.951 1.442 1.604 2.364 3.515 3.88 5.03L34.48 41.276c-.85-.85-1.693-1.68-2.721-2.319zm9.236 12.9L39.46 50.32l12.967-12.968 1.535 1.536-12.967 12.967z" fill="url(#paint0_linear)"/><path d="M28 5.52a.844.844 0 00.843-.845V2.951a.844.844 0 10-1.687 0v1.724c0 .466.378.844.844.844z" fill="url(#paint1_linear)"/><path d="M23.243 5.831a.844.844 0 101.545-.676l-.69-1.58a.844.844 0 10-1.547.676l.692 1.58z" fill="url(#paint2_linear)"/><path d="M20.12 8.458a.84.84 0 001.191-.047.844.844 0 00-.046-1.192l-1.267-1.171a.844.844 0 10-1.145 1.239l1.266 1.17z" fill="url(#paint3_linear)"/><path d="M31.646 6.266a.84.84 0 001.111-.435l.692-1.58a.844.844 0 00-1.546-.676l-.691 1.58a.844.844 0 00.434 1.11z" fill="url(#paint4_linear)"/><path d="M35.307 8.682a.84.84 0 00.572-.224l1.267-1.171A.844.844 0 0036 6.048l-1.266 1.17a.844.844 0 00.573 1.464z" fill="url(#paint5_linear)"/><path d="M17.958 45.514a.95.95 0 10-.437-1.85.95.95 0 00.437 1.85z" fill="url(#paint6_linear)"/><defs><linearGradient id="paint0_linear" x1=".336" y1="9.391" x2="35.036" y2="71.22" gradientUnits="userSpaceOnUse"><stop stop-color="#EF6F2E"/><stop offset="1" stop-color="#FFC839"/></linearGradient><linearGradient id="paint1_linear" x1="27.166" y1="2.107" x2="30.095" y2="4.158" gradientUnits="userSpaceOnUse"><stop stop-color="#EF6F2E"/><stop offset="1" stop-color="#FFC839"/></linearGradient><linearGradient id="paint2_linear" x1="22.495" y1="3.069" x2="25.479" y2="6.144" gradientUnits="userSpaceOnUse"><stop stop-color="#EF6F2E"/><stop offset="1" stop-color="#FFC839"/></linearGradient><linearGradient id="paint3_linear" x1="18.6" y1="5.824" x2="21.032" y2="9.383" gradientUnits="userSpaceOnUse"><stop stop-color="#EF6F2E"/><stop offset="1" stop-color="#FFC839"/></linearGradient><linearGradient id="paint4_linear" x1="31.155" y1="3.069" x2="34.139" y2="6.144" gradientUnits="userSpaceOnUse"><stop stop-color="#EF6F2E"/><stop offset="1" stop-color="#FFC839"/></linearGradient><linearGradient id="paint5_linear" x1="34.481" y1="5.824" x2="36.913" y2="9.383" gradientUnits="userSpaceOnUse"><stop stop-color="#EF6F2E"/><stop offset="1" stop-color="#FFC839"/></linearGradient><linearGradient id="paint6_linear" x1="16.607" y1="43.88" x2="18.733" y2="45.759" gradientUnits="userSpaceOnUse"><stop stop-color="#EF6F2E"/><stop offset="1" stop-color="#FFC839"/></linearGradient></defs></svg>