<svg width="56" height="56" fill="none" xmlns="http://www.w3.org/2000/svg"><path d="M38.084 11.79l1.54-.833a12.544 12.544 0 00-11.04-6.582H28v1.75h.584c3.97 0 7.61 2.17 9.5 5.665z" fill="url(#paint0_linear)"/><path d="M26.39 6.174l-.17-1.741c-.635.061-1.268.172-1.884.33l.434 1.695a10.742 10.742 0 011.62-.284z" fill="url(#paint1_linear)"/><path d="M53.973 13.67l-7.598-4.748v4.203h-2.217C42.427 5.988 36 .875 28.584.875h-1.168c-6.014 0-11.552 3.42-14.28 8.75H9.625V5.421L2.027 10.17a2.44 2.44 0 00-1.152 2.08c0 .851.43 1.63 1.152 2.08l7.598 4.748v-4.203h1.895a16.235 16.235 0 00-.145 2.041c0 3.43 1.112 6.748 3.109 9.477l-1.16 1.16 1.077 2.153a15.653 15.653 0 00-1.62 3.903l-2.281.76v6.511l2.28.76c.36 1.366.903 2.675 1.62 3.903l-1.076 2.153 4.605 4.605 2.153-1.077a15.62 15.62 0 003.903 1.62l.76 2.281h6.51l.76-2.28a15.62 15.62 0 003.903-1.62l2.153 1.076 4.605-4.604-1.077-2.153a15.659 15.659 0 001.62-3.903l2.281-.76V34.37l-2.28-.76a15.592 15.592 0 00-1.62-3.903l1.076-2.153-1.158-1.159a16.15 16.15 0 003.02-8.02h1.837v4.204l7.598-4.747a2.442 2.442 0 001.152-2.082c0-.851-.43-1.63-1.152-2.08zM27.416 2.624h1.168c6.464 0 12.091 4.357 13.776 10.5H31.5a4.33 4.33 0 00-2.625.898V14A4.38 4.38 0 0024.5 9.625h-9.368c2.556-4.29 7.231-7 12.284-7zm6.709 33.25a.876.876 0 010 1.75h-12.25a.876.876 0 010-1.75h12.25zm2.348-4.433a10.474 10.474 0 012.027 6.183c0 3.1-1.358 5.88-3.5 7.804v-2.715a2.621 2.621 0 001.75-2.464c0-.675-.263-1.285-.682-1.75.42-.465.682-1.075.682-1.75 0-1.12-.707-2.07-1.696-2.447a5.062 5.062 0 011.419-2.86zm-16.946 0a5.062 5.062 0 011.419 2.861 2.621 2.621 0 00-1.696 2.447c0 .675.263 1.285.683 1.75a2.604 2.604 0 00-.683 1.75A2.62 2.62 0 0021 42.713v2.715c-2.142-1.923-3.5-4.705-3.5-7.804 0-2.227.716-4.39 2.027-6.183zM35 40.25a.876.876 0 01-.875.875h-12.25a.876.876 0 010-1.75h12.25c.483 0 .875.393.875.875zm-12.25 2.625h10.5v3.829A10.422 10.422 0 0128 48.125c-1.914 0-3.704-.523-5.25-1.421v-3.829zM7.875 13.125v2.796l-4.92-3.074a.702.702 0 010-1.194l4.92-3.075v2.797H24.5A2.628 2.628 0 0127.125 14v20.125h-1.75v-19.25c0-.965-.785-1.75-1.75-1.75H7.875zm5.412 1.75h10.338v19.25h-.938a6.822 6.822 0 00-2.165-4.163l-2.717-2.472a14.31 14.31 0 01-4.68-10.574c0-.684.065-1.366.162-2.041zm27.26 13.023l-.948 1.898.26.416a13.885 13.885 0 011.773 4.27l.11.48 2.008.669v3.989l-2.007.67-.11.478a13.885 13.885 0 01-1.773 4.27l-.261.417.949 1.897-2.822 2.82-1.896-.947-.417.26a13.865 13.865 0 01-4.27 1.773l-.48.11-.669 2.007h-3.989l-.67-2.007-.479-.11a13.888 13.888 0 01-4.27-1.772l-.418-.261-1.896.947-2.821-2.82.948-1.897-.26-.416a13.887 13.887 0 01-1.773-4.271l-.11-.479-2.006-.67V35.63l2.007-.67.11-.478c.347-1.51.944-2.946 1.773-4.27l.261-.417-.948-1.897.148-.15c.327.358.664.708 1.025 1.036l1.614 1.467a12.222 12.222 0 00-2.49 7.374c0 6.755 5.495 12.25 12.25 12.25s12.25-5.495 12.25-12.25c0-2.666-.883-5.25-2.49-7.372l1.614-1.467c.36-.328.7-.676 1.027-1.034l.146.146zm-2.35-.407l-2.718 2.47a6.822 6.822 0 00-2.165 4.164h-.939v-15.75h10.408c-.361 3.475-1.992 6.758-4.587 9.116zm14.847-11.144l-4.919 3.075v-2.797h-15.75c-.965 0-1.75.785-1.75 1.75v15.75h-1.75V17.5a2.628 2.628 0 012.625-2.625h16.625v-2.796l4.92 3.074a.701.701 0 010 1.194z" fill="url(#paint2_linear)"/><defs><linearGradient id="paint0_linear" x1="28.07" y1="4.375" x2="33.143" y2="15.636" gradientUnits="userSpaceOnUse"><stop stop-color="#EF6F2E"/><stop offset="1" stop-color="#FFC839"/></linearGradient><linearGradient id="paint1_linear" x1="24.348" y1="4.433" x2="26.084" y2="6.925" gradientUnits="userSpaceOnUse"><stop stop-color="#EF6F2E"/><stop offset="1" stop-color="#FFC839"/></linearGradient><linearGradient id="paint2_linear" x1="1.201" y1=".875" x2="47.904" y2="67.004" gradientUnits="userSpaceOnUse"><stop stop-color="#EF6F2E"/><stop offset="1" stop-color="#FFC839"/></linearGradient></defs></svg>