<svg width="85" height="85" fill="none" xmlns="http://www.w3.org/2000/svg"><path d="M62.292 36.3c-.85-2.289-2.914-3.902-5.292-4.231v-6.365l15.876-5.67L57.186 14H55v18.095a6.566 6.566 0 00-5.186 4.524L44.782 52.63a4.999 4.999 0 00-1.876-2.641l-4.787-3.419L39.802 39h2.876a7.957 7.957 0 007.152-4.415l3.804-7.587c.24-.477.366-1.012.366-1.546C54 23.548 52.452 22 50.515 22a3.433 3.433 0 00-3.087 1.908l-3.217 6.434A2.982 2.982 0 0141.528 32h-.638A6.977 6.977 0 0043 27c0-3.86-3.14-7-7-7-.117 0-.23.012-.346.018A5.987 5.987 0 0030 16c-.215 0-.431.014-.654.042A6.97 6.97 0 0023 12c-3.86 0-7 3.14-7 7 0 .034.008.067.008.1A5.009 5.009 0 0012 24c0 2.757 2.243 5 5 5h12.295a6.997 6.997 0 001.816 3h-.522a11.07 11.07 0 00-9.368 5.235l-4.725 7.678A3.32 3.32 0 0016.285 48H12v14h12.666l-1.545 6.381c-.08.333-.121.674-.121 1.014v.292A4.318 4.318 0 0027.312 74a4.333 4.333 0 004.22-3.424l3.265-15.509L37 56.535V66c0 2.206 1.794 4 4 4h33v-2.18L62.292 36.3zM57 16.071l10.124 3.894L57 23.581v-7.51zm-5.278 21.148A4.58 4.58 0 0156.108 34a4.617 4.617 0 014.31 2.997l3.834 10.321c-.335.933-1.029 2.682-1.755 2.682-.899 0-1.709-2.491-2.301-4.309-.91-2.798-1.851-5.691-4.203-5.691-2.351 0-3.292 2.893-4.201 5.691-.591 1.818-1.4 4.309-2.298 4.309-.394 0-.84-.539-1.3-1.555l3.528-11.226zM17 27c-1.654 0-3-1.346-3-3s1.346-3 3-3 3 1.346 3 3h2a5.01 5.01 0 00-3.992-4.898c0-.034-.008-.068-.008-.102 0-2.757 2.243-5 5-5a4.981 4.981 0 014.766 3.489l.288.91.922-.246A3.966 3.966 0 0130 18a3.99 3.99 0 013.66 2.411C30.949 21.377 29 23.962 29 27H17zm14 0c0-2.757 2.243-5 5-5s5 2.243 5 5-2.243 5-5 5-5-2.243-5-5zm-3.954 21h-4.224l4.948-7.776c.243-.382.573-.688.955-.898L27.046 48zm.336 2l-.04.081A7.053 7.053 0 0121 54a7.05 7.05 0 01-6.341-3.919L14.618 50h12.764zM14 52.682A9.016 9.016 0 0021 56a9.016 9.016 0 007-3.318V60H14v-7.318zM39 66v-9.465c0-.67-.333-1.292-.891-1.664L35.303 53h-2.114l-3.613 17.164A2.325 2.325 0 0127.312 72 2.316 2.316 0 0125 69.688v-.292c0-.183.022-.366.065-.544L26.724 62H30V48h-.917l2.129-11H30a4.62 4.62 0 00-3.917 2.15l-5.237 8.23c-.248.389-.67.62-1.13.62h-.378a1.34 1.34 0 01-1.14-2.039l4.725-7.678A9.06 9.06 0 0130.588 34h10.94A4.972 4.972 0 0046 31.236l3.217-6.434A1.458 1.458 0 0150.548 24a1.454 1.454 0 011.298 2.102l-3.804 7.587A5.967 5.967 0 0142.679 37h-4.481L35.88 47.429l5.864 4.188A3.009 3.009 0 0143 54.059V66c0 1.103-.897 2-2 2s-2-.897-2-2zm5.444 2A3.959 3.959 0 0045 66v-7.392l2.406-7.655c.513.582 1.188 1.047 2.088 1.047 2.351 0 3.292-2.893 4.201-5.691.591-1.818 1.4-4.309 2.298-4.309.899 0 1.709 2.491 2.301 4.309.91 2.798 1.85 5.691 4.203 5.691 1.278 0 2.147-.915 2.756-1.986L71.933 68H44.444z" fill="url(#paint0_linear)"/><path d="M67 64h2v2h-2v-2z" fill="url(#paint1_linear)"/><path d="M63 64h2v2h-2v-2z" fill="url(#paint2_linear)"/><path d="M59 64h2v2h-2v-2z" fill="url(#paint3_linear)"/><defs><linearGradient id="paint0_linear" x1="12.373" y1="12" x2="65.747" y2="87.576" gradientUnits="userSpaceOnUse"><stop stop-color="#EF6F2E"/><stop offset="1" stop-color="#FFC839"/></linearGradient><linearGradient id="paint1_linear" x1="67.012" y1="64" x2="68.734" y2="66.438" gradientUnits="userSpaceOnUse"><stop stop-color="#EF6F2E"/><stop offset="1" stop-color="#FFC839"/></linearGradient><linearGradient id="paint2_linear" x1="63.012" y1="64" x2="64.734" y2="66.438" gradientUnits="userSpaceOnUse"><stop stop-color="#EF6F2E"/><stop offset="1" stop-color="#FFC839"/></linearGradient><linearGradient id="paint3_linear" x1="59.012" y1="64" x2="60.734" y2="66.438" gradientUnits="userSpaceOnUse"><stop stop-color="#EF6F2E"/><stop offset="1" stop-color="#FFC839"/></linearGradient></defs></svg>