<svg width="24" height="24" fill="none" xmlns="http://www.w3.org/2000/svg"><g clip-path="url(#clip0)" fill="#fff"><path d="M8.682 21.835A3.632 3.632 0 0012 24a3.63 3.63 0 003.318-2.165H8.682zm3.317-19.542a8.14 8.14 0 012.784.488v-.107A2.675 2.675 0 0012.11 0h-.222a2.677 2.677 0 00-2.673 2.674v.105a8.17 8.17 0 012.784-.486zm8.791 18.134H3.212a.716.716 0 01-.706-.55.683.683 0 01.376-.777c.07-.046.602-.418 1.135-1.544C4.996 15.49 5.2 12.58 5.2 10.502c0-3.75 3.05-6.8 6.8-6.8a6.807 6.807 0 016.8 6.8c0 2.078.205 4.99 1.183 7.056.533 1.125 1.065 1.497 1.135 1.543a.683.683 0 01.376.777.716.716 0 01-.706.55zm.337-1.322z"/></g><defs><clipPath id="clip0"><path fill="#fff" d="M0 0h24v24H0z"/></clipPath></defs></svg>