<svg width="16" height="16" fill="none" xmlns="http://www.w3.org/2000/svg"><g clip-path="url(#clip0)"><path d="M2.329 15.044H1.195l.802-.802c.432-.432.702-.994.775-1.604-1.128-.74-1.953-1.714-2.395-2.83-.44-1.117-.496-2.345-.16-3.554.404-1.45 1.35-2.77 2.665-3.72C4.312 1.502 6.09.956 8.027.956c2.44 0 4.496.701 5.946 2.027C15.28 4.178 16 5.789 16 7.52c0 .842-.171 1.66-.509 2.433a6.26 6.26 0 01-1.521 2.117c-1.453 1.331-3.508 2.035-5.943 2.035-.904 0-1.848-.12-2.69-.342a4.2 4.2 0 01-3.008 1.281zM8.027 1.895c-3.884 0-6.266 2.316-6.905 4.611-.604 2.17.286 4.219 2.38 5.483l.235.14-.008.274a3.698 3.698 0 01-.374 1.532 3.327 3.327 0 001.471-1.006l.199-.235.294.088a9.715 9.715 0 002.708.384c4.833 0 7.034-2.927 7.034-5.646 0-1.464-.611-2.83-1.721-3.844-1.275-1.165-3.112-1.78-5.313-1.78z" fill="#494C52"/></g><defs><clipPath id="clip0"><path fill="#fff" d="M0 0h16v16H0z"/></clipPath></defs></svg>