<svg version="1.1" id="Layer_5" xmlns="http://www.w3.org/2000/svg" x="0" y="0" viewBox="0 0 512 512" xml:space="preserve"><style>.st0{fill:#fff}.st1{fill:#131313}.st2{fill:#ff3500}</style><path class="st0" d="M481.8 415.1H44.1c-5.7 0-10.3-4.6-10.3-10.3V304.6c0-5.7 4.6-10.3 10.3-10.3h437.7c5.7 0 10.3 4.6 10.3 10.3v100.2c0 5.7-4.6 10.3-10.3 10.3z"/><path class="st0" d="M469.4 298.7l-165.2 11.1 3.9-110.2 131.4-6.7z"/><path class="st1" d="M480.4 288l-10.7-5.3-10.9-65.2c-3.2-19.4-19.8-33.4-39.5-33.4h-84.9c-13 0-24.5 6.3-31.8 16h-24.2v-80h-48V40h-112v80h-48v80h-48v80c-8.8 0-16 7.2-16 16v16c0 8.8 7.2 16 16 16v72c0 13.2 10.8 24 24 24H87c-.4-2.6-.6-5.3-.6-8s.3-5.4.6-8H46.5c-4.4 0-8-3.6-8-8v-8h38.2l12-48H38.5v-16h256v80h-96.6c.4 2.6.6 5.3.6 8s-.3 5.4-.6 8h145.3c-.4-2.6-.6-5.3-.6-8s.3-5.4.6-8h-.6v-96h80v53.5c6 2.9 11.4 6.7 16 11.4V272l-7.9-42.9c-1.4-7.6-8-13.1-15.7-13.1h-72.4c-8.8 0-16 7.2-16 16v176h-16V224c0-13.2 10.8-24 24-24h84.9c11.8 0 21.7 8.4 23.7 20.1l12.2 73.3 18 9c8.2 4.1 13.3 12.3 13.3 21.5v4.2h-32V365l32 16v19c0 4.4-3.6 8-8 8h-24.6c.4 2.6.6 5.3.6 8s-.3 5.4-.6 8h24.6c13.2 0 24-10.8 24-24v-76.2c-.2-15.3-8.7-29-22.3-35.8z"/><path class="st2" d="M68.3 360l-4 16H38.5v-16z"/><path class="st0" d="M414.5 296h-8c-8.8 0-16-7.2-16-16h32v16h-8z"/><path class="st0" d="M414.9 232l6 32h-30.4c-8.8 0-16 7.2-16 16 0 5.9 1.7 11.3 4.4 16h-36.4v-64h72.4zm-120.4-8v56h-64v-64h64.8c-.5 2.6-.8 5.3-.8 8zm-160-8h80v64h-80zm128-16h-80v-64h80zm-128-144h80v64h-80zm-48 80h80v64h-80zm-48 80h80v64h-80z"/><path class="st2" d="M22.5 296h272v16h-272zm448 59.1V344h16v19.1z"/><circle class="st0" cx="398.5" cy="416" r="24"/><circle class="st0" cx="398.5" cy="416" r="8"/><circle class="st0" cx="142.5" cy="416" r="24"/><circle class="st0" cx="142.5" cy="416" r="8"/><path class="st2" d="M152 168h-48v-40h48v40zm96 0h-48v-40h48v40zm56 80h-56v-40h56v40zm-104 0h-48v-40h48v40zm-96 0H56v-40h48v40zm296 224c-30.9 0-56-25.1-56-56s25.1-56 56-56 56 25.1 56 56-25.1 56-56 56zm0-72c-8.8 0-16 7.2-16 16s7.2 16 16 16 16-7.2 16-16-7.2-16-16-16zm-256 72c-30.9 0-56-25.1-56-56s25.1-56 56-56 56 25.1 56 56-25.1 56-56 56zm0-72c-8.8 0-16 7.2-16 16s7.2 16 16 16 16-7.2 16-16-7.2-16-16-16zm56-312h-48V48h48v40z"/><path class="st1" d="M481.9 288l-10.7-5.3-10.9-65.2c-3.2-19.4-19.8-33.4-39.5-33.4H336c-13 0-24.5 6.3-31.8 16H280v-80h-48V40H120v80H72v80H24v80c-8.8 0-16 7.2-16 16v16c0 8.8 7.2 16 16 16v72c0 13.2 10.8 24 24 24h40.6c-.4-2.6-.6-5.3-.6-8s.3-5.4.6-8H48c-4.4 0-8-3.6-8-8v-8h38.2l12-48H40v-16h256v80h-96.6c.4 2.6.6 5.3.6 8s-.3 5.4-.6 8h145.3c-.4-2.6-.6-5.3-.6-8s.3-5.4.6-8h-.7v-96h80v53.5c6 2.9 11.4 6.7 16 11.4V272l-7.9-42.9c-1.4-7.6-8-13.1-15.7-13.1H344c-8.8 0-16 7.2-16 16v176h-16V224c0-13.2 10.8-24 24-24h84.9c11.8 0 21.7 8.4 23.7 20.1l12.2 73.3 18 9c8.2 4.1 13.3 12.3 13.3 21.5v4.2h-32V365l32 16v19c0 4.4-3.6 8-8 8h-24.6c.4 2.6.6 5.3.6 8s-.3 5.4-.6 8H480c13.2 0 24-10.8 24-24v-76.2c0-15.3-8.5-29-22.1-35.8zM69.8 360l-4 16H40v-16h29.8zM416 296h-8c-8.8 0-16-7.2-16-16h32v16h-8zm.4-64l6 32H392c-8.8 0-16 7.2-16 16 0 5.9 1.7 11.3 4.4 16H344v-64h72.4zM296 224v56h-64v-64h64.8c-.5 2.6-.8 5.3-.8 8zm-80-8v64h-80v-64h80zm48-16h-80v-64h80v64zM136 56h80v64h-80V56zm-48 80h80v64H88v-64zm-48 80h80v64H40v-64zm-16 96v-16h272v16H24zm448 43.1V344h16v19.1l-16-8z"/><path class="st1" d="M400 392c-13.2 0-24 10.8-24 24s10.8 24 24 24 24-10.8 24-24-10.8-24-24-24zm0 32c-4.4 0-8-3.6-8-8s3.6-8 8-8 8 3.6 8 8-3.6 8-8 8zm-256-32c-13.2 0-24 10.8-24 24s10.8 24 24 24 24-10.8 24-24-10.8-24-24-24zm0 32c-4.4 0-8-3.6-8-8s3.6-8 8-8 8 3.6 8 8-3.6 8-8 8z"/></svg>