<svg version="1.1" id="Layer_5" xmlns="http://www.w3.org/2000/svg" x="0" y="0" viewBox="0 0 512 658.3" xml:space="preserve"><style>.st0{fill:#fff}.st1{fill:#ff3500}.st2{fill:#131313}</style><path class="st0" d="M488 634.3v-240h-16v-32h-16v-48h-16v-32h-16v32h-16v48h-16V184.6l-48 9.6v-23.8h-16v27l-16 3.2v-46.2h-16v49.4l-16 3.2v-36.6h-16v39.8l-48 9.6v46.6H72v16h16v96.7c-2.6-.4-5.3-.7-8-.7-30.9 0-56 28.7-56 64 0 32.2 20.9 58.8 48 63.3V516c-6.7-6.1-15-9.7-24-9.7-22.1 0-40 21.5-40 48 0 23.2 13.8 42.6 32 47v33H8v16h496v-16h-16z"/><path class="st0" d="M136 626.3c0-13.2 10.8-24 24-24 8.6 0 16.7 4.7 20.9 12.2l2.5 4.4 8.6-.6c2.4 0 4.8.5 7.6 1.4l7.8 2.6 2.4-7.8c5.2-16.8 20.6-28.2 38.2-28.2 14.5 0 28 7.9 35 20.7l5 9.1 7.5-7.1c9-8.5 23.9-8.5 32.9 0l7.5 7.1 5-9.1c7.1-12.8 20.5-20.7 35-20.7 17.4 0 32.6 11.1 38 27.6l2.2 6.9 7.1-1.6c15.9-3.5 31.4 3 40.5 15H137.6c-1-2.5-1.6-5.1-1.6-7.9z"/><path class="st0" d="M472 410.3v209.1c-4.6-4.8-10-8.7-16-11.5V426.3H344v154.2c-4.5 3.1-8.6 6.9-12 11.2-1.3-.7-2.6-1.4-4-2V410.3h144z"/><path class="st0" d="M376 570.3c-5.5 0-10.9.9-16 2.4V442.3h32v130.3c-5.1-1.5-10.5-2.3-16-2.3zm32-128h32v160.8c-4.3-.6-8.8-.9-13.3-.5-4.2-9.1-10.8-16.6-18.7-22.1V442.3zm-64-64h112v16H344zm80-48h16v32h-16z"/><path class="st0" d="M376 204.1v158.2h-48v32h-16v192.1c-7 0-13.9 1.8-20 5.3a55.929 55.929 0 00-44-21.4c-5.5 0-10.9.8-16 2.3V232.9l144-28.8zm-272 78.2h112v298.1c-8 5.6-14.6 13.1-18.8 22.3-1.7-.2-3.4-.4-5.2-.4-7.5-10-19.4-16-32-16-22.1 0-40 17.9-40 40 0 2.7.4 5.4.9 8H88v-29l48-56v-19.7c27.1-4.5 48-31.1 48-63.3 0-24.1-11.7-45.1-29-56h13v-16h-16v14.3c-7.3-4-15.4-6.3-24-6.3-1.4 0-2.8.1-4.2.2-5.3-7.6-12.1-13.7-19.8-18V282.3z"/><path class="st0" d="M136 442.3c0-8.4-1.5-16.4-4-23.8 20.2 2.4 36 22.9 36 47.8 0 26.5-17.9 48-40 48-10.1 0-19.7-4.6-27-12.7 20.5-9.5 35-32.5 35-59.3zM88 511c8.6 10.1 19.8 16.6 32 18.6v13.8l-32 37.3V511z"/><path class="st0" d="M40 442.3c0-26.5 17.9-48 40-48s40 21.5 40 48c0 23.2-13.8 42.6-32 47v-55H72v55c-18.2-4.4-32-23.8-32-47z"/><ellipse class="st0" cx="48" cy="554.3" rx="24" ry="32"/><path class="st0" d="M56 601.4c5.9-1.4 11.3-4.5 16-8.7v41.7H56v-33zm128-303.1h16v16h-16v-16zm-32 0h16v16h-16v-16zm-32 0h16v16h-16v-16zm32 32h16v16h-16v-16zm-32 0h16v16h-16v-16zm64 0h16v16h-16v-16zm0 32h16v16h-16v-16zm-64 0h16v16h-16v-16zm32 0h16v16h-16v-16zm32 32h16v16h-16v-16z"/><path class="st1" d="M120 298.3v80h32v32h48v-112h-80zm176 16h-48v-64h48v64zm0 80h-48v-64h48v64zm0 80h-48v-64h48v64zm0 80h-48v-64h48v64zm64-240h-48v-64h48v64z"/><path class="st2" d="M488 634.3v-240h-16v-32h-16v-48h-16v-32h-16v32h-16v48h-16V184.6l-48 9.6v-23.8h-16v27l-16 3.2v-46.2h-16v49.4l-16 3.2v-36.6h-16v39.8l-48 9.6v46.6H72v16h16v96.7c-2.6-.4-5.3-.7-8-.7-30.9 0-56 28.7-56 64 0 32.2 20.9 58.8 48 63.3V516c-6.7-6.1-15-9.7-24-9.7-22.1 0-40 21.5-40 48 0 23.2 13.8 42.6 32 47v33H8v16h496v-16h-16zm-352-8c0-13.2 10.8-24 24-24 8.6 0 16.7 4.7 20.9 12.2l2.5 4.4 8.6-.6c2.4 0 4.8.5 7.6 1.4l7.8 2.6 2.4-7.8c5.2-16.8 20.6-28.2 38.2-28.2 14.5 0 28 7.9 35 20.7l5 9.1 7.5-7.1c9-8.5 23.9-8.5 32.9 0l7.5 7.1 5-9.1c7.1-12.8 20.5-20.7 35-20.7 17.4 0 32.6 11.1 38 27.6l2.2 6.9 7.1-1.6c15.9-3.5 31.4 3 40.5 15H137.6c-1-2.5-1.6-5.1-1.6-7.9zm336-216v209.1c-4.6-4.8-10-8.7-16-11.5V426.3H344v154.2c-4.5 3.1-8.6 6.9-12 11.2-1.3-.7-2.6-1.4-4-2V410.3h144zm-96 160c-5.5 0-10.9.9-16 2.4V442.3h32v130.3c-5.1-1.5-10.5-2.3-16-2.3zm32-128h32v160.8c-4.3-.6-8.8-.9-13.3-.5-4.2-9.1-10.8-16.6-18.7-22.1V442.3zm-64-48v-16h112v16H344zm80-64h16v32h-16v-32zm-48-126.2v158.2h-48v32h-16v192.1c-7 0-13.9 1.8-20 5.3a55.929 55.929 0 00-44-21.4c-5.5 0-10.9.8-16 2.3V232.9l144-28.8zm-272 78.2h112v298.1c-8 5.6-14.6 13.1-18.8 22.3-1.7-.2-3.4-.4-5.2-.4-7.5-10-19.4-16-32-16-22.1 0-40 17.9-40 40 0 2.7.4 5.4.9 8H88v-29l48-56v-19.7c27.1-4.5 48-31.1 48-63.3 0-24.1-11.7-45.1-29-56h13v-16h-16v14.3c-7.3-4-15.4-6.3-24-6.3-1.4 0-2.8.1-4.2.2-5.3-7.6-12.1-13.7-19.8-18V282.3zm32 160c0-8.4-1.5-16.4-4-23.8 20.2 2.4 36 22.9 36 47.8 0 26.5-17.9 48-40 48-10.1 0-19.7-4.6-27-12.7 20.5-9.5 35-32.5 35-59.3zM88 511c8.6 10.1 19.8 16.6 32 18.6v13.8l-32 37.3V511zm-48-68.7c0-26.5 17.9-48 40-48s40 21.5 40 48c0 23.2-13.8 42.6-32 47v-55H72v55c-18.2-4.4-32-23.8-32-47zm-16 112c0-17.6 10.8-32 24-32s24 14.4 24 32-10.8 32-24 32-24-14.3-24-32zm32 47.1c5.9-1.4 11.3-4.5 16-8.7v41.7H56v-33z"/><path class="st2" d="M184 298.3h16v16h-16v-16zm-32 0h16v16h-16v-16zm-32 0h16v16h-16v-16zm32 32h16v16h-16v-16zm-32 0h16v16h-16v-16zm64 0h16v16h-16v-16zm0 32h16v16h-16v-16zm-64 0h16v16h-16v-16zm32 0h16v16h-16v-16zm32 32h16v16h-16v-16z"/><path class="st1" d="M170 200.2l-69.5-55.6C88.9 135.3 82 120.7 82 105.4c0-16.4 7.7-31.7 20.6-40.8l2.2-1.6c8.3-5.9 17.9-9 27.8-9 13.2 0 26.1 5.7 35.4 15.6l1.9 2 1.9-2C181.1 59.7 194 54 207.2 54c10 0 19.6 3.1 27.8 9l2.3 1.6c13 9.1 20.7 24.4 20.7 40.8 0 15.3-6.9 30-18.5 39.2L170 200.2z"/></svg>