<svg width="85" height="85" fill="none" xmlns="http://www.w3.org/2000/svg"><g clip-path="url(#clip0)"><path d="M72.308 74.961a16.598 16.598 0 00-4.7-5.705 1.66 1.66 0 10-2.025 2.632 13.259 13.259 0 013.754 4.557 1.66 1.66 0 002.97-1.484z" fill="url(#paint0_linear)"/><path d="M60.762 65.742a1.66 1.66 0 100 3.322 1.66 1.66 0 000-3.322z" fill="url(#paint1_linear)"/><path d="M64.85 60.374l-7.891-2.63-2.833-5.666c2.552-2.597 4.324-6.034 4.921-9.619l.354-2.117h3.02a4.986 4.986 0 004.981-4.98v-10.46C67.402 11.172 56.232 0 42.5 0 28.734 0 17.598 11.14 17.598 24.902v10.46a4.989 4.989 0 003.32 4.694v1.946a4.986 4.986 0 004.98 4.98h1.458a18.011 18.011 0 002.785 4.313c.235.27.48.532.732.787l-2.832 5.662-7.89 2.63C10.976 63.434 4.316 73.092 4.316 83.34c0 .917.744 1.66 1.66 1.66h73.047a1.66 1.66 0 001.66-1.66c0-10.248-6.659-19.907-15.834-22.966zm-.768-25.013c0 .916-.745 1.66-1.66 1.66h-2.534c.422-3.268.703-6.747.816-10.173l.01-.285h3.368v8.798zm-41.504 1.66c-.915 0-1.66-.744-1.66-1.66v-8.798h3.37l.017.522.001.018v.001c.116 3.332.394 6.72.806 9.917h-2.534zm3.32 6.641c-.915 0-1.66-.745-1.66-1.66v-1.66H25.6l.354 2.118c.067.403.15.804.246 1.202h-.3zm-1.657-20.42h-3.26C21.821 12.116 31.108 3.32 42.5 3.32c11.342 0 20.668 8.794 21.519 19.922h-3.26c-.12-9.168-7.586-16.601-16.773-16.601h-2.972c-9.187 0-16.654 7.433-16.773 16.601zM41.014 9.961h2.972c7.439 0 13.46 6.085 13.455 13.515 0 .523-.004.978-.013 1.392v.016l-2.076-.297a26.677 26.677 0 01-14.998-7.5 1.66 1.66 0 00-1.174-.485 15.02 15.02 0 00-11.548 5.463c.695-6.76 6.41-12.104 13.382-12.104zM29.64 43.662c-.83-2.765-1.782-10.9-1.992-16.112l2.235-2.98a11.686 11.686 0 018.64-4.63 30.028 30.028 0 0016.36 7.934l2.443.35a102.19 102.19 0 01-.975 10.146v.003c-.153 1.029-.273 1.69-.579 3.54-.879 5.274-4.814 10.042-10.008 11.341-2.138.534-4.39.534-6.527 0-3.243-.81-6.217-3.055-8.137-6.272h3.385a4.988 4.988 0 004.695 3.32h3.32a4.979 4.979 0 004.98-4.98 4.986 4.986 0 00-4.98-4.98h-3.32a4.983 4.983 0 00-4.698 3.32H29.64zm9.4 12.952c1.139.24 2.3.363 3.46.363.908 0 1.817-.076 2.715-.224l-2.934 3.102-3.24-3.241zm.96 5.655l-5.266 5.569a63.242 63.242 0 01-3.717-8.62l1.978-3.954L40 62.269zm11.726-7.568l2.258 4.517a63.242 63.242 0 01-3.717 8.622l-5.636-5.636 7.095-7.503zM37.52 45.322c0-.916.744-1.66 1.66-1.66h3.32a1.66 1.66 0 010 3.32h-3.32c-.916 0-1.66-.744-1.66-1.66zM7.704 81.68c.658-8.225 6.131-15.7 13.498-18.156l6.988-2.33a66.554 66.554 0 004.725 10.25l.01.017a66.555 66.555 0 004.544 6.94l2.042 3.279H7.703zM42.5 80.2l-2.252-3.615a1.662 1.662 0 00-.08-.118 63.306 63.306 0 01-3.74-5.588l5.92-6.261 6.238 6.238a63.213 63.213 0 01-3.753 5.61c-.082.11.034-.062-2.333 3.734zm2.99 1.48l2.042-3.279a66.547 66.547 0 004.576-6.994l.025-.044.002-.006a66.486 66.486 0 004.676-10.162l6.988 2.329c7.367 2.456 12.84 9.931 13.498 18.156H45.49z" fill="url(#paint2_linear)"/></g><defs><linearGradient id="paint0_linear" x1="60.169" y1="63.034" x2="72.529" y2="78.382" gradientUnits="userSpaceOnUse"><stop stop-color="#EF6F2E"/><stop offset="1" stop-color="#FFC839"/></linearGradient><linearGradient id="paint1_linear" x1="57.303" y1="62.556" x2="61.632" y2="69.943" gradientUnits="userSpaceOnUse"><stop stop-color="#EF6F2E"/><stop offset="1" stop-color="#FFC839"/></linearGradient><linearGradient id="paint2_linear" x1="4.775" y1="0" x2="80.225" y2="95.983" gradientUnits="userSpaceOnUse"><stop stop-color="#EF6F2E"/><stop offset="1" stop-color="#FFC839"/></linearGradient><clipPath id="clip0"><path fill="#fff" d="M0 0h85v85H0z"/></clipPath></defs></svg>