<svg width="16" height="16" fill="none" xmlns="http://www.w3.org/2000/svg"><path d="M12.25 16h-8.5A3.754 3.754 0 010 12.25v-8.5A3.754 3.754 0 013.75 0h8.5A3.754 3.754 0 0116 3.75v8.5A3.754 3.754 0 0112.25 16zM3.75 1.25a2.503 2.503 0 00-2.5 2.5v8.5c0 1.379 1.122 2.5 2.5 2.5h8.5c1.379 0 2.5-1.121 2.5-2.5v-8.5c0-1.378-1.121-2.5-2.5-2.5h-8.5zm8.656 1.563a.781.781 0 100 1.562.781.781 0 000-1.563zM8 12.063A4.067 4.067 0 013.937 8c.224-5.39 7.903-5.388 8.126 0A4.067 4.067 0 018 12.063zm0-6.876A2.816 2.816 0 005.187 8c.155 3.731 5.472 3.73 5.625 0A2.816 2.816 0 008 5.187z" fill="#85878E"/></svg>