<svg width="16" height="16" fill="none" xmlns="http://www.w3.org/2000/svg"><path d="M14.833 2.321A4.054 4.054 0 0011.75.933c-1.686 0-2.753 1.006-3.352 1.851A6.37 6.37 0 008 3.43a6.131 6.131 0 00-.398-.646C7.003 1.94 5.936.933 4.25.933A4.054 4.054 0 001.167 2.32C.415 3.175 0 4.32 0 5.542c0 1.332.52 2.57 1.636 3.897.997 1.187 2.432 2.41 4.094 3.825.619.528 1.26 1.074 1.94 1.67l.021.018a.468.468 0 00.618 0l.02-.018c.682-.596 1.322-1.142 1.941-1.67 1.662-1.416 3.097-2.638 4.094-3.825C15.48 8.112 16 6.874 16 5.542c0-1.223-.415-2.367-1.167-3.22zm-5.17 10.23c-.534.454-1.084.923-1.663 1.426-.58-.503-1.129-.972-1.662-1.426C3.086 9.78.938 7.949.938 5.542c0-.994.33-1.918.933-2.6A3.13 3.13 0 014.25 1.869c1.285 0 2.116.792 2.587 1.456.422.596.642 1.196.717 1.427a.469.469 0 00.892 0c.075-.23.295-.831.717-1.427.47-.664 1.302-1.456 2.587-1.456.926 0 1.77.38 2.38 1.071.601.683.932 1.607.932 2.601 0 2.407-2.148 4.238-5.4 7.009z" fill="#494C52"/></svg>