<svg width="121" height="40" fill="none" xmlns="http://www.w3.org/2000/svg"><path d="M5.15 10.321v19.375H0V10.32h5.15zm24.597 0v4.624h-7.535v14.75h-5.15v-14.75H9.527v-4.624h20.22zm9.563 0v14.751h12.788v4.624H34.16V10.32h5.15zm22.178 0v19.375h-5.15V10.32h5.15zm9.669 0l10.374 11.702V10.32h5.15v19.375h-4.74L71.545 17.994v11.702h-5.081V10.32h4.692zm38.301 0v4.624H96.773v2.627h11.387v4.623H96.773v2.735h13.138v4.766H91.623V10.32h17.835z" fill="#fff"/><path d="M115.497 0v.004h-48.35l-5.711 5.15h54.061V34.85H28.445L22.738 40h97.908V0h-5.149z" fill="#fff"/></svg>