<svg width="56" height="56" fill="none" xmlns="http://www.w3.org/2000/svg"><path d="M49 24.57v-2.197a4.016 4.016 0 001.75-3.325V12.25a.875.875 0 00.875-.875v-1.75a7.875 7.875 0 00-15.75 0v.875H31.5a.875.875 0 100 1.75h5.25v4.375A6.134 6.134 0 0042 22.688V24.5h-.875A6.133 6.133 0 0035 30.625v6.125h-1.75V18.375a.875.875 0 00-.875-.875h-24.5a.875.875 0 00-.875.875v21a.875.875 0 00.875.875h7.963a4.383 4.383 0 004.287 3.5h2.625v2.625a.875.875 0 00.875.875h5.25a.875.875 0 00.875-.875V45.5H35v7.875a.875.875 0 00.875.875h17.5a.875.875 0 00.875-.875v-22.75A6.13 6.13 0 0049 24.57zM37.625 9.625a6.125 6.125 0 1112.25 0v.875h-12.25v-.875zm7 11.375h-1.75a4.38 4.38 0 01-4.375-4.375V12.25H49v6.794a2.275 2.275 0 01-1.266 2.048.875.875 0 00-.484.783V24.5h-3.5v-1.75h.875a.875.875 0 100-1.75zm-22.75-1.75v6.24l-1.264-.843a.875.875 0 00-.972 0l-1.264.843v-6.24h3.5zm-13.125 0h7.875v7.875a.875.875 0 001.36.728l2.14-1.428 2.14 1.426a.874.874 0 001.36-.726V19.25H31.5v17.5h-1.75v-.875a.875.875 0 00-.875-.875h-5.25a.875.875 0 00-.875.875V38.5h-14V19.25zM20.125 42a2.63 2.63 0 01-2.475-1.75h5.1V42h-2.625zM28 45.5h-3.5v-8.75H28v8.75zm1.75-7h9.625A2.625 2.625 0 0042 35.875v-3.5a2.625 2.625 0 015.25 0v5.25a6.133 6.133 0 01-6.125 6.125H29.75V38.5zm11.375 7A7.883 7.883 0 0049 37.625v-5.25a4.375 4.375 0 10-8.75 0v3.5a.875.875 0 01-.875.875H36.75v-6.125a4.38 4.38 0 014.375-4.375h7a4.38 4.38 0 014.375 4.375V49H36.75v-3.5h4.375zm11.375 7H36.75v-1.75H52.5v1.75z" fill="url(#paint0_linear)"/><defs><linearGradient id="paint0_linear" x1="7.284" y1="1.75" x2="53.866" y2="61.112" gradientUnits="userSpaceOnUse"><stop stop-color="#EF6F2E"/><stop offset="1" stop-color="#FFC839"/></linearGradient></defs></svg>