<svg width="56" height="56" fill="none" xmlns="http://www.w3.org/2000/svg"><path d="M51.625 22.75H31.5v-.875a.875.875 0 00-.875-.875H28v-1.75h8.75A5.256 5.256 0 0042 14v-2.625a.875.875 0 00-.875-.875H33.25V7A5.256 5.256 0 0028 1.75H9.625A4.38 4.38 0 005.25 6.125v6.213a4.383 4.383 0 00-3.5 4.287v33.25a4.38 4.38 0 004.375 4.375h17.5A4.38 4.38 0 0028 49.875V45.5h2.625a.875.875 0 00.875-.875v-.875h20.125a2.625 2.625 0 002.625-2.625v-15.75a2.625 2.625 0 00-2.625-2.625zM40.25 14a3.5 3.5 0 01-7 0v-1.75h7V14zM7 6.125A2.625 2.625 0 019.625 3.5H24.09A5.229 5.229 0 0022.75 7v12.25H7V6.125zm19.25 43.75a2.625 2.625 0 01-2.625 2.625h-17.5A2.625 2.625 0 013.5 49.875v-33.25a2.625 2.625 0 011.75-2.464v5.964a.875.875 0 00.875.875h17.5a.875.875 0 00.875-.875v-5.964a2.625 2.625 0 011.75 2.464v33.25zM24.5 12.337V7a3.5 3.5 0 117 0v7c0 1.293.48 2.54 1.347 3.5H28v-.875a4.383 4.383 0 00-3.5-4.287zm5.25 31.413H28v-21h1.75v21zM51.625 24.5a.875.875 0 01.875.875V28h-21v-3.5h20.125zm0 17.5H31.5V29.75h21v11.375a.875.875 0 01-.875.875z" fill="url(#paint0_linear)"/><path d="M9.625 31.5h-3.5a.875.875 0 00-.875.875v3.5a.875.875 0 00.875.875h3.5a.875.875 0 00.875-.875v-3.5a.875.875 0 00-.875-.875zM8.75 35H7v-1.75h1.75V35z" fill="url(#paint1_linear)"/><path d="M16.625 31.5h-3.5a.875.875 0 00-.875.875v3.5a.875.875 0 00.875.875h3.5a.875.875 0 00.875-.875v-3.5a.875.875 0 00-.875-.875zM15.75 35H14v-1.75h1.75V35z" fill="url(#paint2_linear)"/><path d="M23.625 31.5h-3.5a.875.875 0 00-.875.875v3.5a.875.875 0 00.875.875h3.5a.875.875 0 00.875-.875v-3.5a.875.875 0 00-.875-.875zM22.75 35H21v-1.75h1.75V35z" fill="url(#paint3_linear)"/><path d="M9.625 38.5h-3.5a.875.875 0 00-.875.875v3.5a.875.875 0 00.875.875h3.5a.875.875 0 00.875-.875v-3.5a.875.875 0 00-.875-.875zM8.75 42H7v-1.75h1.75V42z" fill="url(#paint4_linear)"/><path d="M16.625 38.5h-3.5a.875.875 0 00-.875.875v3.5a.875.875 0 00.875.875h3.5a.875.875 0 00.875-.875v-3.5a.875.875 0 00-.875-.875zM15.75 42H14v-1.75h1.75V42z" fill="url(#paint5_linear)"/><path d="M23.625 38.5h-3.5a.875.875 0 00-.875.875v3.5a.875.875 0 00.875.875h3.5a.875.875 0 00.875-.875v-3.5a.875.875 0 00-.875-.875zM22.75 42H21v-1.75h1.75V42z" fill="url(#paint6_linear)"/><path d="M9.625 45.5h-3.5a.875.875 0 00-.875.875v3.5a.875.875 0 00.875.875h3.5a.875.875 0 00.875-.875v-3.5a.875.875 0 00-.875-.875zM8.75 49H7v-1.75h1.75V49z" fill="url(#paint7_linear)"/><path d="M16.625 45.5h-3.5a.875.875 0 00-.875.875v3.5a.875.875 0 00.875.875h3.5a.875.875 0 00.875-.875v-3.5a.875.875 0 00-.875-.875zM15.75 49H14v-1.75h1.75V49z" fill="url(#paint8_linear)"/><path d="M23.625 45.5h-3.5a.875.875 0 00-.875.875v3.5a.875.875 0 00.875.875h3.5a.875.875 0 00.875-.875v-3.5a.875.875 0 00-.875-.875zM22.75 49H21v-1.75h1.75V49z" fill="url(#paint9_linear)"/><path d="M23.625 24.5h-17.5a.875.875 0 00-.875.875v3.5a.875.875 0 00.875.875h17.5a.875.875 0 00.875-.875v-3.5a.875.875 0 00-.875-.875zM22.75 28H7v-1.75h15.75V28z" fill="url(#paint10_linear)"/><path d="M48.125 35a2.608 2.608 0 00-1.75.682 2.625 2.625 0 100 3.886A2.624 2.624 0 1048.125 35zm-3.5 3.5a.875.875 0 110-1.75.875.875 0 010 1.75zm3.5 0a.875.875 0 110-1.75.875.875 0 010 1.75z" fill="url(#paint11_linear)"/><path d="M8.75 7h1.75v1.75H8.75V7z" fill="url(#paint12_linear)"/><path d="M12.25 7H21v1.75h-8.75V7z" fill="url(#paint13_linear)"/><path d="M8.75 10.5H21v1.75H8.75V10.5z" fill="url(#paint14_linear)"/><path d="M8.75 14H21v1.75H8.75V14z" fill="url(#paint15_linear)"/><defs><linearGradient id="paint0_linear" x1="2.065" y1="1.75" x2="47.262" y2="65.746" gradientUnits="userSpaceOnUse"><stop stop-color="#EF6F2E"/><stop offset="1" stop-color="#FFC839"/></linearGradient><linearGradient id="paint1_linear" x1="5.282" y1="31.5" x2="9.801" y2="37.9" gradientUnits="userSpaceOnUse"><stop stop-color="#EF6F2E"/><stop offset="1" stop-color="#FFC839"/></linearGradient><linearGradient id="paint2_linear" x1="12.281" y1="31.5" x2="16.801" y2="37.9" gradientUnits="userSpaceOnUse"><stop stop-color="#EF6F2E"/><stop offset="1" stop-color="#FFC839"/></linearGradient><linearGradient id="paint3_linear" x1="19.282" y1="31.5" x2="23.801" y2="37.9" gradientUnits="userSpaceOnUse"><stop stop-color="#EF6F2E"/><stop offset="1" stop-color="#FFC839"/></linearGradient><linearGradient id="paint4_linear" x1="5.282" y1="38.5" x2="9.801" y2="44.9" gradientUnits="userSpaceOnUse"><stop stop-color="#EF6F2E"/><stop offset="1" stop-color="#FFC839"/></linearGradient><linearGradient id="paint5_linear" x1="12.281" y1="38.5" x2="16.801" y2="44.9" gradientUnits="userSpaceOnUse"><stop stop-color="#EF6F2E"/><stop offset="1" stop-color="#FFC839"/></linearGradient><linearGradient id="paint6_linear" x1="19.282" y1="38.5" x2="23.801" y2="44.9" gradientUnits="userSpaceOnUse"><stop stop-color="#EF6F2E"/><stop offset="1" stop-color="#FFC839"/></linearGradient><linearGradient id="paint7_linear" x1="5.282" y1="45.5" x2="9.801" y2="51.9" gradientUnits="userSpaceOnUse"><stop stop-color="#EF6F2E"/><stop offset="1" stop-color="#FFC839"/></linearGradient><linearGradient id="paint8_linear" x1="12.281" y1="45.5" x2="16.801" y2="51.9" gradientUnits="userSpaceOnUse"><stop stop-color="#EF6F2E"/><stop offset="1" stop-color="#FFC839"/></linearGradient><linearGradient id="paint9_linear" x1="19.282" y1="45.5" x2="23.801" y2="51.9" gradientUnits="userSpaceOnUse"><stop stop-color="#EF6F2E"/><stop offset="1" stop-color="#FFC839"/></linearGradient><linearGradient id="paint10_linear" x1="5.366" y1="24.5" x2="7.147" y2="33.748" gradientUnits="userSpaceOnUse"><stop stop-color="#EF6F2E"/><stop offset="1" stop-color="#FFC839"/></linearGradient><linearGradient id="paint11_linear" x1="42.037" y1="35" x2="45.474" y2="43.14" gradientUnits="userSpaceOnUse"><stop stop-color="#EF6F2E"/><stop offset="1" stop-color="#FFC839"/></linearGradient><linearGradient id="paint12_linear" x1="8.761" y1="7" x2="10.267" y2="9.133" gradientUnits="userSpaceOnUse"><stop stop-color="#EF6F2E"/><stop offset="1" stop-color="#FFC839"/></linearGradient><linearGradient id="paint13_linear" x1="12.303" y1="7" x2="12.745" y2="10.135" gradientUnits="userSpaceOnUse"><stop stop-color="#EF6F2E"/><stop offset="1" stop-color="#FFC839"/></linearGradient><linearGradient id="paint14_linear" x1="8.824" y1="10.5" x2="9.143" y2="13.665" gradientUnits="userSpaceOnUse"><stop stop-color="#EF6F2E"/><stop offset="1" stop-color="#FFC839"/></linearGradient><linearGradient id="paint15_linear" x1="8.824" y1="14" x2="9.143" y2="17.165" gradientUnits="userSpaceOnUse"><stop stop-color="#EF6F2E"/><stop offset="1" stop-color="#FFC839"/></linearGradient></defs></svg>