<svg width="56" height="56" fill="none" xmlns="http://www.w3.org/2000/svg"><g clip-path="url(#clip0)"><path d="M25.556 40.746h-2.052a.82.82 0 000 1.64h2.052a.82.82 0 000-1.64z" fill="url(#paint0_linear)"/><path d="M19.847 29.806h-1.956a9.605 9.605 0 00-6.821 2.818 12.91 12.91 0 01-2.77 2.101c-.563.318-.85.978-.697 1.604a3.357 3.357 0 003.269 2.566h8.975c.636 0 1.153-.517 1.153-1.152v-6.784c0-.636-.517-1.153-1.153-1.153zm-.488 7.449h-8.487a1.72 1.72 0 01-1.635-1.176c1.09-.63 2.095-1.4 2.99-2.292a7.974 7.974 0 015.664-2.34h1.468v5.808z" fill="url(#paint1_linear)"/><path d="M39.26 35.641c-.344-.19-.684-.396-1.01-.617l-5.272-3.561a9.63 9.63 0 00-5.41-1.657h-4.034c-.583 0-1.057.474-1.057 1.057v6.975c0 .583.474 1.057 1.057 1.057h15.73c.665 0 1.208-.538 1.212-1.199a2.334 2.334 0 00-1.216-2.055zm-15.143 1.614v-5.808h3.45c1.607 0 3.16.475 4.492 1.375l5.273 3.562c.367.248.75.481 1.137.695a.722.722 0 01.212.176H24.117z" fill="url(#paint2_linear)"/><path d="M9.958 44.623c-.716 0-1.39.28-1.896.786a2.664 2.664 0 00-.785 1.896c0 .717.279 1.39.785 1.897.506.506 1.18.785 1.896.785s1.39-.28 1.896-.785c.506-.507.785-1.18.785-1.897a2.66 2.66 0 00-.785-1.896 2.663 2.663 0 00-1.896-.785zm.736 3.419a1.033 1.033 0 01-.736.304c-.278 0-.54-.108-.736-.305a1.034 1.034 0 01-.304-.736 1.035 1.035 0 011.04-1.04c.278 0 .54.108.736.304.197.197.305.458.305.736 0 .279-.108.54-.305.736z" fill="url(#paint3_linear)"/><path d="M45.942 44.623c-.716 0-1.39.28-1.896.786a2.664 2.664 0 00-.784 1.896c0 .717.278 1.39.784 1.897.506.506 1.18.785 1.896.785.717 0 1.39-.28 1.896-.785.507-.507.786-1.18.786-1.897 0-.716-.279-1.39-.786-1.896a2.663 2.663 0 00-1.896-.785zm.736 3.419a1.034 1.034 0 01-.736.304c-.278 0-.54-.108-.736-.305a1.032 1.032 0 01-.304-.736 1.037 1.037 0 011.776-.736c.197.197.305.458.305.736 0 .279-.108.54-.305.736z" fill="url(#paint4_linear)"/><path d="M55.31 39.403l-.253-.418v-.001a6.582 6.582 0 00-4.346-3.052l-7.274-1.447c-1.456-.289-2.877-1.169-3.819-1.805l-5.272-3.562-.172-.112H45.88c1.169 0 2.12-.95 2.12-2.12v-6.001a3.557 3.557 0 001.983-3.187v-1.44l-.001-.024a.743.743 0 00-.005-.07l-.005-.028a.707.707 0 00-.043-.164l-.004-.012-.005-.013-.002-.003-1.504-3.775a1.506 1.506 0 00-1.406-.954H23.984c-.624 0-1.176.375-1.406.954l-1.505 3.775-.001.003-.006.013-.004.012a.78.78 0 00-.024.073l-.006.025a.863.863 0 00-.013.066l-.004.029a.79.79 0 00-.005.069l-.002.024v1.44a3.56 3.56 0 002.4 3.361v5.827c0 .053.005.105.01.157H17.89a12.031 12.031 0 00-8.547 3.531 10.447 10.447 0 01-5.243 2.83l-1.144.24a3.732 3.732 0 00-2.954 3.638v2.085L0 39.399v3.281l.002.032v1.414c0 .93.549 1.775 1.399 2.153l3.458 1.537a5.103 5.103 0 001.474 3.116c1 1 2.313 1.5 3.626 1.5a5.112 5.112 0 005.059-4.306H40.88a5.092 5.092 0 001.436 2.806 5.095 5.095 0 003.627 1.502 5.095 5.095 0 003.625-1.502 5.09 5.09 0 001.436-2.806h2.016a2.982 2.982 0 002.98-2.98v-3.258c0-.876-.239-1.735-.69-2.485zm-8.95-12.517a.48.48 0 01-.479.48H30.345a12.115 12.115 0 00-2.778-.323h-2.49a.46.46 0 01-.028-.157v-5.668a3.553 3.553 0 002.247-1.251 3.548 3.548 0 005.467 0 3.548 3.548 0 005.467 0 3.548 3.548 0 005.467 0 3.547 3.547 0 002.663 1.283v5.636zm-18.244-9.188v-.614h3.826v.614a1.915 1.915 0 01-1.913 1.914 1.915 1.915 0 01-1.913-1.914zm5.467 0v-.614h3.826v.614a1.915 1.915 0 01-1.913 1.914 1.916 1.916 0 01-1.913-1.914zm5.467 0v-.614h3.826v.614a1.916 1.916 0 01-1.913 1.914 1.915 1.915 0 01-1.913-1.914zm9.293-.614v.614c0 .92-.652 1.69-1.519 1.872l-.041.007a1.902 1.902 0 01-.13.02l-.052.006a1.915 1.915 0 01-2.084-1.904v-.615h3.826zM24.07 12.856h22.852l1.032 2.587H23.038l1.032-2.587zm-1.421 4.842v-.614h3.826v.614a1.915 1.915 0 01-2.132 1.9 1.916 1.916 0 01-1.694-1.9zM1.642 40.218h1.084v1.642H1.642v-1.641zm10.783 9.554a3.491 3.491 0 01-4.932 0 3.491 3.491 0 010-4.932 3.475 3.475 0 012.466-1.02c.893 0 1.786.34 2.466 1.02a3.491 3.491 0 010 4.932zm35.984 0a3.465 3.465 0 01-2.466 1.021 3.467 3.467 0 01-2.466-1.021 3.465 3.465 0 01-1.022-2.466c0-.932.363-1.808 1.022-2.466a3.465 3.465 0 012.466-1.022c.932 0 1.807.363 2.466 1.022a3.463 3.463 0 011.022 2.466c0 .931-.363 1.807-1.022 2.466zm5.95-4.625c0 .738-.6 1.338-1.338 1.338h-2.016a5.093 5.093 0 00-1.436-2.806 5.095 5.095 0 00-3.626-1.502c-1.37 0-2.657.534-3.626 1.502a5.094 5.094 0 00-1.436 2.806H15.018a5.1 5.1 0 00-1.433-2.806c-2-2-5.253-1.999-7.252 0a5.102 5.102 0 00-1.351 2.396L2.067 44.78a.715.715 0 01-.425-.653v-.625h1.44c.708 0 1.284-.577 1.284-1.285v-2.352c0-.71-.576-1.286-1.285-1.286H1.642v-1.296c0-.977.694-1.832 1.65-2.032l1.145-.24a12.081 12.081 0 006.064-3.274 10.4 10.4 0 017.39-3.052h9.676a10.492 10.492 0 012.52.308c1.184.293 2.314.792 3.34 1.486L38.7 34.04c1.15.777 2.69 1.712 4.417 2.056l7.275 1.446a4.92 4.92 0 012.17 1.033 2.432 2.432 0 00-2.01 2.391v1.258c0 .727.592 1.32 1.32 1.32h2.487v1.604zm0-3.245h-2.166v-.937a.79.79 0 01.788-.788h.88l.043.073a3.17 3.17 0 01.455 1.638v.014z" fill="url(#paint5_linear)"/><path d="M17.453 9.07h.967v14.976a.82.82 0 001.641 0V9.07h31.285v24.435a.82.82 0 101.641 0V9.07h.967c.666 0 1.207-.541 1.207-1.207V4.817c0-.666-.541-1.208-1.207-1.208h-36.5a1.21 1.21 0 00-1.208 1.208v3.046c0 .666.542 1.207 1.207 1.207zm.434-3.82H53.52v2.18H17.887V5.25z" fill="url(#paint6_linear)"/></g><defs><linearGradient id="paint0_linear" x1="22.706" y1="40.746" x2="23.562" y2="43.475" gradientUnits="userSpaceOnUse"><stop stop-color="#EF6F2E"/><stop offset="1" stop-color="#FFC839"/></linearGradient><linearGradient id="paint1_linear" x1="7.643" y1="29.806" x2="14.102" y2="43.327" gradientUnits="userSpaceOnUse"><stop stop-color="#EF6F2E"/><stop offset="1" stop-color="#FFC839"/></linearGradient><linearGradient id="paint2_linear" x1="22.585" y1="29.806" x2="27.839" y2="44.538" gradientUnits="userSpaceOnUse"><stop stop-color="#EF6F2E"/><stop offset="1" stop-color="#FFC839"/></linearGradient><linearGradient id="paint3_linear" x1="7.31" y1="44.623" x2="11.927" y2="51.16" gradientUnits="userSpaceOnUse"><stop stop-color="#EF6F2E"/><stop offset="1" stop-color="#FFC839"/></linearGradient><linearGradient id="paint4_linear" x1="43.294" y1="44.623" x2="47.911" y2="51.16" gradientUnits="userSpaceOnUse"><stop stop-color="#EF6F2E"/><stop offset="1" stop-color="#FFC839"/></linearGradient><linearGradient id="paint5_linear" x1=".336" y1="11.215" x2="31.154" y2="70.5" gradientUnits="userSpaceOnUse"><stop stop-color="#EF6F2E"/><stop offset="1" stop-color="#FFC839"/></linearGradient><linearGradient id="paint6_linear" x1="16.48" y1="3.609" x2="40.345" y2="46.422" gradientUnits="userSpaceOnUse"><stop stop-color="#EF6F2E"/><stop offset="1" stop-color="#FFC839"/></linearGradient><clipPath id="clip0"><path fill="#fff" d="M0 0h56v56H0z"/></clipPath></defs></svg>