<svg width="56" height="56" fill="none" xmlns="http://www.w3.org/2000/svg"><g clip-path="url(#clip0)"><path d="M13.069 36.867a5.606 5.606 0 00-5.6 5.6c0 3.088 2.511 5.6 5.6 5.6 3.088 0 5.6-2.512 5.6-5.6 0-3.089-2.512-5.6-5.6-5.6zm0 9.333a3.737 3.737 0 01-3.734-3.733 3.737 3.737 0 013.734-3.734 3.737 3.737 0 013.733 3.734 3.737 3.737 0 01-3.733 3.733z" fill="url(#paint0_linear)"/><path d="M44.803 36.867a5.606 5.606 0 00-5.6 5.6c0 3.088 2.512 5.6 5.6 5.6 3.089 0 5.6-2.512 5.6-5.6 0-3.089-2.511-5.6-5.6-5.6zm0 9.333a3.737 3.737 0 01-3.733-3.733 3.737 3.737 0 013.733-3.734 3.737 3.737 0 013.733 3.734 3.737 3.737 0 01-3.733 3.733z" fill="url(#paint1_linear)"/><path d="M55.854 31.695l-8.4-13.066a.933.933 0 00-.785-.429H36.402a.933.933 0 00-.933.934v23.333c0 .516.417.933.933.933h3.733v-1.867h-2.8V20.067h8.824l7.976 12.408v9.059H49.47V43.4h5.6a.932.932 0 00.933-.933V32.2a.93.93 0 00-.148-.505z" fill="url(#paint2_linear)"/><path d="M41.066 30.333V23.8h7.466v-1.867h-8.4a.933.933 0 00-.933.933v8.4c0 .517.417.934.934.934h14v-1.867H41.066z" fill="url(#paint3_linear)"/><path d="M36.4 11.666H.933A.934.934 0 000 12.6v29.867c0 .516.418.933.933.933H8.4v-1.867H1.867v-28h33.6v28H17.733V43.4H36.4a.932.932 0 00.933-.933V12.6a.933.933 0 00-.933-.934z" fill="url(#paint4_linear)"/><path d="M6.534 37.8h-5.6v1.867h5.6V37.8z" fill="url(#paint5_linear)"/><path d="M35.468 37.8H19.602v1.867h15.866V37.8z" fill="url(#paint6_linear)"/><path d="M55.07 37.8h-3.734v1.867h3.733V37.8z" fill="url(#paint7_linear)"/><path d="M36.401 15.4H3.734v1.867h32.667V15.4z" fill="url(#paint8_linear)"/><path d="M14 41.533h-1.867V43.4H14v-1.867z" fill="url(#paint9_linear)"/><path d="M45.734 41.533h-1.867V43.4h1.867v-1.867z" fill="url(#paint10_linear)"/><path d="M16.801 7.933H3.734V9.8h13.067V7.933z" fill="url(#paint11_linear)"/><path d="M1.867 7.933H0V9.8h1.867V7.933z" fill="url(#paint12_linear)"/></g><defs><linearGradient id="paint0_linear" x1="7.536" y1="36.867" x2="17.178" y2="50.519" gradientUnits="userSpaceOnUse"><stop stop-color="#EF6F2E"/><stop offset="1" stop-color="#FFC839"/></linearGradient><linearGradient id="paint1_linear" x1="39.27" y1="36.867" x2="48.912" y2="50.519" gradientUnits="userSpaceOnUse"><stop stop-color="#EF6F2E"/><stop offset="1" stop-color="#FFC839"/></linearGradient><linearGradient id="paint2_linear" x1="35.592" y1="18.2" x2="58.378" y2="44.49" gradientUnits="userSpaceOnUse"><stop stop-color="#EF6F2E"/><stop offset="1" stop-color="#FFC839"/></linearGradient><linearGradient id="paint3_linear" x1="39.289" y1="21.933" x2="46.659" y2="37.112" gradientUnits="userSpaceOnUse"><stop stop-color="#EF6F2E"/><stop offset="1" stop-color="#FFC839"/></linearGradient><linearGradient id="paint4_linear" x1=".224" y1="11.666" x2="25.808" y2="54.284" gradientUnits="userSpaceOnUse"><stop stop-color="#EF6F2E"/><stop offset="1" stop-color="#FFC839"/></linearGradient><linearGradient id="paint5_linear" x1=".967" y1="37.8" x2="1.728" y2="41.031" gradientUnits="userSpaceOnUse"><stop stop-color="#EF6F2E"/><stop offset="1" stop-color="#FFC839"/></linearGradient><linearGradient id="paint6_linear" x1="19.697" y1="37.8" x2="19.978" y2="41.187" gradientUnits="userSpaceOnUse"><stop stop-color="#EF6F2E"/><stop offset="1" stop-color="#FFC839"/></linearGradient><linearGradient id="paint7_linear" x1="51.358" y1="37.8" x2="52.429" y2="40.832" gradientUnits="userSpaceOnUse"><stop stop-color="#EF6F2E"/><stop offset="1" stop-color="#FFC839"/></linearGradient><linearGradient id="paint8_linear" x1="3.931" y1="15.4" x2="4.068" y2="18.805" gradientUnits="userSpaceOnUse"><stop stop-color="#EF6F2E"/><stop offset="1" stop-color="#FFC839"/></linearGradient><linearGradient id="paint9_linear" x1="12.144" y1="41.533" x2="13.751" y2="43.809" gradientUnits="userSpaceOnUse"><stop stop-color="#EF6F2E"/><stop offset="1" stop-color="#FFC839"/></linearGradient><linearGradient id="paint10_linear" x1="43.878" y1="41.533" x2="45.485" y2="43.809" gradientUnits="userSpaceOnUse"><stop stop-color="#EF6F2E"/><stop offset="1" stop-color="#FFC839"/></linearGradient><linearGradient id="paint11_linear" x1="3.813" y1="7.933" x2="4.154" y2="11.309" gradientUnits="userSpaceOnUse"><stop stop-color="#EF6F2E"/><stop offset="1" stop-color="#FFC839"/></linearGradient><linearGradient id="paint12_linear" x1=".011" y1="7.933" x2="1.618" y2="10.209" gradientUnits="userSpaceOnUse"><stop stop-color="#EF6F2E"/><stop offset="1" stop-color="#FFC839"/></linearGradient><clipPath id="clip0"><path fill="#fff" d="M0 0h56v56H0z"/></clipPath></defs></svg>