<svg width="40" height="40" fill="none" xmlns="http://www.w3.org/2000/svg"><path d="M21.102 0H5.237C4 0 3 .933 3 2.083v35.834C3 39.067 4.001 40 5.237 40h29.526C36 40 37 39.067 37 37.917v-23.11L21.102 0zM37 10.225V2.083C37 .933 35.998 0 34.763 0h-8.741L37 10.225z" fill="#EEF5F5"/><path d="M13.38 20.495V23h-1.464v-7.11h2.774c.533 0 1.002.098 1.406.294.407.195.72.473.937.835.218.358.327.766.327 1.225 0 .697-.239 1.247-.717 1.65-.476.4-1.135.601-1.978.601h-1.284zm0-1.186h1.31c.387 0 .681-.092.883-.274.205-.182.308-.443.308-.781 0-.348-.103-.63-.308-.845-.205-.215-.488-.325-.85-.332h-1.342v2.232zM18.372 23v-7.11h2.188c.625 0 1.183.142 1.674.425.495.28.88.68 1.158 1.202.276.517.415 1.106.415 1.767v.327c0 .661-.137 1.249-.41 1.763-.27.514-.653.913-1.148 1.196a3.347 3.347 0 01-1.675.43h-2.202zm1.465-5.923v4.746h.708c.573 0 1.01-.187 1.313-.561.303-.375.458-.91.464-1.607v-.376c0-.722-.15-1.27-.449-1.64-.3-.375-.737-.562-1.313-.562h-.723zm9.316 3.018H26.34V23h-1.465v-7.11h4.629v1.187H26.34v1.836h2.812v1.182z" fill="#494C52"/></svg>