<svg width="60" height="60" fill="none" xmlns="http://www.w3.org/2000/svg"><g clip-path="url(#clip0)"><path d="M12.79 58.207h0a1.072 1.072 0 11-1.748 1.241l-.08.056.08-.056-1.765-2.485h0a1.072 1.072 0 111.748-1.241h0l1.764 2.485z" fill="url(#paint0_linear)" stroke="#fff" stroke-width=".2"/><path d="M7.745 36.624V22.259a3.8 3.8 0 00-2.994-3.733h0a3.803 3.803 0 00-3.221.75m6.215 17.348L4.286 20.619a1.67 1.67 0 00-1.414.33h0c-.4.32-.629.797-.629 1.31v18.17a9.12 9.12 0 001.692 5.306l.082-.057-.082.057 2.09 2.944.082-.058-.082.058a1.072 1.072 0 11-1.748 1.241l-2.09-2.944A11.251 11.251 0 01.1 40.428v-18.17c0-1.165.52-2.252 1.43-2.982m6.215 17.348l.172-.175m-.172.175l.172-.175M1.53 19.277l-.063-.079.063.078zm6.387 17.172a4.024 4.024 0 015.1-.52l4.1 2.756a17.158 17.158 0 017.256 10.772l1.92 9.15a1.072 1.072 0 01-2.098.441l-1.92-9.151a15.026 15.026 0 00-6.355-9.433l-4.1-2.757-.055.083.056-.083a1.872 1.872 0 00-2.438.311h0a2.077 2.077 0 00-.04 2.722h0l.004.005.007.008a.346.346 0 00.013.014h0l2.687 2.86h0l2.96 3.148h0a1.072 1.072 0 11-1.563 1.468h0l-.125-.133-1.684-1.792h0l-.002-.003a.126.126 0 00-.01-.008v-.002s0 0 0 0l-1.207-1.283h0l-2.555-2.713h0a4.321 4.321 0 01-.178-.201h0m.227-5.66l-.227 5.66m0 0l-.002-.003m.002.003l-.002-.003m0 0a8.088 8.088 0 01-2.086-5.43V22.257a1.67 1.67 0 00-1.316-1.64l3.402 21.487z" fill="url(#paint1_linear)" stroke="#fff" stroke-width=".2"/><path d="M8.6 52.307h0a1.072 1.072 0 01-1.745 1.245l-.007-.01h0a1.072 1.072 0 011.745-1.245l.007.01z" fill="url(#paint2_linear)" stroke="#fff" stroke-width=".2"/><path d="M52.082 36.45l.172.174V22.259a3.8 3.8 0 012.994-3.733 3.805 3.805 0 013.221.75c.91.73 1.43 1.817 1.43 2.982v18.17c0 2.36-.721 4.624-2.087 6.549l-8.854 12.472a1.07 1.07 0 01-1.494.253 1.072 1.072 0 01-.254-1.494l-.081-.058.081.058 8.854-12.472a9.12 9.12 0 001.692-5.307v-18.17c0-.512-.23-.99-.628-1.31h0c-.4-.32-.915-.44-1.415-.33l.022.098-.022-.098a1.67 1.67 0 00-1.316 1.64v14.415c0 2.016-.74 3.937-2.086 5.431h0l-.002.003a4.281 4.281 0 01-.178.202h0l-3.077 3.27-1.736 1.845-.557.592-.156.165-.041.045-.011.011-.003.004h-.001 0a1.072 1.072 0 01-1.563-1.467l2.831-3.012 1.936-2.06.638-.679.178-.19.047-.05.013-.013.003-.003h0l-.072-.07.073.07v-.002l.013-.014.01-.01h0l.003-.004a2.078 2.078 0 00-.043-2.72h0a1.872 1.872 0 00-2.438-.31l-4.099 2.756a15.026 15.026 0 00-6.355 9.433l-1.92 9.151a1.072 1.072 0 01-2.098-.44l1.92-9.151a17.157 17.157 0 017.257-10.772l-.056-.083.056.083 4.1-2.757a4.024 4.024 0 015.1.521zm-5.46 11.861l.246-.262c.991-1.054 4.663-4.957 5.336-5.67.063-.068.123-.137.182-.207l-5.765 6.14z" fill="url(#paint3_linear)" stroke="#fff" stroke-width=".2"/><mask id="a" fill="#fff"><path d="M44.842 22.46l-2.085-.498v-.374a5.241 5.241 0 002.244-4.297v-2.71a5.25 5.25 0 00-5.245-5.245 5.22 5.22 0 00-3.403 1.258 6.854 6.854 0 00-6.339-4.266 6.855 6.855 0 00-6.342 4.276 5.22 5.22 0 00-3.414-1.269 5.25 5.25 0 00-5.245 5.245v2.71c0 1.777.889 3.349 2.244 4.298v.374l-2.085.498a5.49 5.49 0 00-4.228 5.357v2.188c0 .648.525 1.172 1.172 1.172H17.5a7.35 7.35 0 00-.014.43v4.213c0 .647.524 1.172 1.172 1.172h7.044a1.172 1.172 0 000-2.344h-1.211v-2.422a1.172 1.172 0 10-2.344 0v2.422H19.83v-3.042a4.852 4.852 0 013.732-4.733l3.216-.77 2.152 4.896a1.172 1.172 0 002.145 0l2.15-4.889 3.206.766a4.851 4.851 0 013.737 4.734v3.038H37.85v-2.422a1.172 1.172 0 10-2.344 0v2.422H34.18a1.172 1.172 0 000 2.344h7.162c.647 0 1.172-.525 1.172-1.172v-4.21c0-.145-.006-.29-.015-.433h5.4c.647 0 1.172-.524 1.172-1.171v-2.19a5.49 5.49 0 00-4.228-5.356zm-5.086-10.78a2.905 2.905 0 012.895 2.709h-1.63a8.536 8.536 0 01-3.928-.958 2.905 2.905 0 012.663-1.752zm-2.9 5.44c0-.058.003-.114.003-.172v-1.043c1.315.544 2.73.828 4.163.828h1.635v.558c0 1.6-1.301 2.9-2.9 2.9a2.904 2.904 0 01-2.902-2.9v-.172zm-11.343-3.947a4.506 4.506 0 014.501-4.501 4.51 4.51 0 014.445 3.786l-1.973-1.16a1.172 1.172 0 00-1.492.258 5.049 5.049 0 01-3.879 1.81h-1.602v-.193zm-5.255-1.494c1.192 0 2.218.723 2.664 1.752a8.541 8.541 0 01-3.93.958h-1.629a2.905 2.905 0 012.895-2.71zm-2.901 5.054h1.636c1.434 0 2.85-.285 4.166-.83v1.388c0 1.6-1.301 2.9-2.901 2.9a2.904 2.904 0 01-2.901-2.9v-.558zm5.66 7.86a7.187 7.187 0 00-4.98 4.24h-4.75v-1.016c0-1.47 1-2.736 2.43-3.078l2.984-.713c.527-.125.9-.597.9-1.14v-.393a5.266 5.266 0 001.31 0v.335l-.002.052a1.17 1.17 0 00.953 1.153l1.748.419-.593.142zm3.27-1.818a5.51 5.51 0 00-.94-.317l-2.093-.501v-.366c.378-.264.72-.576 1.016-.927a6.898 6.898 0 002.016 2.02v.09zm5.089 1.722l-1.372 3.119-1.374-3.127v-.837a6.846 6.846 0 002.746.005v.84zm-1.362-3.048a4.506 4.506 0 01-4.5-4.5V15.71h1.601a7.384 7.384 0 004.98-1.923l2.416 1.42v1.913a4.506 4.506 0 01-4.497 4.33zm3.705 1.33v-.08a6.896 6.896 0 002.033-2.026c.295.348.633.657 1.007.919v.365l-2.093.501a5.519 5.519 0 00-.947.32zm13.007 6.055H41.96a7.185 7.185 0 00-4.983-4.238l-.588-.14 1.757-.421a1.17 1.17 0 00.957-1.182v-.36a5.215 5.215 0 001.31 0v.394c0 .542.373 1.014.9 1.14l2.985.712a3.154 3.154 0 012.428 3.078v1.017z"/></mask><path d="M44.842 22.46l-2.085-.498v-.374a5.241 5.241 0 002.244-4.297v-2.71a5.25 5.25 0 00-5.245-5.245 5.22 5.22 0 00-3.403 1.258 6.854 6.854 0 00-6.339-4.266 6.855 6.855 0 00-6.342 4.276 5.22 5.22 0 00-3.414-1.269 5.25 5.25 0 00-5.245 5.245v2.71c0 1.777.889 3.349 2.244 4.298v.374l-2.085.498a5.49 5.49 0 00-4.228 5.357v2.188c0 .648.525 1.172 1.172 1.172H17.5a7.35 7.35 0 00-.014.43v4.213c0 .647.524 1.172 1.172 1.172h7.044a1.172 1.172 0 000-2.344h-1.211v-2.422a1.172 1.172 0 10-2.344 0v2.422H19.83v-3.042a4.852 4.852 0 013.732-4.733l3.216-.77 2.152 4.896c.187.425.608.7 1.073.7h0c.465 0 .886-.275 1.073-.7l2.15-4.889 3.205.766a4.851 4.851 0 013.737 4.734v3.038H37.85v-2.422a1.172 1.172 0 10-2.344 0v2.422H34.18a1.172 1.172 0 000 2.344h7.162c.647 0 1.172-.525 1.172-1.172v-4.21c0-.145-.006-.29-.015-.433h5.4c.647 0 1.172-.524 1.172-1.171v-2.19a5.49 5.49 0 00-4.228-5.356zm-5.086-10.78a2.905 2.905 0 012.895 2.709h-1.63a8.536 8.536 0 01-3.928-.958 2.905 2.905 0 012.663-1.752zm-2.9 5.44c0-.058.003-.114.003-.172v-1.043c1.315.544 2.73.828 4.163.828h1.635v.558c0 1.6-1.301 2.9-2.9 2.9a2.904 2.904 0 01-2.902-2.9v-.172zm-11.343-3.947a4.506 4.506 0 014.501-4.501 4.51 4.51 0 014.445 3.786l-1.973-1.16a1.172 1.172 0 00-1.492.258 5.049 5.049 0 01-3.879 1.81h-1.602v-.193zm-5.255-1.494c1.192 0 2.218.723 2.664 1.752a8.541 8.541 0 01-3.93.958h-1.629a2.905 2.905 0 012.895-2.71zm-2.901 5.054h1.636c1.434 0 2.85-.285 4.166-.83v1.388c0 1.6-1.301 2.9-2.901 2.9a2.904 2.904 0 01-2.901-2.9v-.558zm5.66 7.86a7.187 7.187 0 00-4.98 4.24h-4.75v-1.016c0-1.47 1-2.736 2.43-3.078l2.984-.713c.527-.125.9-.597.9-1.14v-.393a5.266 5.266 0 001.31 0v.335l-.002.052a1.17 1.17 0 00.953 1.153l1.748.419-.593.142zm3.27-1.818a5.51 5.51 0 00-.94-.317l-2.093-.501v-.366c.378-.264.72-.576 1.016-.927a6.898 6.898 0 002.016 2.02v.09zm5.089 1.722l-1.372 3.119-1.374-3.127v-.837a6.846 6.846 0 002.746.005v.84zm-1.362-3.048a4.506 4.506 0 01-4.5-4.5V15.71h1.601a7.384 7.384 0 004.98-1.923l2.416 1.42v1.913a4.506 4.506 0 01-4.497 4.33zm3.705 1.33v-.08a6.896 6.896 0 002.033-2.026c.295.348.633.657 1.007.919v.365l-2.093.501a5.519 5.519 0 00-.947.32zm13.007 6.055H41.96a7.185 7.185 0 00-4.983-4.238l-.588-.14 1.757-.421a1.17 1.17 0 00.957-1.182v-.36a5.215 5.215 0 001.31 0v.394c0 .542.373 1.014.9 1.14l2.985.712a3.154 3.154 0 012.428 3.078v1.017z" fill="url(#paint4_linear)" stroke="#fff" stroke-width=".4" mask="url(#a)"/><path d="M30 34.749c.281 0 .557.114.757.313.2.2.315.476.315.759 0 .281-.115.557-.315.758-.2.199-.476.314-.757.314a1.08 1.08 0 01-.758-.314 1.08 1.08 0 01-.314-.758c0-.283.114-.559.314-.76.199-.198.475-.312.758-.312z" fill="url(#paint5_linear)" stroke="#fff" stroke-width=".2"/><path d="M28.927 1.172a1.072 1.072 0 012.144 0v1.753a1.072 1.072 0 01-2.144 0V1.172z" fill="url(#paint6_linear)" stroke="#fff" stroke-width=".2"/><path d="M25.612 3.893h0a1.072 1.072 0 01-1.515 1.517h0l-1.23-1.228a1.072 1.072 0 111.515-1.517h0l1.23 1.228z" fill="url(#paint7_linear)" stroke="#fff" stroke-width=".2"/><path d="M35.587 2.696h0a1.072 1.072 0 111.517 1.515l-1.22 1.221h0a1.068 1.068 0 01-1.516 0 1.072 1.072 0 010-1.515s0 0 0 0l1.22-1.22z" fill="url(#paint8_linear)" stroke="#fff" stroke-width=".2"/></g><defs><linearGradient id="paint0_linear" x1="9.004" y1="55.17" x2="13.34" y2="60.394" gradientUnits="userSpaceOnUse"><stop stop-color="#EF6F2E"/><stop offset="1" stop-color="#FFC839"/></linearGradient><linearGradient id="paint1_linear" x1=".158" y1="18.334" x2="37.999" y2="52.304" gradientUnits="userSpaceOnUse"><stop stop-color="#EF6F2E"/><stop offset="1" stop-color="#FFC839"/></linearGradient><linearGradient id="paint2_linear" x1="6.563" y1="51.747" x2="8.59" y2="54.614" gradientUnits="userSpaceOnUse"><stop stop-color="#EF6F2E"/><stop offset="1" stop-color="#FFC839"/></linearGradient><linearGradient id="paint3_linear" x1="33.742" y1="18.334" x2="71.582" y2="52.305" gradientUnits="userSpaceOnUse"><stop stop-color="#EF6F2E"/><stop offset="1" stop-color="#FFC839"/></linearGradient><linearGradient id="paint4_linear" x1="11.173" y1="6.328" x2="35.232" y2="48.685" gradientUnits="userSpaceOnUse"><stop stop-color="#EF6F2E"/><stop offset="1" stop-color="#FFC839"/></linearGradient><linearGradient id="paint5_linear" x1="28.842" y1="34.649" x2="30.86" y2="37.506" gradientUnits="userSpaceOnUse"><stop stop-color="#EF6F2E"/><stop offset="1" stop-color="#FFC839"/></linearGradient><linearGradient id="paint6_linear" x1="28.842" y1="0" x2="32.503" y2="2.965" gradientUnits="userSpaceOnUse"><stop stop-color="#EF6F2E"/><stop offset="1" stop-color="#FFC839"/></linearGradient><linearGradient id="paint7_linear" x1="22.474" y1="2.251" x2="25.549" y2="6.606" gradientUnits="userSpaceOnUse"><stop stop-color="#EF6F2E"/><stop offset="1" stop-color="#FFC839"/></linearGradient><linearGradient id="paint8_linear" x1="33.975" y1="2.282" x2="37.045" y2="6.626" gradientUnits="userSpaceOnUse"><stop stop-color="#EF6F2E"/><stop offset="1" stop-color="#FFC839"/></linearGradient><clipPath id="clip0"><path fill="#fff" d="M0 0h60v60H0z"/></clipPath></defs></svg>