<svg width="60" height="60" fill="none" xmlns="http://www.w3.org/2000/svg"><path d="M55.143 31.453a2 2 0 00-1.963-1.623h-1.93l-.143-.851a2.01 2.01 0 00-1.67-1.657c-.19-.03-.383-.05-.572-.076a6.1 6.1 0 00-.76-4.459 4.092 4.092 0 00-2.965-5.474 8.51 8.51 0 00-8.313-6.946c-.1 0-.189.013-.284.016a4.068 4.068 0 00-6.223-.774A6.864 6.864 0 0026.586 8.5a6.943 6.943 0 00-5.458 2.688 4.98 4.98 0 00-6.366 4.476 4.116 4.116 0 00-2.52 3.792c.002.287.036.573.1.853a8.048 8.048 0 00-.96 6.9c-.268.037-.542.07-.8.108-.86.13-1.54.798-1.684 1.656l-.142.854H6.82a2 2 0 00-1.962 1.619L.48 53.928A3 3 0 003.43 57.5h20.854c.828 1.366 3.344 2 5.716 2 2.347 0 4.84-.619 5.691-2h20.88a3 3 0 002.95-3.571l-4.378-22.476zM15.265 21.266a2.112 2.112 0 011.08-3.922 2.074 2.074 0 011.68.848A1 1 0 1019.63 17a4.04 4.04 0 00-2.836-1.6 3.04 3.04 0 012.965-2.407c.122.006.244.02.364.04a6.55 6.55 0 00-.21.626 1 1 0 001.936.5c.114-.44.289-.86.52-1.252a4.938 4.938 0 014.217-2.407 4.858 4.858 0 012.65.8A4.07 4.07 0 0029 12.611a1 1 0 102 0 2.104 2.104 0 014.207 0 1 1 0 102 0c0-.077-.019-.15-.023-.227a6.491 6.491 0 015.922 5.006 4.06 4.06 0 00-1.294.645 1 1 0 001.2 1.6 2.108 2.108 0 112.145 3.603 1 1 0 00.426 1.9.985.985 0 00.424-.095c.265-.128.516-.285.747-.467a4.271 4.271 0 01-.846 4.265l-.024.025a4.319 4.319 0 01-5.1.936 3.958 3.958 0 01-.484-.302 3.406 3.406 0 00.264-3.52 1 1 0 10-1.787.9 1.489 1.489 0 01-.482 1.885 1.509 1.509 0 01-2.172-.554 1 1 0 00-1.789.895 3.467 3.467 0 003.116 1.928 3.43 3.43 0 001.255-.247c.358.313.751.581 1.172.8a6.16 6.16 0 004.62.427 6.373 6.373 0 01-4.119 2.525 1 1 0 00.316 1.975 8.213 8.213 0 001.774-.518c.308.545.558 1.12.746 1.717a1.078 1.078 0 01-.604 1.315 1.13 1.13 0 01-1.29-.347 6.384 6.384 0 00-2.928-1.945c-2.16-.724-2.995-1.371-3.349-2.075a9.59 9.59 0 001.533-.32 1 1 0 00-.588-1.912 7.571 7.571 0 01-1.726.317 7.421 7.421 0 01-3.314-.5 1 1 0 00-1.12.279 4.282 4.282 0 01-6.907-5.007 1.003 1.003 0 10-1.72-1.031c-.24.406-.431.838-.573 1.287a1.5 1.5 0 01-1.42-1.474v-.025a.989.989 0 00-1-.987 1.01 1.01 0 00-1 1.012 3.48 3.48 0 003.104 3.451c.004.335.034.67.091 1a6.11 6.11 0 01-6.914-8.369c.224.226.474.425.744.593a1 1 0 001.032-1.713v.004zm-4.4 8.033c.461-.068.937-.128 1.41-.19a8.074 8.074 0 008.77 3.558 6.264 6.264 0 009.812 1.663c.68.203 1.38.33 2.087.378.483 1.832 1.88 2.942 4.812 3.925a4.428 4.428 0 012.036 1.341 3.185 3.185 0 002.416 1.135c.408 0 .812-.082 1.187-.242a3.079 3.079 0 001.87-2.831c0-.321-.051-.64-.153-.946a10.936 10.936 0 00-.884-2.035 8.43 8.43 0 003.323-5.082c.213-.253.406-.522.576-.806.335.043.67.081 1.007.137l3.61 21.714a34.326 34.326 0 00-21.744 0V38.5a1 1 0 00-2 0v12.522a34.333 34.333 0 00-21.744-.008l3.61-21.715zM2.651 55.132a.992.992 0 01-.21-.82l4.38-22.482h1.6l-3.14 18.859a2.007 2.007 0 002.581 2.234 33.456 33.456 0 0116.517-1.048l-.298 3.625H3.43a1.01 1.01 0 01-.779-.368zm27.35 2.368c-2.41 0-3.792-.712-3.995-1.029l.344-4.15c1.1.274 2.176.635 3.218 1.079a.993.993 0 00.865 0 21.312 21.312 0 013.217-1.086l.344 4.156c-.203.318-1.585 1.03-3.994 1.03zm27.348-2.368a1.007 1.007 0 01-.779.368H35.921l-.3-3.632a33.466 33.466 0 0116.524 1.057 2.006 2.006 0 002.572-2.239l-3.135-18.855h1.6l4.38 22.48a.992.992 0 01-.213.821z" fill="url(#paint0_linear)"/><path d="M26.686 23.185a1 1 0 00-.07 1.412 6.03 6.03 0 003.204 1.848 2.979 2.979 0 01-2.434 1.255 1 1 0 100 2 4.959 4.959 0 004.66-3.207 6.035 6.035 0 004.936-4.8 1 1 0 10-1.964-.376 3.986 3.986 0 01-1.656 2.54 4.082 4.082 0 01-5.264-.6 1 1 0 00-1.412-.072z" fill="url(#paint1_linear)"/><path d="M23.2 22.1a1 1 0 001-1 2.6 2.6 0 012.6-2.6 1 1 0 100-2 4.605 4.605 0 00-4.6 4.6 1 1 0 001 1z" fill="url(#paint2_linear)"/><path d="M31 2.5v-1a1 1 0 10-2 0v1a1 1 0 002 0z" fill="url(#paint3_linear)"/><path d="M46.411 7.676l-1 1a1 1 0 101.414 1.414l1-1a1 1 0 10-1.414-1.414z" fill="url(#paint4_linear)"/><path d="M13.884 10.383a1 1 0 00.707-1.707l-1-1a1 1 0 10-1.414 1.414l1 1a1 1 0 00.707.293z" fill="url(#paint5_linear)"/><path d="M21.581 6.175a1 1 0 00.924-1.383L21.358 2.02a1 1 0 10-1.848.766l1.148 2.772a1 1 0 00.924.617z" fill="url(#paint6_linear)"/><path d="M39.95 1.479a1 1 0 00-1.306.541l-1.149 2.772a1 1 0 101.848.767l1.148-2.772a1 1 0 00-.54-1.308z" fill="url(#paint7_linear)"/><path d="M50.325 18.082a.985.985 0 00.383-.077l2.771-1.148a1 1 0 00-.765-1.848l-2.772 1.148a1 1 0 00.383 1.925z" fill="url(#paint8_linear)"/><path d="M9.293 18.005a1 1 0 00.766-1.848l-2.772-1.148a1 1 0 00-.765 1.848l2.77 1.148z" fill="url(#paint9_linear)"/><defs><linearGradient id="paint0_linear" x1=".78" y1="8.5" x2="42.169" y2="76.473" gradientUnits="userSpaceOnUse"><stop stop-color="#EF6F2E"/><stop offset="1" stop-color="#FFC839"/></linearGradient><linearGradient id="paint1_linear" x1="26.421" y1="20.487" x2="33.91" y2="32.742" gradientUnits="userSpaceOnUse"><stop stop-color="#EF6F2E"/><stop offset="1" stop-color="#FFC839"/></linearGradient><linearGradient id="paint2_linear" x1="22.234" y1="16.5" x2="27.055" y2="23.326" gradientUnits="userSpaceOnUse"><stop stop-color="#EF6F2E"/><stop offset="1" stop-color="#FFC839"/></linearGradient><linearGradient id="paint3_linear" x1="29.012" y1=".5" x2="31.748" y2="3.083" gradientUnits="userSpaceOnUse"><stop stop-color="#EF6F2E"/><stop offset="1" stop-color="#FFC839"/></linearGradient><linearGradient id="paint4_linear" x1="45.124" y1="7.371" x2="47.728" y2="11.058" gradientUnits="userSpaceOnUse"><stop stop-color="#EF6F2E"/><stop offset="1" stop-color="#FFC839"/></linearGradient><linearGradient id="paint5_linear" x1="11.889" y1="7.371" x2="14.483" y2="11.042" gradientUnits="userSpaceOnUse"><stop stop-color="#EF6F2E"/><stop offset="1" stop-color="#FFC839"/></linearGradient><linearGradient id="paint6_linear" x1="19.444" y1="1.383" x2="23.811" y2="5.457" gradientUnits="userSpaceOnUse"><stop stop-color="#EF6F2E"/><stop offset="1" stop-color="#FFC839"/></linearGradient><linearGradient id="paint7_linear" x1="37.438" y1="1.403" x2="41.788" y2="5.467" gradientUnits="userSpaceOnUse"><stop stop-color="#EF6F2E"/><stop offset="1" stop-color="#FFC839"/></linearGradient><linearGradient id="paint8_linear" x1="49.351" y1="14.933" x2="51.553" y2="19.661" gradientUnits="userSpaceOnUse"><stop stop-color="#EF6F2E"/><stop offset="1" stop-color="#FFC839"/></linearGradient><linearGradient id="paint9_linear" x1="5.932" y1="14.933" x2="8.135" y2="19.659" gradientUnits="userSpaceOnUse"><stop stop-color="#EF6F2E"/><stop offset="1" stop-color="#FFC839"/></linearGradient></defs></svg>