<svg width="60" height="60" fill="none" xmlns="http://www.w3.org/2000/svg"><g clip-path="url(#clip0)"><mask id="a" maskUnits="userSpaceOnUse" x="1.911" y="2.863" width="55" height="55" fill="#000"><path fill="#fff" d="M1.911 2.863h55v55h-55z"/><path d="M37.038 46.456a7.494 7.494 0 00.94-.38c1.313-.544 2.152-1.53 2.426-2.85.268-1.292-.02-2.836-.685-4.493 4.17-.221 7.027.388 10.617 1.55.638.207 1.208.29 1.71.29 1.315 0 2.177-.567 2.635-.987 1.025-.938 1.459-2.406 1.133-3.83-.361-1.576-1.558-2.777-3.283-3.294-3.05-.915-9.288-2.787-16.139.574a46.975 46.975 0 00-2.137-2.686L46.37 20.288a2.07 2.07 0 00.67-1.529 2.07 2.07 0 00-.61-1.474l-3.77-3.764a2.088 2.088 0 00-3.003.06l-3.697 4.445a.879.879 0 001.352 1.124l3.663-4.404a.333.333 0 01.443.02l3.769 3.762a.328.328 0 01.019.442L33.09 29.033a53.996 53.996 0 00-1.04-1.105 53.875 53.875 0 00-1.143-1.071l3.733-4.488a.879.879 0 00-1.351-1.124l-3.701 4.45a47.239 47.239 0 00-2.498-1.99c3.821-6.73 2.25-13.117 1.482-16.24-.43-1.748-1.569-3.003-3.125-3.443-1.408-.398-2.897-.038-3.887.939-.61.603-1.541 1.963-.913 4.3 1.01 3.769 1.473 6.763.955 11.164-1.788-.764-3.457-1.111-4.837-.825-1.32.274-2.306 1.113-2.851 2.425a9.593 9.593 0 00-.058.147 14.597 14.597 0 01-.322.792l-1.113 3.128-.004.009-1.878 5.274c-.002.007-.003.014-.006.02L7.83 38.99l-.008.02-.82 2.306-3.696 10.386c-.679 1.913-.476 3.519.555 4.424.555.628 1.369.948 2.354.948.629 0 1.327-.13 2.072-.394l10.369-3.687 2.329-.827.019-.008 7.596-2.7.022-.008 5.277-1.876.01-.004 3.129-1.113zm14.988-12.31c1.51.452 1.947 1.449 2.074 2.003.182.796-.056 1.637-.607 2.141-.606.556-1.536.67-2.616.32-3.898-1.26-7.147-1.931-11.954-1.588a28.21 28.21 0 00-1.508-2.527c6.145-2.89 11.819-1.187 14.61-.35zM22.345 8.805c-.295-1.096-.135-2.017.45-2.594.532-.525 1.386-.721 2.174-.499.546.155 1.52.643 1.896 2.171.707 2.874 2.145 8.724-1.219 14.8a29.281 29.281 0 00-2.375-1.446c.67-5.011.187-8.277-.926-12.432zm-7.167 14.783c.116-.26.247-.6.318-.786a7.168 7.168 0 01.04-.104c.326-.783.83-1.22 1.586-1.377 1.153-.24 2.8.187 4.729 1.153a.94.94 0 00.138.07c1.054.537 2.189 1.234 3.372 2.071a.872.872 0 00.1.074l.013.007c1.717 1.224 3.533 2.738 5.344 4.485.522.54 1.022 1.081 1.5 1.62l.007.008.023.025a44.546 44.546 0 013.018 3.772.873.873 0 00.093.131c.87 1.238 1.584 2.421 2.123 3.513a.82.82 0 00.078.157c.874 1.813 1.25 3.361 1.023 4.46-.157.757-.595 1.26-1.379 1.585a.137.137 0 01-.006.003l-.098.038c-.187.072-.527.202-.786.319l-2.206.784c-1.164-3.73-4.412-7.794-6.348-9.988a.88.88 0 00-1.318 1.163c3.078 3.49 5.227 6.865 6.01 9.414l-3.776 1.342c-1.444-2.846-3.892-6.122-6.973-9.314a.796.796 0 00-.023-.023c-3.194-3.079-6.471-5.526-9.32-6.97l1.343-3.77c2.661.82 6.284 3.165 9.89 6.422a.879.879 0 001.177-1.304c-3.801-3.435-7.552-5.851-10.477-6.775l.785-2.206zm5.862 26.69c-1.382-2.027-3.136-4.157-5.107-6.2a.785.785 0 00-.022-.022c-2.043-1.97-4.175-3.722-6.202-5.103l2.157-6.06c2.624 1.37 5.734 3.71 8.683 6.551 2.841 2.947 5.184 6.055 6.555 8.678l-6.064 2.156zm-2.938 1.044l-3.117 1.107a51.81 51.81 0 00-3.476-3.972 51.813 51.813 0 00-3.952-3.453l1.097-3.087.445-1.25c1.828 1.28 3.739 2.869 5.58 4.644 1.776 1.84 3.365 3.75 4.646 5.576l-1.223.435zM7.7 55.023c-1.196.423-2.145.392-2.538-.083a.88.88 0 00-.118-.117c-.475-.391-.505-1.339-.08-2.534l1.97-5.534a50.48 50.48 0 013.344 2.957 50.51 50.51 0 012.957 3.342L7.7 55.022z"/></mask><path d="M37.038 46.456a7.494 7.494 0 00.94-.38c1.313-.544 2.152-1.53 2.426-2.85.268-1.292-.02-2.836-.685-4.493 4.17-.221 7.027.388 10.617 1.55.638.207 1.208.29 1.71.29 1.315 0 2.177-.567 2.635-.987 1.025-.938 1.459-2.406 1.133-3.83-.361-1.576-1.558-2.777-3.283-3.294-3.05-.915-9.288-2.787-16.139.574a46.975 46.975 0 00-2.137-2.686L46.37 20.288a2.07 2.07 0 00.67-1.529 2.07 2.07 0 00-.61-1.474l-3.77-3.764a2.088 2.088 0 00-3.003.06l-3.697 4.445a.879.879 0 001.352 1.124l3.663-4.404a.333.333 0 01.443.02l3.769 3.762a.328.328 0 01.019.442L33.09 29.033a53.996 53.996 0 00-1.04-1.105 53.875 53.875 0 00-1.143-1.071l3.733-4.488a.879.879 0 00-1.351-1.124l-3.701 4.45a47.239 47.239 0 00-2.498-1.99c3.821-6.73 2.25-13.117 1.482-16.24-.43-1.748-1.569-3.003-3.125-3.443-1.408-.398-2.897-.038-3.887.939-.61.603-1.541 1.963-.913 4.3 1.01 3.769 1.473 6.763.955 11.164-1.788-.764-3.457-1.111-4.837-.825-1.32.274-2.306 1.113-2.851 2.425a9.593 9.593 0 00-.058.147 14.597 14.597 0 01-.322.792l-1.113 3.128-.004.009-1.878 5.274c-.002.007-.003.014-.006.02L7.83 38.99l-.008.02-.82 2.306-3.696 10.386c-.679 1.913-.476 3.519.555 4.424.555.628 1.369.948 2.354.948.629 0 1.327-.13 2.072-.394l10.369-3.687 2.329-.827.019-.008 7.596-2.7.022-.008 5.277-1.876.01-.004 3.129-1.113zm14.988-12.31c1.51.452 1.947 1.449 2.074 2.003.182.796-.056 1.637-.607 2.141-.606.556-1.536.67-2.616.32-3.898-1.26-7.147-1.931-11.954-1.588a28.21 28.21 0 00-1.508-2.527c6.145-2.89 11.819-1.187 14.61-.35zM22.345 8.805c-.295-1.096-.135-2.017.45-2.594.532-.525 1.386-.721 2.174-.499.546.155 1.52.643 1.896 2.171.707 2.874 2.145 8.724-1.219 14.8a29.281 29.281 0 00-2.375-1.446c.67-5.011.187-8.277-.926-12.432zm-7.167 14.783c.116-.26.247-.6.318-.786a7.168 7.168 0 01.04-.104c.326-.783.83-1.22 1.586-1.377 1.153-.24 2.8.187 4.729 1.153a.94.94 0 00.138.07c1.054.537 2.189 1.234 3.372 2.071a.872.872 0 00.1.074l.013.007c1.717 1.224 3.533 2.738 5.344 4.485.522.54 1.022 1.081 1.5 1.62l.007.008.023.025a44.546 44.546 0 013.018 3.772.873.873 0 00.093.131c.87 1.238 1.584 2.421 2.123 3.513a.82.82 0 00.078.157c.874 1.813 1.25 3.361 1.023 4.46-.157.757-.595 1.26-1.379 1.585a.137.137 0 01-.006.003l-.098.038c-.187.072-.527.202-.786.319l-2.206.784c-1.164-3.73-4.412-7.794-6.348-9.988a.88.88 0 00-1.318 1.163c3.078 3.49 5.227 6.865 6.01 9.414l-3.776 1.342c-1.444-2.846-3.892-6.122-6.973-9.314a.796.796 0 00-.023-.023c-3.194-3.079-6.471-5.526-9.32-6.97l1.343-3.77c2.661.82 6.284 3.165 9.89 6.422a.879.879 0 001.177-1.304c-3.801-3.435-7.552-5.851-10.477-6.775l.785-2.206zm5.862 26.69c-1.382-2.027-3.136-4.157-5.107-6.2a.785.785 0 00-.022-.022c-2.043-1.97-4.175-3.722-6.202-5.103l2.157-6.06c2.624 1.37 5.734 3.71 8.683 6.551 2.841 2.947 5.184 6.055 6.555 8.678l-6.064 2.156zm-2.938 1.044l-3.117 1.107a51.81 51.81 0 00-3.476-3.972 51.813 51.813 0 00-3.952-3.453l1.097-3.087.445-1.25c1.828 1.28 3.739 2.869 5.58 4.644 1.776 1.84 3.365 3.75 4.646 5.576l-1.223.435zM7.7 55.023c-1.196.423-2.145.392-2.538-.083a.88.88 0 00-.118-.117c-.475-.391-.505-1.339-.08-2.534l1.97-5.534a50.48 50.48 0 013.344 2.957 50.51 50.51 0 012.957 3.342L7.7 55.022z" fill="url(#paint0_linear)"/><path d="M37.038 46.456a7.494 7.494 0 00.94-.38v0c1.313-.544 2.152-1.53 2.426-2.85.268-1.292-.02-2.836-.685-4.493 4.17-.221 7.027.388 10.617 1.55.638.207 1.208.29 1.71.29 1.315 0 2.177-.567 2.635-.987 1.025-.938 1.459-2.406 1.133-3.83-.361-1.576-1.558-2.777-3.283-3.294-3.05-.915-9.288-2.787-16.139.574a46.975 46.975 0 00-2.137-2.686L46.37 20.288a2.07 2.07 0 00.67-1.529 2.07 2.07 0 00-.61-1.474l-3.77-3.764a2.088 2.088 0 00-3.003.06l-3.697 4.445a.879.879 0 001.352 1.124l3.663-4.404a.333.333 0 01.443.02l3.769 3.762a.328.328 0 01.019.442L33.09 29.033a53.996 53.996 0 00-1.04-1.105 53.875 53.875 0 00-1.143-1.071l3.733-4.488a.879.879 0 00-1.351-1.124l-3.701 4.45a47.239 47.239 0 00-2.498-1.99c3.821-6.73 2.25-13.117 1.482-16.24-.43-1.748-1.569-3.003-3.125-3.443-1.408-.398-2.897-.038-3.887.939-.61.603-1.541 1.963-.913 4.3 1.01 3.769 1.473 6.763.955 11.164-1.788-.764-3.457-1.111-4.837-.825-1.32.274-2.306 1.113-2.851 2.425a9.593 9.593 0 00-.058.147 14.597 14.597 0 01-.322.792l-1.113 3.128-.004.009-1.878 5.274c-.002.007-.003.014-.006.02L7.83 38.99l-.008.02-.82 2.306-3.696 10.386c-.679 1.913-.476 3.519.555 4.424.555.628 1.369.948 2.354.948.629 0 1.327-.13 2.072-.394l10.369-3.687 2.329-.827.019-.008 7.596-2.7.022-.008 5.277-1.876.01-.004 3.129-1.113zm14.988-12.31c1.51.452 1.947 1.449 2.074 2.003.182.796-.056 1.637-.607 2.141-.606.556-1.536.67-2.616.32-3.898-1.26-7.147-1.931-11.954-1.588a28.21 28.21 0 00-1.508-2.527c6.145-2.89 11.819-1.187 14.61-.35zM22.345 8.805c-.295-1.096-.135-2.017.45-2.594.532-.525 1.386-.721 2.174-.499.546.155 1.52.643 1.896 2.171.707 2.874 2.145 8.724-1.219 14.8a29.281 29.281 0 00-2.375-1.446c.67-5.011.187-8.277-.926-12.432zm-7.167 14.783c.116-.26.247-.6.318-.786a7.168 7.168 0 01.04-.104c.326-.783.83-1.22 1.586-1.377 1.153-.24 2.8.187 4.729 1.153a.94.94 0 00.138.07c1.054.537 2.189 1.234 3.372 2.071a.872.872 0 00.1.074l.013.007c1.717 1.224 3.533 2.738 5.344 4.485.522.54 1.022 1.081 1.5 1.62l.007.008.023.025a44.546 44.546 0 013.018 3.772.873.873 0 00.093.131c.87 1.238 1.584 2.421 2.123 3.513a.82.82 0 00.078.157c.874 1.813 1.25 3.361 1.023 4.46-.157.757-.595 1.26-1.379 1.585a.137.137 0 01-.006.003l-.098.038c-.187.072-.527.202-.786.319l-2.206.784c-1.164-3.73-4.412-7.794-6.348-9.988a.88.88 0 00-1.318 1.163c3.078 3.49 5.227 6.865 6.01 9.414l-3.776 1.342c-1.444-2.846-3.892-6.122-6.973-9.314a.796.796 0 00-.023-.023c-3.194-3.079-6.471-5.526-9.32-6.97l1.343-3.77c2.661.82 6.284 3.165 9.89 6.422a.879.879 0 001.177-1.304c-3.801-3.435-7.552-5.851-10.477-6.775l.785-2.206zm5.862 26.69c-1.382-2.027-3.136-4.157-5.107-6.2a.785.785 0 00-.022-.022c-2.043-1.97-4.175-3.722-6.202-5.103l2.157-6.06c2.624 1.37 5.734 3.71 8.683 6.551 2.841 2.947 5.184 6.055 6.555 8.678l-6.064 2.156zm-2.938 1.044l-3.117 1.107a51.81 51.81 0 00-3.476-3.972 51.813 51.813 0 00-3.952-3.453l1.097-3.087.445-1.25c1.828 1.28 3.739 2.869 5.58 4.644 1.776 1.84 3.365 3.75 4.646 5.576l-1.223.435zM7.7 55.023c-1.196.423-2.145.392-2.538-.083a.88.88 0 00-.118-.117c-.475-.391-.505-1.339-.08-2.534l1.97-5.534a50.48 50.48 0 013.344 2.957 50.51 50.51 0 012.957 3.342L7.7 55.022z" stroke="url(#paint1_linear)" stroke-width=".3" mask="url(#a)"/><path d="M48.862 12.985h0c-.62-.253-.725-.903-.766-1.173l-.473-2.564 1.24 3.737zm0 0c.142.057.28.081.411.081.447 0 .81-.275.985-.407l.004-.003h0m-1.4.329l1.4-.33m0 0l2.053-1.58a.375.375 0 01.08-.03.405.405 0 01.084-.014l2.575.343h0m-4.791 1.282l4.791-1.282m0 0h.007c.27.034.946.12 1.363-.412.413-.526.18-1.146.083-1.4l-.876-2.458s0 0 0 0a1.066 1.066 0 01-.042-.145l1.127-2.451c.123-.247.415-.845.06-1.406h0m-1.722 8.272l1.723-8.272m0 0c-.358-.568-1.028-.555-1.296-.55h-.004l-2.69.053-1.93-1.87h0m5.92 2.367L50.857.734m0 0l-.003-.003c-.177-.17-.677-.653-1.348-.474h0m1.351.477L49.506.257m0 0c-.67.18-.864.847-.932 1.083l-.001.004h0m.933-1.087l-.933 1.087m0 0v.002m0-.002v.002m0 0l-.001.002h0l-.734 2.581-2.36 1.301h0l-.006.003c-.233.13-.816.452-.842 1.122h0c-.026.664.527 1.036.757 1.189l2.2 1.553c.007.024.02.07.035.151l.95-7.902zm.29 4.197h0c.27-.151.444-.315.562-.489.117-.173.177-.351.226-.525 0 0 0 0 0 0l.514-1.809 1.292 1.253h0l.052.05s0 0 0 0c.127.126.266.25.45.342.187.093.415.15.721.15h.028l1.922-.037-.79 1.718h0c-.277.607-.147 1.148-.007 1.545h0l.578 1.623-1.677-.223s0 0 0 0a2.26 2.26 0 00-1.576.418l-1.346 1.037-.313-1.694h0c-.07-.38-.228-.946-.778-1.339h0l-1.544-1.09 1.685-.93z" fill="url(#paint2_linear)" stroke="url(#paint3_linear)" stroke-width=".15"/><path d="M34.831 9.941h0l-1.862-1.078c-.761-.438-1.05-1.377-.714-2.273 0 0 0 0 0 0l1.866-5.038s0 0 0 0c.157-.429.505-.769.951-.931h0a1.845 1.845 0 011.533.134h0l3.426 1.979s0 0 0 0c.461.264.793.731.887 1.252m-6.087 5.955L40.844 4m-6.013 5.942c.262.15.547.221.833.221.546 0 1.092-.261 1.487-.742h0l-.058-.047.058.047m-2.32.521l2.32-.52m3.767-5.435L40.844 4m.074-.013s0 0 0 0L40.844 4m.074-.013c.085.469-.035.942-.33 1.298M40.843 4a1.5 1.5 0 01-.315 1.237m.058.048h0l-.058-.048m.058.048L37.151 9.42m3.436-4.136l-.058-.048m0 0L37.151 9.42m-3.108-2.164h0l1.763-4.76 3.12 1.803-3.245 3.906h0a.34.34 0 01-.014.016l-1.631-.945a.367.367 0 01.007-.02z" fill="url(#paint4_linear)" stroke="url(#paint5_linear)" stroke-width=".15"/><path d="M56.916 24.722a.679.679 0 00.07-.207l1.17-6.863a.252.252 0 00-.03-.017.201.201 0 00-.084-.02h-5.188a.199.199 0 00-.082.02.252.252 0 00-.032.018l1.175 6.863 3 .206zm0 0a.24.24 0 01-.044.059m.044-.06l-.044.06m0 0a.045.045 0 01-.016.01m.016-.01l-.016.01m0 0h-2.813m2.813 0h-2.813m0 0h0m0 0h0m0 0h0m0 0h0m0 0h-.003m.003 0h-.003m0 0a.067.067 0 01-.015-.012m.015.011l-.015-.01m0 0a.25.25 0 01-.045-.065m.045.064l-.045-.064m0 0a.722.722 0 01-.065-.199l.065.2zm-2.728-8.266h0a1.75 1.75 0 00-.407 1.44l1.19 6.95h0c.19 1.105.993 1.86 2.008 1.86h2.813c1.016 0 1.82-.755 2.01-1.862h0l1.185-6.947a1.75 1.75 0 00-.406-1.442 2.118 2.118 0 00-1.603-.742h-5.188c-.611 0-1.21.278-1.602.743z" fill="url(#paint6_linear)" stroke="url(#paint7_linear)" stroke-width=".15"/><path d="M1.953 19.332h0a.2.2 0 00-.074.041.258.258 0 00-.025.024l2.91 6.326c.028.059.07.127.116.176a.252.252 0 00.06.05.065.065 0 00.022.008h0l2.715-.729m-5.724-5.896l5.724 5.896s0 0 0 0m-5.724-5.896h.001m-.001 0h.001m5.723 5.896s.005-.003.013-.015a.232.232 0 00.027-.067.662.662 0 00.014-.216l-.646-6.934m.592 7.232l-.592-7.232m-5.13 1.336h.001l5.011-1.344h0m-5.013 1.344l5.014-1.344m0 0a.191.191 0 01.083 0m-.083 0h.083m0 0a.27.27 0 01.034.008m-.034-.009l.034.009M5.454 27.8h0l2.714-.728c.985-.261 1.568-1.2 1.463-2.32 0 0 0 0 0 0l-.654-7.02h0a1.752 1.752 0 00-.77-1.287h0a2.112 2.112 0 00-1.736-.299s0 0 0 0l-5.009 1.342a2.115 2.115 0 00-1.357 1.13 1.75 1.75 0 00-.02 1.499s0 0 0 0l2.947 6.405h0c.388.841 1.12 1.344 1.92 1.344.166 0 .334-.021.502-.066z" fill="url(#paint8_linear)" stroke="url(#paint9_linear)" stroke-width=".15"/><path d="M39.571 59.775h0a1.687 1.687 0 01-1.257-.707l-3.754-5.296s0 0 0 0c-.622-.872-.589-1.928.103-2.62l1.83-1.829.052.052-.052-.052c.692-.691 1.748-.725 2.623-.102 0 0 0 0 0 0l5.298 3.751c.41.29.661.738.706 1.258m-5.549 5.545l5.474-5.539m-5.474 5.539a2.032 2.032 0 001.587-.582l-.053-.053m-1.534.635l1.535-.635m4.014-4.91l-.075.006m.075-.006s0 0 0 0l-.075.006m.075-.006c.05.58-.169 1.172-.583 1.586l-3.379 3.377-.053-.053m3.94-4.904a1.95 1.95 0 01-.561 1.527l-3.379 3.377m-4.99-6.474h0l3.678 5.19a.084.084 0 00.017-.013l-3.696-5.177zm0 0a.494.494 0 01-.083-.184l1.79-1.792a.456.456 0 01.189.086h0l5.19 3.675a.078.078 0 01-.013.016s0 0 0 0l-3.378 3.376-3.696-5.177z" fill="url(#paint10_linear)" stroke="url(#paint11_linear)" stroke-width=".15"/><path d="M6.118 12.267h0-.007c-.31.04-.987.127-1.412-.416m1.42.416l-1.36-.462m1.36.462l2.785-.373a.453.453 0 01.123.019.458.458 0 01.111.041l2.238 1.728h0l.005.003c.19.143.556.42 1.007.42a1.1 1.1 0 00.419-.083h0c.632-.255.742-.931.786-1.208l.51-2.78s0 0 0 0a1.247 1.247 0 01.055-.203l2.413-1.706c.256-.17.813-.546.784-1.223l-.075.003.075-.003c-.03-.682-.634-1.014-.875-1.146l-.005-.003h0l-2.59-1.429-.808-2.832h0l-.001-.004c-.07-.247-.267-.942-.952-1.126-.684-.185-1.204.319-1.389.497l-.003.003h0l-2.09 2.025H8.64l-.028.027-2.952-.057h0-.006c-.278-.006-.97-.022-1.336.556-.363.574-.066 1.176.073 1.453l1.234 2.68a1.173 1.173 0 01-.053.195h0l.07.025-.07-.025m.545 4.526L5.573 7.74m-.874 4.11l.06-.046m-.06.046s0 0 0 0l.06-.046m-.06.046c-.422-.537-.179-1.178-.078-1.44m.137 1.394c-.393-.501-.169-1.102-.067-1.368m-.07-.026h0l.07.026m-.07-.026l.952-2.67m-.952 2.67v-.001l.07.027m0 0l.882-2.696m6.294 3.91l.361-1.968h0c.084-.44.252-1.006.82-1.403 0 0 0 0 0 0l1.778-1.258-1.942-1.071h0c-.283-.157-.462-.324-.584-.503a1.8 1.8 0 01-.236-.55s0 0 0 0l-.597-2.093-1.558 1.51s0 0 0 0c-.14.138-.285.27-.48.365-.195.095-.435.15-.76.143m3.198 6.828L8.671 4.748m3.196 6.903l-1.568-1.21v-.001c-.369-.282-.913-.453-1.4-.453-.081 0-.162.005-.24.015h-.001l-1.96.262m5.169 1.387l-5.168-1.387m1.97-5.441l.002-.075m-.002.075h0l.002-.075m-.002.075l-2.216-.042m2.218-.033l-2.253-.043.035.076m0 0l.912 1.98h0c.29.633.153 1.203.006 1.619h0l-.672 1.884m-.246-5.483l-.083-.002.329 5.485m0 0l-.084.011-.028.08.083-.011.029-.08zm4.745-7.54l.061-.06.024.082-.085-.023z" fill="url(#paint12_linear)" stroke="url(#paint13_linear)" stroke-width=".15"/><path d="M58.822 45.932h0l-2.877-.712-1.514-2.528h0l-.003-.005c-.13-.22-.5-.84-1.208-.841h0-.001 0-.001 0-.001 0c-.707 0-1.08.617-1.212.837h0l-.003.005h0l-.001.002-1.496 2.499h0l-.02.031-2.878.712h0l-.006.002c-.27.067-.94.234-1.141.885-.2.646.24 1.151.444 1.382l1.89 2.274a.978.978 0 01-.002.204l-.225 2.828c-.031.28-.1.959.442 1.37l.045-.06-.045.06c.55.416 1.184.16 1.478.042l.006-.003h0l2.599-1.083a.447.447 0 01.122-.014c.056 0 .102.005.121.012l2.613 1.088h0l.003.001c.17.069.459.186.779.186.224 0 .464-.057.689-.226.546-.41.478-1.093.448-1.371l-.228-2.83a1.223 1.223 0 01-.002-.204l1.892-2.274c.204-.23.645-.734.444-1.381-.202-.651-.874-.82-1.145-.887l-.006-.001zM55.4 47.05l2.16.534-1.399 1.682c-.445.534-.459 1.122-.424 1.564h0l.162 2-1.831-.762a2.358 2.358 0 00-1.704 0h0l-1.83.763.16-2.002h0c.035-.44.02-1.029-.423-1.561 0 0 0 0 0 0l-1.399-1.685 2.156-.533c.316-.077.534-.192.7-.334a1.8 1.8 0 00.371-.477s0 0 0 0l1.116-1.864 1.075 1.794h0l.041.07s0 0 0 0c.1.17.208.335.372.477.165.142.382.257.697.334z" fill="url(#paint14_linear)" stroke="url(#paint15_linear)" stroke-width=".15"/></g><defs><linearGradient id="paint0_linear" x1="3.23" y1="3.863" x2="49.095" y2="68.561" gradientUnits="userSpaceOnUse"><stop stop-color="#EF6F2E"/><stop offset="1" stop-color="#FFC839"/></linearGradient><linearGradient id="paint1_linear" x1="3.23" y1="3.863" x2="49.095" y2="68.561" gradientUnits="userSpaceOnUse"><stop stop-color="#EF6F2E"/><stop offset="1" stop-color="#FFC839"/></linearGradient><linearGradient id="paint2_linear" x1="44.777" y1=".293" x2="55.857" y2="15.325" gradientUnits="userSpaceOnUse"><stop stop-color="#EF6F2E"/><stop offset="1" stop-color="#FFC839"/></linearGradient><linearGradient id="paint3_linear" x1="44.777" y1=".293" x2="55.857" y2="15.325" gradientUnits="userSpaceOnUse"><stop stop-color="#EF6F2E"/><stop offset="1" stop-color="#FFC839"/></linearGradient><linearGradient id="paint4_linear" x1="32.244" y1=".588" x2="40.641" y2="11.451" gradientUnits="userSpaceOnUse"><stop stop-color="#EF6F2E"/><stop offset="1" stop-color="#FFC839"/></linearGradient><linearGradient id="paint5_linear" x1="32.244" y1=".588" x2="40.641" y2="11.451" gradientUnits="userSpaceOnUse"><stop stop-color="#EF6F2E"/><stop offset="1" stop-color="#FFC839"/></linearGradient><linearGradient id="paint6_linear" x1="50.95" y1="15.781" x2="60.708" y2="27.385" gradientUnits="userSpaceOnUse"><stop stop-color="#EF6F2E"/><stop offset="1" stop-color="#FFC839"/></linearGradient><linearGradient id="paint7_linear" x1="50.95" y1="15.781" x2="60.708" y2="27.385" gradientUnits="userSpaceOnUse"><stop stop-color="#EF6F2E"/><stop offset="1" stop-color="#FFC839"/></linearGradient><linearGradient id="paint8_linear" x1=".058" y1="16.15" x2="10.571" y2="28.384" gradientUnits="userSpaceOnUse"><stop stop-color="#EF6F2E"/><stop offset="1" stop-color="#FFC839"/></linearGradient><linearGradient id="paint9_linear" x1=".058" y1="16.15" x2="10.571" y2="28.384" gradientUnits="userSpaceOnUse"><stop stop-color="#EF6F2E"/><stop offset="1" stop-color="#FFC839"/></linearGradient><linearGradient id="paint10_linear" x1="34.258" y1="48.853" x2="43.6" y2="62.088" gradientUnits="userSpaceOnUse"><stop stop-color="#EF6F2E"/><stop offset="1" stop-color="#FFC839"/></linearGradient><linearGradient id="paint11_linear" x1="34.258" y1="48.853" x2="43.6" y2="62.088" gradientUnits="userSpaceOnUse"><stop stop-color="#EF6F2E"/><stop offset="1" stop-color="#FFC839"/></linearGradient><linearGradient id="paint12_linear" x1="4.299" y1=".397" x2="16.195" y2="16.534" gradientUnits="userSpaceOnUse"><stop stop-color="#EF6F2E"/><stop offset="1" stop-color="#FFC839"/></linearGradient><linearGradient id="paint13_linear" x1="4.299" y1=".397" x2="16.195" y2="16.534" gradientUnits="userSpaceOnUse"><stop stop-color="#EF6F2E"/><stop offset="1" stop-color="#FFC839"/></linearGradient><linearGradient id="paint14_linear" x1="46.565" y1="41.921" x2="57.748" y2="58.184" gradientUnits="userSpaceOnUse"><stop stop-color="#EF6F2E"/><stop offset="1" stop-color="#FFC839"/></linearGradient><linearGradient id="paint15_linear" x1="46.565" y1="41.921" x2="57.748" y2="58.184" gradientUnits="userSpaceOnUse"><stop stop-color="#EF6F2E"/><stop offset="1" stop-color="#FFC839"/></linearGradient><clipPath id="clip0"><path fill="#fff" d="M0 0h60v60H0z"/></clipPath></defs></svg>