<svg width="16" height="16" fill="none" xmlns="http://www.w3.org/2000/svg"><path d="M8 9.97a1.97 1.97 0 100-3.941 1.97 1.97 0 000 3.94z" fill="#494C52"/><path d="M15.9 7.75c-.142-.153-3.575-3.751-7.9-3.751S.243 7.597.1 7.749a.365.365 0 000 .5C.242 8.4 3.674 12 7.998 12c4.325 0 7.759-3.6 7.902-3.753a.363.363 0 000-.498zM8 11.045a3.049 3.049 0 01-3.045-3.046A3.05 3.05 0 018 4.953a3.05 3.05 0 013.046 3.046A3.051 3.051 0 018 11.045zM5.585 5.123A3.751 3.751 0 004.227 8c0 1.157.536 2.182 1.358 2.876C3.31 10.143 1.521 8.602.882 7.999c.639-.603 2.427-2.144 4.703-2.876zm4.83 5.75a3.75 3.75 0 001.359-2.874c0-1.157-.536-2.182-1.36-2.875 2.277.733 4.064 2.271 4.704 2.875-.64.602-2.427 2.141-4.703 2.875z" fill="#494C52"/></svg>