<svg width="16" height="9" fill="none" xmlns="http://www.w3.org/2000/svg"><path d="M13.277 5.16c-.258-.314-.184-.454 0-.736.004-.003 2.139-2.848 2.359-3.813h.001c.11-.353 0-.611-.529-.611H13.36c-.445 0-.65.222-.76.47 0 0-.891 2.056-2.151 3.388-.407.385-.595.509-.817.509-.11 0-.28-.123-.28-.475V.61c0-.422-.124-.61-.493-.61h-2.75c-.28 0-.446.197-.446.38 0 .4.63.492.696 1.617v2.44c0 .535-.101.634-.324.634-.595 0-2.039-2.064-2.894-4.427C2.967.186 2.8.001 2.35.001H.6C.1 0 0 .222 0 .47c0 .438.595 2.618 2.765 5.498C4.212 7.935 6.25 9 8.103 9c1.114 0 1.25-.237 1.25-.643 0-1.879-.1-2.056.457-2.056.259 0 .704.123 1.744 1.071C12.744 8.497 12.938 9 13.604 9h1.75c.498 0 .75-.237.605-.703-.332-.982-2.58-3.001-2.682-3.136z" fill="#85878E"/></svg>