<?xml version="1.0" encoding="utf-8"?>
<!-- Generator: Adobe Illustrator 24.0.1, SVG Export Plug-In . SVG Version: 6.00 Build 0)  -->
<svg version="1.1" id="_x33_0" xmlns="http://www.w3.org/2000/svg" xmlns:xlink="http://www.w3.org/1999/xlink" x="0px" y="0px"
	 viewBox="0 0 512 512" style="enable-background:new 0 0 512 512;" xml:space="preserve">
<style type="text/css">
	.st0{fill:#131313;}
	.st1{fill:#FF3500;}
	.st2{fill:#FFFFFF;}
</style>
<path class="st0" d="M504,63.8L389.3,152h-59.8c-23.4,0-46.2,9.5-62.7,26.1l-2.7,2.7l-2.9-2.9c-16.7-16.7-38.9-25.9-62.5-25.9h-76
	L8,63.8v260l84.1,68.8l-3.1,3.1c-5.8,5.8-9,13.5-9,21.7c0,16.9,13.7,30.6,30.6,30.6c3.4,0,6.7-0.7,9.9-1.8
	c2.4,14.6,14.9,25.8,30.1,25.8c6.8,0,13.3-2.4,18.6-6.5c3.6,12.9,15.3,22.5,29.4,22.5c6.8,0,13.2-2.2,18.5-6.2
	c3.7,12.8,15.5,22.2,29.5,22.2c8.2,0,15.9-3.2,21.7-9l15.7-15.7c5.8,5.6,13.3,8.7,21.3,8.7c14,0,25.8-9.6,29.4-22.5
	c5.3,4.1,11.8,6.5,18.6,6.5c14,0,25.8-9.6,29.4-22.5c5.3,4.1,11.8,6.5,18.6,6.5c15.2,0,27.8-11.2,30.1-25.8c3.2,1.1,6.4,1.8,9.9,1.8
	c16.9,0,30.6-13.7,30.6-30.6c0-8.2-3.2-15.9-9-21.7l-11.3-11.3l52.2-44.8L504,63.8z"/>
<polygon class="st1" points="488,293 402.7,161.8 488,96.2 "/>
<polygon class="st1" points="109.3,161.8 24,293 24,96.2 "/>
<path class="st2" d="M96,417.4c0-3.9,1.5-7.6,4.3-10.3l26.7-26.7c2.8-2.8,6.4-4.3,10.3-4.3c8.1,0,14.6,6.6,14.6,14.6
	c0,3.9-1.5,7.6-4.3,10.3L121,427.7c-2.8,2.8-6.4,4.3-10.3,4.3C102.6,432,96,425.4,96,417.4z"/>
<path class="st2" d="M150.6,456c-8.1,0-14.6-6.6-14.6-14.6c0-3.9,1.5-7.6,4.3-10.3l26.7-26.7c2.8-2.8,6.4-4.3,10.3-4.3
	c8.1,0,14.6,6.6,14.6,14.6c0,3.9-1.5,7.6-4.3,10.3L161,451.7C158.2,454.5,154.5,456,150.6,456z"/>
<path class="st2" d="M209,467.7c-2.8,2.8-6.4,4.3-10.3,4.3c-8.1,0-14.6-6.6-14.6-14.6c0-3.9,1.5-7.6,4.3-10.3l26.7-26.7
	c2.8-2.8,6.4-4.3,10.3-4.3c8.1,0,14.6,6.6,14.6,14.6c0,3.9-1.5,7.6-4.3,10.3L209,467.7z"/>
<path class="st2" d="M257,483.7c-2.8,2.8-6.4,4.3-10.3,4.3c-8.1,0-14.6-6.6-14.6-14.6c0-3.9,1.5-7.6,4.3-10.3l26.7-26.7
	c2.8-2.8,6.4-4.3,10.3-4.3c8.1,0,14.6,6.6,14.6,14.6c0,3.9-1.5,7.6-4.3,10.3L257,483.7z"/>
<path class="st2" d="M305.4,472c-3.8,0-7.3-1.5-10.1-4.1c5.6-5.7,8.7-13.3,8.7-21.3c0-5.8-1.7-11.2-4.6-15.9l16.3,16.3
	c2.8,2.8,4.3,6.4,4.3,10.3C320,465.4,313.4,472,305.4,472L305.4,472z"/>
<path class="st2" d="M441.4,416c-3.9,0-7.6-1.5-10.3-4.3L325.7,306.3l-11.3,11.3l97.4,97.4c2.8,2.8,4.3,6.4,4.3,10.3
	c0,8.1-6.6,14.6-14.6,14.6c-3.9,0-7.6-1.5-10.3-4.3l-97.4-97.4l-11.3,11.3l81.4,81.4c2.8,2.8,4.3,6.4,4.3,10.3
	c0,8.1-6.6,14.6-14.6,14.6c-3.9,0-7.6-1.5-10.3-4.3l-85.4-85.4l-11.3,11.3l42.9,42.9c-4.6-2.8-10-4.6-15.9-4.6
	c-6.8,0-13.3,2.4-18.6,6.5c-3.6-12.9-15.3-22.5-29.4-22.5c-6.8,0-13.3,2.4-18.6,6.5c-3.6-12.9-15.3-22.5-29.4-22.5
	c-3.4,0-6.7,0.5-9.8,1.6c-2.4-14.5-15-25.6-30.2-25.6c-8.2,0-15.9,3.2-21.7,9l-12.2,12.2L26.9,318l97.4-150h74.4
	c19.3,0,37.5,7.5,51.2,21.2l2.9,2.9l-40.5,40.8c-7.8,7.9-17,14.1-27.2,18.5l-1,0.4c-10,4.3-16.3,14-16.1,25.1
	c0.2,14.9,12.5,27,27.4,27h18.8c19.1,0,35.7-6.5,48-18.7l7.2-7.2c9.1-9.1,21.1-14.1,33.9-14.1c6.4,0,12.7-1,18.7-2.6L451.7,391
	c2.8,2.8,4.3,6.4,4.3,10.3C456,409.4,449.4,416,441.4,416z"/>
<path class="st2" d="M338,254.6c9.1-5.2,17-12.5,23-21.5l10.1-15.1l-13.3-8.9l-10.1,15.1c-9.9,14.8-26.5,23.7-44.3,23.7
	c-17.1,0-33.2,6.7-45.3,18.7l-7.2,7.2c-9.3,9.3-21.7,14.1-36.7,14.1h-18.8c-6.2,0-11.3-5-11.4-11.7c-0.1-4.3,2.4-8,6.4-9.7l1-0.4
	c12.1-5.2,23-12.6,32.3-22l54.4-54.8c13.5-13.6,32.2-21.3,51.3-21.3h58.2l97.8,150.5l-45.1,38.6L338,254.6z"/>
</svg>
